<?xml version="1.0" standalone="no"?>
<!DOCTYPE svg PUBLIC "-//W3C//DTD SVG 20010904//EN"
 "http://www.w3.org/TR/2001/REC-SVG-20010904/DTD/svg10.dtd">
<svg version="1.0" xmlns="http://www.w3.org/2000/svg"
 width="700.000000pt" height="700.000000pt" viewBox="0 0 700.000000 700.000000"
 preserveAspectRatio="xMidYMid meet">
<metadata>
Created by potrace 1.11, written by Peter Selinger 2001-2013
</metadata>
<g transform="translate(0.000000,700.000000) scale(0.100000,-0.100000)"
fill="#000000" stroke="none">
<path d="M3210 6899 c-91 -9 -312 -36 -345 -43 -11 -2 -40 -7 -65 -11 -57 -9
-252 -56 -350 -84 -237 -69 -573 -220 -790 -356 -505 -318 -941 -775 -1211
-1270 -156 -286 -283 -635 -334 -920 -20 -114 -35 -209 -40 -265 -4 -36 -10
-74 -12 -85 -10 -38 -12 -621 -3 -710 70 -697 287 -1248 694 -1763 270 -342
651 -671 1006 -871 41 -23 82 -46 90 -51 55 -32 225 -110 340 -155 121 -48
395 -134 475 -149 17 -3 64 -12 105 -21 93 -19 177 -32 255 -40 33 -4 67 -8
75 -10 30 -8 278 -19 420 -19 123 0 322 10 395 18 11 2 49 6 85 11 36 4 72 9
80 10 8 1 40 6 70 11 30 4 57 8 60 9 3 1 32 7 65 14 226 48 460 120 622 192
24 11 46 19 50 19 14 0 284 141 382 200 358 215 707 528 965 865 42 55 80 105
85 111 17 21 118 180 158 249 226 387 370 841 417 1310 15 155 18 218 18 395
0 107 -3 229 -7 270 -3 41 -8 98 -11 125 -2 28 -6 66 -9 85 -2 19 -7 55 -11
80 -4 37 -35 199 -49 260 -115 516 -377 1023 -734 1425 -194 217 -470 458
-701 611 -203 135 -460 268 -645 334 -49 18 -97 36 -105 40 -27 13 -261 79
-355 99 -142 31 -299 56 -410 66 -38 4 -81 9 -95 12 -45 8 -543 10 -630 2z
m537 -1839 c111 -15 128 -18 218 -41 169 -43 370 -138 510 -241 96 -71 278
-256 348 -354 194 -274 289 -602 281 -972 -9 -401 -125 -715 -371 -1005 -227
-268 -520 -437 -887 -512 -10 -3 -44 -7 -75 -10 -31 -4 -63 -9 -73 -11 -26 -7
-316 -7 -383 1 -460 52 -847 274 -1112 640 -72 100 -168 289 -207 408 -27 81
-61 251 -71 347 -7 71 -7 302 0 360 34 281 114 512 249 713 266 399 685 645
1171 685 116 10 302 6 402 -8z"/>
</g>
</svg>
