<?xml version="1.0" encoding="utf-8"?>
<!-- Generator: Adobe Illustrator 23.0.1, SVG Export Plug-In . SVG Version: 6.00 Build 0)  -->
<svg version="1.1" id="Camada_1" xmlns="http://www.w3.org/2000/svg" xmlns:xlink="http://www.w3.org/1999/xlink" x="0px" y="0px"
	 width="1000px" height="1000px" viewBox="0 0 1000 1000" style="enable-background:new 0 0 1000 1000;" xml:space="preserve">
<style type="text/css">
	.st0{fill:#00315D;}
	.st1{fill:#001F3A;}
</style>
<circle class="st0" cx="221.8" cy="594.5" r="110.4"/>
<path class="st0" d="M377.5,964.2c14,0,25.4-11.4,25.4-25.4v-67.6c0-72.7-43.4-135.7-105.6-164.5c-21.6,14.6-47.6,23.1-75.6,23.1
	s-54-8.5-75.6-23.1C84.1,735.5,40.7,798.5,40.7,871.2v67.6c0,14,11.4,25.4,25.4,25.4H377.5z"/>
<path class="st1" d="M744.1,704.9H415.4c-8.2,0-14.9-6.7-14.9-14.9V543.7c0-8.2,6.7-14.9,14.9-14.9h328.8c8.2,0,14.9,6.7,14.9,14.9
	v146.4C759,698.2,752.3,704.9,744.1,704.9z"/>
<rect x="382.2" y="615.1" transform="matrix(0.7071 0.7071 -0.7071 0.7071 573.8325 -100.7607)" class="st1" width="52.6" height="54.4"/>
<path class="st0" d="M721.3,573.1H435.7c-4.4,0-7.9-3.6-7.9-7.9l0,0c0-4.4,3.6-7.9,7.9-7.9h285.6c4.4,0,7.9,3.6,7.9,7.9l0,0
	C729.2,569.6,725.7,573.1,721.3,573.1z"/>
<path class="st0" d="M632.9,608H435.3c-4.1,0-7.5-3.4-7.5-7.5v-0.8c0-4.1,3.4-7.5,7.5-7.5h197.6c4.1,0,7.5,3.4,7.5,7.5v0.8
	C640.4,604.6,637,608,632.9,608z"/>
<path class="st0" d="M675.6,642.8H435.7c-4.4,0-7.9-3.6-7.9-7.9l0,0c0-4.4,3.6-7.9,7.9-7.9h239.9c4.4,0,7.9,3.6,7.9,7.9l0,0
	C683.5,639.3,679.9,642.8,675.6,642.8z"/>
<path class="st0" d="M651.4,677.7H435.6c-4.3,0-7.8-3.5-7.8-7.8v-0.2c0-4.3,3.5-7.8,7.8-7.8h215.8c4.3,0,7.8,3.5,7.8,7.8v0.2
	C659.3,674.1,655.7,677.7,651.4,677.7z"/>
<g>
	<path class="st0" d="M261.7,283.1l-20.7-3.6l-11,62.7l-43.6-7.6l33.3-190.7l76.3,13.3c36.2,6.3,60.3,40.6,54,76.8
		c-4.1,23.4-22,42.2-44.8,49.2l28.4,77.1l-46.9-8.2L261.7,283.1z M247.6,241.3l32.7,5.7c12,2.1,23.7-6.8,26.1-20.7
		c2.4-13.9-5.5-26.2-17.5-28.3l-32.7-5.7L247.6,241.3z"/>
	<path class="st0" d="M425.1,379.6l-4.2,24l-19.1-3.3l4.1-23.7c-30.4-7.6-50.5-27.4-55.8-55.2l41.4-15.2c3.4,14.1,10,23.1,21.9,27.4
		l6.6-37.6c-1-0.7-2.3-1.2-3.3-2c-22-13.7-48-32-41.7-68.5c6.2-35.4,36.1-49,65.5-46.7l4.1-23.7l19.1,3.3l-4.2,24.3
		c22.9,7.1,40.3,23.1,46.8,48.9l-40.6,15.1c-1.9-10.2-6.4-16.6-13.8-20.7l-6.4,36.8c21.9,14.2,52.5,28.8,45.6,68.6
		C485.1,365.4,458.2,381.5,425.1,379.6z M428,250.4l5-28.6c-8.2,0.5-13.2,5-14.4,11.5C417.7,238.5,419.4,243.3,428,250.4z
		 M447.4,324.3c1.2-6.8-2.2-11.6-9.6-17.1l-5.1,29.2C442.3,335.5,446.4,330,447.4,324.3z"/>
</g>
<g>
	<path class="st0" d="M555.8,224.2c21.3-121.7,94.5-194.9,196.4-177s146,111.5,124.7,233.2c-21.3,121.7-94.5,194.9-196.4,177
		C578.5,439.6,534.5,346,555.8,224.2z M786.8,264.6c13.3-76.1-2.6-121.2-49.9-129.5c-47.3-8.3-77.6,28.8-90.9,104.9
		c-13.3,76.1,2.6,121.2,49.9,129.5C743.2,377.8,773.5,340.7,786.8,264.6z"/>
</g>
</svg>
