<?xml version="1.0" encoding="utf-8"?>
<!-- Generator: Adobe Illustrator 23.0.1, SVG Export Plug-In . SVG Version: 6.00 Build 0)  -->
<svg version="1.1" id="Camada_1" xmlns="http://www.w3.org/2000/svg" xmlns:xlink="http://www.w3.org/1999/xlink" x="0px" y="0px"
	 width="1000px" height="1000px" viewBox="0 0 1000 1000" style="enable-background:new 0 0 1000 1000;" xml:space="preserve">
<style type="text/css">
	.st0{fill:#002749;}
	.st1{fill:#00315D;}
	.st2{fill:#0D3C65;}
	.st3{fill:#254F74;}
	.st4{fill:#001F3A;}
</style>
<path class="st0" d="M943.3,613.2H62.6c-27.4,0-49.7-22.2-49.7-49.7V100.9c0-27.4,22.2-49.7,49.7-49.7h880.8
	c27.4,0,49.7,22.2,49.7,49.7v462.7C993,591,970.8,613.2,943.3,613.2z"/>
<circle class="st1" cx="321.8" cy="243.5" r="110.4"/>
<path class="st1" d="M503,613.2v-93c0-72.7-43.4-135.7-105.6-164.5c-21.6,14.6-47.6,23.1-75.6,23.1c-28,0-54-8.5-75.6-23.1
	c-62.2,28.8-105.6,91.8-105.6,164.5v93H503z"/>
<g>
	<circle class="st2" cx="305.7" cy="638.1" r="33.3"/>
	<path class="st2" d="M360.3,749.5v-28c0-21.9-13.1-40.9-31.8-49.6c-6.5,4.4-14.3,7-22.8,7c-8.4,0-16.3-2.6-22.8-7
		c-18.7,8.7-31.8,27.7-31.8,49.6v28H360.3z"/>
</g>
<g>
	<circle class="st2" cx="604.7" cy="598.4" r="33.3"/>
	<path class="st2" d="M659.3,709.8v-28c0-21.9-13.1-40.9-31.8-49.6c-6.5,4.4-14.3,7-22.8,7c-8.4,0-16.3-2.6-22.8-7
		c-18.7,8.7-31.8,27.7-31.8,49.6v28H659.3z"/>
</g>
<g>
	<circle class="st2" cx="929.7" cy="612" r="33.3"/>
	<path class="st2" d="M984.3,723.4v-28c0-21.9-13.1-40.9-31.8-49.6c-6.5,4.4-14.3,7-22.8,7c-8.4,0-16.3-2.6-22.8-7
		c-18.7,8.7-31.8,27.7-31.8,49.6v28H984.3z"/>
</g>
<g>
	<circle class="st3" cx="57.6" cy="722.4" r="33.3"/>
	<path class="st3" d="M112.2,833.8v-28c0-21.9-13.1-40.9-31.8-49.6c-6.5,4.4-14.3,7-22.8,7s-16.3-2.6-22.8-7
		C16.1,764.9,3,783.9,3,805.8v28H112.2z"/>
</g>
<g>
	<circle class="st3" cx="339.2" cy="855.2" r="33.3"/>
	<path class="st3" d="M393.8,966.6v-28c0-21.9-13.1-40.9-31.8-49.6c-6.5,4.4-14.3,7-22.8,7c-8.4,0-16.3-2.6-22.8-7
		c-18.7,8.7-31.8,27.7-31.8,49.6v28H393.8z"/>
</g>
<g>
	<circle class="st3" cx="625.8" cy="795.6" r="33.3"/>
	<path class="st3" d="M680.4,907v-28c0-21.9-13.1-40.9-31.8-49.6c-6.5,4.4-14.3,7-22.8,7c-8.4,0-16.3-2.6-22.8-7
		c-18.7,8.7-31.8,27.7-31.8,49.6v28H680.4z"/>
</g>
<g>
	<circle class="st3" cx="886.3" cy="794.4" r="33.3"/>
	<path class="st3" d="M940.9,905.8v-28c0-21.9-13.1-40.9-31.8-49.6c-6.5,4.4-14.3,7-22.8,7c-8.4,0-16.3-2.6-22.8-7
		c-18.7,8.7-31.8,27.7-31.8,49.6v28H940.9z"/>
</g>
<g>
	<circle class="st1" cx="186.6" cy="800.6" r="33.3"/>
	<path class="st1" d="M241.2,912v-28c0-21.9-13.1-40.9-31.8-49.6c-6.5,4.4-14.3,7-22.8,7s-16.3-2.6-22.8-7
		C145.1,843,132,862,132,883.9v28H241.2z"/>
</g>
<g>
	<circle class="st1" cx="473.2" cy="743.5" r="33.3"/>
	<path class="st1" d="M527.8,854.9v-28c0-21.9-13.1-40.9-31.8-49.6c-6.5,4.4-14.3,7-22.8,7c-8.4,0-16.3-2.6-22.8-7
		c-18.7,8.7-31.8,27.7-31.8,49.6v28H527.8z"/>
</g>
<g>
	<circle class="st1" cx="759.8" cy="697.6" r="33.3"/>
	<path class="st1" d="M814.4,809v-28c0-21.9-13.1-40.9-31.8-49.6c-6.5,4.4-14.3,7-22.8,7s-16.3-2.6-22.8-7
		c-18.7,8.7-31.8,27.7-31.8,49.6v28H814.4z"/>
</g>
<path class="st4" d="M844.1,353.9H515.4c-8.2,0-14.9-6.7-14.9-14.9V192.7c0-8.2,6.7-14.9,14.9-14.9h328.8c8.2,0,14.9,6.7,14.9,14.9
	v146.4C859,347.2,852.3,353.9,844.1,353.9z"/>
<rect x="482.2" y="264.1" transform="matrix(0.7071 0.7071 -0.7071 0.7071 354.9273 -274.2769)" class="st4" width="52.6" height="54.4"/>
<path class="st1" d="M821.3,222.1H535.7c-4.4,0-7.9-3.6-7.9-7.9v0c0-4.4,3.6-7.9,7.9-7.9h285.6c4.4,0,7.9,3.6,7.9,7.9v0
	C829.2,218.6,825.7,222.1,821.3,222.1z"/>
<path class="st1" d="M732.9,257H535.3c-4.1,0-7.5-3.4-7.5-7.5v-0.8c0-4.1,3.4-7.5,7.5-7.5h197.6c4.1,0,7.5,3.4,7.5,7.5v0.8
	C740.4,253.6,737,257,732.9,257z"/>
<path class="st1" d="M775.6,291.8H535.7c-4.4,0-7.9-3.6-7.9-7.9l0,0c0-4.4,3.6-7.9,7.9-7.9h239.9c4.4,0,7.9,3.6,7.9,7.9l0,0
	C783.5,288.3,779.9,291.8,775.6,291.8z"/>
<path class="st1" d="M751.4,326.7H535.6c-4.3,0-7.8-3.5-7.8-7.8v-0.2c0-4.3,3.5-7.8,7.8-7.8h215.8c4.3,0,7.8,3.5,7.8,7.8v0.2
	C759.3,323.1,755.7,326.7,751.4,326.7z"/>
</svg>
