<?xml version="1.0" encoding="utf-8"?>
<!-- Generator: Adobe Illustrator 23.0.1, SVG Export Plug-In . SVG Version: 6.00 Build 0)  -->
<svg version="1.1" xmlns="http://www.w3.org/2000/svg" xmlns:xlink="http://www.w3.org/1999/xlink" x="0px" y="0px" width="1000px"
	 height="1000px" viewBox="0 0 1000 1000" style="enable-background:new 0 0 1000 1000;" xml:space="preserve">
<style type="text/css">
	.st0{fill:#00182E;}
	.st1{fill:#001F3A;}
	.st2{fill:#002749;}
	.st3{fill:#FFFFFF;}
</style>
<g id="Camada_2">
</g>
<g id="Camada_1">
	<g>
		<circle class="st0" cx="105.2" cy="884.6" r="32.1"/>
		<path class="st0" d="M150.4,992c4.1,0,7.4-3.3,7.4-7.4V965c0-21.1-12.6-39.4-30.7-47.8c-6.3,4.2-13.8,6.7-21.9,6.7
			s-15.7-2.5-21.9-6.7c-18.1,8.4-30.7,26.7-30.7,47.8v19.6c0,4.1,3.3,7.4,7.4,7.4H150.4z"/>
	</g>
	<g>
		<circle class="st1" cx="221.2" cy="808.8" r="32.1"/>
		<path class="st1" d="M266.4,916.2c4.1,0,7.4-3.3,7.4-7.4v-19.6c0-21.1-12.6-39.4-30.7-47.8c-6.3,4.2-13.8,6.7-21.9,6.7
			c-8.1,0-15.7-2.5-21.9-6.7c-18.1,8.4-30.7,26.7-30.7,47.8v19.6c0,4.1,3.3,7.4,7.4,7.4H266.4z"/>
	</g>
	<g>
		<circle class="st0" cx="67.3" cy="212.2" r="32.1"/>
		<path class="st0" d="M112.5,319.5c4.1,0,7.4-3.3,7.4-7.4v-19.6c0-21.1-12.6-39.4-30.7-47.8c-6.3,4.2-13.8,6.7-21.9,6.7
			s-15.7-2.5-21.9-6.7c-18.1,8.4-30.7,26.7-30.7,47.8v19.6c0,4.1,3.3,7.4,7.4,7.4H112.5z"/>
	</g>
	<g>
		<circle class="st0" cx="183.3" cy="136.3" r="32.1"/>
		<path class="st0" d="M228.5,243.7c4.1,0,7.4-3.3,7.4-7.4v-19.6c0-21.1-12.6-39.4-30.7-47.8c-6.3,4.2-13.8,6.7-21.9,6.7
			s-15.7-2.5-21.9-6.7c-18.1,8.4-30.7,26.7-30.7,47.8v19.6c0,4.1,3.3,7.4,7.4,7.4H228.5z"/>
	</g>
	<g>
		<circle class="st1" cx="177.7" cy="301.4" r="32.1"/>
		<path class="st1" d="M222.9,408.7c4.1,0,7.4-3.3,7.4-7.4v-19.6c0-21.1-12.6-39.4-30.7-47.8c-6.3,4.2-13.8,6.7-21.9,6.7
			c-8.1,0-15.7-2.5-21.9-6.7c-18.1,8.4-30.7,26.7-30.7,47.8v19.6c0,4.1,3.3,7.4,7.4,7.4H222.9z"/>
	</g>
	<g>
		<circle class="st0" cx="293.7" cy="225.5" r="32.1"/>
		<path class="st0" d="M338.9,332.9c4.1,0,7.4-3.3,7.4-7.4v-19.6c0-21.1-12.6-39.4-30.7-47.8c-6.3,4.2-13.8,6.7-21.9,6.7
			c-8.1,0-15.7-2.5-21.9-6.7c-18.1,8.4-30.7,26.7-30.7,47.8v19.6c0,4.1,3.3,7.4,7.4,7.4H338.9z"/>
	</g>
	<g>
		<circle class="st2" cx="288.1" cy="383.9" r="32.1"/>
		<path class="st2" d="M333.3,491.3c4.1,0,7.4-3.3,7.4-7.4v-19.6c0-21.1-12.6-39.4-30.7-47.8c-6.3,4.2-13.8,6.7-21.9,6.7
			c-8.1,0-15.7-2.5-21.9-6.7c-18.1,8.4-30.7,26.7-30.7,47.8v19.6c0,4.1,3.3,7.4,7.4,7.4H333.3z"/>
	</g>
	<g>
		<circle class="st1" cx="404.1" cy="313.6" r="32.1"/>
		<path class="st1" d="M449.3,421c4.1,0,7.4-3.3,7.4-7.4V394c0-21.1-12.6-39.4-30.7-47.8c-6.3,4.2-13.8,6.7-21.9,6.7
			c-8.1,0-15.7-2.5-21.9-6.7c-18.1,8.4-30.7,26.7-30.7,47.8v19.6c0,4.1,3.3,7.4,7.4,7.4H449.3z"/>
	</g>
	<g>
		<circle class="st2" cx="404.1" cy="118.5" r="32.1"/>
		<path class="st2" d="M449.3,225.8c4.1,0,7.4-3.3,7.4-7.4v-19.6c0-21.1-12.6-39.4-30.7-47.8c-6.3,4.2-13.8,6.7-21.9,6.7
			c-8.1,0-15.7-2.5-21.9-6.7c-18.1,8.4-30.7,26.7-30.7,47.8v19.6c0,4.1,3.3,7.4,7.4,7.4H449.3z"/>
	</g>
	<g>
		<circle class="st0" cx="514.5" cy="206.6" r="32.1"/>
		<path class="st0" d="M559.7,313.9c4.1,0,7.4-3.3,7.4-7.4v-19.6c0-21.1-12.6-39.4-30.7-47.8c-6.3,4.2-13.8,6.7-21.9,6.7
			c-8.1,0-15.7-2.5-21.9-6.7c-18.1,8.4-30.7,26.7-30.7,47.8v19.6c0,4.1,3.3,7.4,7.4,7.4H559.7z"/>
	</g>
	<g>
		<circle class="st0" cx="602.7" cy="616" r="14.5"/>
		<path class="st0" d="M623.1,664.4c1.8,0,3.3-1.5,3.3-3.3v-8.9c0-9.5-5.7-17.8-13.8-21.5c-2.8,1.9-6.2,3-9.9,3s-7.1-1.1-9.9-3
			c-8.1,3.8-13.8,12-13.8,21.5v8.9c0,1.8,1.5,3.3,3.3,3.3H623.1z"/>
	</g>
	<g>
		<circle class="st0" cx="655" cy="581.8" r="14.5"/>
		<path class="st0" d="M675.4,630.2c1.8,0,3.3-1.5,3.3-3.3V618c0-9.5-5.7-17.8-13.8-21.5c-2.8,1.9-6.2,3-9.9,3c-3.7,0-7.1-1.1-9.9-3
			c-8.1,3.8-13.8,12-13.8,21.5v8.9c0,1.8,1.5,3.3,3.3,3.3H675.4z"/>
	</g>
	<g>
		<circle class="st2" cx="652.5" cy="656.2" r="14.5"/>
		<path class="st2" d="M672.9,704.6c1.8,0,3.3-1.5,3.3-3.3v-8.9c0-9.5-5.7-17.8-13.8-21.5c-2.8,1.9-6.2,3-9.9,3s-7.1-1.1-9.9-3
			c-8.1,3.8-13.8,12-13.8,21.5v8.9c0,1.8,1.5,3.3,3.3,3.3H672.9z"/>
	</g>
	<g>
		<circle class="st0" cx="704.8" cy="622" r="14.5"/>
		<path class="st0" d="M725.1,670.5c1.8,0,3.3-1.5,3.3-3.3v-8.9c0-9.5-5.7-17.8-13.8-21.5c-2.8,1.9-6.2,3-9.9,3s-7.1-1.1-9.9-3
			c-8.1,3.8-13.8,12-13.8,21.5v8.9c0,1.8,1.5,3.3,3.3,3.3H725.1z"/>
	</g>
	<g>
		<circle class="st1" cx="702.2" cy="696" r="14.5"/>
		<path class="st1" d="M722.6,744.4c1.8,0,3.3-1.5,3.3-3.3v-8.9c0-9.5-5.7-17.8-13.8-21.5c-2.8,1.9-6.2,3-9.9,3s-7.1-1.1-9.9-3
			c-8.1,3.8-13.8,12-13.8,21.5v8.9c0,1.8,1.5,3.3,3.3,3.3H722.6z"/>
	</g>
	<g>
		<circle class="st0" cx="754.5" cy="661.8" r="14.5"/>
		<path class="st0" d="M774.9,710.2c1.8,0,3.3-1.5,3.3-3.3V698c0-9.5-5.7-17.8-13.8-21.5c-2.8,1.9-6.2,3-9.9,3s-7.1-1.1-9.9-3
			c-8.1,3.8-13.8,12-13.8,21.5v8.9c0,1.8,1.5,3.3,3.3,3.3H774.9z"/>
	</g>
	<g>
		<circle class="st0" cx="754.5" cy="573.8" r="14.5"/>
		<path class="st0" d="M774.9,622.2c1.8,0,3.3-1.5,3.3-3.3V610c0-9.5-5.7-17.8-13.8-21.5c-2.8,1.9-6.2,3-9.9,3s-7.1-1.1-9.9-3
			c-8.1,3.8-13.8,12-13.8,21.5v8.9c0,1.8,1.5,3.3,3.3,3.3H774.9z"/>
	</g>
	<g>
		<circle class="st0" cx="804.3" cy="613.5" r="14.5"/>
		<path class="st0" d="M824.7,661.9c1.8,0,3.3-1.5,3.3-3.3v-8.9c0-9.5-5.7-17.8-13.8-21.5c-2.8,1.9-6.2,3-9.9,3
			c-3.7,0-7.1-1.1-9.9-3c-8.1,3.8-13.8,12-13.8,21.5v8.9c0,1.8,1.5,3.3,3.3,3.3H824.7z"/>
	</g>
	<g>
		<circle class="st0" cx="763.3" cy="744.3" r="14.5"/>
		<path class="st0" d="M783.7,792.7c1.8,0,3.3-1.5,3.3-3.3v-8.9c0-9.5-5.7-17.8-13.8-21.5c-2.8,1.9-6.2,3-9.9,3s-7.1-1.1-9.9-3
			c-8.1,3.8-13.8,12-13.8,21.5v8.9c0,1.8,1.5,3.3,3.3,3.3H783.7z"/>
	</g>
	<g>
		<circle class="st1" cx="815.6" cy="710.1" r="14.5"/>
		<path class="st1" d="M836,758.5c1.8,0,3.3-1.5,3.3-3.3v-8.9c0-9.5-5.7-17.8-13.8-21.5c-2.8,1.9-6.2,3-9.9,3s-7.1-1.1-9.9-3
			c-8.1,3.8-13.8,12-13.8,21.5v8.9c0,1.8,1.5,3.3,3.3,3.3H836z"/>
	</g>
	<g>
		<circle class="st1" cx="862.4" cy="651" r="14.5"/>
		<path class="st1" d="M882.8,699.4c1.8,0,3.3-1.5,3.3-3.3v-8.9c0-9.5-5.7-17.8-13.8-21.5c-2.8,1.9-6.2,3-9.9,3s-7.1-1.1-9.9-3
			c-8.1,3.8-13.8,12-13.8,21.5v8.9c0,1.8,1.5,3.3,3.3,3.3H882.8z"/>
	</g>
	<g>
		<circle class="st2" cx="914.8" cy="616.4" r="14.5"/>
		<path class="st2" d="M935.2,664.8c1.8,0,3.3-1.5,3.3-3.3v-8.9c0-9.5-5.7-17.8-13.8-21.5c-2.8,1.9-6.2,3-9.9,3s-7.1-1.1-9.9-3
			c-8.1,3.8-13.8,12-13.8,21.5v8.9c0,1.8,1.5,3.3,3.3,3.3H935.2z"/>
	</g>
	<g>
		<circle class="st2" cx="813.1" cy="784.5" r="14.5"/>
		<path class="st2" d="M833.4,832.9c1.8,0,3.3-1.5,3.3-3.3v-8.9c0-9.5-5.7-17.8-13.8-21.5c-2.8,1.9-6.2,3-9.9,3s-7.1-1.1-9.9-3
			c-8.1,3.8-13.8,12-13.8,21.5v8.9c0,1.8,1.5,3.3,3.3,3.3H833.4z"/>
	</g>
	<g>
		<circle class="st0" cx="865.4" cy="750.3" r="14.5"/>
		<path class="st0" d="M885.7,798.7c1.8,0,3.3-1.5,3.3-3.3v-8.9c0-9.5-5.7-17.8-13.8-21.5c-2.8,1.9-6.2,3-9.9,3s-7.1-1.1-9.9-3
			c-8.1,3.8-13.8,12-13.8,21.5v8.9c0,1.8,1.5,3.3,3.3,3.3H885.7z"/>
	</g>
	<g>
		<circle class="st0" cx="862.8" cy="824.2" r="14.5"/>
		<path class="st0" d="M883.2,872.6c1.8,0,3.3-1.5,3.3-3.3v-8.9c0-9.5-5.7-17.8-13.8-21.5c-2.8,1.9-6.2,3-9.9,3s-7.1-1.1-9.9-3
			c-8.1,3.8-13.8,12-13.8,21.5v8.9c0,1.8,1.5,3.3,3.3,3.3H883.2z"/>
	</g>
	<g>
		<circle class="st1" cx="801.5" cy="877.7" r="14.5"/>
		<path class="st1" d="M821.9,926.2c1.8,0,3.3-1.5,3.3-3.3V914c0-9.5-5.7-17.8-13.8-21.5c-2.8,1.9-6.2,3-9.9,3s-7.1-1.1-9.9-3
			c-8.1,3.8-13.8,12-13.8,21.5v8.9c0,1.8,1.5,3.3,3.3,3.3H821.9z"/>
	</g>
	<g>
		<circle class="st2" cx="915.1" cy="790" r="14.5"/>
		<path class="st2" d="M935.5,838.4c1.8,0,3.3-1.5,3.3-3.3v-8.9c0-9.5-5.7-17.8-13.8-21.5c-2.8,1.9-6.2,3-9.9,3s-7.1-1.1-9.9-3
			c-8.1,3.8-13.8,12-13.8,21.5v8.9c0,1.8,1.5,3.3,3.3,3.3H935.5z"/>
	</g>
	<g>
		<circle class="st0" cx="915.1" cy="702" r="14.5"/>
		<path class="st0" d="M935.5,750.4c1.8,0,3.3-1.5,3.3-3.3v-8.9c0-9.5-5.7-17.8-13.8-21.5c-2.8,1.9-6.2,3-9.9,3s-7.1-1.1-9.9-3
			c-8.1,3.8-13.8,12-13.8,21.5v8.9c0,1.8,1.5,3.3,3.3,3.3H935.5z"/>
	</g>
	<g>
		<circle class="st0" cx="964.9" cy="741.8" r="14.5"/>
		<path class="st0" d="M985.3,790.2c1.8,0,3.3-1.5,3.3-3.3V778c0-9.5-5.7-17.8-13.8-21.5c-2.8,1.9-6.2,3-9.9,3s-7.1-1.1-9.9-3
			c-8.1,3.8-13.8,12-13.8,21.5v8.9c0,1.8,1.5,3.3,3.3,3.3H985.3z"/>
	</g>
	<g>
		<circle class="st0" cx="551.4" cy="829" r="14.5"/>
		<path class="st0" d="M571.8,877.4c1.8,0,3.3-1.5,3.3-3.3v-8.9c0-9.5-5.7-17.8-13.8-21.5c-2.8,1.9-6.2,3-9.9,3s-7.1-1.1-9.9-3
			c-8.1,3.8-13.8,12-13.8,21.5v8.9c0,1.8,1.5,3.3,3.3,3.3H571.8z"/>
	</g>
	<g>
		<circle class="st0" cx="603.7" cy="794.8" r="14.5"/>
		<path class="st0" d="M624.1,843.2c1.8,0,3.3-1.5,3.3-3.3v-8.9c0-9.5-5.7-17.8-13.8-21.5c-2.8,1.9-6.2,3-9.9,3s-7.1-1.1-9.9-3
			c-8.1,3.8-13.8,12-13.8,21.5v8.9c0,1.8,1.5,3.3,3.3,3.3H624.1z"/>
	</g>
	<g>
		<circle class="st1" cx="601.2" cy="869.2" r="14.5"/>
		<path class="st1" d="M621.6,917.7c1.8,0,3.3-1.5,3.3-3.3v-8.9c0-9.5-5.7-17.8-13.8-21.5c-2.8,1.9-6.2,3-9.9,3s-7.1-1.1-9.9-3
			c-8.1,3.8-13.8,12-13.8,21.5v8.9c0,1.8,1.5,3.3,3.3,3.3H621.6z"/>
	</g>
	<g>
		<circle class="st0" cx="653.5" cy="835.1" r="14.5"/>
		<path class="st0" d="M673.8,883.5c1.8,0,3.3-1.5,3.3-3.3v-8.9c0-9.5-5.7-17.8-13.8-21.5c-2.8,1.9-6.2,3-9.9,3s-7.1-1.1-9.9-3
			c-8.1,3.8-13.8,12-13.8,21.5v8.9c0,1.8,1.5,3.3,3.3,3.3H673.8z"/>
	</g>
	<g>
		<circle class="st0" cx="652.3" cy="742.5" r="14.5"/>
		<path class="st0" d="M672.7,790.9c1.8,0,3.3-1.5,3.3-3.3v-8.9c0-9.5-5.7-17.8-13.8-21.5c-2.8,1.9-6.2,3-9.9,3s-7.1-1.1-9.9-3
			c-8.1,3.8-13.8,12-13.8,21.5v8.9c0,1.8,1.5,3.3,3.3,3.3H672.7z"/>
	</g>
	<g>
		<circle class="st0" cx="598.8" cy="714.6" r="14.5"/>
		<path class="st0" d="M619.2,763c1.8,0,3.3-1.5,3.3-3.3v-8.9c0-9.5-5.7-17.8-13.8-21.5c-2.8,1.9-6.2,3-9.9,3s-7.1-1.1-9.9-3
			c-8.1,3.8-13.8,12-13.8,21.5v8.9c0,1.8,1.5,3.3,3.3,3.3H619.2z"/>
	</g>
	<g>
		<circle class="st0" cx="548.6" cy="671.1" r="14.5"/>
		<path class="st0" d="M569,719.5c1.8,0,3.3-1.5,3.3-3.3v-8.9c0-9.5-5.7-17.8-13.8-21.5c-2.8,1.9-6.2,3-9.9,3s-7.1-1.1-9.9-3
			c-8.1,3.8-13.8,12-13.8,21.5v8.9c0,1.8,1.5,3.3,3.3,3.3H569z"/>
	</g>
	<g>
		<circle class="st2" cx="650.9" cy="909" r="14.5"/>
		<path class="st2" d="M671.3,957.4c1.8,0,3.3-1.5,3.3-3.3v-8.9c0-9.5-5.7-17.8-13.8-21.5c-2.8,1.9-6.2,3-9.9,3s-7.1-1.1-9.9-3
			c-8.1,3.8-13.8,12-13.8,21.5v8.9c0,1.8,1.5,3.3,3.3,3.3H671.3z"/>
	</g>
	<g>
		<circle class="st0" cx="703.2" cy="874.8" r="14.5"/>
		<path class="st0" d="M723.6,923.2c1.8,0,3.3-1.5,3.3-3.3V911c0-9.5-5.7-17.8-13.8-21.5c-2.8,1.9-6.2,3-9.9,3c-3.7,0-7.1-1.1-9.9-3
			c-8.1,3.8-13.8,12-13.8,21.5v8.9c0,1.8,1.5,3.3,3.3,3.3H723.6z"/>
	</g>
	<g>
		<circle class="st1" cx="703.2" cy="786.8" r="14.5"/>
		<path class="st1" d="M723.6,835.2c1.8,0,3.3-1.5,3.3-3.3V823c0-9.5-5.7-17.8-13.8-21.5c-2.8,1.9-6.2,3-9.9,3c-3.7,0-7.1-1.1-9.9-3
			c-8.1,3.8-13.8,12-13.8,21.5v8.9c0,1.8,1.5,3.3,3.3,3.3H723.6z"/>
	</g>
	<g>
		<circle class="st0" cx="753" cy="826.5" r="14.5"/>
		<path class="st0" d="M773.4,874.9c1.8,0,3.3-1.5,3.3-3.3v-8.9c0-9.5-5.7-17.8-13.8-21.5c-2.8,1.9-6.2,3-9.9,3s-7.1-1.1-9.9-3
			c-8.1,3.8-13.8,12-13.8,21.5v8.9c0,1.8,1.5,3.3,3.3,3.3H773.4z"/>
	</g>
	<g>
		<path class="st3" d="M16.8,704.2c0-9,6.7-15.9,15.9-15.9c5.5,0,10.4,2.7,13.1,7.1l-6,3.5c-1.4-2.4-4-3.7-7.1-3.7
			c-5.4,0-8.9,3.6-8.9,9.1s3.5,9.1,8.9,9.1c3.1,0,5.8-1.4,7.1-3.7l6,3.5c-2.6,4.3-7.5,7.1-13.1,7.1
			C23.5,720.1,16.8,713.2,16.8,704.2z"/>
		<path class="st3" d="M47.3,704.2c0-9,7.1-15.9,15.9-15.9c8.8,0,15.9,6.9,15.9,15.9c0,9-7.1,15.9-15.9,15.9
			C54.4,720.1,47.3,713.2,47.3,704.2z M72,704.2c0-5.4-3.9-9.1-8.9-9.1c-5,0-8.9,3.6-8.9,9.1s3.9,9.1,8.9,9.1
			C68.1,713.3,72,709.7,72,704.2z"/>
		<path class="st3" d="M105.2,699.4c0,5.8-4.7,10.5-10.7,10.5h-4.6v9.6h-7V689h11.6C100.5,689,105.2,693.6,105.2,699.4z M98.2,699.4
			c0-2.2-1.6-3.9-3.7-3.9h-4.6v7.8h4.6C96.6,703.4,98.2,701.7,98.2,699.4z"/>
		<path class="st3" d="M118.9,709.5h-3.3v10h-7V689h12.2c5.8,0,10.5,4.7,10.5,10.5c0,3.7-2.3,7.1-5.6,8.8l6.5,11.2h-7.5L118.9,709.5
			z M115.6,703.4h5.2c1.9,0,3.5-1.7,3.5-3.9c0-2.2-1.6-3.9-3.5-3.9h-5.2V703.4z"/>
		<path class="st3" d="M133.7,704.2c0-9,7.1-15.9,15.9-15.9c8.8,0,15.9,6.9,15.9,15.9c0,9-7.1,15.9-15.9,15.9
			C140.8,720.1,133.7,713.2,133.7,704.2z M158.5,704.2c0-5.4-3.9-9.1-8.9-9.1s-8.9,3.6-8.9,9.1s3.9,9.1,8.9,9.1
			S158.5,709.7,158.5,704.2z"/>
		<path class="st3" d="M196.4,704.2c0,8.6-6.4,15.3-14.8,15.3h-12.2V689h12.2C190,689,196.4,695.6,196.4,704.2z M189.7,704.2
			c0-5.2-3.3-8.5-8.1-8.5h-5.2v17.1h5.2C186.4,712.8,189.7,709.5,189.7,704.2z"/>
		<path class="st3" d="M199.9,709.6V689h7V709c0,2.3,1.1,4.3,4.8,4.3c3.7,0,4.8-2,4.8-4.3V689h7v20.7c0,6.5-5.1,10.5-11.8,10.5
			C205,720.1,199.9,716.2,199.9,709.6z"/>
		<path class="st3" d="M248.9,695.7h-7.8v23.8h-7v-23.8h-7.8V689h22.7V695.7z"/>
		<path class="st3" d="M248.9,704.2c0-9,7.1-15.9,15.9-15.9c8.8,0,15.9,6.9,15.9,15.9c0,9-7.1,15.9-15.9,15.9
			C256.1,720.1,248.9,713.2,248.9,704.2z M273.7,704.2c0-5.4-3.9-9.1-8.9-9.1c-5,0-8.9,3.6-8.9,9.1s3.9,9.1,8.9,9.1
			C269.8,713.3,273.7,709.7,273.7,704.2z"/>
		<path class="st3" d="M294.9,709.5h-3.3v10h-7V689h12.2c5.8,0,10.5,4.7,10.5,10.5c0,3.7-2.3,7.1-5.6,8.8l6.5,11.2h-7.5L294.9,709.5
			z M291.6,703.4h5.2c1.9,0,3.5-1.7,3.5-3.9c0-2.2-1.6-3.9-3.5-3.9h-5.2V703.4z"/>
		<path class="st3" d="M330.6,712.8v6.7h-19.2V689h19v6.7h-12v5.1h10.9v6.6h-10.9v5.4H330.6z"/>
		<path class="st3" d="M333,712.6l6-3.5c1.1,2.5,3,4.2,6.4,4.2c3.3,0,4.1-1.3,4.1-2.5c0-1.9-1.7-2.6-6.3-3.9c-4.5-1.3-9-3.4-9-9.3
			c0-5.9,5-9.3,10.2-9.3c5,0,8.9,2.4,11.2,6.9l-5.9,3.4c-1-2.2-2.5-3.5-5.3-3.5c-2.2,0-3.3,1.1-3.3,2.3c0,1.4,0.7,2.4,5.5,3.8
			c4.6,1.4,9.8,3,9.8,9.5c0,5.9-4.7,9.4-11.3,9.4C338.8,720.1,334.7,717,333,712.6z"/>
	</g>
	<g>
		<path class="st3" d="M671.7,500.6h-11.3l-1.5,4.8h-7.6l10.4-30.5h8.9l10.4,30.5h-7.6L671.7,500.6z M669.6,494l-3.6-11.2l-3.6,11.2
			H669.6z"/>
		<path class="st3" d="M690.4,481.6v5.9h11.3v6.7h-11.3v11.2h-7v-30.5H702v6.7H690.4z"/>
		<path class="st3" d="M713.1,474.8v30.5h-7v-30.5H713.1z"/>
		<path class="st3" d="M736.2,498.6v6.7h-17.9v-30.5h7v23.8H736.2z"/>
		<path class="st3" d="M746.2,474.8v30.5h-7v-30.5H746.2z"/>
		<path class="st3" d="M769.3,500.6H758l-1.5,4.8h-7.6l10.4-30.5h8.9l10.4,30.5h-7.6L769.3,500.6z M767.2,494l-3.6-11.2l-3.6,11.2
			H767.2z"/>
		<path class="st3" d="M808.1,490.1c0,8.6-6.4,15.3-14.8,15.3h-12.2v-30.5h12.2C801.7,474.8,808.1,481.5,808.1,490.1z M801.4,490.1
			c0-5.2-3.3-8.5-8.1-8.5h-5.2v17.1h5.2C798.1,498.6,801.4,495.3,801.4,490.1z"/>
		<path class="st3" d="M810.7,490.1c0-9,7.1-15.9,15.9-15.9c8.8,0,15.9,6.9,15.9,15.9c0,9-7.1,15.9-15.9,15.9
			C817.8,506,810.7,499.1,810.7,490.1z M835.5,490.1c0-5.4-3.9-9.1-8.9-9.1c-5,0-8.9,3.6-8.9,9.1s3.9,9.1,8.9,9.1
			C831.6,499.2,835.5,495.6,835.5,490.1z"/>
		<path class="st3" d="M843.8,498.4l6-3.5c1.1,2.5,3,4.2,6.4,4.2c3.3,0,4.1-1.3,4.1-2.5c0-1.9-1.7-2.6-6.3-3.9c-4.5-1.3-9-3.4-9-9.3
			c0-5.9,5-9.3,10.2-9.3c5,0,8.9,2.4,11.2,6.9l-5.9,3.4c-1-2.2-2.5-3.5-5.3-3.5c-2.2,0-3.3,1.1-3.3,2.3c0,1.4,0.7,2.4,5.5,3.8
			c4.6,1.4,9.8,3,9.8,9.5c0,5.9-4.7,9.4-11.3,9.4C849.6,506,845.5,502.9,843.8,498.4z"/>
	</g>
	<g>
		<path class="st3" d="M183.1,22.5c0,5.8-4.7,10.5-10.7,10.5h-4.6v9.6h-7V12h11.6C178.4,12,183.1,16.7,183.1,22.5z M176.1,22.5
			c0-2.2-1.6-3.9-3.7-3.9h-4.6v7.8h4.6C174.5,26.4,176.1,24.7,176.1,22.5z"/>
		<path class="st3" d="M196.9,32.5h-3.3v10h-7V12h12.2c5.8,0,10.5,4.7,10.5,10.5c0,3.7-2.3,7.1-5.6,8.8l6.5,11.2h-7.5L196.9,32.5z
			 M193.6,26.4h5.2c1.9,0,3.5-1.7,3.5-3.9c0-2.2-1.6-3.9-3.5-3.9h-5.2V26.4z"/>
		<path class="st3" d="M211.6,27.3c0-9,7.1-15.9,15.9-15.9c8.8,0,15.9,6.9,15.9,15.9c0,9-7.1,15.9-15.9,15.9
			C218.8,43.2,211.6,36.3,211.6,27.3z M236.4,27.3c0-5.4-3.9-9.1-8.9-9.1c-5,0-8.9,3.6-8.9,9.1s3.9,9.1,8.9,9.1
			C232.5,36.4,236.4,32.7,236.4,27.3z"/>
		<path class="st3" d="M274.3,27.3c0,8.6-6.4,15.3-14.8,15.3h-12.2V12h12.2C267.9,12,274.3,18.7,274.3,27.3z M267.6,27.3
			c0-5.2-3.3-8.5-8.1-8.5h-5.2v17.1h5.2C264.3,35.8,267.6,32.5,267.6,27.3z"/>
		<path class="st3" d="M277.8,32.7V12h7v20.1c0,2.3,1.1,4.3,4.8,4.3c3.7,0,4.8-2,4.8-4.3V12h7v20.7c0,6.5-5.1,10.5-11.8,10.5
			C282.9,43.2,277.8,39.2,277.8,32.7z"/>
		<path class="st3" d="M326.9,18.7H319v23.8h-7V18.7h-7.8V12h22.7V18.7z"/>
		<path class="st3" d="M326.9,27.3c0-9,7.1-15.9,15.9-15.9c8.8,0,15.9,6.9,15.9,15.9c0,9-7.1,15.9-15.9,15.9
			C334,43.2,326.9,36.3,326.9,27.3z M351.6,27.3c0-5.4-3.9-9.1-8.9-9.1c-5,0-8.9,3.6-8.9,9.1s3.9,9.1,8.9,9.1
			C347.7,36.4,351.6,32.7,351.6,27.3z"/>
		<path class="st3" d="M372.8,32.5h-3.3v10h-7V12h12.2c5.8,0,10.5,4.7,10.5,10.5c0,3.7-2.3,7.1-5.6,8.8l6.5,11.2h-7.5L372.8,32.5z
			 M369.5,26.4h5.2c1.9,0,3.5-1.7,3.5-3.9c0-2.2-1.6-3.9-3.5-3.9h-5.2V26.4z"/>
		<path class="st3" d="M408.5,35.8v6.7h-19.2V12h19v6.7h-12v5.1h10.9v6.6h-10.9v5.4H408.5z"/>
		<path class="st3" d="M410.9,35.6l6-3.5c1.1,2.5,3,4.2,6.4,4.2c3.3,0,4.1-1.3,4.1-2.5c0-1.9-1.7-2.6-6.3-3.9c-4.5-1.3-9-3.4-9-9.3
			c0-5.9,5-9.3,10.2-9.3c5,0,8.9,2.4,11.2,6.9l-5.9,3.4c-1-2.2-2.5-3.5-5.3-3.5c-2.2,0-3.3,1.1-3.3,2.3c0,1.4,0.7,2.4,5.5,3.8
			c4.6,1.4,9.8,3,9.8,9.5c0,5.9-4.7,9.4-11.3,9.4C416.7,43.2,412.6,40.1,410.9,35.6z"/>
	</g>
</g>
</svg>
