<?xml version="1.0" encoding="utf-8"?>
<!-- Generator: Adobe Illustrator 23.0.1, SVG Export Plug-In . SVG Version: 6.00 Build 0)  -->
<svg version="1.1" id="Camada_1" xmlns="http://www.w3.org/2000/svg" xmlns:xlink="http://www.w3.org/1999/xlink" x="0px" y="0px"
	 width="1000px" height="689px" viewBox="0 0 1000 689" style="enable-background:new 0 0 1000 689;" xml:space="preserve">
<style type="text/css">
	.st0{fill:#FFFFFF;}
	.st1{fill:#28B5FD;}
	.st2{fill:#00486F;}
	.st3{fill:#124365;}
</style>
<g>
	<path class="st0" d="M84.4,10h6l13.2,34.8h-7l-3.2-8.7H81.3l-3.2,8.7h-7L84.4,10z M92.2,31.3l-4.8-13.7l-5,13.7H92.2z"/>
	<path class="st0" d="M107.5,44.8V10h23.4v5.9h-16.6v9h13.8v5.5h-13.8v14.4H107.5z"/>
	<path class="st0" d="M135.6,44.8V10h6.8v34.8H135.6z"/>
	<path class="st0" d="M149.7,44.8V10h6.8v28.9h17.8v5.9H149.7z"/>
	<path class="st0" d="M178.3,44.8V10h6.8v34.8H178.3z"/>
	<path class="st0" d="M202.2,10h6l13.2,34.8h-7l-3.2-8.7h-12.2l-3.2,8.7h-7L202.2,10z M210,31.3l-4.8-13.7l-5,13.7H210z"/>
	<path class="st0" d="M225.3,44.8V10h12.7c2.8,0,5.3,0.5,7.5,1.4c2.1,0.9,3.9,2.2,5.4,3.7c1.4,1.6,2.5,3.4,3.2,5.5
		c0.7,2.1,1.1,4.4,1.1,6.7c0,2.6-0.4,5-1.2,7.2c-0.8,2.1-2,4-3.5,5.5c-1.5,1.5-3.3,2.7-5.4,3.5c-2.1,0.8-4.5,1.3-7.1,1.3H225.3z
		 M248.3,27.3c0-1.7-0.2-3.2-0.7-4.6c-0.5-1.4-1.1-2.6-2-3.6c-0.9-1-2-1.8-3.3-2.4c-1.3-0.6-2.8-0.8-4.4-0.8H232v23h5.9
		c1.7,0,3.1-0.3,4.4-0.9c1.3-0.6,2.4-1.4,3.2-2.4c0.9-1,1.5-2.2,2-3.7C248,30.5,248.3,29,248.3,27.3z"/>
	<path class="st0" d="M275.3,45c-2.6,0-4.9-0.5-6.9-1.5c-2.1-1-3.9-2.3-5.3-4c-1.5-1.7-2.6-3.5-3.5-5.7c-0.8-2.1-1.2-4.3-1.2-6.5
		c0-2.3,0.4-4.5,1.3-6.7c0.9-2.1,2.1-4,3.6-5.6c1.5-1.6,3.3-2.9,5.4-3.9c2.1-1,4.4-1.4,6.8-1.4c2.5,0,4.8,0.5,6.9,1.5
		c2.1,1,3.8,2.4,5.3,4c1.5,1.7,2.6,3.6,3.4,5.7c0.8,2.1,1.2,4.3,1.2,6.5c0,2.3-0.4,4.5-1.3,6.6c-0.9,2.1-2,4-3.5,5.6
		c-1.5,1.6-3.3,2.9-5.4,3.9C280,44.5,277.7,45,275.3,45z M265.1,27.4c0,1.5,0.2,3,0.7,4.4c0.5,1.4,1.1,2.6,2,3.7
		c0.9,1.1,1.9,1.9,3.2,2.6c1.3,0.7,2.7,1,4.3,1c1.6,0,3.1-0.3,4.3-1c1.3-0.7,2.3-1.6,3.2-2.7c0.9-1.1,1.5-2.4,2-3.8
		c0.4-1.4,0.7-2.8,0.7-4.2c0-1.5-0.2-3-0.7-4.4c-0.5-1.4-1.1-2.6-2-3.7c-0.9-1.1-1.9-1.9-3.2-2.6c-1.3-0.6-2.7-1-4.2-1
		c-1.6,0-3.1,0.3-4.4,1c-1.3,0.7-2.3,1.6-3.2,2.6c-0.9,1.1-1.5,2.3-1.9,3.7C265.4,24.5,265.1,25.9,265.1,27.4z"/>
</g>
<g>
	<g>
		<path class="st1" d="M346,27.1c0-2.1,0.4-4.2,1.2-6.3c0.8-2.1,1.9-3.9,3.4-5.6c1.5-1.6,3.3-3,5.4-4c2.1-1,4.5-1.5,7.3-1.5
			c3.2,0,6,0.7,8.3,2.1c2.3,1.4,4.1,3.2,5.2,5.5l-5.2,3.6c-0.5-1-1-1.8-1.7-2.5c-0.7-0.7-1.4-1.2-2.1-1.6c-0.8-0.4-1.5-0.7-2.4-0.9
			c-0.8-0.2-1.6-0.3-2.4-0.3c-1.7,0-3.2,0.3-4.4,1c-1.3,0.7-2.3,1.6-3.1,2.7c-0.8,1.1-1.5,2.3-1.9,3.7c-0.4,1.4-0.6,2.8-0.6,4.1
			c0,1.5,0.2,3,0.7,4.4c0.5,1.4,1.2,2.7,2.1,3.8c0.9,1.1,2,1.9,3.2,2.6c1.3,0.7,2.6,1,4.1,1c0.8,0,1.6-0.1,2.5-0.3
			c0.8-0.2,1.7-0.5,2.4-0.9c0.8-0.4,1.5-1,2.1-1.6c0.7-0.7,1.2-1.5,1.6-2.4l5.5,3.2c-0.6,1.3-1.3,2.5-2.4,3.5c-1,1-2.2,1.8-3.5,2.5
			c-1.3,0.7-2.7,1.2-4.1,1.6s-2.9,0.5-4.3,0.5c-2.5,0-4.8-0.5-6.8-1.6c-2.1-1-3.8-2.4-5.3-4.1c-1.5-1.7-2.6-3.6-3.5-5.7
			C346.5,31.5,346,29.3,346,27.1z"/>
		<path class="st1" d="M396.3,45c-2.6,0-4.9-0.5-6.9-1.5c-2.1-1-3.9-2.3-5.3-4c-1.5-1.7-2.6-3.5-3.5-5.7c-0.8-2.1-1.2-4.3-1.2-6.5
			c0-2.3,0.4-4.5,1.3-6.7c0.9-2.1,2.1-4,3.6-5.6c1.5-1.6,3.3-2.9,5.4-3.9c2.1-1,4.4-1.4,6.8-1.4c2.5,0,4.8,0.5,6.9,1.5
			c2.1,1,3.8,2.4,5.3,4c1.5,1.7,2.6,3.6,3.4,5.7c0.8,2.1,1.2,4.3,1.2,6.5c0,2.3-0.4,4.5-1.3,6.6c-0.9,2.1-2,4-3.5,5.6
			c-1.5,1.6-3.3,2.9-5.4,3.9C401,44.5,398.8,45,396.3,45z M386.2,27.4c0,1.5,0.2,3,0.7,4.4c0.5,1.4,1.1,2.6,2,3.7
			c0.9,1.1,1.9,1.9,3.2,2.6c1.3,0.7,2.7,1,4.3,1c1.6,0,3.1-0.3,4.3-1c1.3-0.7,2.3-1.6,3.2-2.7c0.9-1.1,1.5-2.4,2-3.8
			c0.4-1.4,0.7-2.8,0.7-4.2c0-1.5-0.2-3-0.7-4.4c-0.5-1.4-1.1-2.6-2-3.7c-0.9-1.1-1.9-1.9-3.2-2.6c-1.3-0.6-2.7-1-4.2-1
			c-1.6,0-3.1,0.3-4.4,1c-1.3,0.7-2.3,1.6-3.2,2.6c-0.9,1.1-1.5,2.3-1.9,3.7C386.4,24.5,386.2,25.9,386.2,27.4z"/>
		<path class="st1" d="M418.5,44.8V10h14.8c1.6,0,3.1,0.3,4.4,1c1.4,0.7,2.5,1.6,3.5,2.6c1,1.1,1.7,2.3,2.3,3.7
			c0.6,1.4,0.8,2.8,0.8,4.2c0,1.5-0.3,2.9-0.8,4.3c-0.5,1.4-1.3,2.6-2.2,3.7c-0.9,1.1-2.1,1.9-3.4,2.6c-1.3,0.7-2.8,1-4.4,1h-8.2
			v11.7H418.5z M425.3,27.2h7.8c1.2,0,2.3-0.5,3.1-1.5c0.8-1,1.3-2.4,1.3-4.1c0-0.9-0.1-1.7-0.4-2.4c-0.3-0.7-0.6-1.3-1-1.8
			c-0.4-0.5-0.9-0.9-1.5-1.1c-0.6-0.2-1.2-0.4-1.7-0.4h-7.6V27.2z"/>
		<path class="st1" d="M449.1,44.8V10h15.4c1.6,0,3.1,0.3,4.4,1c1.4,0.7,2.5,1.6,3.5,2.6c1,1.1,1.7,2.3,2.3,3.7
			c0.6,1.4,0.8,2.8,0.8,4.2c0,2.3-0.6,4.3-1.7,6.2c-1.1,1.8-2.7,3.2-4.6,4l7.9,13.1h-7.6l-7.1-11.7h-6.7v11.7H449.1z M455.8,27.2
			h8.5c0.6,0,1.2-0.1,1.7-0.4c0.5-0.3,1-0.7,1.4-1.2c0.4-0.5,0.7-1.1,0.9-1.8c0.2-0.7,0.3-1.4,0.3-2.2c0-0.8-0.1-1.6-0.4-2.3
			c-0.3-0.7-0.6-1.3-1.1-1.8c-0.4-0.5-0.9-0.9-1.5-1.2c-0.6-0.3-1.2-0.4-1.7-0.4h-8.2V27.2z"/>
		<path class="st1" d="M496.5,45c-2.6,0-4.9-0.5-6.9-1.5c-2.1-1-3.9-2.3-5.3-4c-1.5-1.7-2.6-3.5-3.5-5.7c-0.8-2.1-1.2-4.3-1.2-6.5
			c0-2.3,0.4-4.5,1.3-6.7c0.9-2.1,2.1-4,3.6-5.6c1.5-1.6,3.3-2.9,5.4-3.9c2.1-1,4.4-1.4,6.8-1.4c2.5,0,4.8,0.5,6.9,1.5
			c2.1,1,3.9,2.4,5.3,4c1.5,1.7,2.6,3.6,3.4,5.7c0.8,2.1,1.2,4.3,1.2,6.5c0,2.3-0.4,4.5-1.3,6.6c-0.9,2.1-2,4-3.5,5.6
			c-1.5,1.6-3.3,2.9-5.4,3.9C501.3,44.5,499,45,496.5,45z M486.4,27.4c0,1.5,0.2,3,0.7,4.4c0.5,1.4,1.1,2.6,2,3.7
			c0.9,1.1,1.9,1.9,3.2,2.6c1.3,0.7,2.7,1,4.3,1c1.6,0,3.1-0.3,4.3-1c1.3-0.7,2.3-1.6,3.2-2.7c0.9-1.1,1.5-2.4,2-3.8
			c0.4-1.4,0.7-2.8,0.7-4.2c0-1.5-0.2-3-0.7-4.4c-0.5-1.4-1.1-2.6-2-3.7c-0.9-1.1-1.9-1.9-3.2-2.6c-1.3-0.6-2.7-1-4.2-1
			c-1.6,0-3.1,0.3-4.4,1c-1.3,0.7-2.3,1.6-3.2,2.6c-0.9,1.1-1.5,2.3-1.9,3.7C486.7,24.5,486.4,25.9,486.4,27.4z"/>
		<path class="st1" d="M518.8,44.8V10h12.7c2.8,0,5.3,0.5,7.5,1.4c2.1,0.9,3.9,2.2,5.4,3.7c1.4,1.6,2.5,3.4,3.2,5.5
			c0.7,2.1,1.1,4.4,1.1,6.7c0,2.6-0.4,5-1.2,7.2c-0.8,2.1-2,4-3.5,5.5c-1.5,1.5-3.3,2.7-5.4,3.5c-2.1,0.8-4.5,1.3-7.1,1.3H518.8z
			 M541.8,27.3c0-1.7-0.2-3.2-0.7-4.6c-0.5-1.4-1.1-2.6-2-3.6c-0.9-1-2-1.8-3.3-2.4c-1.3-0.6-2.8-0.8-4.4-0.8h-5.9v23h5.9
			c1.7,0,3.1-0.3,4.4-0.9c1.3-0.6,2.4-1.4,3.2-2.4c0.9-1,1.5-2.2,2-3.7C541.5,30.5,541.8,29,541.8,27.3z"/>
		<path class="st1" d="M568.6,39c1.6,0,3-0.3,4-1c1.1-0.7,2-1.5,2.6-2.6c0.7-1,1.1-2.2,1.4-3.6c0.3-1.4,0.4-2.8,0.4-4.2V10h6.7v17.8
			c0,2.4-0.3,4.6-0.9,6.7c-0.6,2.1-1.5,3.9-2.7,5.5c-1.2,1.6-2.8,2.8-4.7,3.7c-1.9,0.9-4.2,1.4-6.9,1.4c-2.8,0-5.1-0.5-7.1-1.4
			c-1.9-1-3.5-2.2-4.7-3.8c-1.2-1.6-2.1-3.4-2.6-5.5c-0.5-2.1-0.8-4.3-0.8-6.5V10h6.8v17.8c0,1.5,0.1,2.9,0.4,4.2
			c0.3,1.4,0.8,2.6,1.4,3.6c0.7,1,1.5,1.9,2.6,2.5C565.7,38.7,567,39,568.6,39z"/>
		<path class="st1" d="M616.7,15.9h-11.1v28.9h-6.7V15.9h-11.1V10h29V15.9z"/>
		<path class="st1" d="M634.3,45c-2.6,0-4.9-0.5-6.9-1.5c-2.1-1-3.9-2.3-5.3-4c-1.5-1.7-2.6-3.5-3.5-5.7c-0.8-2.1-1.2-4.3-1.2-6.5
			c0-2.3,0.4-4.5,1.3-6.7c0.9-2.1,2.1-4,3.6-5.6c1.5-1.6,3.3-2.9,5.4-3.9c2.1-1,4.4-1.4,6.8-1.4c2.5,0,4.8,0.5,6.9,1.5
			c2.1,1,3.9,2.4,5.3,4c1.5,1.7,2.6,3.6,3.4,5.7c0.8,2.1,1.2,4.3,1.2,6.5c0,2.3-0.4,4.5-1.3,6.6c-0.9,2.1-2,4-3.5,5.6
			c-1.5,1.6-3.3,2.9-5.4,3.9C639,44.5,636.7,45,634.3,45z M624.2,27.4c0,1.5,0.2,3,0.7,4.4c0.5,1.4,1.1,2.6,2,3.7
			c0.9,1.1,1.9,1.9,3.2,2.6c1.3,0.7,2.7,1,4.3,1c1.6,0,3.1-0.3,4.3-1c1.3-0.7,2.3-1.6,3.2-2.7c0.9-1.1,1.5-2.4,2-3.8
			c0.4-1.4,0.7-2.8,0.7-4.2c0-1.5-0.2-3-0.7-4.4c-0.5-1.4-1.1-2.6-2-3.7c-0.9-1.1-1.9-1.9-3.2-2.6c-1.3-0.6-2.7-1-4.2-1
			c-1.6,0-3.1,0.3-4.4,1c-1.3,0.7-2.3,1.6-3.2,2.6c-0.9,1.1-1.5,2.3-1.9,3.7C624.4,24.5,624.2,25.9,624.2,27.4z"/>
		<path class="st1" d="M656.5,44.8V10h15.4c1.6,0,3.1,0.3,4.4,1c1.4,0.7,2.5,1.6,3.5,2.6c1,1.1,1.7,2.3,2.3,3.7
			c0.6,1.4,0.8,2.8,0.8,4.2c0,2.3-0.6,4.3-1.7,6.2c-1.1,1.8-2.7,3.2-4.6,4l7.9,13.1H677l-7.1-11.7h-6.7v11.7H656.5z M663.2,27.2h8.5
			c0.6,0,1.2-0.1,1.7-0.4c0.5-0.3,1-0.7,1.4-1.2c0.4-0.5,0.7-1.1,0.9-1.8c0.2-0.7,0.3-1.4,0.3-2.2c0-0.8-0.1-1.6-0.4-2.3
			c-0.3-0.7-0.6-1.3-1.1-1.8c-0.4-0.5-0.9-0.9-1.5-1.2c-0.6-0.3-1.2-0.4-1.7-0.4h-8.2V27.2z"/>
	</g>
</g>
<g>
	<g>
		<path class="st2" d="M723.5,44.8V10h14.8c1.6,0,3.1,0.3,4.4,1c1.4,0.7,2.5,1.6,3.5,2.6c1,1.1,1.7,2.3,2.3,3.7
			c0.6,1.4,0.8,2.8,0.8,4.2c0,1.5-0.3,2.9-0.8,4.3c-0.5,1.4-1.3,2.6-2.2,3.7c-0.9,1.1-2.1,1.9-3.4,2.6c-1.3,0.7-2.8,1-4.4,1h-8.2
			v11.7H723.5z M730.2,27.2h7.8c1.2,0,2.3-0.5,3.1-1.5c0.8-1,1.3-2.4,1.3-4.1c0-0.9-0.1-1.7-0.4-2.4c-0.3-0.7-0.6-1.3-1-1.8
			c-0.4-0.5-0.9-0.9-1.5-1.1c-0.6-0.2-1.2-0.4-1.7-0.4h-7.6V27.2z"/>
		<path class="st2" d="M754,44.8V10h15.4c1.6,0,3.1,0.3,4.4,1c1.4,0.7,2.5,1.6,3.5,2.6c1,1.1,1.7,2.3,2.3,3.7
			c0.6,1.4,0.8,2.8,0.8,4.2c0,2.3-0.6,4.3-1.7,6.2c-1.1,1.8-2.7,3.2-4.6,4l7.9,13.1h-7.6l-7.1-11.7h-6.7v11.7H754z M760.8,27.2h8.5
			c0.6,0,1.2-0.1,1.7-0.4c0.5-0.3,1-0.7,1.4-1.2c0.4-0.5,0.7-1.1,0.9-1.8c0.2-0.7,0.3-1.4,0.3-2.2c0-0.8-0.1-1.6-0.4-2.3
			c-0.3-0.7-0.6-1.3-1.1-1.8c-0.4-0.5-0.9-0.9-1.5-1.2c-0.6-0.3-1.2-0.4-1.7-0.4h-8.2V27.2z"/>
		<path class="st2" d="M801.6,45c-2.6,0-4.9-0.5-6.9-1.5c-2.1-1-3.9-2.3-5.4-4c-1.5-1.6-2.7-3.5-3.5-5.7c-0.8-2.1-1.2-4.3-1.3-6.5
			c0-2.3,0.4-4.5,1.3-6.7c0.9-2.1,2-4,3.6-5.7s3.3-2.9,5.4-3.9c2.1-1,4.4-1.5,6.8-1.5c2.5,0,4.8,0.5,6.9,1.5c2.1,1,3.9,2.4,5.3,4
			c1.5,1.7,2.6,3.6,3.5,5.7c0.8,2.1,1.2,4.3,1.3,6.5c0,2.3-0.4,4.5-1.2,6.7s-2,4-3.5,5.6c-1.5,1.6-3.3,2.9-5.4,3.9S804,45,801.6,45z
			 M791.4,27.4c0,1.5,0.2,3,0.7,4.4c0.5,1.4,1.1,2.6,2,3.7c0.9,1.1,1.9,1.9,3.2,2.6c1.3,0.6,2.7,1,4.3,1c1.6,0,3.1-0.3,4.3-1
			c1.3-0.7,2.3-1.6,3.2-2.7c0.9-1.1,1.5-2.4,1.9-3.8c0.4-1.4,0.7-2.8,0.6-4.2c0-1.5-0.2-3-0.7-4.4c-0.5-1.4-1.2-2.6-2-3.7
			c-0.9-1.1-1.9-1.9-3.2-2.6c-1.3-0.6-2.7-0.9-4.2-0.9c-1.6,0-3.1,0.3-4.4,1c-1.3,0.7-2.3,1.6-3.2,2.7c-0.8,1.1-1.5,2.3-1.9,3.7
			C791.6,24.6,791.4,26,791.4,27.4z"/>
		<path class="st2" d="M823.7,44.8V10h12.7c2.8,0,5.3,0.5,7.5,1.4c2.1,0.9,3.9,2.2,5.4,3.7c1.4,1.6,2.5,3.4,3.2,5.5
			c0.7,2.1,1.1,4.4,1.1,6.7c0,2.6-0.4,5-1.2,7.2c-0.8,2.1-2,4-3.5,5.5c-1.5,1.5-3.3,2.7-5.4,3.5c-2.1,0.8-4.5,1.3-7.1,1.3H823.7z
			 M846.7,27.3c0-1.7-0.2-3.2-0.7-4.6c-0.5-1.4-1.1-2.6-2-3.6c-0.9-1-2-1.8-3.3-2.4c-1.3-0.6-2.8-0.8-4.4-0.8h-5.9v23h5.9
			c1.7,0,3.1-0.3,4.4-0.9c1.3-0.6,2.4-1.4,3.2-2.4c0.9-1,1.5-2.2,2-3.7C846.5,30.5,846.7,29,846.7,27.3z"/>
		<path class="st2" d="M873.5,39c1.6,0,3-0.3,4-1c1.1-0.7,2-1.5,2.6-2.6c0.7-1,1.1-2.2,1.4-3.6c0.3-1.4,0.4-2.8,0.4-4.2V10h6.7v17.8
			c0,2.4-0.3,4.6-0.9,6.7c-0.6,2.1-1.5,3.9-2.7,5.5c-1.2,1.6-2.8,2.8-4.7,3.7c-1.9,0.9-4.2,1.4-6.9,1.4c-2.8,0-5.1-0.5-7.1-1.4
			c-1.9-1-3.5-2.2-4.7-3.8c-1.2-1.6-2.1-3.4-2.6-5.5c-0.5-2.1-0.8-4.3-0.8-6.5V10h6.8v17.8c0,1.5,0.1,2.9,0.4,4.2
			c0.3,1.4,0.8,2.6,1.4,3.6c0.7,1,1.5,1.9,2.6,2.5C870.7,38.7,872,39,873.5,39z"/>
		<path class="st2" d="M921.7,15.9h-11.1v28.9h-6.7V15.9h-11.1V10h29V15.9z"/>
		<path class="st2" d="M939.2,45c-2.6,0-4.9-0.5-6.9-1.5c-2.1-1-3.9-2.3-5.3-4c-1.5-1.7-2.6-3.5-3.5-5.7c-0.8-2.1-1.2-4.3-1.2-6.5
			c0-2.3,0.4-4.5,1.3-6.7c0.9-2.1,2.1-4,3.6-5.6s3.3-2.9,5.4-3.9c2.1-1,4.4-1.4,6.8-1.4c2.5,0,4.8,0.5,6.9,1.5c2.1,1,3.9,2.4,5.3,4
			c1.5,1.7,2.6,3.6,3.4,5.7c0.8,2.1,1.2,4.3,1.2,6.5c0,2.3-0.4,4.5-1.3,6.6c-0.9,2.1-2,4-3.5,5.6c-1.5,1.6-3.3,2.9-5.4,3.9
			C943.9,44.5,941.7,45,939.2,45z M929.1,27.4c0,1.5,0.2,3,0.7,4.4c0.5,1.4,1.1,2.6,2,3.7c0.9,1.1,1.9,1.9,3.2,2.6
			c1.3,0.7,2.7,1,4.3,1c1.6,0,3.1-0.3,4.3-1c1.3-0.7,2.3-1.6,3.2-2.7c0.9-1.1,1.5-2.4,2-3.8c0.4-1.4,0.7-2.8,0.7-4.2
			c0-1.5-0.2-3-0.7-4.4c-0.5-1.4-1.1-2.6-2-3.7c-0.9-1.1-1.9-1.9-3.2-2.6c-1.3-0.6-2.7-1-4.2-1c-1.6,0-3.1,0.3-4.4,1
			c-1.3,0.7-2.3,1.6-3.2,2.6c-0.9,1.1-1.5,2.3-1.9,3.7C929.3,24.5,929.1,25.9,929.1,27.4z"/>
		<path class="st2" d="M961.4,44.8V10h15.4c1.6,0,3.1,0.3,4.4,1c1.4,0.7,2.5,1.6,3.5,2.6c1,1.1,1.7,2.3,2.3,3.7
			c0.6,1.4,0.8,2.8,0.8,4.2c0,2.3-0.6,4.3-1.7,6.2c-1.1,1.8-2.7,3.2-4.6,4l7.9,13.1H982l-7.1-11.7h-6.7v11.7H961.4z M968.2,27.2h8.5
			c0.6,0,1.2-0.1,1.7-0.4c0.5-0.3,1-0.7,1.4-1.2c0.4-0.5,0.7-1.1,0.9-1.8c0.2-0.7,0.3-1.4,0.3-2.2c0-0.8-0.1-1.6-0.4-2.3
			c-0.3-0.7-0.6-1.3-1.1-1.8c-0.4-0.5-0.9-0.9-1.5-1.2c-0.6-0.3-1.2-0.4-1.7-0.4h-8.2V27.2z"/>
	</g>
</g>
<g>
	<g>
		<path class="st3" d="M8,200.4v-25.2h11.1c1.2,0,2.2,0.2,3.2,0.7c1,0.5,1.8,1.1,2.5,1.9c0.7,0.8,1.3,1.7,1.7,2.7c0.4,1,0.6,2,0.6,3
			c0,1.6-0.4,3.1-1.2,4.4c-0.8,1.3-1.9,2.3-3.3,2.9l5.7,9.5h-5.5l-5.1-8.4h-4.8v8.4H8z M12.9,187.7H19c0.4,0,0.9-0.1,1.3-0.3
			c0.4-0.2,0.7-0.5,1-0.9c0.3-0.4,0.5-0.8,0.7-1.3c0.2-0.5,0.2-1,0.2-1.6c0-0.6-0.1-1.1-0.3-1.6c-0.2-0.5-0.4-0.9-0.8-1.3
			c-0.3-0.4-0.7-0.6-1.1-0.9c-0.4-0.2-0.8-0.3-1.3-0.3h-5.9V187.7z"/>
		<path class="st3" d="M47,181.8c-0.1-0.2-0.4-0.4-0.8-0.6c-0.4-0.2-0.9-0.5-1.4-0.7c-0.5-0.2-1.1-0.5-1.8-0.7
			c-0.6-0.2-1.3-0.3-2-0.4v6.1l0.9,0.2c1.2,0.3,2.3,0.7,3.3,1.1c1,0.4,1.9,0.9,2.6,1.4c0.7,0.6,1.2,1.2,1.6,2
			c0.4,0.8,0.6,1.8,0.6,2.9c0,1.3-0.2,2.4-0.7,3.3c-0.5,0.9-1.1,1.7-1.9,2.3c-0.8,0.6-1.7,1-2.8,1.3c-1.1,0.3-2.2,0.5-3.3,0.5v3.9
			h-2.1v-3.9c-1.7-0.1-3.3-0.5-4.8-1c-1.6-0.6-3-1.3-4.3-2.2l2.2-4.2c0.2,0.2,0.5,0.4,1,0.7c0.5,0.3,1,0.6,1.7,0.9
			c0.6,0.3,1.4,0.6,2.2,0.8c0.8,0.3,1.6,0.4,2.5,0.5v-6.1c-0.2,0-0.4-0.1-0.6-0.2c-0.2-0.1-0.4-0.1-0.6-0.2
			c-1.2-0.3-2.2-0.7-3.1-1.1c-0.9-0.4-1.6-0.9-2.2-1.4c-0.6-0.5-1-1.1-1.3-1.8c-0.3-0.7-0.4-1.5-0.4-2.5c0-1.2,0.2-2.2,0.6-3.2
			c0.4-0.9,1-1.7,1.7-2.4c0.7-0.7,1.6-1.2,2.6-1.6c1-0.4,2.1-0.6,3.2-0.7v-3.6h2.1v3.6c1.6,0.1,3,0.4,4.3,1s2.5,1.1,3.5,1.8
			L47,181.8z M36.2,182.2c0,0.8,0.3,1.4,0.8,1.8c0.6,0.4,1.4,0.8,2.5,1.1v-5.7C37.3,179.5,36.2,180.4,36.2,182.2z M44.8,193.7
			c0-0.8-0.3-1.4-1-1.9c-0.7-0.4-1.6-0.9-2.8-1.2v5.7C43.6,196.2,44.8,195.3,44.8,193.7z"/>
		<path class="st3" d="M61.3,200.4c0-1.1,0.1-2,0.2-2.9c0.2-0.9,0.5-1.7,0.9-2.4c0.4-0.7,1-1.4,1.7-2.1c0.7-0.6,1.6-1.3,2.7-1.9
			c1-0.5,1.8-1,2.6-1.4c0.7-0.4,1.4-0.7,1.9-1.1c0.5-0.3,0.9-0.7,1.1-1c0.3-0.3,0.4-0.7,0.4-1.2c0-0.7-0.3-1.3-0.9-1.8
			c-0.6-0.5-1.4-0.8-2.4-0.8c-0.6,0-1.1,0.1-1.6,0.2s-0.9,0.4-1.3,0.6c-0.4,0.3-0.8,0.5-1.1,0.9c-0.3,0.3-0.7,0.7-0.9,1l-3-3.5
			c0.3-0.3,0.7-0.7,1.3-1.1c0.6-0.4,1.2-0.8,2-1.1c0.8-0.3,1.6-0.6,2.6-0.9c0.9-0.2,1.9-0.3,3-0.3c1.2,0,2.3,0.1,3.2,0.4
			c0.9,0.3,1.7,0.7,2.4,1.2c0.6,0.5,1.1,1.2,1.5,1.9c0.3,0.7,0.5,1.6,0.5,2.4c0,0.8-0.2,1.6-0.5,2.2c-0.3,0.6-0.7,1.2-1.2,1.7
			c-0.5,0.5-1,0.9-1.5,1.3c-0.6,0.4-1.1,0.7-1.6,1c-0.4,0.2-0.9,0.5-1.5,0.8c-0.5,0.3-1.1,0.6-1.6,1c-0.5,0.4-1,0.7-1.5,1.1
			c-0.4,0.4-0.8,0.8-1,1.2h10.7v4.3H61.3z"/>
		<path class="st3" d="M99.9,190c0,1.6-0.2,3-0.7,4.3c-0.5,1.3-1.1,2.4-1.9,3.4c-0.8,1-1.8,1.7-2.9,2.2c-1.1,0.5-2.3,0.8-3.6,0.8
			c-1.3,0-2.5-0.3-3.6-0.8c-1.1-0.5-2.1-1.3-2.9-2.2c-0.8-1-1.5-2.1-1.9-3.4c-0.5-1.3-0.7-2.7-0.7-4.3c0-1.6,0.2-3,0.7-4.3
			c0.5-1.3,1.1-2.4,1.9-3.4c0.8-1,1.8-1.7,2.9-2.3c1.1-0.5,2.3-0.8,3.6-0.8c1.3,0,2.5,0.3,3.6,0.8c1.1,0.5,2.1,1.3,2.9,2.3
			c0.8,1,1.5,2.1,1.9,3.4C99.7,187,99.9,188.4,99.9,190z M95.1,190c0-0.9-0.1-1.8-0.3-2.6c-0.2-0.8-0.5-1.5-0.9-2
			c-0.4-0.6-0.9-1-1.4-1.3c-0.5-0.3-1.1-0.5-1.8-0.5c-0.7,0-1.3,0.2-1.8,0.5c-0.5,0.3-1,0.7-1.4,1.3c-0.4,0.6-0.7,1.2-0.9,2
			c-0.2,0.8-0.3,1.7-0.3,2.6c0,0.9,0.1,1.8,0.3,2.6c0.2,0.8,0.5,1.5,0.9,2c0.4,0.6,0.9,1,1.4,1.3c0.5,0.3,1.1,0.5,1.8,0.5
			c0.6,0,1.2-0.2,1.8-0.5c0.5-0.3,1-0.7,1.4-1.3c0.4-0.6,0.7-1.2,0.9-2C95,191.8,95.1,190.9,95.1,190z"/>
		<path class="st3" d="M103.7,200.4v-5.1h3.9v5.1H103.7z"/>
		<path class="st3" d="M129.6,190c0,1.6-0.2,3-0.7,4.3c-0.5,1.3-1.1,2.4-1.9,3.4c-0.8,1-1.8,1.7-2.9,2.2c-1.1,0.5-2.3,0.8-3.6,0.8
			c-1.3,0-2.5-0.3-3.6-0.8c-1.1-0.5-2.1-1.3-2.9-2.2c-0.8-1-1.5-2.1-1.9-3.4c-0.5-1.3-0.7-2.7-0.7-4.3c0-1.6,0.2-3,0.7-4.3
			c0.5-1.3,1.1-2.4,1.9-3.4c0.8-1,1.8-1.7,2.9-2.3c1.1-0.5,2.3-0.8,3.6-0.8c1.3,0,2.5,0.3,3.6,0.8c1.1,0.5,2.1,1.3,2.9,2.3
			c0.8,1,1.5,2.1,1.9,3.4C129.4,187,129.6,188.4,129.6,190z M124.9,190c0-0.9-0.1-1.8-0.3-2.6c-0.2-0.8-0.5-1.5-0.9-2
			c-0.4-0.6-0.9-1-1.4-1.3c-0.5-0.3-1.1-0.5-1.8-0.5c-0.7,0-1.3,0.2-1.8,0.5c-0.5,0.3-1,0.7-1.4,1.3c-0.4,0.6-0.7,1.2-0.9,2
			c-0.2,0.8-0.3,1.7-0.3,2.6c0,0.9,0.1,1.8,0.3,2.6c0.2,0.8,0.5,1.5,0.9,2c0.4,0.6,0.9,1,1.4,1.3c0.5,0.3,1.1,0.5,1.8,0.5
			c0.6,0,1.2-0.2,1.8-0.5c0.5-0.3,1-0.7,1.4-1.3c0.4-0.6,0.7-1.2,0.9-2C124.7,191.8,124.9,190.9,124.9,190z"/>
		<path class="st3" d="M151.4,190c0,1.6-0.2,3-0.7,4.3c-0.5,1.3-1.1,2.4-1.9,3.4c-0.8,1-1.8,1.7-2.9,2.2c-1.1,0.5-2.3,0.8-3.6,0.8
			c-1.3,0-2.5-0.3-3.6-0.8c-1.1-0.5-2.1-1.3-2.9-2.2c-0.8-1-1.5-2.1-1.9-3.4c-0.5-1.3-0.7-2.7-0.7-4.3c0-1.6,0.2-3,0.7-4.3
			c0.5-1.3,1.1-2.4,1.9-3.4c0.8-1,1.8-1.7,2.9-2.3c1.1-0.5,2.3-0.8,3.6-0.8c1.3,0,2.5,0.3,3.6,0.8c1.1,0.5,2.1,1.3,2.9,2.3
			c0.8,1,1.5,2.1,1.9,3.4C151.2,187,151.4,188.4,151.4,190z M146.6,190c0-0.9-0.1-1.8-0.3-2.6c-0.2-0.8-0.5-1.5-0.9-2
			c-0.4-0.6-0.9-1-1.4-1.3c-0.5-0.3-1.1-0.5-1.8-0.5c-0.7,0-1.3,0.2-1.8,0.5c-0.5,0.3-1,0.7-1.4,1.3c-0.4,0.6-0.7,1.2-0.9,2
			c-0.2,0.8-0.3,1.7-0.3,2.6c0,0.9,0.1,1.8,0.3,2.6c0.2,0.8,0.5,1.5,0.9,2c0.4,0.6,0.9,1,1.4,1.3c0.5,0.3,1.1,0.5,1.8,0.5
			c0.6,0,1.2-0.2,1.8-0.5c0.5-0.3,1-0.7,1.4-1.3c0.4-0.6,0.7-1.2,0.9-2C146.5,191.8,146.6,190.9,146.6,190z"/>
		<path class="st3" d="M173.1,190c0,1.6-0.2,3-0.7,4.3c-0.5,1.3-1.1,2.4-1.9,3.4c-0.8,1-1.8,1.7-2.9,2.2c-1.1,0.5-2.3,0.8-3.6,0.8
			c-1.3,0-2.5-0.3-3.6-0.8c-1.1-0.5-2.1-1.3-2.9-2.2c-0.8-1-1.5-2.1-1.9-3.4c-0.5-1.3-0.7-2.7-0.7-4.3c0-1.6,0.2-3,0.7-4.3
			c0.5-1.3,1.1-2.4,1.9-3.4c0.8-1,1.8-1.7,2.9-2.3c1.1-0.5,2.3-0.8,3.6-0.8c1.3,0,2.5,0.3,3.6,0.8c1.1,0.5,2.1,1.3,2.9,2.3
			c0.8,1,1.5,2.1,1.9,3.4C172.9,187,173.1,188.4,173.1,190z M168.4,190c0-0.9-0.1-1.8-0.3-2.6c-0.2-0.8-0.5-1.5-0.9-2
			c-0.4-0.6-0.9-1-1.4-1.3c-0.5-0.3-1.1-0.5-1.8-0.5c-0.7,0-1.3,0.2-1.8,0.5c-0.5,0.3-1,0.7-1.4,1.3c-0.4,0.6-0.7,1.2-0.9,2
			c-0.2,0.8-0.3,1.7-0.3,2.6c0,0.9,0.1,1.8,0.3,2.6c0.2,0.8,0.5,1.5,0.9,2c0.4,0.6,0.9,1,1.4,1.3c0.5,0.3,1.1,0.5,1.8,0.5
			c0.6,0,1.2-0.2,1.8-0.5c0.5-0.3,1-0.7,1.4-1.3c0.4-0.6,0.7-1.2,0.9-2C168.3,191.8,168.4,190.9,168.4,190z"/>
		<path class="st3" d="M12.6,303.2V278h11.1c1.2,0,2.2,0.2,3.2,0.7c1,0.5,1.8,1.1,2.5,1.9c0.7,0.8,1.3,1.7,1.7,2.7
			c0.4,1,0.6,2,0.6,3c0,1.6-0.4,3.1-1.2,4.4c-0.8,1.3-1.9,2.3-3.3,2.9l5.7,9.5h-5.5l-5.1-8.4h-4.8v8.4H12.6z M17.5,290.4h6.1
			c0.4,0,0.9-0.1,1.3-0.3c0.4-0.2,0.7-0.5,1-0.9c0.3-0.4,0.5-0.8,0.7-1.3c0.2-0.5,0.2-1,0.2-1.6c0-0.6-0.1-1.1-0.3-1.6
			c-0.2-0.5-0.4-0.9-0.8-1.3c-0.3-0.4-0.7-0.6-1.1-0.9c-0.4-0.2-0.8-0.3-1.3-0.3h-5.9V290.4z"/>
		<path class="st3" d="M51.6,284.6c-0.1-0.2-0.4-0.4-0.8-0.6c-0.4-0.2-0.9-0.5-1.4-0.7c-0.5-0.2-1.1-0.5-1.8-0.7
			c-0.6-0.2-1.3-0.3-2-0.4v6.1l0.9,0.2c1.2,0.3,2.3,0.7,3.3,1.1c1,0.4,1.9,0.9,2.6,1.4c0.7,0.6,1.2,1.2,1.6,2
			c0.4,0.8,0.6,1.8,0.6,2.9c0,1.3-0.2,2.4-0.7,3.3c-0.5,0.9-1.1,1.7-1.9,2.3c-0.8,0.6-1.7,1-2.8,1.3c-1.1,0.3-2.2,0.5-3.3,0.5v3.9
			h-2.1v-3.9c-1.7-0.1-3.3-0.5-4.8-1c-1.6-0.6-3-1.3-4.3-2.2l2.2-4.2c0.2,0.2,0.5,0.4,1,0.7c0.5,0.3,1,0.6,1.7,0.9
			c0.6,0.3,1.4,0.6,2.2,0.8c0.8,0.3,1.6,0.4,2.5,0.5v-6.1c-0.2,0-0.4-0.1-0.6-0.2c-0.2-0.1-0.4-0.1-0.6-0.2
			c-1.2-0.3-2.2-0.7-3.1-1.1c-0.9-0.4-1.6-0.9-2.2-1.4c-0.6-0.5-1-1.1-1.3-1.8c-0.3-0.7-0.4-1.5-0.4-2.5c0-1.2,0.2-2.2,0.6-3.2
			c0.4-0.9,1-1.7,1.7-2.4c0.7-0.7,1.6-1.2,2.6-1.6c1-0.4,2.1-0.6,3.2-0.7v-3.6H46v3.6c1.6,0.1,3,0.4,4.3,1s2.5,1.1,3.5,1.8
			L51.6,284.6z M40.8,285c0,0.8,0.3,1.4,0.8,1.8c0.6,0.4,1.4,0.8,2.5,1.1v-5.7C41.9,282.3,40.8,283.2,40.8,285z M49.4,296.5
			c0-0.8-0.3-1.4-1-1.9c-0.7-0.4-1.6-0.9-2.8-1.2v5.7C48.2,299,49.4,298.1,49.4,296.5z"/>
		<path class="st3" d="M81.2,298.9v4.3H66.8v-4.3h5v-10.7c-0.2,0.3-0.5,0.6-1,0.9c-0.5,0.3-1,0.6-1.5,0.8c-0.5,0.3-1.1,0.5-1.7,0.6
			c-0.6,0.2-1.1,0.2-1.5,0.2v-4.4c0.4,0,0.9-0.1,1.6-0.4c0.6-0.3,1.2-0.6,1.8-1c0.6-0.4,1.1-0.7,1.5-1.1c0.4-0.4,0.7-0.7,0.8-0.9
			h4.9v15.9H81.2z"/>
		<path class="st3" d="M92.3,291.9c1.2,0,2.3,0.2,3.3,0.6c1,0.4,1.9,0.9,2.6,1.6c0.7,0.7,1.3,1.6,1.7,2.6c0.4,1,0.6,2.1,0.6,3.3
			c0,1.3-0.2,2.4-0.7,3.5c-0.5,1-1.1,1.9-1.9,2.7c-0.8,0.7-1.8,1.3-2.9,1.7c-1.1,0.4-2.4,0.6-3.7,0.6c-1.8,0-3.5-0.4-4.9-1.2
			c-1.5-0.8-2.6-1.8-3.3-3.2l2.7-2.8c0.7,0.9,1.5,1.7,2.5,2.2c1,0.5,2,0.8,3.1,0.8c1.3,0,2.3-0.4,3.1-1.2c0.8-0.8,1.2-1.8,1.2-3.1
			c0-1.2-0.4-2.2-1.2-3c-0.8-0.8-1.7-1.1-2.9-1.1c-0.8,0-1.5,0.2-2.2,0.5s-1.2,0.8-1.6,1.5h-4.1c0-0.1,0-0.3,0.1-0.8
			c0.1-0.5,0.2-1.1,0.4-1.8c0.1-0.7,0.3-1.5,0.5-2.4c0.2-0.9,0.3-1.8,0.5-2.7c0.4-2.2,0.9-4.6,1.4-7.3H99v4.3h-9l-1,5.6
			c0.3-0.3,0.7-0.6,1.3-0.7C90.8,292,91.5,291.9,92.3,291.9z"/>
		<path class="st3" d="M103.7,303.2v-5.1h3.9v5.1H103.7z"/>
		<path class="st3" d="M129.6,292.8c0,1.6-0.2,3-0.7,4.3c-0.5,1.3-1.1,2.4-1.9,3.4c-0.8,1-1.8,1.7-2.9,2.2c-1.1,0.5-2.3,0.8-3.6,0.8
			c-1.3,0-2.5-0.3-3.6-0.8c-1.1-0.5-2.1-1.3-2.9-2.2c-0.8-1-1.5-2.1-1.9-3.4c-0.5-1.3-0.7-2.7-0.7-4.3c0-1.6,0.2-3,0.7-4.3
			c0.5-1.3,1.1-2.4,1.9-3.4c0.8-1,1.8-1.7,2.9-2.3c1.1-0.5,2.3-0.8,3.6-0.8c1.3,0,2.5,0.3,3.6,0.8c1.1,0.5,2.1,1.3,2.9,2.3
			c0.8,1,1.5,2.1,1.9,3.4C129.4,289.8,129.6,291.2,129.6,292.8z M124.9,292.8c0-0.9-0.1-1.8-0.3-2.6c-0.2-0.8-0.5-1.5-0.9-2
			c-0.4-0.6-0.9-1-1.4-1.3c-0.5-0.3-1.1-0.5-1.8-0.5c-0.7,0-1.3,0.2-1.8,0.5c-0.5,0.3-1,0.7-1.4,1.3c-0.4,0.6-0.7,1.2-0.9,2
			c-0.2,0.8-0.3,1.7-0.3,2.6c0,0.9,0.1,1.8,0.3,2.6c0.2,0.8,0.5,1.5,0.9,2c0.4,0.6,0.9,1,1.4,1.3c0.5,0.3,1.1,0.5,1.8,0.5
			c0.6,0,1.2-0.2,1.8-0.5c0.5-0.3,1-0.7,1.4-1.3c0.4-0.6,0.7-1.2,0.9-2C124.7,294.6,124.9,293.7,124.9,292.8z"/>
		<path class="st3" d="M151.4,292.8c0,1.6-0.2,3-0.7,4.3c-0.5,1.3-1.1,2.4-1.9,3.4c-0.8,1-1.8,1.7-2.9,2.2c-1.1,0.5-2.3,0.8-3.6,0.8
			c-1.3,0-2.5-0.3-3.6-0.8c-1.1-0.5-2.1-1.3-2.9-2.2c-0.8-1-1.5-2.1-1.9-3.4c-0.5-1.3-0.7-2.7-0.7-4.3c0-1.6,0.2-3,0.7-4.3
			c0.5-1.3,1.1-2.4,1.9-3.4c0.8-1,1.8-1.7,2.9-2.3c1.1-0.5,2.3-0.8,3.6-0.8c1.3,0,2.5,0.3,3.6,0.8c1.1,0.5,2.1,1.3,2.9,2.3
			c0.8,1,1.5,2.1,1.9,3.4C151.2,289.8,151.4,291.2,151.4,292.8z M146.6,292.8c0-0.9-0.1-1.8-0.3-2.6c-0.2-0.8-0.5-1.5-0.9-2
			c-0.4-0.6-0.9-1-1.4-1.3c-0.5-0.3-1.1-0.5-1.8-0.5c-0.7,0-1.3,0.2-1.8,0.5c-0.5,0.3-1,0.7-1.4,1.3c-0.4,0.6-0.7,1.2-0.9,2
			c-0.2,0.8-0.3,1.7-0.3,2.6c0,0.9,0.1,1.8,0.3,2.6c0.2,0.8,0.5,1.5,0.9,2c0.4,0.6,0.9,1,1.4,1.3c0.5,0.3,1.1,0.5,1.8,0.5
			c0.6,0,1.2-0.2,1.8-0.5c0.5-0.3,1-0.7,1.4-1.3c0.4-0.6,0.7-1.2,0.9-2C146.5,294.6,146.6,293.7,146.6,292.8z"/>
		<path class="st3" d="M173.1,292.8c0,1.6-0.2,3-0.7,4.3c-0.5,1.3-1.1,2.4-1.9,3.4c-0.8,1-1.8,1.7-2.9,2.2c-1.1,0.5-2.3,0.8-3.6,0.8
			c-1.3,0-2.5-0.3-3.6-0.8c-1.1-0.5-2.1-1.3-2.9-2.2c-0.8-1-1.5-2.1-1.9-3.4c-0.5-1.3-0.7-2.7-0.7-4.3c0-1.6,0.2-3,0.7-4.3
			c0.5-1.3,1.1-2.4,1.9-3.4c0.8-1,1.8-1.7,2.9-2.3c1.1-0.5,2.3-0.8,3.6-0.8c1.3,0,2.5,0.3,3.6,0.8c1.1,0.5,2.1,1.3,2.9,2.3
			c0.8,1,1.5,2.1,1.9,3.4C172.9,289.8,173.1,291.2,173.1,292.8z M168.4,292.8c0-0.9-0.1-1.8-0.3-2.6c-0.2-0.8-0.5-1.5-0.9-2
			c-0.4-0.6-0.9-1-1.4-1.3c-0.5-0.3-1.1-0.5-1.8-0.5c-0.7,0-1.3,0.2-1.8,0.5c-0.5,0.3-1,0.7-1.4,1.3c-0.4,0.6-0.7,1.2-0.9,2
			c-0.2,0.8-0.3,1.7-0.3,2.6c0,0.9,0.1,1.8,0.3,2.6c0.2,0.8,0.5,1.5,0.9,2c0.4,0.6,0.9,1,1.4,1.3c0.5,0.3,1.1,0.5,1.8,0.5
			c0.6,0,1.2-0.2,1.8-0.5c0.5-0.3,1-0.7,1.4-1.3c0.4-0.6,0.7-1.2,0.9-2C168.3,294.6,168.4,293.7,168.4,292.8z"/>
		<path class="st3" d="M10.5,406v-25.2h11.1c1.2,0,2.2,0.2,3.2,0.7c1,0.5,1.8,1.1,2.5,1.9c0.7,0.8,1.3,1.7,1.7,2.7
			c0.4,1,0.6,2,0.6,3c0,1.6-0.4,3.1-1.2,4.4c-0.8,1.3-1.9,2.3-3.3,2.9l5.7,9.5h-5.5l-5.1-8.4h-4.8v8.4H10.5z M15.4,393.2h6.1
			c0.4,0,0.9-0.1,1.3-0.3c0.4-0.2,0.7-0.5,1-0.9c0.3-0.4,0.5-0.8,0.7-1.3c0.2-0.5,0.2-1,0.2-1.6c0-0.6-0.1-1.1-0.3-1.6
			c-0.2-0.5-0.4-0.9-0.8-1.3c-0.3-0.4-0.7-0.6-1.1-0.9c-0.4-0.2-0.8-0.3-1.3-0.3h-5.9V393.2z"/>
		<path class="st3" d="M49.5,387.4c-0.1-0.2-0.4-0.4-0.8-0.6c-0.4-0.2-0.9-0.5-1.4-0.7c-0.5-0.2-1.1-0.5-1.8-0.7
			c-0.6-0.2-1.3-0.3-2-0.4v6.1l0.9,0.2c1.2,0.3,2.3,0.7,3.3,1.1c1,0.4,1.9,0.9,2.6,1.4c0.7,0.6,1.2,1.2,1.6,2s0.6,1.8,0.6,2.9
			c0,1.3-0.2,2.4-0.7,3.3c-0.5,0.9-1.1,1.7-1.9,2.3c-0.8,0.6-1.7,1-2.8,1.3c-1.1,0.3-2.2,0.5-3.3,0.5v3.9h-2.1v-3.9
			c-1.7-0.1-3.3-0.5-4.8-1c-1.6-0.6-3-1.3-4.3-2.2l2.2-4.2c0.2,0.2,0.5,0.4,1,0.7c0.5,0.3,1,0.6,1.7,0.9c0.6,0.3,1.4,0.6,2.2,0.8
			c0.8,0.3,1.6,0.4,2.5,0.5v-6.1c-0.2,0-0.4-0.1-0.6-0.2c-0.2-0.1-0.4-0.1-0.6-0.2c-1.2-0.3-2.2-0.7-3.1-1.1
			c-0.9-0.4-1.6-0.9-2.2-1.4c-0.6-0.5-1-1.1-1.3-1.8c-0.3-0.7-0.4-1.5-0.4-2.5c0-1.2,0.2-2.2,0.6-3.2c0.4-0.9,1-1.7,1.7-2.4
			c0.7-0.7,1.6-1.2,2.6-1.6c1-0.4,2.1-0.6,3.2-0.7v-3.6h2.1v3.6c1.6,0.1,3,0.4,4.3,1c1.3,0.5,2.5,1.1,3.5,1.8L49.5,387.4z
			 M38.7,387.8c0,0.8,0.3,1.4,0.8,1.8c0.6,0.4,1.4,0.8,2.5,1.1V385C39.8,385.1,38.7,386,38.7,387.8z M47.3,399.3
			c0-0.8-0.3-1.4-1-1.9c-0.7-0.4-1.6-0.9-2.8-1.2v5.7C46,401.8,47.3,400.9,47.3,399.3z"/>
		<path class="st3" d="M79,401.7v4.3H64.7v-4.3h5v-10.7c-0.2,0.3-0.5,0.6-1,0.9c-0.5,0.3-1,0.6-1.5,0.8c-0.5,0.3-1.1,0.5-1.7,0.6
			c-0.6,0.2-1.1,0.2-1.5,0.2v-4.4c0.4,0,0.9-0.1,1.6-0.4c0.6-0.3,1.2-0.6,1.8-1c0.6-0.4,1.1-0.7,1.5-1.1c0.4-0.4,0.7-0.7,0.8-0.9
			h4.9v15.9H79z"/>
		<path class="st3" d="M99.9,395.6c0,1.6-0.2,3-0.7,4.3c-0.5,1.3-1.1,2.4-1.9,3.4c-0.8,1-1.8,1.7-2.9,2.2c-1.1,0.5-2.3,0.8-3.6,0.8
			c-1.3,0-2.5-0.3-3.6-0.8c-1.1-0.5-2.1-1.3-2.9-2.2c-0.8-1-1.5-2.1-1.9-3.4c-0.5-1.3-0.7-2.7-0.7-4.3c0-1.6,0.2-3,0.7-4.3
			c0.5-1.3,1.1-2.4,1.9-3.4c0.8-1,1.8-1.7,2.9-2.3c1.1-0.5,2.3-0.8,3.6-0.8c1.3,0,2.5,0.3,3.6,0.8c1.1,0.5,2.1,1.3,2.9,2.3
			c0.8,1,1.5,2.1,1.9,3.4C99.7,392.6,99.9,394,99.9,395.6z M95.1,395.6c0-0.9-0.1-1.8-0.3-2.6c-0.2-0.8-0.5-1.5-0.9-2
			c-0.4-0.6-0.9-1-1.4-1.3c-0.5-0.3-1.1-0.5-1.8-0.5c-0.7,0-1.3,0.2-1.8,0.5c-0.5,0.3-1,0.7-1.4,1.3c-0.4,0.6-0.7,1.2-0.9,2
			c-0.2,0.8-0.3,1.7-0.3,2.6c0,0.9,0.1,1.8,0.3,2.6c0.2,0.8,0.5,1.5,0.9,2c0.4,0.6,0.9,1,1.4,1.3c0.5,0.3,1.1,0.5,1.8,0.5
			c0.6,0,1.2-0.2,1.8-0.5c0.5-0.3,1-0.7,1.4-1.3c0.4-0.6,0.7-1.2,0.9-2C95,397.4,95.1,396.5,95.1,395.6z"/>
		<path class="st3" d="M103.7,406v-5.1h3.9v5.1H103.7z"/>
		<path class="st3" d="M129.6,395.6c0,1.6-0.2,3-0.7,4.3c-0.5,1.3-1.1,2.4-1.9,3.4c-0.8,1-1.8,1.7-2.9,2.2s-2.3,0.8-3.6,0.8
			c-1.3,0-2.5-0.3-3.6-0.8c-1.1-0.5-2.1-1.3-2.9-2.2c-0.8-1-1.5-2.1-1.9-3.4c-0.5-1.3-0.7-2.7-0.7-4.3c0-1.6,0.2-3,0.7-4.3
			c0.5-1.3,1.1-2.4,1.9-3.4c0.8-1,1.8-1.7,2.9-2.3c1.1-0.5,2.3-0.8,3.6-0.8c1.3,0,2.5,0.3,3.6,0.8c1.1,0.5,2.1,1.3,2.9,2.3
			c0.8,1,1.5,2.1,1.9,3.4C129.4,392.6,129.6,394,129.6,395.6z M124.9,395.6c0-0.9-0.1-1.8-0.3-2.6c-0.2-0.8-0.5-1.5-0.9-2
			c-0.4-0.6-0.9-1-1.4-1.3c-0.5-0.3-1.1-0.5-1.8-0.5c-0.7,0-1.3,0.2-1.8,0.5c-0.5,0.3-1,0.7-1.4,1.3c-0.4,0.6-0.7,1.2-0.9,2
			c-0.2,0.8-0.3,1.7-0.3,2.6c0,0.9,0.1,1.8,0.3,2.6c0.2,0.8,0.5,1.5,0.9,2c0.4,0.6,0.9,1,1.4,1.3c0.5,0.3,1.1,0.5,1.8,0.5
			c0.6,0,1.2-0.2,1.8-0.5c0.5-0.3,1-0.7,1.4-1.3c0.4-0.6,0.7-1.2,0.9-2C124.7,397.4,124.9,396.5,124.9,395.6z"/>
		<path class="st3" d="M151.4,395.6c0,1.6-0.2,3-0.7,4.3c-0.5,1.3-1.1,2.4-1.9,3.4c-0.8,1-1.8,1.7-2.9,2.2c-1.1,0.5-2.3,0.8-3.6,0.8
			c-1.3,0-2.5-0.3-3.6-0.8c-1.1-0.5-2.1-1.3-2.9-2.2c-0.8-1-1.5-2.1-1.9-3.4c-0.5-1.3-0.7-2.7-0.7-4.3c0-1.6,0.2-3,0.7-4.3
			c0.5-1.3,1.1-2.4,1.9-3.4c0.8-1,1.8-1.7,2.9-2.3c1.1-0.5,2.3-0.8,3.6-0.8c1.3,0,2.5,0.3,3.6,0.8c1.1,0.5,2.1,1.3,2.9,2.3
			c0.8,1,1.5,2.1,1.9,3.4C151.2,392.6,151.4,394,151.4,395.6z M146.6,395.6c0-0.9-0.1-1.8-0.3-2.6c-0.2-0.8-0.5-1.5-0.9-2
			c-0.4-0.6-0.9-1-1.4-1.3c-0.5-0.3-1.1-0.5-1.8-0.5c-0.7,0-1.3,0.2-1.8,0.5c-0.5,0.3-1,0.7-1.4,1.3c-0.4,0.6-0.7,1.2-0.9,2
			c-0.2,0.8-0.3,1.7-0.3,2.6c0,0.9,0.1,1.8,0.3,2.6c0.2,0.8,0.5,1.5,0.9,2c0.4,0.6,0.9,1,1.4,1.3c0.5,0.3,1.1,0.5,1.8,0.5
			c0.6,0,1.2-0.2,1.8-0.5c0.5-0.3,1-0.7,1.4-1.3c0.4-0.6,0.7-1.2,0.9-2C146.5,397.4,146.6,396.5,146.6,395.6z"/>
		<path class="st3" d="M173.1,395.6c0,1.6-0.2,3-0.7,4.3c-0.5,1.3-1.1,2.4-1.9,3.4c-0.8,1-1.8,1.7-2.9,2.2s-2.3,0.8-3.6,0.8
			c-1.3,0-2.5-0.3-3.6-0.8c-1.1-0.5-2.1-1.3-2.9-2.2c-0.8-1-1.5-2.1-1.9-3.4c-0.5-1.3-0.7-2.7-0.7-4.3c0-1.6,0.2-3,0.7-4.3
			c0.5-1.3,1.1-2.4,1.9-3.4c0.8-1,1.8-1.7,2.9-2.3c1.1-0.5,2.3-0.8,3.6-0.8c1.3,0,2.5,0.3,3.6,0.8c1.1,0.5,2.1,1.3,2.9,2.3
			c0.8,1,1.5,2.1,1.9,3.4C172.9,392.6,173.1,394,173.1,395.6z M168.4,395.6c0-0.9-0.1-1.8-0.3-2.6c-0.2-0.8-0.5-1.5-0.9-2
			c-0.4-0.6-0.9-1-1.4-1.3c-0.5-0.3-1.1-0.5-1.8-0.5c-0.7,0-1.3,0.2-1.8,0.5c-0.5,0.3-1,0.7-1.4,1.3c-0.4,0.6-0.7,1.2-0.9,2
			c-0.2,0.8-0.3,1.7-0.3,2.6c0,0.9,0.1,1.8,0.3,2.6c0.2,0.8,0.5,1.5,0.9,2c0.4,0.6,0.9,1,1.4,1.3c0.5,0.3,1.1,0.5,1.8,0.5
			c0.6,0,1.2-0.2,1.8-0.5c0.5-0.3,1-0.7,1.4-1.3c0.4-0.6,0.7-1.2,0.9-2C168.3,397.4,168.4,396.5,168.4,395.6z"/>
		<path class="st3" d="M30.1,508.8v-25.2h11.1c1.2,0,2.2,0.2,3.2,0.7c1,0.5,1.8,1.1,2.5,1.9c0.7,0.8,1.3,1.7,1.7,2.7
			c0.4,1,0.6,2,0.6,3c0,1.6-0.4,3.1-1.2,4.4c-0.8,1.3-1.9,2.3-3.3,2.9l5.7,9.5H45l-5.1-8.4H35v8.4H30.1z M35,496h6.1
			c0.4,0,0.9-0.1,1.3-0.3c0.4-0.2,0.7-0.5,1-0.9c0.3-0.4,0.5-0.8,0.7-1.3c0.2-0.5,0.2-1,0.2-1.6c0-0.6-0.1-1.1-0.3-1.6
			c-0.2-0.5-0.4-0.9-0.8-1.3c-0.3-0.4-0.7-0.6-1.1-0.9c-0.4-0.2-0.8-0.3-1.3-0.3H35V496z"/>
		<path class="st3" d="M69.1,490.2c-0.1-0.2-0.4-0.4-0.8-0.6c-0.4-0.2-0.9-0.5-1.4-0.7c-0.5-0.2-1.1-0.5-1.8-0.7
			c-0.6-0.2-1.3-0.3-2-0.4v6.1l0.9,0.2c1.2,0.3,2.3,0.7,3.3,1.1c1,0.4,1.9,0.9,2.6,1.4c0.7,0.6,1.2,1.2,1.6,2
			c0.4,0.8,0.6,1.8,0.6,2.9c0,1.3-0.2,2.4-0.7,3.3c-0.5,0.9-1.1,1.7-1.9,2.3s-1.7,1-2.8,1.3c-1.1,0.3-2.2,0.5-3.3,0.5v3.9h-2.1V509
			c-1.7-0.1-3.3-0.5-4.8-1c-1.6-0.6-3-1.3-4.3-2.2l2.2-4.2c0.2,0.2,0.5,0.4,1,0.7c0.5,0.3,1,0.6,1.7,0.9c0.6,0.3,1.4,0.6,2.2,0.8
			c0.8,0.3,1.6,0.4,2.5,0.5v-6.1c-0.2,0-0.4-0.1-0.6-0.2c-0.2-0.1-0.4-0.1-0.6-0.2c-1.2-0.3-2.2-0.7-3.1-1.1
			c-0.9-0.4-1.6-0.9-2.2-1.4c-0.6-0.5-1-1.1-1.3-1.8c-0.3-0.7-0.4-1.5-0.4-2.5c0-1.2,0.2-2.2,0.6-3.2c0.4-0.9,1-1.7,1.7-2.4
			c0.7-0.7,1.6-1.2,2.6-1.6c1-0.4,2.1-0.6,3.2-0.7v-3.6h2.1v3.6c1.6,0.1,3,0.4,4.3,1s2.5,1.1,3.5,1.8L69.1,490.2z M58.3,490.5
			c0,0.8,0.3,1.4,0.8,1.8c0.6,0.4,1.4,0.8,2.5,1.1v-5.7C59.4,487.9,58.3,488.8,58.3,490.5z M66.9,502.1c0-0.8-0.3-1.4-1-1.9
			c-0.7-0.4-1.6-0.9-2.8-1.2v5.7C65.7,504.6,66.9,503.7,66.9,502.1z"/>
		<path class="st3" d="M92.3,497.5c1.2,0,2.3,0.2,3.3,0.6c1,0.4,1.9,0.9,2.6,1.6c0.7,0.7,1.3,1.6,1.7,2.6c0.4,1,0.6,2.1,0.6,3.3
			c0,1.3-0.2,2.4-0.7,3.5c-0.5,1-1.1,1.9-1.9,2.7s-1.8,1.3-2.9,1.7c-1.1,0.4-2.4,0.6-3.7,0.6c-1.8,0-3.5-0.4-4.9-1.2
			c-1.5-0.8-2.6-1.8-3.3-3.2l2.7-2.8c0.7,0.9,1.5,1.7,2.5,2.2c1,0.5,2,0.8,3.1,0.8c1.3,0,2.3-0.4,3.1-1.2c0.8-0.8,1.2-1.8,1.2-3.1
			c0-1.2-0.4-2.2-1.2-3c-0.8-0.8-1.7-1.1-2.9-1.1c-0.8,0-1.5,0.2-2.2,0.5c-0.7,0.4-1.2,0.8-1.6,1.5h-4.1c0-0.1,0-0.3,0.1-0.8
			c0.1-0.5,0.2-1.1,0.4-1.8c0.1-0.7,0.3-1.5,0.5-2.4c0.2-0.9,0.3-1.8,0.5-2.7c0.4-2.2,0.9-4.6,1.4-7.3H99v4.3h-9l-1,5.6
			c0.3-0.3,0.7-0.6,1.3-0.7C90.8,497.6,91.5,497.5,92.3,497.5z"/>
		<path class="st3" d="M103.7,508.8v-5.1h3.9v5.1H103.7z"/>
		<path class="st3" d="M129.6,498.4c0,1.6-0.2,3-0.7,4.3c-0.5,1.3-1.1,2.4-1.9,3.4c-0.8,1-1.8,1.7-2.9,2.2c-1.1,0.5-2.3,0.8-3.6,0.8
			c-1.3,0-2.5-0.3-3.6-0.8c-1.1-0.5-2.1-1.3-2.9-2.2c-0.8-1-1.5-2.1-1.9-3.4c-0.5-1.3-0.7-2.7-0.7-4.3c0-1.6,0.2-3,0.7-4.3
			c0.5-1.3,1.1-2.4,1.9-3.4c0.8-1,1.8-1.7,2.9-2.3c1.1-0.5,2.3-0.8,3.6-0.8c1.3,0,2.5,0.3,3.6,0.8c1.1,0.5,2.1,1.3,2.9,2.3
			c0.8,1,1.5,2.1,1.9,3.4C129.4,495.4,129.6,496.8,129.6,498.4z M124.9,498.4c0-0.9-0.1-1.8-0.3-2.6c-0.2-0.8-0.5-1.5-0.9-2
			c-0.4-0.6-0.9-1-1.4-1.3c-0.5-0.3-1.1-0.5-1.8-0.5c-0.7,0-1.3,0.2-1.8,0.5c-0.5,0.3-1,0.7-1.4,1.3c-0.4,0.6-0.7,1.2-0.9,2
			c-0.2,0.8-0.3,1.7-0.3,2.6c0,0.9,0.1,1.8,0.3,2.6c0.2,0.8,0.5,1.5,0.9,2c0.4,0.6,0.9,1,1.4,1.3c0.5,0.3,1.1,0.5,1.8,0.5
			c0.6,0,1.2-0.2,1.8-0.5c0.5-0.3,1-0.7,1.4-1.3c0.4-0.6,0.7-1.2,0.9-2C124.7,500.2,124.9,499.3,124.9,498.4z"/>
		<path class="st3" d="M151.4,498.4c0,1.6-0.2,3-0.7,4.3c-0.5,1.3-1.1,2.4-1.9,3.4c-0.8,1-1.8,1.7-2.9,2.2c-1.1,0.5-2.3,0.8-3.6,0.8
			c-1.3,0-2.5-0.3-3.6-0.8c-1.1-0.5-2.1-1.3-2.9-2.2c-0.8-1-1.5-2.1-1.9-3.4c-0.5-1.3-0.7-2.7-0.7-4.3c0-1.6,0.2-3,0.7-4.3
			c0.5-1.3,1.1-2.4,1.9-3.4c0.8-1,1.8-1.7,2.9-2.3c1.1-0.5,2.3-0.8,3.6-0.8c1.3,0,2.5,0.3,3.6,0.8c1.1,0.5,2.1,1.3,2.9,2.3
			c0.8,1,1.5,2.1,1.9,3.4C151.2,495.4,151.4,496.8,151.4,498.4z M146.6,498.4c0-0.9-0.1-1.8-0.3-2.6c-0.2-0.8-0.5-1.5-0.9-2
			c-0.4-0.6-0.9-1-1.4-1.3c-0.5-0.3-1.1-0.5-1.8-0.5c-0.7,0-1.3,0.2-1.8,0.5c-0.5,0.3-1,0.7-1.4,1.3c-0.4,0.6-0.7,1.2-0.9,2
			c-0.2,0.8-0.3,1.7-0.3,2.6c0,0.9,0.1,1.8,0.3,2.6c0.2,0.8,0.5,1.5,0.9,2c0.4,0.6,0.9,1,1.4,1.3c0.5,0.3,1.1,0.5,1.8,0.5
			c0.6,0,1.2-0.2,1.8-0.5c0.5-0.3,1-0.7,1.4-1.3c0.4-0.6,0.7-1.2,0.9-2C146.5,500.2,146.6,499.3,146.6,498.4z"/>
		<path class="st3" d="M173.1,498.4c0,1.6-0.2,3-0.7,4.3c-0.5,1.3-1.1,2.4-1.9,3.4c-0.8,1-1.8,1.7-2.9,2.2c-1.1,0.5-2.3,0.8-3.6,0.8
			c-1.3,0-2.5-0.3-3.6-0.8c-1.1-0.5-2.1-1.3-2.9-2.2c-0.8-1-1.5-2.1-1.9-3.4c-0.5-1.3-0.7-2.7-0.7-4.3c0-1.6,0.2-3,0.7-4.3
			c0.5-1.3,1.1-2.4,1.9-3.4c0.8-1,1.8-1.7,2.9-2.3c1.1-0.5,2.3-0.8,3.6-0.8c1.3,0,2.5,0.3,3.6,0.8c1.1,0.5,2.1,1.3,2.9,2.3
			c0.8,1,1.5,2.1,1.9,3.4C172.9,495.4,173.1,496.8,173.1,498.4z M168.4,498.4c0-0.9-0.1-1.8-0.3-2.6c-0.2-0.8-0.5-1.5-0.9-2
			c-0.4-0.6-0.9-1-1.4-1.3c-0.5-0.3-1.1-0.5-1.8-0.5c-0.7,0-1.3,0.2-1.8,0.5c-0.5,0.3-1,0.7-1.4,1.3c-0.4,0.6-0.7,1.2-0.9,2
			c-0.2,0.8-0.3,1.7-0.3,2.6c0,0.9,0.1,1.8,0.3,2.6c0.2,0.8,0.5,1.5,0.9,2c0.4,0.6,0.9,1,1.4,1.3c0.5,0.3,1.1,0.5,1.8,0.5
			c0.6,0,1.2-0.2,1.8-0.5c0.5-0.3,1-0.7,1.4-1.3c0.4-0.6,0.7-1.2,0.9-2C168.3,500.2,168.4,499.3,168.4,498.4z"/>
		<path class="st3" d="M101.2,611.6v-25.2h11.1c1.2,0,2.2,0.2,3.2,0.7c1,0.5,1.8,1.1,2.5,1.9c0.7,0.8,1.3,1.7,1.7,2.7
			c0.4,1,0.6,2,0.6,3c0,1.6-0.4,3.1-1.2,4.4c-0.8,1.3-1.9,2.3-3.3,2.9l5.7,9.5h-5.5l-5.1-8.4h-4.8v8.4H101.2z M106.1,598.8h6.1
			c0.4,0,0.9-0.1,1.3-0.3c0.4-0.2,0.7-0.5,1-0.9c0.3-0.4,0.5-0.8,0.7-1.3c0.2-0.5,0.2-1,0.2-1.6c0-0.6-0.1-1.1-0.3-1.6
			c-0.2-0.5-0.4-0.9-0.8-1.3c-0.3-0.4-0.7-0.6-1.1-0.9c-0.4-0.2-0.8-0.3-1.3-0.3h-5.9V598.8z"/>
		<path class="st3" d="M140.2,593c-0.1-0.2-0.4-0.4-0.8-0.6c-0.4-0.2-0.9-0.5-1.4-0.7c-0.5-0.2-1.1-0.5-1.8-0.7
			c-0.6-0.2-1.3-0.3-2-0.4v6.1l0.9,0.2c1.2,0.3,2.3,0.7,3.3,1.1c1,0.4,1.9,0.9,2.6,1.4c0.7,0.6,1.2,1.2,1.6,2
			c0.4,0.8,0.6,1.8,0.6,2.9c0,1.3-0.2,2.4-0.7,3.3c-0.5,0.9-1.1,1.7-1.9,2.3c-0.8,0.6-1.7,1-2.8,1.3c-1.1,0.3-2.2,0.5-3.3,0.5v3.9
			h-2.1v-3.9c-1.7-0.1-3.3-0.5-4.8-1c-1.6-0.6-3-1.3-4.3-2.2l2.2-4.2c0.2,0.2,0.5,0.4,1,0.7c0.5,0.3,1,0.6,1.7,0.9
			c0.6,0.3,1.4,0.6,2.2,0.8c0.8,0.3,1.6,0.4,2.5,0.5v-6.1c-0.2,0-0.4-0.1-0.6-0.2c-0.2-0.1-0.4-0.1-0.6-0.2
			c-1.2-0.3-2.2-0.7-3.1-1.1c-0.9-0.4-1.6-0.9-2.2-1.4c-0.6-0.5-1-1.1-1.3-1.8c-0.3-0.7-0.4-1.5-0.4-2.5c0-1.2,0.2-2.2,0.6-3.2
			c0.4-0.9,1-1.7,1.7-2.4c0.7-0.7,1.6-1.2,2.6-1.6s2.1-0.6,3.2-0.7v-3.6h2.1v3.6c1.6,0.1,3,0.4,4.3,1c1.3,0.5,2.5,1.1,3.5,1.8
			L140.2,593z M129.4,593.3c0,0.8,0.3,1.4,0.8,1.8c0.6,0.4,1.4,0.8,2.5,1.1v-5.7C130.5,590.7,129.4,591.6,129.4,593.3z M138,604.9
			c0-0.8-0.3-1.4-1-1.9c-0.7-0.4-1.6-0.9-2.8-1.2v5.7C136.8,607.4,138,606.5,138,604.9z"/>
		<path class="st3" d="M173.1,601.2c0,1.6-0.2,3-0.7,4.3c-0.5,1.3-1.1,2.4-1.9,3.4c-0.8,1-1.8,1.7-2.9,2.2s-2.3,0.8-3.6,0.8
			c-1.3,0-2.5-0.3-3.6-0.8c-1.1-0.5-2.1-1.3-2.9-2.2c-0.8-1-1.5-2.1-1.9-3.4c-0.5-1.3-0.7-2.7-0.7-4.3c0-1.6,0.2-3,0.7-4.3
			c0.5-1.3,1.1-2.4,1.9-3.4c0.8-1,1.8-1.7,2.9-2.3c1.1-0.5,2.3-0.8,3.6-0.8c1.3,0,2.5,0.3,3.6,0.8c1.1,0.5,2.1,1.3,2.9,2.3
			c0.8,1,1.5,2.1,1.9,3.4C172.9,598.2,173.1,599.6,173.1,601.2z M168.4,601.2c0-0.9-0.1-1.8-0.3-2.6c-0.2-0.8-0.5-1.5-0.9-2
			c-0.4-0.6-0.9-1-1.4-1.3c-0.5-0.3-1.1-0.5-1.8-0.5c-0.7,0-1.3,0.2-1.8,0.5c-0.5,0.3-1,0.7-1.4,1.3c-0.4,0.6-0.7,1.2-0.9,2
			c-0.2,0.8-0.3,1.7-0.3,2.6c0,0.9,0.1,1.8,0.3,2.6c0.2,0.8,0.5,1.5,0.9,2c0.4,0.6,0.9,1,1.4,1.3c0.5,0.3,1.1,0.5,1.8,0.5
			c0.6,0,1.2-0.2,1.8-0.5c0.5-0.3,1-0.7,1.4-1.3c0.4-0.6,0.7-1.2,0.9-2C168.3,603,168.4,602.1,168.4,601.2z"/>
	</g>
</g>
<g>
	<g>
		<path class="st3" d="M231.4,667.7v4.3H217v-4.3h5V657c-0.2,0.3-0.5,0.6-1,0.9c-0.5,0.3-1,0.6-1.5,0.8c-0.5,0.3-1.1,0.5-1.7,0.6
			c-0.6,0.2-1.1,0.2-1.5,0.2v-4.4c0.4,0,0.9-0.1,1.6-0.4c0.6-0.3,1.2-0.6,1.8-1c0.6-0.4,1.1-0.7,1.5-1.1c0.4-0.4,0.7-0.7,0.8-0.9
			h4.9v15.9H231.4z"/>
		<path class="st3" d="M271.8,672H267v-10.4c0-1.5-0.3-2.6-0.8-3.3c-0.5-0.7-1.2-1-2.1-1c-0.9,0-1.8,0.4-2.7,1.1
			c-0.8,0.7-1.4,1.7-1.8,2.8V672H255v-10.4c0-1.5-0.3-2.6-0.8-3.3c-0.5-0.7-1.2-1-2.1-1c-0.9,0-1.8,0.4-2.6,1.1s-1.4,1.6-1.8,2.8
			V672h-4.7v-18.6h4.3v3.4c0.7-1.2,1.6-2.1,2.8-2.8c1.2-0.6,2.6-1,4.1-1c1.6,0,2.8,0.4,3.6,1.1c0.9,0.8,1.4,1.7,1.6,2.8
			c0.8-1.3,1.7-2.3,2.9-2.9c1.2-0.7,2.5-1,4-1c1.1,0,2.1,0.2,2.8,0.6c0.7,0.4,1.3,1,1.7,1.7c0.4,0.7,0.7,1.5,0.8,2.3
			c0.2,0.9,0.2,1.8,0.2,2.7V672z"/>
		<path class="st3" d="M284.5,672.4c-1.5,0-2.8-0.3-4-0.8c-1.2-0.5-2.2-1.2-3.1-2.1c-0.9-0.9-1.5-1.9-2-3c-0.5-1.2-0.7-2.4-0.7-3.6
			c0-1.3,0.2-2.6,0.7-3.7c0.4-1.2,1.1-2.2,1.9-3.1c0.9-0.9,1.9-1.6,3.1-2.1c1.2-0.5,2.6-0.8,4.1-0.8c1.5,0,2.9,0.3,4.1,0.8
			c1.2,0.5,2.2,1.2,3,2.1c0.8,0.9,1.5,1.9,1.9,3c0.4,1.2,0.7,2.4,0.7,3.6c0,0.3,0,0.6,0,0.9c0,0.3,0,0.5-0.1,0.7h-14.4
			c0.1,0.7,0.2,1.4,0.5,1.9c0.3,0.6,0.6,1.1,1.1,1.5c0.4,0.4,1,0.7,1.5,0.9c0.6,0.2,1.2,0.3,1.8,0.3c0.9,0,1.8-0.2,2.7-0.7
			c0.8-0.5,1.4-1.1,1.7-1.8l4.1,1.1c-0.7,1.4-1.8,2.6-3.3,3.5C288.4,671.9,286.6,672.4,284.5,672.4z M279,649.7l3.8-3.6h3.4l3.8,3.6
			l-2.4,1.1l-3-2.2l-3,2.2L279,649.7z M289.3,661.2c-0.1-1.4-0.6-2.5-1.5-3.3c-0.9-0.8-2-1.3-3.3-1.3c-0.6,0-1.2,0.1-1.8,0.3
			c-0.6,0.2-1,0.5-1.5,0.9c-0.4,0.4-0.8,0.9-1,1.5c-0.3,0.6-0.4,1.2-0.5,1.9H289.3z"/>
		<path class="st3" d="M304.1,672.4c-1.6,0-3.1-0.2-4.6-0.7c-1.5-0.5-2.8-1.2-3.8-2.1l1.8-3c1.1,0.8,2.2,1.4,3.3,1.8
			c1.1,0.4,2.1,0.6,3.2,0.6c0.9,0,1.7-0.2,2.2-0.5c0.5-0.4,0.8-0.9,0.8-1.5c0-0.7-0.3-1.1-1-1.5c-0.6-0.3-1.7-0.7-3.1-1.1
			c-1.2-0.3-2.2-0.6-3.1-1c-0.9-0.3-1.5-0.7-2.1-1c-0.5-0.4-0.9-0.8-1.1-1.3c-0.2-0.5-0.4-1.1-0.4-1.8c0-0.9,0.2-1.8,0.5-2.6
			c0.4-0.8,0.9-1.4,1.5-1.9c0.7-0.5,1.4-0.9,2.3-1.2c0.9-0.3,1.8-0.4,2.9-0.4c1.4,0,2.7,0.2,3.9,0.6c1.2,0.4,2.3,1.1,3.3,1.9
			l-1.9,2.9c-0.9-0.7-1.9-1.2-2.7-1.6c-0.9-0.3-1.8-0.5-2.6-0.5c-0.8,0-1.5,0.2-2,0.5c-0.5,0.3-0.8,0.9-0.8,1.6
			c0,0.3,0.1,0.6,0.2,0.8c0.1,0.2,0.3,0.4,0.6,0.6c0.3,0.2,0.7,0.3,1.1,0.5c0.5,0.2,1,0.3,1.7,0.5c1.3,0.3,2.4,0.7,3.3,1
			c0.9,0.3,1.7,0.7,2.2,1.1c0.6,0.4,1,0.9,1.3,1.5c0.3,0.6,0.4,1.2,0.4,2c0,1.8-0.7,3.3-2,4.3C308.3,671.9,306.5,672.4,304.1,672.4z
			"/>
		<path class="st3" d="M434.7,663.6c0,1.2-0.2,2.4-0.7,3.4c-0.5,1.1-1.1,2-1.9,2.8s-1.8,1.4-2.9,1.9c-1.1,0.4-2.3,0.7-3.6,0.7
			c-1.4,0-2.7-0.3-3.8-0.8c-1.1-0.5-2.1-1.3-2.9-2.3c-0.8-1-1.4-2.2-1.8-3.6c-0.4-1.4-0.6-3.1-0.6-4.9c0-2.3,0.2-4.3,0.7-6.1
			c0.4-1.8,1.1-3.2,1.9-4.4c0.9-1.2,1.9-2.1,3.1-2.7c1.2-0.6,2.6-0.9,4-0.9c1.6,0,3,0.3,4.4,1c1.3,0.7,2.5,1.7,3.4,2.9l-2.7,3
			c-0.6-0.9-1.3-1.6-2.2-2.1c-0.9-0.5-1.9-0.7-2.9-0.7c-1.6,0-2.8,0.6-3.8,1.9c-0.9,1.3-1.4,3-1.5,5.3c0.5-0.9,1.2-1.5,2.1-2
			c0.9-0.5,2-0.7,3.2-0.7c1.2,0,2.4,0.2,3.5,0.6c1.1,0.4,2,1,2.8,1.8c0.8,0.8,1.4,1.6,1.9,2.7C434.5,661.3,434.7,662.4,434.7,663.6z
			 M425.5,668.4c0.6,0,1.2-0.1,1.8-0.4c0.6-0.2,1.1-0.6,1.5-1c0.4-0.4,0.8-0.9,1-1.5c0.2-0.6,0.4-1.2,0.4-1.8c0-0.6-0.1-1.2-0.4-1.8
			c-0.2-0.6-0.6-1-1-1.5c-0.4-0.4-0.9-0.8-1.5-1c-0.6-0.2-1.2-0.4-1.8-0.4c-0.6,0-1.2,0.1-1.8,0.4c-0.6,0.2-1.1,0.6-1.5,1
			c-0.4,0.4-0.8,0.9-1,1.5c-0.2,0.6-0.4,1.2-0.4,1.8c0,0.6,0.1,1.2,0.4,1.8c0.2,0.6,0.6,1.1,1,1.5c0.4,0.4,0.9,0.8,1.5,1
			C424.3,668.2,424.9,668.4,425.5,668.4z"/>
		<path class="st3" d="M475.6,672h-4.7v-10.4c0-1.5-0.3-2.6-0.8-3.3c-0.5-0.7-1.2-1-2.1-1c-0.9,0-1.8,0.4-2.7,1.1s-1.4,1.7-1.8,2.8
			V672h-4.7v-10.4c0-1.5-0.3-2.6-0.8-3.3c-0.5-0.7-1.2-1-2.1-1c-0.9,0-1.8,0.4-2.6,1.1s-1.4,1.6-1.8,2.8V672h-4.7v-18.6h4.3v3.4
			c0.7-1.2,1.6-2.1,2.8-2.8c1.2-0.6,2.6-1,4.1-1c1.6,0,2.8,0.4,3.6,1.1c0.9,0.8,1.4,1.7,1.6,2.8c0.8-1.3,1.7-2.3,2.9-2.9
			c1.2-0.7,2.5-1,4-1c1.1,0,2.1,0.2,2.8,0.6c0.7,0.4,1.3,1,1.7,1.7c0.4,0.7,0.7,1.5,0.8,2.3c0.2,0.9,0.2,1.8,0.2,2.7V672z"/>
		<path class="st3" d="M488.4,672.4c-1.5,0-2.8-0.3-4-0.8c-1.2-0.5-2.2-1.2-3.1-2.1c-0.9-0.9-1.5-1.9-2-3c-0.5-1.2-0.7-2.4-0.7-3.6
			c0-1.3,0.2-2.6,0.7-3.7c0.4-1.2,1.1-2.2,1.9-3.1c0.9-0.9,1.9-1.6,3.1-2.1c1.2-0.5,2.6-0.8,4.1-0.8c1.5,0,2.9,0.3,4.1,0.8
			c1.2,0.5,2.2,1.2,3,2.1c0.8,0.9,1.5,1.9,1.9,3c0.4,1.2,0.7,2.4,0.7,3.6c0,0.3,0,0.6,0,0.9c0,0.3,0,0.5-0.1,0.7h-14.4
			c0.1,0.7,0.2,1.4,0.5,1.9c0.3,0.6,0.6,1.1,1.1,1.5c0.4,0.4,1,0.7,1.5,0.9c0.6,0.2,1.2,0.3,1.8,0.3c0.9,0,1.8-0.2,2.7-0.7
			c0.8-0.5,1.4-1.1,1.7-1.8l4.1,1.1c-0.7,1.4-1.8,2.6-3.3,3.5C492.3,671.9,490.5,672.4,488.4,672.4z M493.2,661.2
			c-0.1-1.4-0.6-2.5-1.5-3.3c-0.9-0.8-2-1.3-3.3-1.3c-0.6,0-1.2,0.1-1.8,0.3c-0.6,0.2-1,0.5-1.5,0.9c-0.4,0.4-0.8,0.9-1,1.5
			c-0.3,0.6-0.4,1.2-0.5,1.9H493.2z"/>
		<path class="st3" d="M508,672.4c-1.6,0-3.1-0.2-4.6-0.7c-1.5-0.5-2.8-1.2-3.8-2.1l1.8-3c1.1,0.8,2.2,1.4,3.3,1.8
			c1.1,0.4,2.1,0.6,3.2,0.6c0.9,0,1.7-0.2,2.2-0.5c0.5-0.4,0.8-0.9,0.8-1.5c0-0.7-0.3-1.1-1-1.5c-0.6-0.3-1.7-0.7-3.1-1.1
			c-1.2-0.3-2.2-0.6-3.1-1c-0.9-0.3-1.5-0.7-2.1-1c-0.5-0.4-0.9-0.8-1.1-1.3c-0.2-0.5-0.4-1.1-0.4-1.8c0-0.9,0.2-1.8,0.5-2.6
			s0.9-1.4,1.5-1.9c0.7-0.5,1.4-0.9,2.3-1.2c0.9-0.3,1.8-0.4,2.9-0.4c1.4,0,2.7,0.2,3.9,0.6c1.2,0.4,2.3,1.1,3.3,1.9l-1.9,2.9
			c-0.9-0.7-1.9-1.2-2.7-1.6c-0.9-0.3-1.8-0.5-2.6-0.5c-0.8,0-1.5,0.2-2,0.5c-0.5,0.3-0.8,0.9-0.8,1.6c0,0.3,0.1,0.6,0.2,0.8
			c0.1,0.2,0.3,0.4,0.6,0.6c0.3,0.2,0.7,0.3,1.1,0.5c0.5,0.2,1,0.3,1.7,0.5c1.3,0.3,2.4,0.7,3.3,1c0.9,0.3,1.7,0.7,2.2,1.1
			c0.6,0.4,1,0.9,1.3,1.5c0.3,0.6,0.4,1.2,0.4,2c0,1.8-0.7,3.3-2,4.3S510.3,672.4,508,672.4z"/>
		<path class="st3" d="M527.2,672.4c-1.5,0-2.8-0.3-4-0.8c-1.2-0.5-2.2-1.2-3.1-2.1c-0.9-0.9-1.5-1.9-2-3s-0.7-2.4-0.7-3.6
			c0-1.3,0.2-2.6,0.7-3.7c0.4-1.2,1.1-2.2,1.9-3.1c0.9-0.9,1.9-1.6,3.1-2.1c1.2-0.5,2.6-0.8,4.1-0.8c1.5,0,2.9,0.3,4.1,0.8
			c1.2,0.5,2.2,1.2,3,2.1c0.8,0.9,1.5,1.9,1.9,3c0.4,1.2,0.7,2.4,0.7,3.6c0,0.3,0,0.6,0,0.9c0,0.3,0,0.5-0.1,0.7h-14.4
			c0.1,0.7,0.2,1.4,0.5,1.9c0.3,0.6,0.6,1.1,1.1,1.5c0.4,0.4,1,0.7,1.5,0.9c0.6,0.2,1.2,0.3,1.8,0.3c0.9,0,1.8-0.2,2.7-0.7
			c0.8-0.5,1.4-1.1,1.7-1.8l4.1,1.1c-0.7,1.4-1.8,2.6-3.3,3.5C531.1,671.9,529.3,672.4,527.2,672.4z M532,661.2
			c-0.1-1.4-0.6-2.5-1.5-3.3c-0.9-0.8-2-1.3-3.3-1.3c-0.6,0-1.2,0.1-1.8,0.3c-0.6,0.2-1,0.5-1.5,0.9c-0.4,0.4-0.8,0.9-1,1.5
			c-0.3,0.6-0.4,1.2-0.5,1.9H532z"/>
		<path class="st3" d="M546.8,672.4c-1.6,0-3.1-0.2-4.6-0.7c-1.5-0.5-2.8-1.2-3.8-2.1l1.8-3c1.1,0.8,2.2,1.4,3.3,1.8
			c1.1,0.4,2.1,0.6,3.2,0.6c0.9,0,1.7-0.2,2.2-0.5c0.5-0.4,0.8-0.9,0.8-1.5c0-0.7-0.3-1.1-1-1.5c-0.6-0.3-1.7-0.7-3.1-1.1
			c-1.2-0.3-2.2-0.6-3.1-1c-0.9-0.3-1.5-0.7-2.1-1c-0.5-0.4-0.9-0.8-1.1-1.3c-0.2-0.5-0.4-1.1-0.4-1.8c0-0.9,0.2-1.8,0.5-2.6
			c0.4-0.8,0.9-1.4,1.5-1.9c0.7-0.5,1.4-0.9,2.3-1.2c0.9-0.3,1.8-0.4,2.9-0.4c1.4,0,2.7,0.2,3.9,0.6c1.2,0.4,2.3,1.1,3.3,1.9
			l-1.9,2.9c-0.9-0.7-1.9-1.2-2.7-1.6c-0.9-0.3-1.8-0.5-2.6-0.5c-0.8,0-1.5,0.2-2,0.5c-0.5,0.3-0.8,0.9-0.8,1.6
			c0,0.3,0.1,0.6,0.2,0.8c0.1,0.2,0.3,0.4,0.6,0.6c0.3,0.2,0.7,0.3,1.1,0.5c0.5,0.2,1,0.3,1.7,0.5c1.3,0.3,2.4,0.7,3.3,1
			c0.9,0.3,1.7,0.7,2.2,1.1c0.6,0.4,1,0.9,1.3,1.5c0.3,0.6,0.4,1.2,0.4,2c0,1.8-0.7,3.3-2,4.3C551,671.9,549.2,672.4,546.8,672.4z"
			/>
		<path class="st3" d="M682.5,667.7v4.3h-14.4v-4.3h5V657c-0.2,0.3-0.5,0.6-1,0.9c-0.5,0.3-1,0.6-1.5,0.8s-1.1,0.5-1.7,0.6
			c-0.6,0.2-1.1,0.2-1.5,0.2v-4.4c0.4,0,0.9-0.1,1.6-0.4c0.6-0.3,1.2-0.6,1.8-1c0.6-0.4,1.1-0.7,1.5-1.1c0.4-0.4,0.7-0.7,0.8-0.9
			h4.9v15.9H682.5z"/>
		<path class="st3" d="M699.1,672.4c-0.9,0-1.7-0.1-2.5-0.4c-0.8-0.3-1.5-0.7-2-1.2c-0.6-0.5-1-1.2-1.3-1.9
			c-0.3-0.7-0.5-1.5-0.5-2.3c0-0.9,0.2-1.7,0.6-2.4c0.4-0.7,0.9-1.4,1.6-1.9c0.7-0.5,1.5-0.9,2.5-1.2c1-0.3,2-0.4,3.2-0.4
			c0.8,0,1.6,0.1,2.4,0.2c0.8,0.1,1.5,0.3,2.1,0.6v-1.1c0-1.2-0.3-2.2-1-2.8c-0.7-0.7-1.7-1-3.1-1c-1,0-2,0.2-2.9,0.5
			c-0.9,0.4-1.9,0.9-2.9,1.6l-1.5-3c2.4-1.6,5-2.4,7.7-2.4c2.7,0,4.7,0.7,6.2,2c1.5,1.3,2.2,3.2,2.2,5.7v5.8c0,0.5,0.1,0.9,0.3,1.1
			c0.2,0.2,0.5,0.3,0.9,0.4v4c-0.8,0.2-1.5,0.2-2.1,0.2c-0.9,0-1.6-0.2-2.1-0.6c-0.5-0.4-0.8-0.9-0.9-1.6l-0.1-1
			c-0.8,1.1-1.8,1.9-3,2.5C701.7,672.1,700.4,672.4,699.1,672.4z M700.4,668.9c0.8,0,1.6-0.1,2.3-0.4c0.7-0.3,1.3-0.7,1.7-1.1
			c0.5-0.4,0.8-0.9,0.8-1.3v-2.1c-0.6-0.2-1.2-0.4-1.8-0.5c-0.7-0.1-1.3-0.2-1.9-0.2c-1.2,0-2.2,0.3-3,0.8c-0.8,0.6-1.2,1.3-1.2,2.1
			c0,0.8,0.3,1.5,0.9,2C698.8,668.6,699.5,668.9,700.4,668.9z"/>
		<path class="st3" d="M731.6,672h-4.7v-10.4c0-1.5-0.3-2.6-0.8-3.3c-0.5-0.7-1.2-1-2.2-1c-0.5,0-1,0.1-1.5,0.3
			c-0.5,0.2-1,0.5-1.4,0.8c-0.4,0.3-0.8,0.8-1.2,1.2c-0.4,0.5-0.6,1-0.8,1.6V672h-4.7v-18.6h4.3v3.4c0.7-1.2,1.7-2.1,3-2.8
			c1.3-0.7,2.8-1,4.4-1c1.2,0,2.1,0.2,2.8,0.6c0.7,0.4,1.3,1,1.7,1.7c0.4,0.7,0.7,1.5,0.8,2.3c0.2,0.9,0.2,1.8,0.2,2.7V672z"/>
		<path class="st3" d="M744.3,672.4c-1.5,0-2.9-0.3-4.1-0.8c-1.2-0.5-2.2-1.2-3.1-2.1c-0.8-0.9-1.5-1.9-1.9-3.1
			c-0.4-1.2-0.7-2.4-0.7-3.6c0-1.3,0.2-2.5,0.7-3.7c0.4-1.2,1.1-2.2,1.9-3.1c0.8-0.9,1.9-1.6,3.1-2.1c1.2-0.5,2.6-0.8,4.1-0.8
			c1.5,0,2.9,0.3,4.1,0.8c1.2,0.5,2.2,1.2,3,2.1c0.8,0.9,1.5,1.9,1.9,3.1c0.4,1.2,0.7,2.4,0.7,3.7c0,1.3-0.2,2.5-0.7,3.6
			c-0.4,1.2-1.1,2.2-1.9,3.1c-0.8,0.9-1.8,1.6-3,2.1C747.2,672.1,745.8,672.4,744.3,672.4z M739.5,662.8c0,0.8,0.1,1.6,0.4,2.3
			c0.2,0.7,0.6,1.3,1,1.8c0.4,0.5,1,0.9,1.5,1.2c0.6,0.3,1.2,0.4,1.9,0.4s1.3-0.1,1.9-0.4c0.6-0.3,1.1-0.7,1.5-1.2
			c0.4-0.5,0.8-1.1,1-1.8c0.2-0.7,0.4-1.4,0.4-2.3c0-0.8-0.1-1.5-0.4-2.2c-0.2-0.7-0.6-1.3-1-1.8c-0.4-0.5-1-0.9-1.5-1.2
			c-0.6-0.3-1.2-0.4-1.9-0.4s-1.3,0.1-1.9,0.4c-0.6,0.3-1.1,0.7-1.5,1.2c-0.4,0.5-0.8,1.1-1,1.8C739.6,661.2,739.5,662,739.5,662.8z
			"/>
		<path class="st3" d="M858.4,672c0-1.1,0.1-2,0.2-2.9c0.2-0.9,0.5-1.7,0.9-2.4c0.4-0.7,1-1.4,1.7-2.1c0.7-0.6,1.6-1.3,2.7-1.9
			c1-0.5,1.8-1,2.6-1.4c0.7-0.4,1.4-0.7,1.9-1.1c0.5-0.3,0.9-0.7,1.1-1c0.3-0.3,0.4-0.7,0.4-1.2c0-0.7-0.3-1.3-0.9-1.8
			c-0.6-0.5-1.4-0.8-2.4-0.8c-0.6,0-1.1,0.1-1.6,0.2c-0.5,0.2-0.9,0.4-1.3,0.6c-0.4,0.3-0.8,0.5-1.1,0.9c-0.3,0.3-0.7,0.7-0.9,1
			l-3-3.5c0.3-0.3,0.7-0.7,1.3-1.1c0.6-0.4,1.2-0.8,2-1.1c0.8-0.3,1.6-0.6,2.6-0.9c0.9-0.2,1.9-0.3,3-0.3c1.2,0,2.3,0.1,3.2,0.4
			c0.9,0.3,1.7,0.7,2.4,1.2c0.6,0.5,1.1,1.2,1.5,1.9c0.3,0.7,0.5,1.6,0.5,2.4c0,0.8-0.2,1.6-0.5,2.2c-0.3,0.6-0.7,1.2-1.2,1.7
			c-0.5,0.5-1,0.9-1.5,1.3c-0.6,0.4-1.1,0.7-1.6,1c-0.4,0.2-0.9,0.5-1.5,0.8c-0.5,0.3-1.1,0.6-1.6,1c-0.5,0.4-1,0.7-1.5,1.1
			c-0.4,0.4-0.8,0.8-1,1.2h10.7v4.3H858.4z"/>
		<path class="st3" d="M892.8,672.4c-0.9,0-1.7-0.1-2.5-0.4c-0.8-0.3-1.5-0.7-2-1.2c-0.6-0.5-1-1.2-1.3-1.9
			c-0.3-0.7-0.5-1.5-0.5-2.3c0-0.9,0.2-1.7,0.6-2.4c0.4-0.7,0.9-1.4,1.6-1.9s1.5-0.9,2.5-1.2c1-0.3,2-0.4,3.2-0.4
			c0.8,0,1.6,0.1,2.4,0.2c0.8,0.1,1.5,0.3,2.1,0.6v-1.1c0-1.2-0.3-2.2-1-2.8c-0.7-0.7-1.7-1-3.1-1c-1,0-2,0.2-2.9,0.5
			c-0.9,0.4-1.9,0.9-2.9,1.6l-1.5-3c2.4-1.6,5-2.4,7.7-2.4c2.7,0,4.7,0.7,6.2,2c1.5,1.3,2.2,3.2,2.2,5.7v5.8c0,0.5,0.1,0.9,0.3,1.1
			c0.2,0.2,0.5,0.3,0.9,0.4v4c-0.8,0.2-1.5,0.2-2.1,0.2c-0.9,0-1.6-0.2-2.1-0.6c-0.5-0.4-0.8-0.9-0.9-1.6l-0.1-1
			c-0.8,1.1-1.8,1.9-3,2.5C895.4,672.1,894.1,672.4,892.8,672.4z M894.1,668.9c0.8,0,1.6-0.1,2.3-0.4c0.7-0.3,1.3-0.7,1.7-1.1
			c0.5-0.4,0.8-0.9,0.8-1.3v-2.1c-0.6-0.2-1.2-0.4-1.8-0.5c-0.7-0.1-1.3-0.2-1.9-0.2c-1.2,0-2.2,0.3-3,0.8c-0.8,0.6-1.2,1.3-1.2,2.1
			c0,0.8,0.3,1.5,0.9,2C892.5,668.6,893.2,668.9,894.1,668.9z"/>
		<path class="st3" d="M925.3,672h-4.7v-10.4c0-1.5-0.3-2.6-0.8-3.3c-0.5-0.7-1.2-1-2.2-1c-0.5,0-1,0.1-1.5,0.3
			c-0.5,0.2-1,0.5-1.4,0.8c-0.4,0.3-0.8,0.8-1.2,1.2c-0.4,0.5-0.6,1-0.8,1.6V672h-4.7v-18.6h4.3v3.4c0.7-1.2,1.7-2.1,3-2.8
			c1.3-0.7,2.8-1,4.4-1c1.2,0,2.1,0.2,2.8,0.6c0.7,0.4,1.3,1,1.7,1.7c0.4,0.7,0.7,1.5,0.8,2.3c0.2,0.9,0.2,1.8,0.2,2.7V672z"/>
		<path class="st3" d="M938,672.4c-1.5,0-2.9-0.3-4.1-0.8c-1.2-0.5-2.2-1.2-3.1-2.1c-0.8-0.9-1.5-1.9-1.9-3.1
			c-0.4-1.2-0.7-2.4-0.7-3.6c0-1.3,0.2-2.5,0.7-3.7c0.4-1.2,1.1-2.2,1.9-3.1c0.8-0.9,1.9-1.6,3.1-2.1c1.2-0.5,2.6-0.8,4.1-0.8
			c1.5,0,2.9,0.3,4.1,0.8c1.2,0.5,2.2,1.2,3,2.1c0.8,0.9,1.5,1.9,1.9,3.1c0.4,1.2,0.7,2.4,0.7,3.7c0,1.3-0.2,2.5-0.7,3.6
			c-0.4,1.2-1.1,2.2-1.9,3.1c-0.8,0.9-1.8,1.6-3,2.1C940.9,672.1,939.6,672.4,938,672.4z M933.2,662.8c0,0.8,0.1,1.6,0.4,2.3
			s0.6,1.3,1,1.8c0.4,0.5,1,0.9,1.5,1.2c0.6,0.3,1.2,0.4,1.9,0.4s1.3-0.1,1.9-0.4c0.6-0.3,1.1-0.7,1.5-1.2c0.4-0.5,0.8-1.1,1-1.8
			c0.2-0.7,0.4-1.4,0.4-2.3c0-0.8-0.1-1.5-0.4-2.2c-0.2-0.7-0.6-1.3-1-1.8c-0.4-0.5-1-0.9-1.5-1.2c-0.6-0.3-1.2-0.4-1.9-0.4
			s-1.3,0.1-1.9,0.4c-0.6,0.3-1.1,0.7-1.5,1.2c-0.4,0.5-0.8,1.1-1,1.8S933.2,662,933.2,662.8z"/>
		<path class="st3" d="M958,672.4c-1.6,0-3.1-0.2-4.6-0.7c-1.5-0.5-2.8-1.2-3.8-2.1l1.8-3c1.1,0.8,2.2,1.4,3.3,1.8
			c1.1,0.4,2.1,0.6,3.2,0.6c0.9,0,1.7-0.2,2.2-0.5c0.5-0.4,0.8-0.9,0.8-1.5c0-0.7-0.3-1.1-1-1.5c-0.6-0.3-1.7-0.7-3.1-1.1
			c-1.2-0.3-2.2-0.6-3.1-1c-0.9-0.3-1.5-0.7-2.1-1c-0.5-0.4-0.9-0.8-1.1-1.3c-0.2-0.5-0.4-1.1-0.4-1.8c0-0.9,0.2-1.8,0.5-2.6
			c0.4-0.8,0.9-1.4,1.5-1.9c0.7-0.5,1.4-0.9,2.3-1.2c0.9-0.3,1.8-0.4,2.9-0.4c1.4,0,2.7,0.2,3.9,0.6c1.2,0.4,2.3,1.1,3.3,1.9
			l-1.9,2.9c-0.9-0.7-1.9-1.2-2.7-1.6c-0.9-0.3-1.8-0.5-2.6-0.5c-0.8,0-1.5,0.2-2,0.5c-0.5,0.3-0.8,0.9-0.8,1.6
			c0,0.3,0.1,0.6,0.2,0.8c0.1,0.2,0.3,0.4,0.6,0.6c0.3,0.2,0.7,0.3,1.1,0.5c0.5,0.2,1,0.3,1.7,0.5c1.3,0.3,2.4,0.7,3.3,1
			c0.9,0.3,1.7,0.7,2.2,1.1c0.6,0.4,1,0.9,1.3,1.5s0.4,1.2,0.4,2c0,1.8-0.7,3.3-2,4.3C962.1,671.9,960.3,672.4,958,672.4z"/>
	</g>
</g>
<path class="st0" d="M190.9,610.9l20.1-8.2c6.7-2.8,13.4-5.4,20.1-8.2l20.1-8.1l20.1-8l20.1-8l10.1-4l10.1-3.9l40.4-15.8l1.3-0.5
	l1.5,0.4c6.4,1.6,12.8,3.1,19.3,4.8l19.2,4.8l38.5,9.6l-4.4,0.5c12.3-7,24.7-13.9,37-20.8l37.1-20.7l37.1-20.6l37.2-20.5l3.9-2.2
	l3.7,2.6l27.1,19.4l27,19.4l27,19.5l27,19.5l-9.1,0.8l23.4-24l23.4-24l23.5-23.9c7.8-8,15.7-15.9,23.6-23.9l3.1-3.2l3.7,2.1
	l32.8,18.3l16.4,9.2l16.4,9.2l-5.4,0.8l28.9-28.7l29.1-28.6c9.7-9.5,19.4-19,29.2-28.5c4.9-4.7,9.7-9.5,14.7-14.2l14.7-14.1
	l-13.6,15.2c-4.5,5.1-9.1,10.1-13.7,15.1c-9.1,10.1-18.3,20.1-27.5,30.1l-27.6,30l-27.7,29.9l-2.3,2.4l-3.1-1.6l-16.7-8.6l-16.7-8.7
	l-33.4-17.3l6.8-1.1c-7.6,8.2-15.2,16.4-22.9,24.5l-23,24.4l-23,24.4l-23.1,24.3l-4.1,4.4l-5-3.5L656.2,554l-27.1-19.4L602,515.2
	l-27-19.5l7.6,0.5l-37.3,20.2l-37.4,20.1l-37.4,20.1c-12.5,6.7-24.9,13.4-37.5,19.9l-2.2,1.1l-2.2-0.6l-38.2-10.7l-19.1-5.4
	c-6.4-1.8-12.7-3.6-19.1-5.4l2.8-0.1l-41,14.1l-10.2,3.5l-10.3,3.5l-20.5,7l-20.5,6.9l-20.6,6.8c-6.9,2.3-13.7,4.6-20.6,6.8
	L190.9,610.9z"/>
<path class="st1" d="M182.9,592.9l39.8-42.8c4.9-5.9,9.7-11.7,14.6-17.5c9.8-11.6,19.5-23.3,29.4-34.9l29.5-34.8l29.7-34.6l1.7-2
	l2.7,0.5l22.9,4.6l22.9,4.7l45.8,9.4l-6.4,2.9c6.2-11.8,12.5-23.5,18.7-35.3l18.8-35.2l18.9-35.2l19-35.2l2.5-4.7l5.2,1.2l57.3,12.8
	l57.3,12.9l-6.4,1.7l44.8-40.4l44.9-40.3l45-40.2l45.2-40l2.9-2.6l3.2,1.9c10.1,5.9,20.2,11.7,30.3,17.6l30.2,17.7l-4.6,0.3
	c10.6-8,21.2-16,31.9-24l32-23.9l32.1-23.7l16.1-11.8l16.1-11.7l-15.3,12.8l-15.3,12.8l-30.8,25.4L884.8,187
	c-10.3,8.5-20.6,16.8-30.9,25.2l-2.1,1.7l-2.5-1.3l-30.9-16.6c-10.3-5.5-20.5-11.2-30.8-16.7l6.1-0.7l-44.1,41.2l-44.3,41L661,301.4
	l-44.5,40.7l-2.7,2.5l-3.6-0.8L552.8,331l-57.3-13l7.8-3.5l-19.2,35l-19.3,35l-19.4,34.9c-6.5,11.6-12.9,23.3-19.5,34.9l-2.2,3.9
	l-4.2-1l-45.6-10.6l-22.8-5.3l-22.8-5.4l4.4-1.4l-30.9,33.5l-31.1,33.4c-10.3,11.1-20.8,22.2-31.2,33.3
	c-5.2,5.5-10.4,11.1-15.7,16.6L182.9,592.9z"/>
<path class="st2" d="M186.5,599.1l38.3-26.7l16.7-12.5l33.5-24.9l33.6-24.8l16.8-12.4l16.9-12.3l1.8-1.3l2.2,0.9l43.1,17.8l21.6,8.9
	l21.5,9l-6.4,1.3l33.6-36.4l33.7-36.3l33.7-36.2l33.8-36.2l5.7-6.1l5.4,6.4l32.9,38.4l32.8,38.5l-12.1,0.5l28.6-39.5l28.6-39.4
	l28.7-39.4l28.8-39.3l7.7-10.5l4.7,12.1l16.9,43.9l16.9,43.9l-10.4-1.9l34.8-36.9l17.4-18.4l17.5-18.4l2.1-2.2l2.8,0.9l28.1,9
	c9.4,3,18.7,6,28.1,9l-3.9,1.2l22.6-26.5c7.5-8.8,15.1-17.7,22.7-26.5l22.8-26.4c7.6-8.8,15.2-17.6,22.9-26.3
	c-7,9.3-14.1,18.5-21.1,27.7l-21.3,27.6c-7.1,9.2-14.2,18.4-21.4,27.6l-21.4,27.5l-1.5,1.9l-2.5-0.7c-9.5-2.6-18.9-5.3-28.4-8
	l-28.4-8l4.9-1.3l-16.8,19l-16.9,18.9l-33.8,37.8l-6.6,7.4l-3.8-9.3l-17.8-43.5l-17.7-43.6l12.4,1.5L723.7,345l-28.4,39.6
	l-28.5,39.5l-28.5,39.5l-5.8,8l-6.4-7.5l-32.7-38.6l-32.7-38.7l11.1,0.3l-34.2,35.8l-34.3,35.7L469,494.3l-34.4,35.6l-2.8,2.9
	l-3.6-1.6l-21.3-9.6l-21.3-9.6l-42.5-19.3l4.1-0.4L329.9,504l-17.4,11.6l-34.7,23.3L243,562l-17.4,11.5L186.5,599.1z"/>
</svg>
