<?xml version="1.0" encoding="utf-8"?>
<!-- Generator: Adobe Illustrator 23.0.1, SVG Export Plug-In . SVG Version: 6.00 Build 0)  -->
<svg version="1.1" xmlns="http://www.w3.org/2000/svg" xmlns:xlink="http://www.w3.org/1999/xlink" x="0px" y="0px" width="1000px"
	 height="1000px" viewBox="0 0 1000 1000" style="enable-background:new 0 0 1000 1000;" xml:space="preserve">
<style type="text/css">
	.st0{fill:#00182E;}
	.st1{fill:#00315D;}
	.st2{fill:#FFFFFF;}
	.st3{fill:#28B5FD;}
</style>
<g id="Camada_2">
</g>
<g id="Camada_1">
	<path class="st0" d="M931.3,541.7L975,498l-37.8-37.8l30.7-43.7l-50.6-35.5l24.7-56.7l-58.2-25.3l12.8-62.2L836,224.3v-61.8h-53.5
		l-9.2-52.7l-60.9,10.6l-22.6-57.5l-59.1,23.3l-35-53l-51.6,34l-43.7-43.7l-37.8,37.8L419,30.6l-35.5,50.6l-56.7-24.7l-25.3,58.2
		l-62.2-12.8l-12.4,60.5H165v53.5l-52.7,9.2l10.6,60.9l-57.5,22.6l23.3,59.1l-53,35l34,51.6L26,498l37.8,37.8l-30.7,43.7l50.6,35.5
		L59,671.8l58.2,25.3l-12.8,62.2l60.5,12.4v61.8h53.5l9.2,52.7l60.9-10.6l22.6,57.5l59.1-23.3l35,53l51.6-34l43.7,43.7l37.8-37.8
		l43.7,30.7l35.5-50.6l56.7,24.7l25.3-58.2l62.2,12.8l12.4-60.5H836v-53.5l52.7-9.2L878.1,710l57.5-22.6l-23.3-59.1l53-35
		L931.3,541.7z M798.5,665.3l-48.1,8.4l7,40.3h-41v48.8l-47.8-9.8l-10.1,49.4l-46.2-20.1l-19.5,44.7L553,799l-23.5,33.5l-29-29
		L466,838l-26.9-40.7L397,825.1l-18.5-46.9L333.2,796l-8.4-48.1l-40.3,7v-41h-48.8l9.8-47.8L196,656.1l20.1-46.2l-44.7-19.5
		l28.1-39.9L166,527l29-29l-34.5-34.5l40.7-26.9l-27.8-42.1l46.9-18.5l-17.9-45.4l48.1-8.4l-7-40.3h41v-48.8l47.8,9.8l10.1-49.4
		l46.2,20.1l19.5-44.7L448,197l23.5-33.5l29,29L535,158l26.9,40.7l42.1-27.8l18.5,46.9l45.4-17.9l8.4,48.1l40.3-7v41h48.8l-9.8,47.8
		l49.4,10.1l-20.1,46.2l44.7,19.5l-28.1,39.9L835,469l-29,29l34.5,34.5l-40.7,26.9l27.8,42.1l-46.9,18.5L798.5,665.3z"/>
	<circle class="st0" cx="500.5" cy="497.5" r="426.9"/>
	<circle class="st1" cx="500.5" cy="497.5" r="417.7"/>
	<circle class="st2" cx="500.5" cy="497.5" r="407.5"/>
	<circle class="st3" cx="500.5" cy="497.5" r="398.2"/>
	<circle class="st1" cx="500.8" cy="496.8" r="382.9"/>
	<g>
		<path class="st2" d="M310.3,396.5c0,23-16,37-37.1,37c-23.7,0-40.6-17.4-40.6-39c0-21.8,17.3-39.2,39.5-39.2
			c14.4,0,26.6,7.1,32.9,17.2l-14.6,8.4c-3.1-4.9-9.9-8.8-18.4-8.8c-12.7,0-22.1,9.4-22.1,22.6c0,12.8,9,22.1,23.7,22.1
			c10,0,16.6-4.4,19.2-11.6h-20.1v-15.1h37.7V396.5z"/>
		<path class="st2" d="M361.3,420.2h-28l-3.8,11.8h-18.8l25.6-75.3h21.9l25.6,75.3h-18.8L361.3,420.2z M356.2,404.1l-8.8-27.6
			l-8.8,27.6H356.2z"/>
		<path class="st2" d="M415.7,407.3h-8.2V432h-17.2v-75.3h30.1c14.3,0,25.8,11.5,25.8,25.8c0,9.2-5.6,17.6-13.9,21.8l16,27.6h-18.5
			L415.7,407.3z M407.5,392.2h12.9c4.7,0,8.6-4.2,8.6-9.7c0-5.5-3.9-9.7-8.6-9.7h-12.9V392.2z"/>
		<path class="st2" d="M500.5,420.2h-28l-3.8,11.8H450l25.6-75.3h21.9l25.6,75.3h-18.8L500.5,420.2z M495.4,404.1l-8.8-27.6
			l-8.8,27.6H495.4z"/>
		<path class="st2" d="M588.7,356.8V432h-12.9l-29-40.9V432h-17.2v-75.3h12.9l29,40.9v-40.9H588.7z"/>
		<path class="st2" d="M652.1,373.3h-19.4V432h-17.2v-58.7h-19.4v-16.6h55.9V373.3z"/>
		<path class="st2" d="M676.8,356.8V432h-17.2v-75.3H676.8z"/>
		<path class="st2" d="M733.8,420.2h-28l-3.8,11.8h-18.8l25.6-75.3h21.9l25.6,75.3h-18.8L733.8,420.2z M728.6,404.1l-8.8-27.6
			l-8.8,27.6H728.6z"/>
	</g>
	<g>
		<path class="st3" d="M288.5,497.2h-40.6v123.1h-36.1V497.2h-40.6v-34.7h117.2V497.2z"/>
		<path class="st3" d="M288.5,541.4c0-46.4,36.7-82,82-82s82,35.6,82,82s-36.7,82-82,82S288.5,587.8,288.5,541.4z M416.5,541.4
			c0-28.2-20.3-46.9-46-46.9s-46,18.7-46,46.9c0,28.2,20.3,46.9,46,46.9S416.5,569.6,416.5,541.4z"/>
		<path class="st3" d="M569.8,497.2h-40.6v123.1h-36.1V497.2h-40.6v-34.7h117.2V497.2z"/>
		<path class="st3" d="M666.7,595.5h-58.6l-7.9,24.8h-39.4l53.6-157.8h46l53.6,157.8h-39.4L666.7,595.5z M655.9,561.7l-18.5-57.9
			l-18.5,57.9H655.9z"/>
		<path class="st3" d="M820,585.6v34.7h-92.4V462.5h36.1v123.1H820z"/>
	</g>
</g>
</svg>
