<?xml version="1.0" encoding="utf-8"?>
<!-- Generator: Adobe Illustrator 23.0.1, SVG Export Plug-In . SVG Version: 6.00 Build 0)  -->
<svg version="1.1" id="Camada_1" xmlns="http://www.w3.org/2000/svg" xmlns:xlink="http://www.w3.org/1999/xlink" x="0px" y="0px"
	 width="500px" height="500px" viewBox="0 0 500 500" style="enable-background:new 0 0 500 500;" xml:space="preserve">
<style type="text/css">
	.Sombra{fill:none;}
	.Neon_x0020_azul_x0020_espesso{fill:none;stroke:#0073BC;stroke-width:10;stroke-linecap:round;stroke-linejoin:round;}
	.Verde_x002D_água_x0020_fluorescente{fill:url(#SVGID_1_);stroke:#FFFFFF;stroke-width:0.25;stroke-miterlimit:1;}
	.Realce_x0020_preto{fill:url(#SVGID_2_);stroke:#FFFFFF;stroke-width:0.3629;stroke-miterlimit:1;}
	.Bugaboo_GS{fill-rule:evenodd;clip-rule:evenodd;fill:#FFDD00;}
	.st0{fill:url(#SVGID_3_);}
</style>
<linearGradient id="SVGID_1_" gradientUnits="userSpaceOnUse" x1="0" y1="0" x2="6.123234e-17" y2="-1">
	<stop  offset="0" style="stop-color:#1D59F4"/>
	<stop  offset="0.618" style="stop-color:#2D65EE"/>
	<stop  offset="0.6292" style="stop-color:#3864F3"/>
	<stop  offset="0.9831" style="stop-color:#00DDFC"/>
</linearGradient>
<linearGradient id="SVGID_2_" gradientUnits="userSpaceOnUse" x1="0" y1="0" x2="6.123234e-17" y2="-1">
	<stop  offset="0" style="stop-color:#060606"/>
	<stop  offset="0.618" style="stop-color:#000000"/>
	<stop  offset="0.6292" style="stop-color:#000000"/>
	<stop  offset="0.9831" style="stop-color:#000000"/>
</linearGradient>
<g>
	<linearGradient id="SVGID_3_" gradientUnits="userSpaceOnUse" x1="119.7697" y1="407.587" x2="553.1477" y2="81.0133">
		<stop  offset="0" style="stop-color:#5851DB"/>
		<stop  offset="3.389889e-02" style="stop-color:#5E4ED6"/>
		<stop  offset="0.2239" style="stop-color:#793FBD"/>
		<stop  offset="0.3352" style="stop-color:#833AB4"/>
		<stop  offset="0.3686" style="stop-color:#9238A9"/>
		<stop  offset="0.4577" style="stop-color:#B4358E"/>
		<stop  offset="0.5422" style="stop-color:#CD327B"/>
		<stop  offset="0.6195" style="stop-color:#DC3170"/>
		<stop  offset="0.6827" style="stop-color:#E1306C"/>
		<stop  offset="1" style="stop-color:#FFDC80"/>
	</linearGradient>
	<path class="st0" d="M253.1,98.5c-16.5-2.4-31.6-6.4-46.1-10.3c-31.8-8.5-59.3-15.9-88.2-1.4C70.4,111,45.4,176.2,42.8,226.6
		c-4,75.2,38.5,153.9,96.8,179.3c29.3,12.8,52.5,7.5,77.2,1.9c27.3-6.2,55.6-12.7,92.7,6.2c20.9,10.6,33.4,23.7,44.4,35.2
		c12.9,13.4,24,25,45.3,29.6c30.9,6.6,65.6-5.4,103-35.9V13.1C453.5,50.3,406.2,76,361.2,89.4C324.2,100.5,287.8,103.6,253.1,98.5z"
		/>
</g>
</svg>
