<?xml version="1.0" encoding="utf-8"?>
<!-- Generator: Adobe Illustrator 23.0.1, SVG Export Plug-In . SVG Version: 6.00 Build 0)  -->
<svg version="1.1" id="Camada_1" xmlns="http://www.w3.org/2000/svg" xmlns:xlink="http://www.w3.org/1999/xlink" x="0px" y="0px"
	 width="1080px" height="1080px" viewBox="0 0 1080 1080" style="enable-background:new 0 0 1080 1080;" xml:space="preserve">
<style type="text/css">
	.Sombra{fill:none;}
	.Neon_x0020_azul_x0020_espesso{fill:none;stroke:#0073BC;stroke-width:10;stroke-linecap:round;stroke-linejoin:round;}
	.Verde_x002D_água_x0020_fluorescente{fill:url(#SVGID_1_);stroke:#FFFFFF;stroke-width:0.25;stroke-miterlimit:1;}
	.Realce_x0020_preto{fill:url(#SVGID_2_);stroke:#FFFFFF;stroke-width:0.3629;stroke-miterlimit:1;}
	.Bugaboo_GS{fill-rule:evenodd;clip-rule:evenodd;fill:#FFDD00;}
	.st0{fill:url(#SVGID_3_);}
</style>
<linearGradient id="SVGID_1_" gradientUnits="userSpaceOnUse" x1="0" y1="0" x2="6.123234e-17" y2="-1">
	<stop  offset="0" style="stop-color:#1D59F4"/>
	<stop  offset="0.618" style="stop-color:#2D65EE"/>
	<stop  offset="0.6292" style="stop-color:#3864F3"/>
	<stop  offset="0.9831" style="stop-color:#00DDFC"/>
</linearGradient>
<linearGradient id="SVGID_2_" gradientUnits="userSpaceOnUse" x1="0" y1="0" x2="6.123234e-17" y2="-1">
	<stop  offset="0" style="stop-color:#060606"/>
	<stop  offset="0.618" style="stop-color:#000000"/>
	<stop  offset="0.6292" style="stop-color:#000000"/>
	<stop  offset="0.9831" style="stop-color:#000000"/>
</linearGradient>
<linearGradient id="SVGID_3_" gradientUnits="userSpaceOnUse" x1="550.3363" y1="50.9898" x2="353.8222" y2="1061.967">
	<stop  offset="0" style="stop-color:#5851DB"/>
	<stop  offset="3.389889e-02" style="stop-color:#5E4ED6"/>
	<stop  offset="0.2239" style="stop-color:#793FBD"/>
	<stop  offset="0.3352" style="stop-color:#833AB4"/>
	<stop  offset="0.3686" style="stop-color:#9238A9"/>
	<stop  offset="0.4577" style="stop-color:#B4358E"/>
	<stop  offset="0.5422" style="stop-color:#CD327B"/>
	<stop  offset="0.6195" style="stop-color:#DC3170"/>
	<stop  offset="0.6827" style="stop-color:#E1306C"/>
	<stop  offset="1" style="stop-color:#FFDC80"/>
</linearGradient>
<path class="st0" d="M-1,16c72,67.7,192.2,158.2,348.4,165.4C533.4,189.9,666.8,75,823,104c163.1,30.2,242.7,208.3,210,333
	c-32,122-161.7,105-238.8,270.1C736.9,829.8,775.4,892.9,711,971c-91.8,111.4-284.7,106.5-428.8,77C133.2,1017.5,38.6,938.5-1,901"
	/>
</svg>
