<?xml version="1.0" encoding="utf-8"?>
<!-- Generator: Adobe Illustrator 23.0.1, SVG Export Plug-In . SVG Version: 6.00 Build 0)  -->
<svg version="1.1" id="Camada_1" xmlns="http://www.w3.org/2000/svg" xmlns:xlink="http://www.w3.org/1999/xlink" x="0px" y="0px"
	 width="200px" height="200px" viewBox="0 0 200 200" style="enable-background:new 0 0 200 200;" xml:space="preserve">
<style type="text/css">
	.st0{fill:url(#SVGID_1_);}
	.st1{opacity:0.4;fill:url(#SVGID_2_);}
	.st2{opacity:0.4;fill:url(#SVGID_3_);}
</style>
<g>
</g>
<g>
</g>
<g>
</g>
<g>
</g>
<g>
</g>
<g>
</g>
<g>
</g>
<g>
</g>
<g>
</g>
<g>
</g>
<g>
</g>
<g>
</g>
<g>
</g>
<g>
</g>
<g>
</g>
<g>
</g>
<g>
</g>
<g>
</g>
<g>
</g>
<g>
</g>
<g>
</g>
<g>
</g>
<g>
</g>
<g>
</g>
<g>
</g>
<g>
</g>
<g>
</g>
<g>
</g>
<g>
</g>
<g>
</g>
<linearGradient id="SVGID_1_" gradientUnits="userSpaceOnUse" x1="21.8796" y1="110.5711" x2="181.2592" y2="96.6272">
	<stop  offset="0" style="stop-color:#5851DB"/>
	<stop  offset="3.389889e-02" style="stop-color:#5E4ED6"/>
	<stop  offset="0.2239" style="stop-color:#793FBD"/>
	<stop  offset="0.3352" style="stop-color:#833AB4"/>
	<stop  offset="0.3686" style="stop-color:#9238A9"/>
	<stop  offset="0.4577" style="stop-color:#B4358E"/>
	<stop  offset="0.5422" style="stop-color:#CD327B"/>
	<stop  offset="0.6195" style="stop-color:#DC3170"/>
	<stop  offset="0.6827" style="stop-color:#E1306C"/>
	<stop  offset="1" style="stop-color:#FFDC80"/>
</linearGradient>
<path class="st0" d="M107.4,29.6l20.3,41.2l45.5,6.6c6.8,1,9.5,9.3,4.6,14.1l-32.9,32.1l7.8,45.3c1.2,6.7-5.9,11.9-12,8.7L100,156.2
	l-40.7,21.4c-6.1,3.2-13.1-2-12-8.7l7.8-45.3L22.2,91.5c-4.9-4.8-2.2-13.1,4.6-14.1l45.5-6.6l20.3-41.2
	C95.6,23.5,104.4,23.5,107.4,29.6z"/>
<linearGradient id="SVGID_2_" gradientUnits="userSpaceOnUse" x1="137.1397" y1="44.6639" x2="173.6979" y2="41.4655">
	<stop  offset="0" style="stop-color:#5851DB"/>
	<stop  offset="3.389889e-02" style="stop-color:#5E4ED6"/>
	<stop  offset="0.2239" style="stop-color:#793FBD"/>
	<stop  offset="0.3352" style="stop-color:#833AB4"/>
	<stop  offset="0.3686" style="stop-color:#9238A9"/>
	<stop  offset="0.4577" style="stop-color:#B4358E"/>
	<stop  offset="0.5422" style="stop-color:#CD327B"/>
	<stop  offset="0.6195" style="stop-color:#DC3170"/>
	<stop  offset="0.6827" style="stop-color:#E1306C"/>
	<stop  offset="1" style="stop-color:#FFDC80"/>
</linearGradient>
<path class="st1" d="M156.8,26.1l4.7,9.4l10.4,1.5c1.6,0.2,2.2,2.1,1,3.2l-7.5,7.4l1.8,10.4c0.3,1.5-1.4,2.7-2.7,2l-9.3-4.9
	l-9.3,4.9c-1.4,0.7-3-0.4-2.7-2l1.8-10.4l-7.5-7.4c-1.1-1.1-0.5-3,1-3.2l10.4-1.5l4.7-9.4C154.1,24.7,156.1,24.7,156.8,26.1z"/>
<linearGradient id="SVGID_3_" gradientUnits="userSpaceOnUse" x1="19.9789" y1="136.1307" x2="38.3164" y2="134.5263">
	<stop  offset="0" style="stop-color:#5851DB"/>
	<stop  offset="3.389889e-02" style="stop-color:#5E4ED6"/>
	<stop  offset="0.2239" style="stop-color:#793FBD"/>
	<stop  offset="0.3352" style="stop-color:#833AB4"/>
	<stop  offset="0.3686" style="stop-color:#9238A9"/>
	<stop  offset="0.4577" style="stop-color:#B4358E"/>
	<stop  offset="0.5422" style="stop-color:#CD327B"/>
	<stop  offset="0.6195" style="stop-color:#DC3170"/>
	<stop  offset="0.6827" style="stop-color:#E1306C"/>
	<stop  offset="1" style="stop-color:#FFDC80"/>
</linearGradient>
<path class="st2" d="M29.8,126.8l2.3,4.7l5.2,0.8c0.8,0.1,1.1,1.1,0.5,1.6l-3.8,3.7l0.9,5.2c0.1,0.8-0.7,1.4-1.4,1l-4.7-2.5
	l-4.7,2.5c-0.7,0.4-1.5-0.2-1.4-1l0.9-5.2l-3.8-3.7c-0.6-0.5-0.3-1.5,0.5-1.6l5.2-0.8l2.3-4.7C28.5,126.1,29.5,126.1,29.8,126.8z"/>
</svg>
