<?xml version="1.0" encoding="utf-8"?>
<!-- Generator: Adobe Illustrator 23.0.1, SVG Export Plug-In . SVG Version: 6.00 Build 0)  -->
<svg version="1.1" id="Camada_1" xmlns="http://www.w3.org/2000/svg" xmlns:xlink="http://www.w3.org/1999/xlink" x="0px" y="0px"
	 width="200px" height="200px" viewBox="0 0 200 200" style="enable-background:new 0 0 200 200;" xml:space="preserve">
<style type="text/css">
	.st0{opacity:0.4;fill:url(#SVGID_1_);}
	.st1{fill:url(#SVGID_2_);}
	.st2{opacity:0.4;fill:url(#SVGID_3_);}
	.st3{fill:url(#SVGID_4_);}
	.st4{opacity:0.4;fill:url(#SVGID_5_);}
	.st5{fill:url(#SVGID_6_);}
	.st6{fill:#FFFFFF;}
</style>
<linearGradient id="SVGID_1_" gradientUnits="userSpaceOnUse" x1="77.9233" y1="189.8656" x2="25.4884" y2="129.5462">
	<stop  offset="0" style="stop-color:#5851DB"/>
	<stop  offset="3.389889e-02" style="stop-color:#5E4ED6"/>
	<stop  offset="0.2239" style="stop-color:#793FBD"/>
	<stop  offset="0.3352" style="stop-color:#833AB4"/>
	<stop  offset="0.3686" style="stop-color:#9238A9"/>
	<stop  offset="0.4577" style="stop-color:#B4358E"/>
	<stop  offset="0.5422" style="stop-color:#CD327B"/>
	<stop  offset="0.6195" style="stop-color:#DC3170"/>
	<stop  offset="0.6827" style="stop-color:#E1306C"/>
	<stop  offset="1" style="stop-color:#FFDC80"/>
</linearGradient>
<path class="st0" d="M82.8,184.1H20.6c-2.7,0-4.9-2.2-4.9-4.9v-38.8c0-2.7,2.2-4.9,4.9-4.9h62.1c2.7,0,4.9,2.2,4.9,4.9v38.8
	C87.7,181.8,85.5,184.1,82.8,184.1z"/>
<linearGradient id="SVGID_2_" gradientUnits="userSpaceOnUse" x1="15.7059" y1="94.0588" x2="105.3529" y2="94.0588">
	<stop  offset="0" style="stop-color:#5851DB"/>
	<stop  offset="3.389889e-02" style="stop-color:#5E4ED6"/>
	<stop  offset="0.2239" style="stop-color:#793FBD"/>
	<stop  offset="0.3352" style="stop-color:#833AB4"/>
	<stop  offset="0.3686" style="stop-color:#9238A9"/>
	<stop  offset="0.4577" style="stop-color:#B4358E"/>
	<stop  offset="0.5422" style="stop-color:#CD327B"/>
	<stop  offset="0.6195" style="stop-color:#DC3170"/>
	<stop  offset="0.6827" style="stop-color:#E1306C"/>
	<stop  offset="1" style="stop-color:#FFDC80"/>
</linearGradient>
<path class="st1" d="M90.7,124.4H30.3c-8,0-14.6-6.6-14.6-14.6V78.4c0-8,6.6-14.6,14.6-14.6h60.4c8,0,14.6,6.6,14.6,14.6v31.4
	C105.4,117.8,98.8,124.4,90.7,124.4z"/>
<linearGradient id="SVGID_3_" gradientUnits="userSpaceOnUse" x1="58.5" y1="56.6928" x2="23.0294" y2="15.8885">
	<stop  offset="0" style="stop-color:#5851DB"/>
	<stop  offset="3.389889e-02" style="stop-color:#5E4ED6"/>
	<stop  offset="0.2239" style="stop-color:#793FBD"/>
	<stop  offset="0.3352" style="stop-color:#833AB4"/>
	<stop  offset="0.3686" style="stop-color:#9238A9"/>
	<stop  offset="0.4577" style="stop-color:#B4358E"/>
	<stop  offset="0.5422" style="stop-color:#CD327B"/>
	<stop  offset="0.6195" style="stop-color:#DC3170"/>
	<stop  offset="0.6827" style="stop-color:#E1306C"/>
	<stop  offset="1" style="stop-color:#FFDC80"/>
</linearGradient>
<path class="st2" d="M61.8,52.8h-42c-1.8,0-3.3-1.5-3.3-3.3V23.2c0-1.8,1.5-3.3,3.3-3.3h42c1.8,0,3.3,1.5,3.3,3.3v26.3
	C65.1,51.3,63.6,52.8,61.8,52.8z"/>
<linearGradient id="SVGID_4_" gradientUnits="userSpaceOnUse" x1="158.5493" y1="68.6592" x2="102.2742" y2="3.9221">
	<stop  offset="0" style="stop-color:#5851DB"/>
	<stop  offset="3.389889e-02" style="stop-color:#5E4ED6"/>
	<stop  offset="0.2239" style="stop-color:#793FBD"/>
	<stop  offset="0.3352" style="stop-color:#833AB4"/>
	<stop  offset="0.3686" style="stop-color:#9238A9"/>
	<stop  offset="0.4577" style="stop-color:#B4358E"/>
	<stop  offset="0.5422" style="stop-color:#CD327B"/>
	<stop  offset="0.6195" style="stop-color:#DC3170"/>
	<stop  offset="0.6827" style="stop-color:#E1306C"/>
	<stop  offset="1" style="stop-color:#FFDC80"/>
</linearGradient>
<path class="st3" d="M175.1,52.8H85.8c-2.6,0-4.8-2.1-4.8-4.8V24.6c0-2.6,2.1-4.8,4.8-4.8h89.3c2.6,0,4.8,2.1,4.8,4.8V48
	C179.8,50.6,177.7,52.8,175.1,52.8z"/>
<linearGradient id="SVGID_5_" gradientUnits="userSpaceOnUse" x1="151.155" y1="110.7444" x2="122.146" y2="77.3733">
	<stop  offset="0" style="stop-color:#5851DB"/>
	<stop  offset="3.389889e-02" style="stop-color:#5E4ED6"/>
	<stop  offset="0.2239" style="stop-color:#793FBD"/>
	<stop  offset="0.3352" style="stop-color:#833AB4"/>
	<stop  offset="0.3686" style="stop-color:#9238A9"/>
	<stop  offset="0.4577" style="stop-color:#B4358E"/>
	<stop  offset="0.5422" style="stop-color:#CD327B"/>
	<stop  offset="0.6195" style="stop-color:#DC3170"/>
	<stop  offset="0.6827" style="stop-color:#E1306C"/>
	<stop  offset="1" style="stop-color:#FFDC80"/>
</linearGradient>
<path class="st4" d="M150.4,110.5h-27.4c-1.5,0-2.7-1.2-2.7-2.7V80.3c0-1.5,1.2-2.7,2.7-2.7h27.4c1.5,0,2.7,1.2,2.7,2.7v27.4
	C153.1,109.3,151.9,110.5,150.4,110.5z"/>
<linearGradient id="SVGID_6_" gradientUnits="userSpaceOnUse" x1="149.3056" y1="188.4714" x2="135.6425" y2="140.8227">
	<stop  offset="0" style="stop-color:#5851DB"/>
	<stop  offset="3.389889e-02" style="stop-color:#5E4ED6"/>
	<stop  offset="0.2239" style="stop-color:#793FBD"/>
	<stop  offset="0.3352" style="stop-color:#833AB4"/>
	<stop  offset="0.3686" style="stop-color:#9238A9"/>
	<stop  offset="0.4577" style="stop-color:#B4358E"/>
	<stop  offset="0.5422" style="stop-color:#CD327B"/>
	<stop  offset="0.6195" style="stop-color:#DC3170"/>
	<stop  offset="0.6827" style="stop-color:#E1306C"/>
	<stop  offset="1" style="stop-color:#FFDC80"/>
</linearGradient>
<path class="st5" d="M163.5,184.1h-42c-4.8,0-8.7-3.9-8.7-8.7v-21.4c0-4.8,3.9-8.7,8.7-8.7h42c4.8,0,8.7,3.9,8.7,8.7v21.4
	C172.2,180.1,168.3,184.1,163.5,184.1z"/>
<polygon class="st6" points="51.7,81.8 73.9,95.1 51.7,109.4 "/>
<polygon class="st6" points="124.1,30.4 133.6,36.1 124.1,42.2 "/>
<polygon class="st6" points="136.9,157.5 150,165.3 136.9,173.8 "/>
</svg>
