<?xml version="1.0" encoding="utf-8"?>
<!-- Generator: Adobe Illustrator 23.0.1, SVG Export Plug-In . SVG Version: 6.00 Build 0)  -->
<svg version="1.1" id="Camada_1" xmlns="http://www.w3.org/2000/svg" xmlns:xlink="http://www.w3.org/1999/xlink" x="0px" y="0px"
	 width="200px" height="200px" viewBox="0 0 200 200" style="enable-background:new 0 0 200 200;" xml:space="preserve">
<style type="text/css">
	.st0{fill:url(#SVGID_1_);}
	.st1{opacity:0.4;fill:url(#SVGID_2_);}
	.st2{fill:url(#SVGID_3_);}
	.st3{fill:url(#SVGID_4_);}
</style>
<g>
</g>
<g>
</g>
<g>
</g>
<g>
</g>
<g>
</g>
<g>
</g>
<g>
</g>
<g>
</g>
<g>
</g>
<g>
</g>
<g>
</g>
<g>
</g>
<g>
</g>
<g>
</g>
<g>
</g>
<linearGradient id="SVGID_1_" gradientUnits="userSpaceOnUse" x1="120.4979" y1="65.227" x2="166.3724" y2="28.0785">
	<stop  offset="0" style="stop-color:#5851DB"/>
	<stop  offset="3.389889e-02" style="stop-color:#5E4ED6"/>
	<stop  offset="0.2239" style="stop-color:#793FBD"/>
	<stop  offset="0.3352" style="stop-color:#833AB4"/>
	<stop  offset="0.3686" style="stop-color:#9238A9"/>
	<stop  offset="0.4577" style="stop-color:#B4358E"/>
	<stop  offset="0.5422" style="stop-color:#CD327B"/>
	<stop  offset="0.6195" style="stop-color:#DC3170"/>
	<stop  offset="0.6827" style="stop-color:#E1306C"/>
	<stop  offset="1" style="stop-color:#FFDC80"/>
</linearGradient>
<path class="st0" d="M170,32.7c-3.2-3.2-7.5-5-12.3-5c-6.7,0-11.8,3.2-14.9,9.3c-3.1-6.1-8.2-9.3-14.9-9.3c-4.8,0-9.1,1.8-12.3,5
	c-3.3,3.4-5.1,8-5.1,13.3c0,6.4,4.1,13.5,12.1,21c7.3,6.8,15.3,11.6,16.8,12.5c0.6,0.4,2.1,1.2,2.1,1.2l1.3,0.7l1.3-0.7
	c0,0,1.4-0.8,2.1-1.2c1.5-0.9,9.5-5.7,16.8-12.5c8-7.5,12.1-14.6,12.1-21C175.1,40.7,173.4,36.1,170,32.7z"/>
<g>
</g>
<g>
</g>
<g>
</g>
<g>
</g>
<g>
</g>
<g>
</g>
<g>
</g>
<g>
</g>
<g>
</g>
<g>
</g>
<g>
</g>
<g>
</g>
<g>
</g>
<g>
</g>
<g>
</g>
<linearGradient id="SVGID_2_" gradientUnits="userSpaceOnUse" x1="137.2352" y1="117.1794" x2="181" y2="117.1794">
	<stop  offset="0" style="stop-color:#5851DB"/>
	<stop  offset="3.389889e-02" style="stop-color:#5E4ED6"/>
	<stop  offset="0.2239" style="stop-color:#793FBD"/>
	<stop  offset="0.3352" style="stop-color:#833AB4"/>
	<stop  offset="0.3686" style="stop-color:#9238A9"/>
	<stop  offset="0.4577" style="stop-color:#B4358E"/>
	<stop  offset="0.5422" style="stop-color:#CD327B"/>
	<stop  offset="0.6195" style="stop-color:#DC3170"/>
	<stop  offset="0.6827" style="stop-color:#E1306C"/>
	<stop  offset="1" style="stop-color:#FFDC80"/>
</linearGradient>
<path class="st1" d="M177.6,102.3c-2.2-2.2-5.1-3.4-8.3-3.4c-4.5,0-8,2.2-10.1,6.3c-2.1-4.1-5.6-6.3-10.1-6.3
	c-3.2,0-6.2,1.2-8.3,3.4c-2.3,2.3-3.4,5.4-3.4,9c0,4.4,2.8,9.1,8.2,14.2c4.9,4.6,10.4,7.9,11.4,8.5c0.4,0.3,1.4,0.8,1.4,0.8l0.9,0.5
	l0.9-0.5c0,0,1-0.6,1.4-0.8c1-0.6,6.5-3.8,11.4-8.5c5.5-5.1,8.2-9.9,8.2-14.2C181,107.8,179.8,104.6,177.6,102.3z"/>
<linearGradient id="SVGID_3_" gradientUnits="userSpaceOnUse" x1="63.2235" y1="47.8287" x2="64.4235" y2="116.5753">
	<stop  offset="0" style="stop-color:#5851DB"/>
	<stop  offset="3.389889e-02" style="stop-color:#5E4ED6"/>
	<stop  offset="0.2239" style="stop-color:#793FBD"/>
	<stop  offset="0.3352" style="stop-color:#833AB4"/>
	<stop  offset="0.3686" style="stop-color:#9238A9"/>
	<stop  offset="0.4577" style="stop-color:#B4358E"/>
	<stop  offset="0.5422" style="stop-color:#CD327B"/>
	<stop  offset="0.6195" style="stop-color:#DC3170"/>
	<stop  offset="0.6827" style="stop-color:#E1306C"/>
	<stop  offset="1" style="stop-color:#FFDC80"/>
</linearGradient>
<circle class="st2" cx="63.8" cy="82.2" r="34.4"/>
<linearGradient id="SVGID_4_" gradientUnits="userSpaceOnUse" x1="62.4479" y1="184.4047" x2="66.7783" y2="122.4771">
	<stop  offset="0" style="stop-color:#5851DB"/>
	<stop  offset="3.389889e-02" style="stop-color:#5E4ED6"/>
	<stop  offset="0.2239" style="stop-color:#793FBD"/>
	<stop  offset="0.3352" style="stop-color:#833AB4"/>
	<stop  offset="0.3686" style="stop-color:#9238A9"/>
	<stop  offset="0.4577" style="stop-color:#B4358E"/>
	<stop  offset="0.5422" style="stop-color:#CD327B"/>
	<stop  offset="0.6195" style="stop-color:#DC3170"/>
	<stop  offset="0.6827" style="stop-color:#E1306C"/>
	<stop  offset="1" style="stop-color:#FFDC80"/>
</linearGradient>
<path class="st3" d="M103.4,181.7H24.2c-6.1,0-11.1-5-11.1-11.1v-10.8c0-20,16.4-36.4,36.4-36.4h28.6c20,0,36.4,16.4,36.4,36.4v10.8
	C114.5,176.7,109.5,181.7,103.4,181.7z"/>
</svg>
