<?xml version="1.0" encoding="utf-8"?>
<!-- Generator: Adobe Illustrator 23.0.1, SVG Export Plug-In . SVG Version: 6.00 Build 0)  -->
<svg version="1.1" id="Camada_1" xmlns="http://www.w3.org/2000/svg" xmlns:xlink="http://www.w3.org/1999/xlink" x="0px" y="0px"
	 width="200px" height="200px" viewBox="0 0 200 200" style="enable-background:new 0 0 200 200;" xml:space="preserve">
<style type="text/css">
	.st0{fill:url(#SVGID_1_);}
	.st1{opacity:0.4;fill:url(#SVGID_2_);}
	.st2{fill:url(#SVGID_3_);}
</style>
<linearGradient id="SVGID_1_" gradientUnits="userSpaceOnUse" x1="105.9454" y1="114.2631" x2="32.6498" y2="29.9461">
	<stop  offset="0" style="stop-color:#5851DB"/>
	<stop  offset="3.389889e-02" style="stop-color:#5E4ED6"/>
	<stop  offset="0.2239" style="stop-color:#793FBD"/>
	<stop  offset="0.3352" style="stop-color:#833AB4"/>
	<stop  offset="0.3686" style="stop-color:#9238A9"/>
	<stop  offset="0.4577" style="stop-color:#B4358E"/>
	<stop  offset="0.5422" style="stop-color:#CD327B"/>
	<stop  offset="0.6195" style="stop-color:#DC3170"/>
	<stop  offset="0.6827" style="stop-color:#E1306C"/>
	<stop  offset="1" style="stop-color:#FFDC80"/>
</linearGradient>
<path class="st0" d="M133.3,84.6V23.6c0-7-5.8-12.8-12.8-12.8l-61.1,0c-7,0-12.8,5.8-12.8,12.8c0,7,5.8,12.8,12.8,12.8l30.1,0
	l-78.1,78.1c-5,5-5,13.1,0,18.1c5,5,13.1,5,18.1,0l78.1-78.1v30.1c0,7,5.8,12.8,12.8,12.8C127.6,97.4,133.3,91.7,133.3,84.6z"/>
<linearGradient id="SVGID_2_" gradientUnits="userSpaceOnUse" x1="36.2485" y1="166.1216" x2="104.1577" y2="140.0537">
	<stop  offset="0" style="stop-color:#5851DB"/>
	<stop  offset="3.389889e-02" style="stop-color:#5E4ED6"/>
	<stop  offset="0.2239" style="stop-color:#793FBD"/>
	<stop  offset="0.3352" style="stop-color:#833AB4"/>
	<stop  offset="0.3686" style="stop-color:#9238A9"/>
	<stop  offset="0.4577" style="stop-color:#B4358E"/>
	<stop  offset="0.5422" style="stop-color:#CD327B"/>
	<stop  offset="0.6195" style="stop-color:#DC3170"/>
	<stop  offset="0.6827" style="stop-color:#E1306C"/>
	<stop  offset="1" style="stop-color:#FFDC80"/>
</linearGradient>
<path class="st1" d="M101.6,163.1v-28.7c0-3.3-2.7-6-6-6l-28.7,0c-3.3,0-6,2.7-6,6c0,3.3,2.7,6,6,6l14.2,0l-36.7,36.7
	c-2.3,2.3-2.3,6.2,0,8.5c2.3,2.3,6.2,2.3,8.5,0l36.7-36.7v14.2c0,3.3,2.7,6,6,6C98.9,169.1,101.6,166.4,101.6,163.1z"/>
<linearGradient id="SVGID_3_" gradientUnits="userSpaceOnUse" x1="155.4379" y1="107.5744" x2="157.9536" y2="179.6138">
	<stop  offset="0" style="stop-color:#5851DB"/>
	<stop  offset="3.389889e-02" style="stop-color:#5E4ED6"/>
	<stop  offset="0.2239" style="stop-color:#793FBD"/>
	<stop  offset="0.3352" style="stop-color:#833AB4"/>
	<stop  offset="0.3686" style="stop-color:#9238A9"/>
	<stop  offset="0.4577" style="stop-color:#B4358E"/>
	<stop  offset="0.5422" style="stop-color:#CD327B"/>
	<stop  offset="0.6195" style="stop-color:#DC3170"/>
	<stop  offset="0.6827" style="stop-color:#E1306C"/>
	<stop  offset="1" style="stop-color:#FFDC80"/>
</linearGradient>
<path class="st2" d="M193.2,150.7v-35.5c0-4.1-3.3-7.4-7.4-7.4l-35.5,0c-4.1,0-7.4,3.3-7.4,7.4c0,4.1,3.3,7.4,7.4,7.4l17.5,0
	L122.4,168c-2.9,2.9-2.9,7.6,0,10.5c2.9,2.9,7.6,2.9,10.5,0l45.3-45.3v17.5c0,4.1,3.3,7.4,7.4,7.4
	C189.8,158.1,193.2,154.7,193.2,150.7z"/>
</svg>
