<?xml version="1.0" encoding="utf-8"?>
<!-- Generator: Adobe Illustrator 23.0.1, SVG Export Plug-In . SVG Version: 6.00 Build 0)  -->
<svg version="1.1" id="Camada_1" xmlns="http://www.w3.org/2000/svg" xmlns:xlink="http://www.w3.org/1999/xlink" x="0px" y="0px"
	 width="200px" height="200px" viewBox="0 0 200 200" style="enable-background:new 0 0 200 200;" xml:space="preserve">
<style type="text/css">
	.st0{fill:url(#SVGID_1_);}
	.st1{fill:url(#SVGID_2_);}
	.st2{opacity:0.4;fill:url(#SVGID_3_);}
	.st3{opacity:0.4;fill:url(#SVGID_4_);}
	.st4{fill:url(#SVGID_5_);}
	.st5{fill:url(#SVGID_6_);}
	.st6{fill:url(#SVGID_7_);}
	.st7{fill:url(#SVGID_8_);}
	.st8{opacity:0.4;fill:url(#SVGID_9_);}
	.st9{opacity:0.4;fill:url(#SVGID_10_);}
	.st10{opacity:0.4;fill:url(#SVGID_11_);}
	.st11{opacity:0.4;fill:url(#SVGID_12_);}
	.st12{fill:url(#SVGID_13_);}
	.st13{fill:url(#SVGID_14_);}
	.st14{fill:url(#SVGID_15_);}
	.st15{fill:url(#SVGID_16_);}
	.st16{opacity:0.4;fill:url(#SVGID_17_);}
	.st17{opacity:0.4;fill:url(#SVGID_18_);}
	.st18{fill:url(#SVGID_19_);}
	.st19{fill:url(#SVGID_20_);}
	.st20{fill:url(#SVGID_21_);}
	.st21{fill:url(#SVGID_22_);}
	.st22{fill:url(#SVGID_23_);}
	.st23{fill:url(#SVGID_24_);}
	.st24{fill:url(#SVGID_25_);}
	.st25{fill:url(#SVGID_26_);}
	.st26{fill:url(#SVGID_27_);}
	.st27{fill:url(#SVGID_28_);}
	.st28{fill:url(#SVGID_29_);}
	.st29{fill:url(#SVGID_30_);}
	.st30{fill:url(#SVGID_31_);}
</style>
<g>
</g>
<g>
</g>
<g>
</g>
<g>
</g>
<g>
</g>
<g>
</g>
<g>
</g>
<g>
</g>
<g>
</g>
<g>
</g>
<g>
</g>
<g>
</g>
<g>
</g>
<g>
</g>
<g>
</g>
<g>
</g>
<g>
</g>
<g>
</g>
<g>
</g>
<g>
</g>
<g>
</g>
<g>
</g>
<g>
</g>
<g>
</g>
<g>
</g>
<g>
</g>
<g>
</g>
<g>
</g>
<g>
</g>
<g>
</g>
<linearGradient id="SVGID_1_" gradientUnits="userSpaceOnUse" x1="156.0415" y1="157.1513" x2="166.2701" y2="156.2564">
	<stop  offset="0" style="stop-color:#5851DB"/>
	<stop  offset="3.389889e-02" style="stop-color:#5E4ED6"/>
	<stop  offset="0.2239" style="stop-color:#793FBD"/>
	<stop  offset="0.3352" style="stop-color:#833AB4"/>
	<stop  offset="0.3686" style="stop-color:#9238A9"/>
	<stop  offset="0.4577" style="stop-color:#B4358E"/>
	<stop  offset="0.5422" style="stop-color:#CD327B"/>
	<stop  offset="0.6195" style="stop-color:#DC3170"/>
	<stop  offset="0.6827" style="stop-color:#E1306C"/>
	<stop  offset="1" style="stop-color:#FFDC80"/>
</linearGradient>
<circle class="st0" cx="161.2" cy="156.7" r="5.1"/>
<linearGradient id="SVGID_2_" gradientUnits="userSpaceOnUse" x1="153.4132" y1="168.0412" x2="168.6124" y2="166.7115">
	<stop  offset="0" style="stop-color:#5851DB"/>
	<stop  offset="3.389889e-02" style="stop-color:#5E4ED6"/>
	<stop  offset="0.2239" style="stop-color:#793FBD"/>
	<stop  offset="0.3352" style="stop-color:#833AB4"/>
	<stop  offset="0.3686" style="stop-color:#9238A9"/>
	<stop  offset="0.4577" style="stop-color:#B4358E"/>
	<stop  offset="0.5422" style="stop-color:#CD327B"/>
	<stop  offset="0.6195" style="stop-color:#DC3170"/>
	<stop  offset="0.6827" style="stop-color:#E1306C"/>
	<stop  offset="1" style="stop-color:#FFDC80"/>
</linearGradient>
<path class="st1" d="M167.1,171.6h-11.8c-0.9,0-1.7-0.7-1.7-1.7v-1.6c0-3,2.4-5.4,5.4-5.4h4.3c3,0,5.4,2.4,5.4,5.4v1.6
	C168.7,170.8,168,171.6,167.1,171.6z"/>
<linearGradient id="SVGID_3_" gradientUnits="userSpaceOnUse" x1="122.1591" y1="142.293" x2="132.3878" y2="141.3981">
	<stop  offset="0" style="stop-color:#5851DB"/>
	<stop  offset="3.389889e-02" style="stop-color:#5E4ED6"/>
	<stop  offset="0.2239" style="stop-color:#793FBD"/>
	<stop  offset="0.3352" style="stop-color:#833AB4"/>
	<stop  offset="0.3686" style="stop-color:#9238A9"/>
	<stop  offset="0.4577" style="stop-color:#B4358E"/>
	<stop  offset="0.5422" style="stop-color:#CD327B"/>
	<stop  offset="0.6195" style="stop-color:#DC3170"/>
	<stop  offset="0.6827" style="stop-color:#E1306C"/>
	<stop  offset="1" style="stop-color:#FFDC80"/>
</linearGradient>
<circle class="st2" cx="127.3" cy="141.8" r="5.1"/>
<linearGradient id="SVGID_4_" gradientUnits="userSpaceOnUse" x1="119.5308" y1="153.1829" x2="134.73" y2="151.8531">
	<stop  offset="0" style="stop-color:#5851DB"/>
	<stop  offset="3.389889e-02" style="stop-color:#5E4ED6"/>
	<stop  offset="0.2239" style="stop-color:#793FBD"/>
	<stop  offset="0.3352" style="stop-color:#833AB4"/>
	<stop  offset="0.3686" style="stop-color:#9238A9"/>
	<stop  offset="0.4577" style="stop-color:#B4358E"/>
	<stop  offset="0.5422" style="stop-color:#CD327B"/>
	<stop  offset="0.6195" style="stop-color:#DC3170"/>
	<stop  offset="0.6827" style="stop-color:#E1306C"/>
	<stop  offset="1" style="stop-color:#FFDC80"/>
</linearGradient>
<path class="st3" d="M133.2,156.7h-11.8c-0.9,0-1.7-0.7-1.7-1.7v-1.6c0-3,2.4-5.4,5.4-5.4h4.3c3,0,5.4,2.4,5.4,5.4v1.6
	C134.8,156,134.1,156.7,133.2,156.7z"/>
<linearGradient id="SVGID_5_" gradientUnits="userSpaceOnUse" x1="146.1591" y1="115.5619" x2="156.3878" y2="114.667">
	<stop  offset="0" style="stop-color:#5851DB"/>
	<stop  offset="3.389889e-02" style="stop-color:#5E4ED6"/>
	<stop  offset="0.2239" style="stop-color:#793FBD"/>
	<stop  offset="0.3352" style="stop-color:#833AB4"/>
	<stop  offset="0.3686" style="stop-color:#9238A9"/>
	<stop  offset="0.4577" style="stop-color:#B4358E"/>
	<stop  offset="0.5422" style="stop-color:#CD327B"/>
	<stop  offset="0.6195" style="stop-color:#DC3170"/>
	<stop  offset="0.6827" style="stop-color:#E1306C"/>
	<stop  offset="1" style="stop-color:#FFDC80"/>
</linearGradient>
<circle class="st4" cx="151.3" cy="115.1" r="5.1"/>
<linearGradient id="SVGID_6_" gradientUnits="userSpaceOnUse" x1="143.5308" y1="126.4519" x2="158.73" y2="125.1221">
	<stop  offset="0" style="stop-color:#5851DB"/>
	<stop  offset="3.389889e-02" style="stop-color:#5E4ED6"/>
	<stop  offset="0.2239" style="stop-color:#793FBD"/>
	<stop  offset="0.3352" style="stop-color:#833AB4"/>
	<stop  offset="0.3686" style="stop-color:#9238A9"/>
	<stop  offset="0.4577" style="stop-color:#B4358E"/>
	<stop  offset="0.5422" style="stop-color:#CD327B"/>
	<stop  offset="0.6195" style="stop-color:#DC3170"/>
	<stop  offset="0.6827" style="stop-color:#E1306C"/>
	<stop  offset="1" style="stop-color:#FFDC80"/>
</linearGradient>
<path class="st5" d="M157.2,130h-11.8c-0.9,0-1.7-0.7-1.7-1.7v-1.6c0-3,2.4-5.4,5.4-5.4h4.3c3,0,5.4,2.4,5.4,5.4v1.6
	C158.8,129.2,158.1,130,157.2,130z"/>
<linearGradient id="SVGID_7_" gradientUnits="userSpaceOnUse" x1="119.7189" y1="100.7036" x2="129.9475" y2="99.8087">
	<stop  offset="0" style="stop-color:#5851DB"/>
	<stop  offset="3.389889e-02" style="stop-color:#5E4ED6"/>
	<stop  offset="0.2239" style="stop-color:#793FBD"/>
	<stop  offset="0.3352" style="stop-color:#833AB4"/>
	<stop  offset="0.3686" style="stop-color:#9238A9"/>
	<stop  offset="0.4577" style="stop-color:#B4358E"/>
	<stop  offset="0.5422" style="stop-color:#CD327B"/>
	<stop  offset="0.6195" style="stop-color:#DC3170"/>
	<stop  offset="0.6827" style="stop-color:#E1306C"/>
	<stop  offset="1" style="stop-color:#FFDC80"/>
</linearGradient>
<circle class="st6" cx="124.8" cy="100.3" r="5.1"/>
<linearGradient id="SVGID_8_" gradientUnits="userSpaceOnUse" x1="117.0906" y1="111.5935" x2="132.2898" y2="110.2638">
	<stop  offset="0" style="stop-color:#5851DB"/>
	<stop  offset="3.389889e-02" style="stop-color:#5E4ED6"/>
	<stop  offset="0.2239" style="stop-color:#793FBD"/>
	<stop  offset="0.3352" style="stop-color:#833AB4"/>
	<stop  offset="0.3686" style="stop-color:#9238A9"/>
	<stop  offset="0.4577" style="stop-color:#B4358E"/>
	<stop  offset="0.5422" style="stop-color:#CD327B"/>
	<stop  offset="0.6195" style="stop-color:#DC3170"/>
	<stop  offset="0.6827" style="stop-color:#E1306C"/>
	<stop  offset="1" style="stop-color:#FFDC80"/>
</linearGradient>
<path class="st7" d="M130.7,115.1h-11.8c-0.9,0-1.7-0.7-1.7-1.7v-1.6c0-3,2.4-5.4,5.4-5.4h4.3c3,0,5.4,2.4,5.4,5.4v1.6
	C132.4,114.4,131.7,115.1,130.7,115.1z"/>
<linearGradient id="SVGID_9_" gradientUnits="userSpaceOnUse" x1="168.7488" y1="80.7117" x2="178.9774" y2="79.8168">
	<stop  offset="0" style="stop-color:#5851DB"/>
	<stop  offset="3.389889e-02" style="stop-color:#5E4ED6"/>
	<stop  offset="0.2239" style="stop-color:#793FBD"/>
	<stop  offset="0.3352" style="stop-color:#833AB4"/>
	<stop  offset="0.3686" style="stop-color:#9238A9"/>
	<stop  offset="0.4577" style="stop-color:#B4358E"/>
	<stop  offset="0.5422" style="stop-color:#CD327B"/>
	<stop  offset="0.6195" style="stop-color:#DC3170"/>
	<stop  offset="0.6827" style="stop-color:#E1306C"/>
	<stop  offset="1" style="stop-color:#FFDC80"/>
</linearGradient>
<circle class="st8" cx="173.9" cy="80.3" r="5.1"/>
<linearGradient id="SVGID_10_" gradientUnits="userSpaceOnUse" x1="166.1205" y1="91.6017" x2="181.3197" y2="90.2719">
	<stop  offset="0" style="stop-color:#5851DB"/>
	<stop  offset="3.389889e-02" style="stop-color:#5E4ED6"/>
	<stop  offset="0.2239" style="stop-color:#793FBD"/>
	<stop  offset="0.3352" style="stop-color:#833AB4"/>
	<stop  offset="0.3686" style="stop-color:#9238A9"/>
	<stop  offset="0.4577" style="stop-color:#B4358E"/>
	<stop  offset="0.5422" style="stop-color:#CD327B"/>
	<stop  offset="0.6195" style="stop-color:#DC3170"/>
	<stop  offset="0.6827" style="stop-color:#E1306C"/>
	<stop  offset="1" style="stop-color:#FFDC80"/>
</linearGradient>
<path class="st9" d="M179.8,95.1H168c-0.9,0-1.7-0.7-1.7-1.7v-1.6c0-3,2.4-5.4,5.4-5.4h4.3c3,0,5.4,2.4,5.4,5.4v1.6
	C181.4,94.4,180.7,95.1,179.8,95.1z"/>
<linearGradient id="SVGID_11_" gradientUnits="userSpaceOnUse" x1="134.8664" y1="52.9707" x2="145.095" y2="52.0758">
	<stop  offset="0" style="stop-color:#5851DB"/>
	<stop  offset="3.389889e-02" style="stop-color:#5E4ED6"/>
	<stop  offset="0.2239" style="stop-color:#793FBD"/>
	<stop  offset="0.3352" style="stop-color:#833AB4"/>
	<stop  offset="0.3686" style="stop-color:#9238A9"/>
	<stop  offset="0.4577" style="stop-color:#B4358E"/>
	<stop  offset="0.5422" style="stop-color:#CD327B"/>
	<stop  offset="0.6195" style="stop-color:#DC3170"/>
	<stop  offset="0.6827" style="stop-color:#E1306C"/>
	<stop  offset="1" style="stop-color:#FFDC80"/>
</linearGradient>
<circle class="st10" cx="140" cy="52.5" r="5.1"/>
<linearGradient id="SVGID_12_" gradientUnits="userSpaceOnUse" x1="132.2381" y1="63.8606" x2="147.4373" y2="62.5309">
	<stop  offset="0" style="stop-color:#5851DB"/>
	<stop  offset="3.389889e-02" style="stop-color:#5E4ED6"/>
	<stop  offset="0.2239" style="stop-color:#793FBD"/>
	<stop  offset="0.3352" style="stop-color:#833AB4"/>
	<stop  offset="0.3686" style="stop-color:#9238A9"/>
	<stop  offset="0.4577" style="stop-color:#B4358E"/>
	<stop  offset="0.5422" style="stop-color:#CD327B"/>
	<stop  offset="0.6195" style="stop-color:#DC3170"/>
	<stop  offset="0.6827" style="stop-color:#E1306C"/>
	<stop  offset="1" style="stop-color:#FFDC80"/>
</linearGradient>
<path class="st11" d="M145.9,67.4h-11.8c-0.9,0-1.7-0.7-1.7-1.7v-1.6c0-3,2.4-5.4,5.4-5.4h4.3c3,0,5.4,2.4,5.4,5.4v1.6
	C147.6,66.6,146.8,67.4,145.9,67.4z"/>
<linearGradient id="SVGID_13_" gradientUnits="userSpaceOnUse" x1="92.6138" y1="167.1472" x2="102.8425" y2="166.2523">
	<stop  offset="0" style="stop-color:#5851DB"/>
	<stop  offset="3.389889e-02" style="stop-color:#5E4ED6"/>
	<stop  offset="0.2239" style="stop-color:#793FBD"/>
	<stop  offset="0.3352" style="stop-color:#833AB4"/>
	<stop  offset="0.3686" style="stop-color:#9238A9"/>
	<stop  offset="0.4577" style="stop-color:#B4358E"/>
	<stop  offset="0.5422" style="stop-color:#CD327B"/>
	<stop  offset="0.6195" style="stop-color:#DC3170"/>
	<stop  offset="0.6827" style="stop-color:#E1306C"/>
	<stop  offset="1" style="stop-color:#FFDC80"/>
</linearGradient>
<circle class="st12" cx="97.7" cy="166.7" r="5.1"/>
<linearGradient id="SVGID_14_" gradientUnits="userSpaceOnUse" x1="89.9855" y1="178.0372" x2="105.1847" y2="176.7074">
	<stop  offset="0" style="stop-color:#5851DB"/>
	<stop  offset="3.389889e-02" style="stop-color:#5E4ED6"/>
	<stop  offset="0.2239" style="stop-color:#793FBD"/>
	<stop  offset="0.3352" style="stop-color:#833AB4"/>
	<stop  offset="0.3686" style="stop-color:#9238A9"/>
	<stop  offset="0.4577" style="stop-color:#B4358E"/>
	<stop  offset="0.5422" style="stop-color:#CD327B"/>
	<stop  offset="0.6195" style="stop-color:#DC3170"/>
	<stop  offset="0.6827" style="stop-color:#E1306C"/>
	<stop  offset="1" style="stop-color:#FFDC80"/>
</linearGradient>
<path class="st13" d="M103.6,181.6H91.8c-0.9,0-1.7-0.7-1.7-1.7v-1.6c0-3,2.4-5.4,5.4-5.4h4.3c3,0,5.4,2.4,5.4,5.4v1.6
	C105.3,180.8,104.6,181.6,103.6,181.6z"/>
<linearGradient id="SVGID_15_" gradientUnits="userSpaceOnUse" x1="70.7315" y1="132.297" x2="80.9601" y2="131.4021">
	<stop  offset="0" style="stop-color:#5851DB"/>
	<stop  offset="3.389889e-02" style="stop-color:#5E4ED6"/>
	<stop  offset="0.2239" style="stop-color:#793FBD"/>
	<stop  offset="0.3352" style="stop-color:#833AB4"/>
	<stop  offset="0.3686" style="stop-color:#9238A9"/>
	<stop  offset="0.4577" style="stop-color:#B4358E"/>
	<stop  offset="0.5422" style="stop-color:#CD327B"/>
	<stop  offset="0.6195" style="stop-color:#DC3170"/>
	<stop  offset="0.6827" style="stop-color:#E1306C"/>
	<stop  offset="1" style="stop-color:#FFDC80"/>
</linearGradient>
<circle class="st14" cx="75.8" cy="131.8" r="5.1"/>
<linearGradient id="SVGID_16_" gradientUnits="userSpaceOnUse" x1="68.1032" y1="143.187" x2="83.3024" y2="141.8572">
	<stop  offset="0" style="stop-color:#5851DB"/>
	<stop  offset="3.389889e-02" style="stop-color:#5E4ED6"/>
	<stop  offset="0.2239" style="stop-color:#793FBD"/>
	<stop  offset="0.3352" style="stop-color:#833AB4"/>
	<stop  offset="0.3686" style="stop-color:#9238A9"/>
	<stop  offset="0.4577" style="stop-color:#B4358E"/>
	<stop  offset="0.5422" style="stop-color:#CD327B"/>
	<stop  offset="0.6195" style="stop-color:#DC3170"/>
	<stop  offset="0.6827" style="stop-color:#E1306C"/>
	<stop  offset="1" style="stop-color:#FFDC80"/>
</linearGradient>
<path class="st15" d="M81.8,146.7H69.9c-0.9,0-1.7-0.7-1.7-1.7v-1.6c0-3,2.4-5.4,5.4-5.4H78c3,0,5.4,2.4,5.4,5.4v1.6
	C83.4,146,82.7,146.7,81.8,146.7z"/>
<linearGradient id="SVGID_17_" gradientUnits="userSpaceOnUse" x1="41.4374" y1="152.2889" x2="51.666" y2="151.394">
	<stop  offset="0" style="stop-color:#5851DB"/>
	<stop  offset="3.389889e-02" style="stop-color:#5E4ED6"/>
	<stop  offset="0.2239" style="stop-color:#793FBD"/>
	<stop  offset="0.3352" style="stop-color:#833AB4"/>
	<stop  offset="0.3686" style="stop-color:#9238A9"/>
	<stop  offset="0.4577" style="stop-color:#B4358E"/>
	<stop  offset="0.5422" style="stop-color:#CD327B"/>
	<stop  offset="0.6195" style="stop-color:#DC3170"/>
	<stop  offset="0.6827" style="stop-color:#E1306C"/>
	<stop  offset="1" style="stop-color:#FFDC80"/>
</linearGradient>
<circle class="st16" cx="46.6" cy="151.8" r="5.1"/>
<linearGradient id="SVGID_18_" gradientUnits="userSpaceOnUse" x1="38.809" y1="163.1788" x2="54.0083" y2="161.8491">
	<stop  offset="0" style="stop-color:#5851DB"/>
	<stop  offset="3.389889e-02" style="stop-color:#5E4ED6"/>
	<stop  offset="0.2239" style="stop-color:#793FBD"/>
	<stop  offset="0.3352" style="stop-color:#833AB4"/>
	<stop  offset="0.3686" style="stop-color:#9238A9"/>
	<stop  offset="0.4577" style="stop-color:#B4358E"/>
	<stop  offset="0.5422" style="stop-color:#CD327B"/>
	<stop  offset="0.6195" style="stop-color:#DC3170"/>
	<stop  offset="0.6827" style="stop-color:#E1306C"/>
	<stop  offset="1" style="stop-color:#FFDC80"/>
</linearGradient>
<path class="st17" d="M52.5,166.7H40.6c-0.9,0-1.7-0.7-1.7-1.7v-1.6c0-3,2.4-5.4,5.4-5.4h4.3c3,0,5.4,2.4,5.4,5.4v1.6
	C54.1,166,53.4,166.7,52.5,166.7z"/>
<linearGradient id="SVGID_19_" gradientUnits="userSpaceOnUse" x1="51.2408" y1="121.7578" x2="57.0101" y2="121.2531">
	<stop  offset="0" style="stop-color:#5851DB"/>
	<stop  offset="3.389889e-02" style="stop-color:#5E4ED6"/>
	<stop  offset="0.2239" style="stop-color:#793FBD"/>
	<stop  offset="0.3352" style="stop-color:#833AB4"/>
	<stop  offset="0.3686" style="stop-color:#9238A9"/>
	<stop  offset="0.4577" style="stop-color:#B4358E"/>
	<stop  offset="0.5422" style="stop-color:#CD327B"/>
	<stop  offset="0.6195" style="stop-color:#DC3170"/>
	<stop  offset="0.6827" style="stop-color:#E1306C"/>
	<stop  offset="1" style="stop-color:#FFDC80"/>
</linearGradient>
<circle class="st18" cx="54.1" cy="121.5" r="2.9"/>
<linearGradient id="SVGID_20_" gradientUnits="userSpaceOnUse" x1="49.7583" y1="127.9001" x2="58.3312" y2="127.1501">
	<stop  offset="0" style="stop-color:#5851DB"/>
	<stop  offset="3.389889e-02" style="stop-color:#5E4ED6"/>
	<stop  offset="0.2239" style="stop-color:#793FBD"/>
	<stop  offset="0.3352" style="stop-color:#833AB4"/>
	<stop  offset="0.3686" style="stop-color:#9238A9"/>
	<stop  offset="0.4577" style="stop-color:#B4358E"/>
	<stop  offset="0.5422" style="stop-color:#CD327B"/>
	<stop  offset="0.6195" style="stop-color:#DC3170"/>
	<stop  offset="0.6827" style="stop-color:#E1306C"/>
	<stop  offset="1" style="stop-color:#FFDC80"/>
</linearGradient>
<path class="st19" d="M57.5,129.9h-6.7c-0.5,0-0.9-0.4-0.9-0.9V128c0-1.7,1.4-3.1,3.1-3.1h2.4c1.7,0,3.1,1.4,3.1,3.1v0.9
	C58.4,129.5,58,129.9,57.5,129.9z"/>
<linearGradient id="SVGID_21_" gradientUnits="userSpaceOnUse" x1="99.8951" y1="134.2218" x2="105.6644" y2="133.7171">
	<stop  offset="0" style="stop-color:#5851DB"/>
	<stop  offset="3.389889e-02" style="stop-color:#5E4ED6"/>
	<stop  offset="0.2239" style="stop-color:#793FBD"/>
	<stop  offset="0.3352" style="stop-color:#833AB4"/>
	<stop  offset="0.3686" style="stop-color:#9238A9"/>
	<stop  offset="0.4577" style="stop-color:#B4358E"/>
	<stop  offset="0.5422" style="stop-color:#CD327B"/>
	<stop  offset="0.6195" style="stop-color:#DC3170"/>
	<stop  offset="0.6827" style="stop-color:#E1306C"/>
	<stop  offset="1" style="stop-color:#FFDC80"/>
</linearGradient>
<circle class="st20" cx="102.8" cy="134" r="2.9"/>
<linearGradient id="SVGID_22_" gradientUnits="userSpaceOnUse" x1="98.4126" y1="140.3641" x2="106.9855" y2="139.6141">
	<stop  offset="0" style="stop-color:#5851DB"/>
	<stop  offset="3.389889e-02" style="stop-color:#5E4ED6"/>
	<stop  offset="0.2239" style="stop-color:#793FBD"/>
	<stop  offset="0.3352" style="stop-color:#833AB4"/>
	<stop  offset="0.3686" style="stop-color:#9238A9"/>
	<stop  offset="0.4577" style="stop-color:#B4358E"/>
	<stop  offset="0.5422" style="stop-color:#CD327B"/>
	<stop  offset="0.6195" style="stop-color:#DC3170"/>
	<stop  offset="0.6827" style="stop-color:#E1306C"/>
	<stop  offset="1" style="stop-color:#FFDC80"/>
</linearGradient>
<path class="st21" d="M106.1,142.4h-6.7c-0.5,0-0.9-0.4-0.9-0.9v-0.9c0-1.7,1.4-3.1,3.1-3.1h2.4c1.7,0,3.1,1.4,3.1,3.1v0.9
	C107.1,141.9,106.6,142.4,106.1,142.4z"/>
<linearGradient id="SVGID_23_" gradientUnits="userSpaceOnUse" x1="143.2553" y1="86.1911" x2="149.0246" y2="85.6863">
	<stop  offset="0" style="stop-color:#5851DB"/>
	<stop  offset="3.389889e-02" style="stop-color:#5E4ED6"/>
	<stop  offset="0.2239" style="stop-color:#793FBD"/>
	<stop  offset="0.3352" style="stop-color:#833AB4"/>
	<stop  offset="0.3686" style="stop-color:#9238A9"/>
	<stop  offset="0.4577" style="stop-color:#B4358E"/>
	<stop  offset="0.5422" style="stop-color:#CD327B"/>
	<stop  offset="0.6195" style="stop-color:#DC3170"/>
	<stop  offset="0.6827" style="stop-color:#E1306C"/>
	<stop  offset="1" style="stop-color:#FFDC80"/>
</linearGradient>
<circle class="st22" cx="146.1" cy="85.9" r="2.9"/>
<linearGradient id="SVGID_24_" gradientUnits="userSpaceOnUse" x1="141.7728" y1="92.3334" x2="150.3457" y2="91.5833">
	<stop  offset="0" style="stop-color:#5851DB"/>
	<stop  offset="3.389889e-02" style="stop-color:#5E4ED6"/>
	<stop  offset="0.2239" style="stop-color:#793FBD"/>
	<stop  offset="0.3352" style="stop-color:#833AB4"/>
	<stop  offset="0.3686" style="stop-color:#9238A9"/>
	<stop  offset="0.4577" style="stop-color:#B4358E"/>
	<stop  offset="0.5422" style="stop-color:#CD327B"/>
	<stop  offset="0.6195" style="stop-color:#DC3170"/>
	<stop  offset="0.6827" style="stop-color:#E1306C"/>
	<stop  offset="1" style="stop-color:#FFDC80"/>
</linearGradient>
<path class="st23" d="M149.5,94.3h-6.7c-0.5,0-0.9-0.4-0.9-0.9v-0.9c0-1.7,1.4-3.1,3.1-3.1h2.4c1.7,0,3.1,1.4,3.1,3.1v0.9
	C150.4,93.9,150,94.3,149.5,94.3z"/>
<linearGradient id="SVGID_25_" gradientUnits="userSpaceOnUse" x1="165.8449" y1="33.4657" x2="171.6142" y2="32.9609">
	<stop  offset="0" style="stop-color:#5851DB"/>
	<stop  offset="3.389889e-02" style="stop-color:#5E4ED6"/>
	<stop  offset="0.2239" style="stop-color:#793FBD"/>
	<stop  offset="0.3352" style="stop-color:#833AB4"/>
	<stop  offset="0.3686" style="stop-color:#9238A9"/>
	<stop  offset="0.4577" style="stop-color:#B4358E"/>
	<stop  offset="0.5422" style="stop-color:#CD327B"/>
	<stop  offset="0.6195" style="stop-color:#DC3170"/>
	<stop  offset="0.6827" style="stop-color:#E1306C"/>
	<stop  offset="1" style="stop-color:#FFDC80"/>
</linearGradient>
<circle class="st24" cx="168.7" cy="33.2" r="2.9"/>
<linearGradient id="SVGID_26_" gradientUnits="userSpaceOnUse" x1="164.3625" y1="39.6079" x2="172.9353" y2="38.8579">
	<stop  offset="0" style="stop-color:#5851DB"/>
	<stop  offset="3.389889e-02" style="stop-color:#5E4ED6"/>
	<stop  offset="0.2239" style="stop-color:#793FBD"/>
	<stop  offset="0.3352" style="stop-color:#833AB4"/>
	<stop  offset="0.3686" style="stop-color:#9238A9"/>
	<stop  offset="0.4577" style="stop-color:#B4358E"/>
	<stop  offset="0.5422" style="stop-color:#CD327B"/>
	<stop  offset="0.6195" style="stop-color:#DC3170"/>
	<stop  offset="0.6827" style="stop-color:#E1306C"/>
	<stop  offset="1" style="stop-color:#FFDC80"/>
</linearGradient>
<path class="st25" d="M172.1,41.6h-6.7c-0.5,0-0.9-0.4-0.9-0.9v-0.9c0-1.7,1.4-3.1,3.1-3.1h2.4c1.7,0,3.1,1.4,3.1,3.1v0.9
	C173,41.2,172.6,41.6,172.1,41.6z"/>
<linearGradient id="SVGID_27_" gradientUnits="userSpaceOnUse" x1="176.112" y1="134.2218" x2="181.8813" y2="133.7171">
	<stop  offset="0" style="stop-color:#5851DB"/>
	<stop  offset="3.389889e-02" style="stop-color:#5E4ED6"/>
	<stop  offset="0.2239" style="stop-color:#793FBD"/>
	<stop  offset="0.3352" style="stop-color:#833AB4"/>
	<stop  offset="0.3686" style="stop-color:#9238A9"/>
	<stop  offset="0.4577" style="stop-color:#B4358E"/>
	<stop  offset="0.5422" style="stop-color:#CD327B"/>
	<stop  offset="0.6195" style="stop-color:#DC3170"/>
	<stop  offset="0.6827" style="stop-color:#E1306C"/>
	<stop  offset="1" style="stop-color:#FFDC80"/>
</linearGradient>
<circle class="st26" cx="179" cy="134" r="2.9"/>
<linearGradient id="SVGID_28_" gradientUnits="userSpaceOnUse" x1="174.6295" y1="140.3641" x2="183.2024" y2="139.6141">
	<stop  offset="0" style="stop-color:#5851DB"/>
	<stop  offset="3.389889e-02" style="stop-color:#5E4ED6"/>
	<stop  offset="0.2239" style="stop-color:#793FBD"/>
	<stop  offset="0.3352" style="stop-color:#833AB4"/>
	<stop  offset="0.3686" style="stop-color:#9238A9"/>
	<stop  offset="0.4577" style="stop-color:#B4358E"/>
	<stop  offset="0.5422" style="stop-color:#CD327B"/>
	<stop  offset="0.6195" style="stop-color:#DC3170"/>
	<stop  offset="0.6827" style="stop-color:#E1306C"/>
	<stop  offset="1" style="stop-color:#FFDC80"/>
</linearGradient>
<path class="st27" d="M182.3,142.4h-6.7c-0.5,0-0.9-0.4-0.9-0.9v-0.9c0-1.7,1.4-3.1,3.1-3.1h2.4c1.7,0,3.1,1.4,3.1,3.1v0.9
	C183.3,141.9,182.8,142.4,182.3,142.4z"/>
<linearGradient id="SVGID_29_" gradientUnits="userSpaceOnUse" x1="17.2553" y1="169.072" x2="23.0245" y2="168.5672">
	<stop  offset="0" style="stop-color:#5851DB"/>
	<stop  offset="3.389889e-02" style="stop-color:#5E4ED6"/>
	<stop  offset="0.2239" style="stop-color:#793FBD"/>
	<stop  offset="0.3352" style="stop-color:#833AB4"/>
	<stop  offset="0.3686" style="stop-color:#9238A9"/>
	<stop  offset="0.4577" style="stop-color:#B4358E"/>
	<stop  offset="0.5422" style="stop-color:#CD327B"/>
	<stop  offset="0.6195" style="stop-color:#DC3170"/>
	<stop  offset="0.6827" style="stop-color:#E1306C"/>
	<stop  offset="1" style="stop-color:#FFDC80"/>
</linearGradient>
<circle class="st28" cx="20.1" cy="168.8" r="2.9"/>
<linearGradient id="SVGID_30_" gradientUnits="userSpaceOnUse" x1="15.7728" y1="175.2143" x2="24.3457" y2="174.4642">
	<stop  offset="0" style="stop-color:#5851DB"/>
	<stop  offset="3.389889e-02" style="stop-color:#5E4ED6"/>
	<stop  offset="0.2239" style="stop-color:#793FBD"/>
	<stop  offset="0.3352" style="stop-color:#833AB4"/>
	<stop  offset="0.3686" style="stop-color:#9238A9"/>
	<stop  offset="0.4577" style="stop-color:#B4358E"/>
	<stop  offset="0.5422" style="stop-color:#CD327B"/>
	<stop  offset="0.6195" style="stop-color:#DC3170"/>
	<stop  offset="0.6827" style="stop-color:#E1306C"/>
	<stop  offset="1" style="stop-color:#FFDC80"/>
</linearGradient>
<path class="st29" d="M23.5,177.2h-6.7c-0.5,0-0.9-0.4-0.9-0.9v-0.9c0-1.7,1.4-3.1,3.1-3.1h2.4c1.7,0,3.1,1.4,3.1,3.1v0.9
	C24.4,176.8,24,177.2,23.5,177.2z"/>
<linearGradient id="SVGID_31_" gradientUnits="userSpaceOnUse" x1="1.0729" y1="100.2625" x2="67.0576" y2="46.8291" gradientTransform="matrix(0.7219 0.692 -0.692 0.7219 90.0794 -11.3884)">
	<stop  offset="0" style="stop-color:#5851DB"/>
	<stop  offset="3.389889e-02" style="stop-color:#5E4ED6"/>
	<stop  offset="0.2239" style="stop-color:#793FBD"/>
	<stop  offset="0.3352" style="stop-color:#833AB4"/>
	<stop  offset="0.3686" style="stop-color:#9238A9"/>
	<stop  offset="0.4577" style="stop-color:#B4358E"/>
	<stop  offset="0.5422" style="stop-color:#CD327B"/>
	<stop  offset="0.6195" style="stop-color:#DC3170"/>
	<stop  offset="0.6827" style="stop-color:#E1306C"/>
	<stop  offset="1" style="stop-color:#FFDC80"/>
</linearGradient>
<path class="st30" d="M105.3,77.8l-1-48.4c-0.1-2.5-1.1-4.7-2.8-6.2c-1.6-1.6-3.9-2.6-6.4-2.6l-48.4,1c-4.8,0.1-8.7,4.1-8.6,8.9l0,0
	c0.1,4.8,4.1,8.7,8.9,8.6l27.6-0.6L20.7,94.8c-3.3,3.5-3.2,9,0.3,12.4l0,0c3.5,3.3,9,3.2,12.4-0.3l53.9-56.3l0.6,27.6
	c0.1,4.8,4.1,8.7,8.9,8.6C101.5,86.6,105.4,82.6,105.3,77.8z"/>
</svg>
