<?xml version="1.0" encoding="utf-8"?>
<!-- Generator: Adobe Illustrator 23.0.1, SVG Export Plug-In . SVG Version: 6.00 Build 0)  -->
<svg version="1.1" id="Camada_1" xmlns="http://www.w3.org/2000/svg" xmlns:xlink="http://www.w3.org/1999/xlink" x="0px" y="0px"
	 width="1080px" height="1080px" viewBox="0 0 1080 1080" style="enable-background:new 0 0 1080 1080;" xml:space="preserve">
<style type="text/css">
	.Sombra{fill:none;}
	.Neon_x0020_azul_x0020_espesso{fill:none;stroke:#0073BC;stroke-width:10;stroke-linecap:round;stroke-linejoin:round;}
	.Verde_x002D_água_x0020_fluorescente{fill:url(#SVGID_1_);stroke:#FFFFFF;stroke-width:0.25;stroke-miterlimit:1;}
	.Realce_x0020_preto{fill:url(#SVGID_2_);stroke:#FFFFFF;stroke-width:0.3629;stroke-miterlimit:1;}
	.Bugaboo_GS{fill-rule:evenodd;clip-rule:evenodd;fill:#FFDD00;}
	.st0{fill:#FFFFFF;}
</style>
<linearGradient id="SVGID_1_" gradientUnits="userSpaceOnUse" x1="0" y1="0" x2="6.123234e-17" y2="-1">
	<stop  offset="0" style="stop-color:#1D59F4"/>
	<stop  offset="0.618" style="stop-color:#2D65EE"/>
	<stop  offset="0.6292" style="stop-color:#3864F3"/>
	<stop  offset="0.9831" style="stop-color:#00DDFC"/>
</linearGradient>
<linearGradient id="SVGID_2_" gradientUnits="userSpaceOnUse" x1="0" y1="0" x2="6.123234e-17" y2="-1">
	<stop  offset="0" style="stop-color:#060606"/>
	<stop  offset="0.618" style="stop-color:#000000"/>
	<stop  offset="0.6292" style="stop-color:#000000"/>
	<stop  offset="0.9831" style="stop-color:#000000"/>
</linearGradient>
<path class="st0" d="M1018.2,590.8L1069,540l-38.7-38.7l32.1-44.2l-58.2-42.3l29.1-65.8l-63.8-28.2l14.7-68.3l-70.3-15.1v-71.9
	h-60.3l-10.5-59.4l-70.8,12.5l-27.1-66.6l-59.6,24.2l-34.9-54l-60.4,39l-50.8-50.8l-38.7,38.7L456.6,17l-42.3,58.2l-65.8-29.1
	L320.4,110l-68.3-14.7L237,165.6h-71.9v60.3l-59.4,10.5l12.5,70.8l-66.6,27.1l24.2,59.6l-54,34.9l39,60.4L10,540l38.7,38.7
	l-32.1,44.2l58.2,42.3l-29.1,65.8l63.8,28.2l-14.7,68.3l70.3,15.1v71.9h60.3l10.5,59.4l70.8-12.5l27.1,66.6l59.6-24.2l34.9,54
	l60.4-39l50.8,50.8l38.7-38.7l44.2,32.1l42.3-58.2l65.8,29.1l28.2-63.8l68.3,14.7l15.1-70.3h71.9v-60.3l59.4-10.5l-12.5-70.8
	l66.6-27.1l-24.2-59.6l54-34.9L1018.2,590.8z M538.9,989.3C290.7,989.3,89.5,788.2,89.5,540S290.7,90.7,538.9,90.7
	S988.2,291.8,988.2,540S787,989.3,538.9,989.3z"/>
<g>
	<ellipse class="st0" cx="740.5" cy="418.4" rx="36.3" ry="37.1"/>
	<path class="st0" d="M345.3,382.8H324v32.1h21.4c7.8,0,14.3-6.9,14.3-16S353.2,382.8,345.3,382.8z"/>
	<path class="st0" d="M597.1,544.3h-34.6v51.9h34.6c12.7,0,23.1-11.3,23.1-26S609.8,544.3,597.1,544.3z"/>
	<path class="st0" d="M787.3,542c-32.9,0-58.9,24-58.9,60c0,36.1,26,60,58.9,60s58.9-24,58.9-60C846.2,566,820.2,542,787.3,542z"/>
	<path class="st0" d="M538.9,130c-226.4,0-410,183.6-410,410s183.6,410,410,410s410-183.6,410-410S765.3,130,538.9,130z
		 M615.9,353.6c22.6,0,42.6,11.2,53.4,28.9l-24.6,14.3c-5.5-9.6-16.2-15.3-28.9-15.3c-22.1,0-36.3,14.8-36.3,37.1
		c0,22.3,14.3,37.1,36.3,37.1c12.6,0,23.5-5.7,28.9-15.3l24.6,14.3c-10.7,17.6-30.6,28.9-53.4,28.9c-37.6,0-64.8-28.1-64.8-64.8
		C551.1,381.7,578.4,353.6,615.9,353.6z M405,356.1h28.5v124.7H405V356.1z M338.8,703.1H200.3v-35.8l77.3-121.8h-75.9V501h135.6
		v35.8l-77.3,121.8h78.8V703.1z M337.5,439.8H324v41h-28.5V356.1h49.9c23.7,0,42.8,19.1,42.8,42.8c0,15.3-9.3,29.2-23,36.2
		l26.5,45.8H361L337.5,439.8z M490.3,703.1h-127V501h125.5v44.4h-79.4V579h72.1v43.9h-72.1v35.8h80.8V703.1z M446.9,452.5l24.6-14.3
		c4.5,10.3,12.1,17.3,26.2,17.3c13.5,0,16.9-5.3,16.9-10.2c0-7.7-7.1-10.7-25.8-15.9c-18.5-5.2-36.7-14.1-36.7-37.9
		c0-24,20.3-37.9,41.9-37.9c20.5,0,36.5,9.8,45.6,28.1l-24,14.1c-4.3-8.9-10.2-14.4-21.6-14.4c-8.9,0-13.4,4.5-13.4,9.4
		c0,5.7,3,9.6,22.4,15.5c18.9,5.7,40.1,12.3,40.1,38.7c0,24-19.2,38.3-46.3,38.3C470.6,483.3,453.8,470.8,446.9,452.5z M622.5,703.1
		l-38.1-66.4h-21.9v66.4h-46.2V501h80.8c38.4,0,69.3,30.9,69.3,69.3c0,24.8-15,47.3-37.2,58.6l43,74.2H622.5z M740.5,353.6
		c35.8,0,64.8,28.1,64.8,64.8c0,36.7-29,64.8-64.8,64.8s-64.8-28.1-64.8-64.8C675.6,381.7,704.7,353.6,740.5,353.6z M787.3,707.1
		c-58,0-105-45.6-105-105c0-59.5,47-105,105-105c58,0,105,45.6,105,105C892.3,661.5,845.3,707.1,787.3,707.1z"/>
</g>
<path class="st0" d="M539,116c57.2,0,112.8,11.2,165,33.3c50.5,21.4,95.8,51.9,134.8,90.9s69.5,84.3,90.9,134.8
	c22.1,52.3,33.3,107.8,33.3,165s-11.2,112.8-33.3,165c-21.4,50.5-51.9,95.8-90.9,134.8s-84.3,69.5-134.8,90.9
	C651.8,952.8,596.2,964,539,964s-112.8-11.2-165-33.3c-50.5-21.4-95.8-51.9-134.8-90.9s-69.5-84.3-90.9-134.8
	C126.2,652.8,115,597.2,115,540s11.2-112.8,33.3-165c21.4-50.5,51.9-95.8,90.9-134.8s84.3-69.5,134.8-90.9
	C426.2,127.2,481.8,116,539,116 M539,104c-240.8,0-436,195.2-436,436s195.2,436,436,436s436-195.2,436-436S779.8,104,539,104
	L539,104z"/>
</svg>
