<?xml version="1.0" encoding="utf-8"?>
<!-- Generator: Adobe Illustrator 23.0.1, SVG Export Plug-In . SVG Version: 6.00 Build 0)  -->
<svg version="1.1" id="Camada_1" xmlns="http://www.w3.org/2000/svg" xmlns:xlink="http://www.w3.org/1999/xlink" x="0px" y="0px"
	 width="100px" height="100px" viewBox="0 0 100 100" style="enable-background:new 0 0 100 100;" xml:space="preserve">
<style type="text/css">
	.Sombra{fill:none;}
	._x0035__x0020_pontos_x0020__x002D__x0020_Brilho_x0020_externo{fill:none;}
	.Neon_x0020_azul_x0020_{fill:none;stroke:#8AACDA;stroke-width:7;stroke-linecap:round;stroke-linejoin:round;}
	.Realce_x0020_cromo_x0020_{fill:url(#SVGID_1_);stroke:#FFFFFF;stroke-width:0.3629;stroke-miterlimit:1;}
	.Jive_GS{fill:#FFDD00;}
	.Alyssa_GS{fill:#A6D0E4;}
	.st0{fill:#7AD1FD;}
	.st1{fill:#28B5FD;}
	.st2{fill:#FFFFFF;}
</style>
<linearGradient id="SVGID_1_" gradientUnits="userSpaceOnUse" x1="0" y1="0" x2="6.123234e-17" y2="-1">
	<stop  offset="0" style="stop-color:#656565"/>
	<stop  offset="0.618" style="stop-color:#1B1B1B"/>
	<stop  offset="0.6292" style="stop-color:#545454"/>
	<stop  offset="0.9831" style="stop-color:#3E3E3E"/>
</linearGradient>
<path class="st0" d="M95.2,55.3l4.3-4.3l-4.8-4.8l3.7-5.7l-5.1-3.3l2.3-5.7l-5.7-2.3l1.2-6l-6-1.1V16h-6.4l-1.3-6.3l-6,1.2L69,5.3
	l-6,2.5l-3.6-5.4l-5,3.4L50,1.5l-4.8,4.8l-5.7-3.7l-3.3,5.1l-5.7-2.3l-2.3,5.7l-6-1.2l-1.1,6H15v6.4l-6.3,1.3l1.2,6L4.3,32l2.5,6
	l-5.4,3.6l3.4,5L0.5,51l4.8,4.8l-3.7,5.7l5.1,3.3l-2.3,5.7l5.7,2.3l-1.2,6l6,1.1V86h6.4l1.3,6.3l6-1.2l2.3,5.6l6-2.5l3.6,5.4l5-3.4
	l4.3,4.3l4.8-4.8l5.7,3.7l3.3-5.1l5.7,2.3l2.3-5.7l6,1.2l1.1-6H85v-6.4l6.3-1.3l-1.2-6l5.6-2.3l-2.5-6l5.4-3.6L95.2,55.3z M81.9,68
	l-4.7,1l1,5.1H73v4.8l-4.8-0.9l-0.9,4.8l-4.5-1.8L61,85.4l-4.1-2.6l-3,4.7L50,83.5l-3.4,3.4l-2.7-4l-4.3,2.9l-2-4.9L33,82.9l-1-4.7
	l-5.1,1V74h-4.8l0.9-4.8l-4.8-0.9l1.8-4.5L15.6,62l2.6-4.1l-4.7-3l3.9-3.9l-3.4-3.4l4-2.7l-2.9-4.3l4.9-2L18.1,34l4.7-1l-1-5.1H27
	v-4.8l4.8,0.9l0.9-4.8l4.5,1.8l1.8-4.5l4.1,2.6l3-4.7l3.9,3.9l3.4-3.4l2.7,4l4.3-2.9l2,4.9l4.5-1.8l1,4.7l5.1-1V28h4.8l-0.9,4.8
	l4.8,0.9l-1.8,4.5l4.5,1.8l-2.6,4.1l4.7,3L82.5,51l3.4,3.4l-4,2.7l2.9,4.3l-4.9,2L81.9,68z"/>
<g>
	<circle class="st1" cx="50" cy="50" r="45"/>
	<path class="st0" d="M50,8c23.2,0,42,18.8,42,42S73.2,92,50,92S8,73.2,8,50S26.8,8,50,8 M50,5C25.1,5,5,25.1,5,50s20.1,45,45,45
		s45-20.1,45-45S74.9,5,50,5L50,5z"/>
</g>
<circle class="st1" cx="50" cy="50" r="40"/>
<path class="st2" d="M50,11.7c21.1,0,38.3,17.2,38.3,38.3S71.1,88.3,50,88.3S11.7,71.1,11.7,50S28.9,11.7,50,11.7 M50,9
	C27.4,9,9,27.4,9,50s18.4,41,41,41s41-18.4,41-41S72.6,9,50,9L50,9z"/>
<g>
	<path class="st2" d="M29.5,44.8V34.5h4.6c0.5,0,0.9,0.1,1.3,0.3c0.4,0.2,0.8,0.5,1.1,0.8c0.3,0.3,0.5,0.7,0.7,1.1
		c0.2,0.4,0.3,0.8,0.3,1.3c0,0.3,0,0.6-0.1,0.9c-0.1,0.3-0.2,0.6-0.3,0.8c-0.1,0.3-0.3,0.5-0.5,0.7c-0.2,0.2-0.4,0.4-0.7,0.5
		l2.3,3.8h-2.7l-2-3.3h-1.5v3.3H29.5z M31.9,39.4h2.2c0.3,0,0.5-0.1,0.7-0.4c0.2-0.3,0.3-0.6,0.3-1c0-0.4-0.1-0.8-0.3-1
		c-0.2-0.3-0.5-0.4-0.8-0.4h-2.1V39.4z"/>
	<path class="st2" d="M39.2,44.8V34.5h2.4v10.2H39.2z"/>
	<path class="st2" d="M49.7,37.5c0,0-0.1-0.1-0.3-0.2c-0.2-0.1-0.4-0.2-0.6-0.3c-0.3-0.1-0.5-0.2-0.9-0.3c-0.3-0.1-0.6-0.1-0.9-0.1
		c-0.8,0-1.3,0.3-1.3,0.9c0,0.2,0,0.3,0.1,0.4c0.1,0.1,0.2,0.2,0.4,0.3c0.2,0.1,0.4,0.2,0.7,0.3c0.3,0.1,0.6,0.2,0.9,0.3
		c0.5,0.1,0.9,0.3,1.3,0.4c0.4,0.2,0.7,0.4,1,0.6c0.3,0.2,0.5,0.5,0.6,0.9c0.1,0.3,0.2,0.7,0.2,1.2c0,0.6-0.1,1.1-0.3,1.5
		c-0.2,0.4-0.5,0.7-0.9,1c-0.4,0.2-0.8,0.4-1.2,0.5c-0.5,0.1-0.9,0.2-1.4,0.2c-0.4,0-0.8,0-1.2-0.1c-0.4-0.1-0.8-0.1-1.2-0.3
		c-0.4-0.1-0.7-0.2-1.1-0.4c-0.4-0.2-0.7-0.3-1-0.5l1-2.1c0,0,0.2,0.1,0.4,0.3c0.2,0.1,0.5,0.3,0.8,0.4s0.7,0.3,1,0.4
		c0.4,0.1,0.8,0.2,1.2,0.2c0.8,0,1.3-0.3,1.3-0.8c0-0.2-0.1-0.4-0.2-0.5c-0.1-0.1-0.3-0.2-0.5-0.3S47.3,41,47,40.9
		c-0.3-0.1-0.6-0.2-1-0.3c-0.5-0.1-0.9-0.3-1.2-0.5c-0.3-0.2-0.6-0.4-0.9-0.6c-0.2-0.2-0.4-0.5-0.5-0.8c-0.1-0.3-0.2-0.6-0.2-1
		c0-0.5,0.1-1,0.3-1.4c0.2-0.4,0.5-0.8,0.8-1c0.3-0.3,0.7-0.5,1.2-0.6c0.5-0.1,0.9-0.2,1.4-0.2c0.4,0,0.7,0,1.1,0.1
		c0.3,0.1,0.7,0.2,1,0.3c0.3,0.1,0.6,0.2,0.9,0.4c0.3,0.1,0.5,0.3,0.8,0.4L49.7,37.5z"/>
	<path class="st2" d="M51.8,39.6c0-0.6,0.1-1.2,0.3-1.8c0.2-0.6,0.6-1.2,1-1.6c0.4-0.5,1-0.9,1.6-1.2c0.6-0.3,1.4-0.4,2.2-0.4
		c1,0,1.8,0.2,2.5,0.6s1.2,1,1.6,1.6L59.2,38c-0.1-0.3-0.3-0.5-0.4-0.7c-0.2-0.2-0.4-0.3-0.6-0.4c-0.2-0.1-0.4-0.2-0.7-0.2
		c-0.2,0-0.4-0.1-0.6-0.1c-0.5,0-0.8,0.1-1.2,0.3c-0.3,0.2-0.6,0.4-0.8,0.7s-0.4,0.6-0.5,1c-0.1,0.4-0.2,0.7-0.2,1.1
		c0,0.4,0.1,0.8,0.2,1.2s0.3,0.7,0.5,1c0.2,0.3,0.5,0.5,0.9,0.7c0.3,0.2,0.7,0.3,1.1,0.3c0.2,0,0.4,0,0.7-0.1s0.4-0.1,0.6-0.2
		s0.4-0.3,0.6-0.4c0.2-0.2,0.3-0.4,0.4-0.7l1.9,1.1c-0.2,0.4-0.4,0.7-0.7,1c-0.3,0.3-0.7,0.5-1,0.8c-0.4,0.2-0.8,0.4-1.3,0.5
		c-0.4,0.1-0.9,0.2-1.3,0.2c-0.7,0-1.4-0.2-2-0.5c-0.6-0.3-1.2-0.7-1.6-1.2s-0.8-1.1-1-1.7C51.9,40.9,51.8,40.2,51.8,39.6z"/>
	<path class="st2" d="M66.7,44.9c-0.8,0-1.5-0.1-2.1-0.4c-0.6-0.3-1.2-0.7-1.6-1.2c-0.4-0.5-0.8-1-1-1.7c-0.2-0.6-0.4-1.3-0.4-1.9
		c0-0.7,0.1-1.3,0.4-1.9s0.6-1.2,1.1-1.7s1-0.9,1.6-1.1c0.6-0.3,1.3-0.4,2-0.4c0.8,0,1.5,0.1,2.1,0.4c0.6,0.3,1.2,0.7,1.6,1.2
		c0.4,0.5,0.8,1,1,1.7c0.2,0.6,0.4,1.3,0.4,1.9c0,0.7-0.1,1.3-0.4,1.9c-0.3,0.6-0.6,1.2-1.1,1.7c-0.5,0.5-1,0.9-1.6,1.1
		S67.4,44.9,66.7,44.9z M64,39.7c0,0.4,0.1,0.8,0.2,1.1c0.1,0.4,0.3,0.7,0.5,1c0.2,0.3,0.5,0.5,0.8,0.7c0.3,0.2,0.7,0.3,1.2,0.3
		c0.5,0,0.8-0.1,1.2-0.3c0.3-0.2,0.6-0.4,0.8-0.7c0.2-0.3,0.4-0.6,0.5-1s0.2-0.7,0.2-1.1c0-0.4-0.1-0.8-0.2-1.1
		c-0.1-0.4-0.3-0.7-0.5-1c-0.2-0.3-0.5-0.5-0.8-0.7c-0.3-0.2-0.7-0.3-1.1-0.3c-0.5,0-0.8,0.1-1.2,0.3c-0.3,0.2-0.6,0.4-0.8,0.7
		c-0.2,0.3-0.4,0.6-0.5,1S64,39.3,64,39.7z"/>
</g>
<g>
	<path class="st2" d="M19.2,61.5l9.1-10.9h-8.8V47H33v3l-8.7,10.9h8.8v3.6H19.2V61.5z"/>
	<path class="st2" d="M47.9,60.9v3.6H35.6V47h12.1v3.6h-8v3.4h6.9v3.3h-6.9v3.7H47.9z"/>
	<path class="st2" d="M50.4,64.5V47h7.9c0.8,0,1.6,0.2,2.3,0.5c0.7,0.3,1.3,0.8,1.8,1.4c0.5,0.6,0.9,1.2,1.2,1.9
		c0.3,0.7,0.4,1.4,0.4,2.1c0,0.5-0.1,1.1-0.2,1.6s-0.3,1-0.6,1.4s-0.5,0.8-0.9,1.2c-0.4,0.4-0.8,0.7-1.2,0.9l3.8,6.5h-4.6l-3.4-5.7
		h-2.6v5.7H50.4z M54.4,55.3h3.7c0.5,0,0.9-0.2,1.2-0.7c0.3-0.5,0.5-1,0.5-1.7c0-0.7-0.2-1.3-0.6-1.7c-0.4-0.4-0.8-0.6-1.3-0.6h-3.6
		V55.3z"/>
	<path class="st2" d="M74.6,64.6c-1.3,0-2.5-0.3-3.6-0.8c-1.1-0.5-2-1.2-2.7-2S67,60.1,66.5,59c-0.4-1.1-0.6-2.2-0.6-3.3
		c0-1.2,0.2-2.3,0.7-3.3c0.4-1.1,1-2,1.8-2.8c0.8-0.8,1.7-1.5,2.8-1.9c1.1-0.5,2.2-0.7,3.5-0.7c1.3,0,2.5,0.3,3.6,0.8s2,1.2,2.7,2
		c0.8,0.8,1.3,1.8,1.8,2.9c0.4,1.1,0.6,2.2,0.6,3.3c0,1.2-0.2,2.3-0.7,3.3c-0.4,1.1-1,2-1.8,2.8c-0.8,0.8-1.7,1.5-2.8,2
		C77,64.4,75.9,64.6,74.6,64.6z M70,55.8c0,0.7,0.1,1.3,0.3,2c0.2,0.6,0.5,1.2,0.9,1.7c0.4,0.5,0.9,0.9,1.4,1.2
		c0.6,0.3,1.2,0.4,2,0.4c0.8,0,1.4-0.2,2-0.5c0.6-0.3,1.1-0.7,1.4-1.2c0.4-0.5,0.7-1.1,0.9-1.7c0.2-0.6,0.3-1.3,0.3-1.9
		c0-0.7-0.1-1.3-0.3-2c-0.2-0.6-0.5-1.2-0.9-1.7c-0.4-0.5-0.9-0.9-1.4-1.2c-0.6-0.3-1.2-0.4-2-0.4c-0.8,0-1.4,0.2-2,0.5
		s-1,0.7-1.4,1.2c-0.4,0.5-0.7,1.1-0.9,1.7C70.1,54.5,70,55.1,70,55.8z"/>
</g>
</svg>
