<?xml version="1.0" encoding="utf-8"?>
<!-- Generator: Adobe Illustrator 24.2.1, SVG Export Plug-In . SVG Version: 6.00 Build 0)  -->
<svg version="1.1" id="Camada_1" xmlns="http://www.w3.org/2000/svg" xmlns:xlink="http://www.w3.org/1999/xlink" x="0px" y="0px"
	 width="200px" height="74px" viewBox="0 0 200 74" style="enable-background:new 0 0 200 74;" xml:space="preserve">
<style type="text/css">
	.st0{fill:url(#SVGID_1_);}
	.st1{fill:url(#SVGID_2_);}
	.st2{fill:url(#SVGID_3_);}
	.st3{fill:url(#SVGID_4_);}
	.st4{fill:url(#SVGID_5_);}
	.st5{fill:url(#SVGID_6_);}
</style>
<linearGradient id="SVGID_1_" gradientUnits="userSpaceOnUse" x1="164.4225" y1="4.1751" x2="35.5776" y2="69.8249" gradientTransform="matrix(-1 0 0 -1 200 74)">
	<stop  offset="0" style="stop-color:#00EBFC"/>
	<stop  offset="1" style="stop-color:#0025FF"/>
</linearGradient>
<polygon class="st0" points="0,0 105,0 200,74 "/>
<linearGradient id="SVGID_2_" gradientUnits="userSpaceOnUse" x1="3.632595e-07" y1="37" x2="107" y2="37" gradientTransform="matrix(-1 0 0 -1 200 74)">
	<stop  offset="0" style="stop-color:#00EBFC"/>
	<stop  offset="1" style="stop-color:#0025FF"/>
</linearGradient>
<polygon class="st1" points="93,0 200,0 200,74 "/>
<linearGradient id="SVGID_3_" gradientUnits="userSpaceOnUse" x1="3.632595e-07" y1="37" x2="30" y2="37" gradientTransform="matrix(-1 0 0 -1 200 74)">
	<stop  offset="0" style="stop-color:#00EBFC"/>
	<stop  offset="1" style="stop-color:#0025FF"/>
</linearGradient>
<polygon class="st2" points="170,0 200,0 200,74 "/>
<linearGradient id="SVGID_4_" gradientUnits="userSpaceOnUse" x1="164.4225" y1="4.1751" x2="35.5776" y2="69.8249">
	<stop  offset="0" style="stop-color:#00EBFC"/>
	<stop  offset="1" style="stop-color:#0025FF"/>
</linearGradient>
<polygon class="st3" points="200,74 95,74 0,0 "/>
<linearGradient id="SVGID_5_" gradientUnits="userSpaceOnUse" x1="0" y1="37" x2="107" y2="37">
	<stop  offset="0" style="stop-color:#00EBFC"/>
	<stop  offset="1" style="stop-color:#0025FF"/>
</linearGradient>
<polygon class="st4" points="107,74 0,74 0,0 "/>
<linearGradient id="SVGID_6_" gradientUnits="userSpaceOnUse" x1="0" y1="37" x2="30" y2="37">
	<stop  offset="0" style="stop-color:#00EBFC"/>
	<stop  offset="1" style="stop-color:#0025FF"/>
</linearGradient>
<polygon class="st5" points="30,74 0,74 0,0 "/>
</svg>
