<?xml version="1.0" encoding="utf-8"?>
<!-- Generator: Adobe Illustrator 24.2.1, SVG Export Plug-In . SVG Version: 6.00 Build 0)  -->
<svg version="1.1" id="Camada_1" xmlns="http://www.w3.org/2000/svg" xmlns:xlink="http://www.w3.org/1999/xlink" x="0px" y="0px"
	 width="500px" height="166px" viewBox="0 0 500 166" style="enable-background:new 0 0 500 166;" xml:space="preserve">
<style type="text/css">
	.st0{fill:url(#SVGID_1_);}
	.st1{fill:url(#SVGID_2_);}
	.st2{fill:url(#SVGID_3_);}
	.st3{fill:url(#SVGID_4_);}
	.st4{fill:url(#SVGID_5_);}
	.st5{fill:url(#SVGID_6_);}
	.st6{fill:url(#SVGID_7_);}
	.st7{fill:url(#SVGID_8_);}
</style>
<linearGradient id="SVGID_1_" gradientUnits="userSpaceOnUse" x1="138.486" y1="53.5927" x2="184.6996" y2="124.7554">
	<stop  offset="0" style="stop-color:#00EBFC"/>
	<stop  offset="1" style="stop-color:#0025FF"/>
</linearGradient>
<path class="st0" d="M145.8,120.6V49.2c0-0.4,0.3-0.6,0.6-0.7c0,0,0,0,0,0h13.7c0.4,0,0.7,0.3,0.7,0.7v25.7h0.2
	c3.7-4.5,9.3-6.9,15.2-6.7c10.8,0,14.3,7.1,14.3,16.4v35.9c0,0.4-0.3,0.7-0.7,0.7h-13.7c-0.4,0-0.7-0.3-0.7-0.7V86
	c0-4.1-4.2-5.3-6.9-5.3c-2.7,0-7.7,1.8-7.7,6.8v33.1c0,0.4-0.3,0.7-0.7,0.7h-13.7C146.1,121.3,145.8,121,145.8,120.6
	C145.8,120.6,145.8,120.6,145.8,120.6z"/>
<linearGradient id="SVGID_2_" gradientUnits="userSpaceOnUse" x1="250.1416" y1="62.6741" x2="285.6469" y2="117.3474">
	<stop  offset="0" style="stop-color:#00EBFC"/>
	<stop  offset="1" style="stop-color:#0025FF"/>
</linearGradient>
<path class="st1" d="M255.3,106.5V81.9H249c-0.4,0-0.7-0.3-0.7-0.7v-8.8c0-0.3,0.2-0.5,0.4-0.6l8.5-2.5l4.5-14.1
	c0.1-0.2,0.3-0.3,0.5-0.4h7.4c0.4,0,0.6,0.3,0.7,0.6c0,0,0,0,0,0v13.9h11.1c0.4,0,0.7,0.3,0.7,0.7v11.3c0,0.4-0.3,0.6-0.6,0.6
	c0,0,0,0,0,0h-11.1v23c0,2.4,1.4,3.8,4.7,3.8h6.3c0.4,0,0.7,0.3,0.7,0.7c0,0.2,0,7.9,0,9.9c0,0.3-0.2,0.5-0.4,0.6
	c-3.3,1.5-6.9,2.3-10.6,2.3C259.9,122.3,255.3,115.8,255.3,106.5z"/>
<linearGradient id="SVGID_3_" gradientUnits="userSpaceOnUse" x1="465.0184" y1="62.588" x2="500.5919" y2="117.3663">
	<stop  offset="0" style="stop-color:#00EBFC"/>
	<stop  offset="1" style="stop-color:#0025FF"/>
</linearGradient>
<path class="st2" d="M470.2,106.5V81.9h-6.3c-0.4,0-0.7-0.3-0.7-0.7v-8.8c0-0.3,0.2-0.5,0.4-0.6l8.5-2.5l4.5-14.1
	c0.1-0.3,0.3-0.4,0.6-0.4h7.4c0.4,0,0.6,0.3,0.7,0.6c0,0,0,0,0,0v13.9h11.1c0.4,0,0.7,0.3,0.7,0.7v11.3c0,0.4-0.3,0.6-0.6,0.6
	c0,0,0,0,0,0h-11.1v23c0,2.4,1.4,3.8,4.7,3.8h6.3c0.4,0,0.7,0.3,0.7,0.7c0,0.2,0,7.9,0,9.9c0,0.3-0.2,0.5-0.4,0.6
	c-3.3,1.5-6.9,2.3-10.6,2.3C474.7,122.3,470.2,115.8,470.2,106.5z"/>
<linearGradient id="SVGID_4_" gradientUnits="userSpaceOnUse" x1="303.7112" y1="61.3944" x2="349.2039" y2="131.447">
	<stop  offset="0" style="stop-color:#00EBFC"/>
	<stop  offset="1" style="stop-color:#0025FF"/>
</linearGradient>
<path class="st3" d="M291.1,120.6V69.9c0-0.4,0.3-0.7,0.7-0.7h12.4c0.3,0,0.5,0.2,0.6,0.4l1.4,5.2h0.2c3.7-4.5,9.3-6.9,15.1-6.7
	c7.4,0,10.9,3.3,12.9,8.5h0.4c3.5-5.5,9.7-8.8,16.3-8.5c10.8,0,14.3,7.1,14.3,16.4v35.9c0,0.4-0.3,0.7-0.7,0.7H351
	c-0.4,0-0.7-0.3-0.7-0.7V86.3c0-4.1-3.8-5.6-6.5-5.6c-3.1,0-7.8,2-8,6.6v33.4c0,0.4-0.3,0.6-0.6,0.7c0,0,0,0,0,0h-13.8
	c-0.4,0-0.6-0.3-0.6-0.7V86.3c0-4.1-4.1-5.6-7-5.6c-4,0-7.4,3.2-7.5,7.2v32.8c0,0.4-0.3,0.6-0.6,0.7h-13.8
	C291.5,121.3,291.1,121,291.1,120.6C291.1,120.7,291.1,120.7,291.1,120.6z"/>
<linearGradient id="SVGID_5_" gradientUnits="userSpaceOnUse" x1="376.9281" y1="69.4036" x2="412.1658" y2="123.6649">
	<stop  offset="0" style="stop-color:#00EBFC"/>
	<stop  offset="1" style="stop-color:#0025FF"/>
</linearGradient>
<path class="st4" d="M374.5,80.8v-9.4c0-0.3,0.2-0.6,0.5-0.6c6.6-1.4,13.3-2.2,20.1-2.4c13.3,0,21.1,3.2,21.1,17.6v34.8
	c0,0.4-0.3,0.7-0.7,0.7h-13.1c-0.3,0-0.5-0.2-0.6-0.5l-1.4-5.1h0.6c-3.7,5.2-8.7,6.7-14.8,6.7c-9.8,0-15-7.6-15-16.5
	c0-13.5,9.9-16.2,17.2-16.2h12.7v-3.4c0-4.2-3.2-5.2-15.2-5.2c-5.1,0-10.6,0.4-10.8,0.4C374.8,81.4,374.5,81.1,374.5,80.8z
	 M401.2,98.9h-8.2c-4.4,0-7.2,1.7-7.2,6.3c0,5,3.6,6.2,7.1,6.2c4.4,0.2,8.2-3.2,8.5-7.6c0-0.3,0-0.6,0-0.9v-4.2L401.2,98.9z"/>
<linearGradient id="SVGID_6_" gradientUnits="userSpaceOnUse" x1="424.705" y1="69.7404" x2="452.6289" y2="112.7394">
	<stop  offset="0" style="stop-color:#00EBFC"/>
	<stop  offset="1" style="stop-color:#0025FF"/>
</linearGradient>
<path class="st5" d="M425,120.6V69.9c0-0.4,0.3-0.6,0.6-0.7h12.3c0.3,0,0.6,0.2,0.6,0.5l1.5,7.9h0.2c3.1-5.9,9.3-9.6,16-9.4
	c0.4,0,0.7,0.3,0.7,0.7V83c0,0.4-0.3,0.7-0.7,0.7h-3.5c-9.4,0-12.7,3.8-12.7,8.5v28.5c0,0.4-0.3,0.6-0.6,0.7h-13.7
	C425.3,121.2,425,121,425,120.6z"/>
<linearGradient id="SVGID_7_" gradientUnits="userSpaceOnUse" x1="206.4443" y1="72.0162" x2="236.7375" y2="118.6637">
	<stop  offset="0" style="stop-color:#00EBFC"/>
	<stop  offset="1" style="stop-color:#0025FF"/>
</linearGradient>
<path class="st6" d="M196.9,95.3c0-16.5,6.4-27,24.7-27s24.8,10.6,24.8,27s-6.4,27-24.8,27S196.9,112,196.9,95.3z M213.1,95.3
	c0,8.9,1.3,14.4,8.5,14.4s8.6-5.5,8.6-14.4S228.8,81,221.6,81C214.3,81,213.1,86.4,213.1,95.3z"/>
<linearGradient id="SVGID_8_" gradientUnits="userSpaceOnUse" x1="2.9594" y1="82.3035" x2="117.7199" y2="82.3035">
	<stop  offset="0" style="stop-color:#00EBFC"/>
	<stop  offset="1" style="stop-color:#0025FF"/>
</linearGradient>
<path class="st7" d="M117.6,104.2c0.7-14.1-4.2-37.3-16-56.2c-0.3-0.5-0.8-0.3-0.7,0.2c0.8,2.9,1,8.1-3.6,7.8
	c-8.1-0.5,0.3-17.9-17.5-30c-0.2-0.1-0.4-0.1-0.5,0c-0.1,0.1-0.1,0.3-0.1,0.4c1.2,2.3,1.9,9.6-0.9,12c-2.3,2-6.3,1.5-10.4-5.1
	c-5.5-9.2-5.4-20.7,0.4-29.8c0.3-0.5-0.1-0.8-0.5-0.6c-24.5,8.1-29.4,37-34.6,47.5c-0.9,1.8-1.6,2.7-3.1,2.6
	c-4.5-0.3-1.2-9.8,0.3-13.1c0.1-0.2,0-0.4-0.2-0.5c-0.1-0.1-0.3,0-0.4,0.1C15.3,55.3,6.2,75.1,3.4,96.2c0-0.5-0.2,1.7-0.3,3.4l0,0
	c0,0.6,0,1.3-0.1,1.9c0,0.8,0,1.5,0,2.3c-0.3,31.7,25.2,57.6,56.9,57.9s57.6-25.2,57.9-56.9C117.6,104.5,117.6,104.3,117.6,104.2z
	 M60,130.8c-14.7-0.1-26.5-12.1-26.5-26.8s12.1-26.5,26.8-26.5c14.7,0.1,26.5,12.1,26.5,26.8c0,0,0,0.1,0,0.1
	C86.6,119.1,74.7,130.9,60,130.8z"/>
</svg>
