<?xml version="1.0" encoding="utf-8"?>
<!-- Generator: Adobe Illustrator 24.2.1, SVG Export Plug-In . SVG Version: 6.00 Build 0)  -->
<svg version="1.1" id="Camada_1" xmlns="http://www.w3.org/2000/svg" xmlns:xlink="http://www.w3.org/1999/xlink" x="0px" y="0px"
	 width="200px" height="200px" viewBox="0 0 200 200" style="enable-background:new 0 0 200 200;" xml:space="preserve">
<style type="text/css">
	.st0{fill:url(#SVGID_1_);}
	.st1{fill:url(#SVGID_2_);}
</style>
<g>
	<linearGradient id="SVGID_1_" gradientUnits="userSpaceOnUse" x1="42.0501" y1="18.1826" x2="155.5469" y2="168.798">
		<stop  offset="0" style="stop-color:#00EBFC"/>
		<stop  offset="1" style="stop-color:#0025FF"/>
	</linearGradient>
	<path class="st0" d="M129.5,96.1c10.2,6.4,17.5,14.5,21.8,24.5c4.4,9.9,4.8,21.1,1.4,33.3c-5.3,19-15.4,31.7-30.2,38.1
		c-14.8,6.4-31.4,7.1-49.7,1.9c-15-4.2-27.2-11.3-36.6-21.4c-9.4-10-14.6-22.4-15.8-37.2l50.1-12.7c0.1,12.9,5.3,20.8,15.6,23.7
		c4.4,1.2,8.3,1.1,11.6-0.4c3.3-1.5,5.6-4.3,6.7-8.2c2.3-8.2-1.5-13.6-11.3-16.4l-10.5-3L102,64.1L50.2,49.6L63.5,2l112.8,31.6
		L129.5,96.1z"/>
</g>
<g>
	<linearGradient id="SVGID_2_" gradientUnits="userSpaceOnUse" x1="53.1511" y1="91.96" x2="137.3352" y2="-1.5359">
		<stop  offset="0" style="stop-color:#00EBFC"/>
		<stop  offset="1" style="stop-color:#0025FF"/>
	</linearGradient>
	<path class="st1" d="M82.5,118.4L102,64.1L63.5,2l112.8,31.6L82.5,118.4z"/>
</g>
</svg>
