<?xml version="1.0" encoding="utf-8"?>
<!-- Generator: Adobe Illustrator 24.2.1, SVG Export Plug-In . SVG Version: 6.00 Build 0)  -->
<svg version="1.1" id="Camada_1" xmlns="http://www.w3.org/2000/svg" xmlns:xlink="http://www.w3.org/1999/xlink" x="0px" y="0px"
	 width="300px" height="300px" viewBox="0 0 300 300" style="enable-background:new 0 0 300 300;" xml:space="preserve">
<style type="text/css">
	.st0{enable-background:new    ;}
	.st1{fill:#0025FF;}
	.st2{fill:#02103F;}
</style>
<g class="st0">
	<path class="st1" d="M97.8,30.5l-1-2.9h-7.1l-0.9,2.9h-4.6L90.5,12h5.4l6.3,18.4H97.8z M91,23.6h4.5l-2.3-6.8L91,23.6z"/>
	<path class="st1" d="M114.9,16.1h-7v3.6h6.8v4.1h-6.8v6.8h-4.2V12h11.2V16.1z"/>
	<path class="st1" d="M117.4,12h4.2v18.4h-4.2V12z"/>
	<path class="st1" d="M129,26.4h6.6v4.1h-10.8V12h4.2V26.4z"/>
	<path class="st1" d="M137.4,12h4.2v18.4h-4.2V12z"/>
	<path class="st1" d="M156.7,30.5l-1-2.9h-7.1l-0.9,2.9h-4.6l6.3-18.4h5.4l6.3,18.4H156.7z M149.9,23.6h4.5l-2.3-6.8L149.9,23.6z"/>
	<path class="st1" d="M170,12c2.5,0,4.7,0.9,6.4,2.6c1.7,1.8,2.6,4,2.6,6.6c0,2.6-0.9,4.8-2.6,6.6c-1.7,1.8-3.8,2.6-6.4,2.6h-7.4V12
		H170z M170,26.4c1.5,0,2.6-0.5,3.5-1.4c0.9-0.9,1.4-2.2,1.4-3.8c0-1.6-0.5-2.8-1.4-3.7c-0.9-0.9-2.1-1.4-3.5-1.4h-3.2v10.3H170z"/>
	<path class="st1" d="M196.9,28.1c-1.9,1.8-4.1,2.8-6.8,2.8c-2.7,0-4.9-0.9-6.8-2.8s-2.8-4.1-2.8-6.8c0-2.7,0.9-5,2.8-6.8
		c1.9-1.8,4.1-2.8,6.8-2.8c2.7,0,4.9,0.9,6.8,2.8c1.9,1.8,2.8,4.1,2.8,6.8C199.7,24,198.8,26.2,196.9,28.1z M186.3,25.2
		c1,1,2.3,1.5,3.8,1.5c1.5,0,2.8-0.5,3.8-1.5s1.5-2.3,1.5-3.9c0-1.6-0.5-2.9-1.5-3.9s-2.3-1.5-3.8-1.5c-1.5,0-2.8,0.5-3.8,1.5
		s-1.5,2.3-1.5,3.9C184.7,22.9,185.2,24.2,186.3,25.2z"/>
	<path class="st1" d="M207.8,30.8c-1.9,0-3.4-0.4-4.7-1.2c-1.3-0.8-2.1-1.9-2.7-3.3l3.6-2.1c0.7,1.7,2,2.6,3.9,2.6
		c1.7,0,2.5-0.5,2.5-1.5c0-0.5-0.3-1-0.8-1.3c-0.5-0.3-1.5-0.7-3-1.1c-0.8-0.2-1.4-0.4-2-0.7c-0.6-0.3-1.1-0.6-1.7-1s-1-1-1.3-1.6
		c-0.3-0.6-0.4-1.4-0.4-2.2c0-1.7,0.6-3.1,1.8-4.1c1.2-1,2.7-1.5,4.4-1.5c1.5,0,2.8,0.4,4,1.1c1.2,0.7,2.1,1.7,2.7,3.1l-3.6,2.1
		c-0.3-0.7-0.7-1.2-1.2-1.6s-1.1-0.5-1.9-0.5c-0.6,0-1.1,0.1-1.5,0.4c-0.3,0.3-0.5,0.6-0.5,1c0,0.5,0.2,0.9,0.6,1.2
		c0.4,0.3,1.3,0.7,2.7,1.1c0.7,0.2,1.3,0.4,1.7,0.6s0.9,0.4,1.5,0.7c0.6,0.3,1.1,0.7,1.4,1s0.6,0.8,0.9,1.4c0.3,0.6,0.4,1.3,0.4,2
		c0,1.8-0.6,3.1-1.9,4.1S209.9,30.8,207.8,30.8z"/>
</g>
<circle class="st2" cx="196.1" cy="91.6" r="11.9"/>
<g>
	<path class="st2" d="M205.5,103.1c-2.6,2.1-5.8,3.4-9.4,3.4c-3.6,0-6.8-1.3-9.4-3.4c-5.3,1.6-9.2,6.6-9.2,12.4v7.3
		c0,1.8,1.5,3.2,3.2,3.2h30.5c1.8,0,3.2-1.5,3.2-3.2v-7.3C214.7,109.7,210.8,104.7,205.5,103.1z"/>
</g>
<circle class="st2" cx="244.1" cy="62.9" r="11.9"/>
<g>
	<path class="st2" d="M253.5,74.4c-2.6,2.1-5.8,3.4-9.4,3.4c-3.6,0-6.8-1.3-9.4-3.4c-5.3,1.6-9.2,6.6-9.2,12.4v7.3
		c0,1.8,1.5,3.2,3.2,3.2h30.5c1.8,0,3.2-1.5,3.2-3.2v-7.3C262.7,81,258.8,76,253.5,74.4z"/>
</g>
<circle class="st2" cx="262.6" cy="126.5" r="11.9"/>
<g>
	<path class="st2" d="M272,137.9c-2.6,2.1-5.8,3.4-9.4,3.4s-6.8-1.3-9.4-3.4c-5.3,1.6-9.2,6.6-9.2,12.4v7.3c0,1.8,1.5,3.2,3.2,3.2
		h30.5c1.8,0,3.2-1.5,3.2-3.2v-7.3C281.2,144.6,277.3,139.5,272,137.9z"/>
</g>
<circle class="st2" cx="211.3" cy="164.3" r="11.9"/>
<g>
	<path class="st2" d="M220.7,175.8c-2.6,2.1-5.8,3.4-9.4,3.4s-6.8-1.3-9.4-3.4c-5.3,1.6-9.2,6.6-9.2,12.4v7.3c0,1.8,1.5,3.2,3.2,3.2
		h30.5c1.8,0,3.2-1.5,3.2-3.2v-7.3C229.9,182.4,226,177.4,220.7,175.8z"/>
</g>
<circle class="st2" cx="146.5" cy="149.6" r="11.9"/>
<g>
	<path class="st2" d="M155.9,161.1c-2.6,2.1-5.8,3.4-9.4,3.4s-6.8-1.3-9.4-3.4c-5.3,1.6-9.2,6.6-9.2,12.4v7.3c0,1.8,1.5,3.2,3.2,3.2
		h30.5c1.8,0,3.2-1.5,3.2-3.2v-7.3C165.1,167.7,161.2,162.7,155.9,161.1z"/>
</g>
<circle class="st2" cx="124.4" cy="80.4" r="11.9"/>
<g>
	<path class="st2" d="M133.8,91.8c-2.6,2.1-5.8,3.4-9.4,3.4s-6.8-1.3-9.4-3.4c-5.3,1.6-9.2,6.6-9.2,12.4v7.3c0,1.8,1.5,3.2,3.2,3.2
		h30.5c1.8,0,3.2-1.5,3.2-3.2v-7.3C143,98.5,139.1,93.5,133.8,91.8z"/>
</g>
<circle class="st2" cx="72.7" cy="123.7" r="11.9"/>
<g>
	<path class="st2" d="M82.1,135.1c-2.6,2.1-5.8,3.4-9.4,3.4s-6.8-1.3-9.4-3.4c-5.3,1.6-9.2,6.6-9.2,12.4v7.3c0,1.8,1.5,3.2,3.2,3.2
		h30.5c1.8,0,3.2-1.5,3.2-3.2v-7.3C91.3,141.8,87.4,136.8,82.1,135.1z"/>
</g>
<circle class="st2" cx="94" cy="196" r="11.9"/>
<g>
	<path class="st2" d="M103.4,207.4c-2.6,2.1-5.8,3.4-9.4,3.4s-6.8-1.3-9.4-3.4c-5.3,1.6-9.2,6.6-9.2,12.4v7.3c0,1.8,1.5,3.2,3.2,3.2
		h30.5c1.8,0,3.2-1.5,3.2-3.2v-7.3C112.6,214,108.7,209,103.4,207.4z"/>
</g>
<circle class="st2" cx="169.7" cy="218.9" r="11.9"/>
<g>
	<path class="st2" d="M179,230.3c-2.6,2.1-5.8,3.4-9.4,3.4s-6.8-1.3-9.4-3.4c-5.3,1.6-9.2,6.6-9.2,12.4v7.3c0,1.8,1.5,3.2,3.2,3.2
		h30.5c1.8,0,3.2-1.5,3.2-3.2v-7.3C188.2,237,184.3,232,179,230.3z"/>
</g>
<circle class="st2" cx="245.3" cy="225.5" r="11.9"/>
<g>
	<path class="st2" d="M254.6,236.9c-2.6,2.1-5.8,3.4-9.4,3.4s-6.8-1.3-9.4-3.4c-5.3,1.6-9.2,6.6-9.2,12.4v7.3c0,1.8,1.5,3.2,3.2,3.2
		h30.5c1.8,0,3.2-1.5,3.2-3.2v-7.3C263.8,243.6,260,238.6,254.6,236.9z"/>
</g>
<circle class="st2" cx="121.9" cy="256.5" r="11.9"/>
<g>
	<path class="st2" d="M131.3,268c-2.6,2.1-5.8,3.4-9.4,3.4s-6.8-1.3-9.4-3.4c-5.3,1.6-9.2,6.6-9.2,12.4v7.3c0,1.8,1.5,3.2,3.2,3.2
		h30.5c1.8,0,3.2-1.5,3.2-3.2v-7.3C140.5,274.6,136.6,269.6,131.3,268z"/>
</g>
<circle class="st2" cx="35.8" cy="179.1" r="11.9"/>
<g>
	<path class="st2" d="M45.1,190.6c-2.6,2.1-5.8,3.4-9.4,3.4c-3.6,0-6.8-1.3-9.4-3.4c-5.3,1.6-9.2,6.6-9.2,12.4v7.3
		c0,1.8,1.5,3.2,3.2,3.2h30.5c1.8,0,3.2-1.5,3.2-3.2V203C54.3,197.2,50.5,192.2,45.1,190.6z"/>
</g>
<circle class="st2" cx="52.2" cy="57.2" r="11.9"/>
<g>
	<path class="st2" d="M61.6,68.7c-2.6,2.1-5.8,3.4-9.4,3.4c-3.6,0-6.8-1.3-9.4-3.4c-5.3,1.6-9.2,6.6-9.2,12.4v7.3
		c0,1.8,1.5,3.2,3.2,3.2h30.5c1.8,0,3.2-1.5,3.2-3.2v-7.3C70.8,75.3,66.9,70.3,61.6,68.7z"/>
</g>
</svg>
