<?xml version="1.0" encoding="utf-8"?>
<!-- Generator: Adobe Illustrator 24.2.1, SVG Export Plug-In . SVG Version: 6.00 Build 0)  -->
<svg version="1.1" id="Camada_1" xmlns="http://www.w3.org/2000/svg" xmlns:xlink="http://www.w3.org/1999/xlink" x="0px" y="0px"
	 width="300px" height="300px" viewBox="0 0 300 300" style="enable-background:new 0 0 300 300;" xml:space="preserve">
<style type="text/css">
	.st0{fill:#FFFFFF;}
</style>
<g>
	<path class="st0" d="M63.8,47.3c0-4.7,3.5-8.3,8.3-8.3c2.8,0,5.4,1.5,6.8,3.7l-3.1,1.7c-0.7-1.2-2.1-2-3.7-2
		c-2.8,0-4.7,1.9-4.7,4.7s1.8,4.7,4.7,4.7c1.6,0,3-0.7,3.7-2l3.1,1.8c-1.4,2.2-3.9,3.7-6.8,3.7C67.4,55.5,63.8,52,63.8,47.3z"/>
	<path class="st0" d="M79.7,47.3c0-4.7,3.7-8.3,8.3-8.3c4.6,0,8.3,3.6,8.3,8.3s-3.7,8.3-8.3,8.3C83.4,55.6,79.7,52,79.7,47.3z
		 M92.7,47.3c0-2.8-2.1-4.7-4.7-4.7c-2.6,0-4.7,1.9-4.7,4.7s2.1,4.7,4.7,4.7C90.6,52.1,92.7,50.1,92.7,47.3z"/>
	<path class="st0" d="M109.9,44.8c0,3-2.4,5.4-5.5,5.4H102v5h-3.6v-16h6C107.5,39.3,109.9,41.8,109.9,44.8z M106.3,44.8
		c0-1.1-0.8-2.1-1.9-2.1H102v4.1h2.4C105.4,46.8,106.3,45.9,106.3,44.8z"/>
	<path class="st0" d="M117.1,50h-1.7v5.3h-3.6v-16h6.4c3,0,5.4,2.4,5.4,5.4c0,2-1.2,3.7-2.9,4.6l3.4,5.9h-3.9L117.1,50z M115.3,46.8
		h2.8c1,0,1.8-0.9,1.8-2.1c0-1.1-0.8-2.1-1.8-2.1h-2.8V46.8z"/>
	<path class="st0" d="M124.8,47.3c0-4.7,3.7-8.3,8.3-8.3c4.6,0,8.3,3.6,8.3,8.3s-3.7,8.3-8.3,8.3C128.5,55.6,124.8,52,124.8,47.3z
		 M137.7,47.3c0-2.8-2.1-4.7-4.7-4.7s-4.7,1.9-4.7,4.7s2.1,4.7,4.7,4.7C135.6,52,137.7,50.1,137.7,47.3z"/>
	<path class="st0" d="M157.4,47.3c0,4.5-3.4,7.9-7.7,7.9h-6.4v-16h6.4C154.1,39.3,157.4,42.7,157.4,47.3z M153.9,47.3
		c0-2.8-1.7-4.5-4.2-4.5h-2.8v8.9h2.8C152.2,51.7,153.9,50,153.9,47.3z"/>
	<path class="st0" d="M159.3,50.1V39.3h3.6v10.4c0,1.2,0.6,2.2,2.5,2.2s2.5-1,2.5-2.2V39.3h3.6v10.8c0,3.4-2.7,5.4-6.1,5.4
		C161.9,55.5,159.3,53.5,159.3,50.1z"/>
	<path class="st0" d="M184.8,42.8h-4.1v12.4H177V42.8H173v-3.5h11.8V42.8z"/>
	<path class="st0" d="M184.8,47.3c0-4.7,3.7-8.3,8.3-8.3s8.3,3.6,8.3,8.3s-3.7,8.3-8.3,8.3S184.8,52,184.8,47.3z M197.7,47.3
		c0-2.8-2.1-4.7-4.7-4.7s-4.6,1.9-4.6,4.7s2.1,4.7,4.7,4.7C195.7,52.1,197.7,50.1,197.7,47.3z"/>
	<path class="st0" d="M208.7,50H207v5.3h-3.6v-16h6.4c3,0,5.4,2.4,5.4,5.4c0,2-1.2,3.7-2.9,4.6l3.4,5.9h-3.9L208.7,50z M207,46.8
		h2.8c1,0,1.8-0.9,1.8-2.1c0-1.1-0.8-2.1-1.8-2.1H207V46.8z"/>
	<path class="st0" d="M227.3,51.7v3.5h-10v-16h9.8v3.5h-6.2v2.7h5.7V49h-5.7v2.8L227.3,51.7L227.3,51.7z"/>
	<path class="st0" d="M228.6,51.6l3.1-1.8c0.6,1.3,1.6,2.2,3.4,2.2c1.7,0,2.2-0.7,2.2-1.3c0-0.9-0.9-1.4-3.3-2
		c-2.3-0.7-4.7-1.8-4.7-4.8c0-3.1,2.6-4.8,5.3-4.8c2.6,0,4.7,1.2,5.8,3.6l-3.1,1.8c-0.5-1.1-1.3-1.8-2.8-1.8c-1.1,0-1.7,0.6-1.7,1.2
		c0,0.7,0.3,1.2,2.8,2c2.4,0.7,5.1,1.6,5.1,4.9c0,3.1-2.4,4.9-5.9,4.9C231.6,55.5,229.4,54,228.6,51.6z"/>
</g>
<circle class="st0" cx="96.8" cy="116.4" r="27.1"/>
<g>
	<path class="st0" d="M118,142.4c-5.9,4.7-13.2,7.7-21.2,7.7s-15.4-2.9-21.2-7.7c-12.1,3.6-20.9,15-20.9,28.1V187
		c0,4.1,3.3,7.3,7.3,7.3h69.1c4.1,0,7.3-3.3,7.3-7.3v-16.5C138.9,157.3,130.1,146,118,142.4z"/>
</g>
<circle class="st0" cx="202.5" cy="180.8" r="27.9"/>
<g>
	<path class="st0" d="M224.3,207.6c-6,4.9-13.5,7.9-21.8,7.9s-15.8-3-21.8-7.9c-12.4,3.8-21.5,15.4-21.5,29v16.9
		c0,4.1,3.4,7.5,7.5,7.5h71.1c4.1,0,7.5-3.4,7.5-7.5v-16.9C245.7,223,236.8,211.3,224.3,207.6z"/>
</g>
</svg>
