<?xml version="1.0" encoding="utf-8"?>
<!-- Generator: Adobe Illustrator 24.2.1, SVG Export Plug-In . SVG Version: 6.00 Build 0)  -->
<svg version="1.1" id="Camada_1" xmlns="http://www.w3.org/2000/svg" xmlns:xlink="http://www.w3.org/1999/xlink" x="0px" y="0px"
	 width="300px" height="300px" viewBox="0 0 300 300" style="enable-background:new 0 0 300 300;" xml:space="preserve">
<style type="text/css">
	.st0{fill:#0025FF;}
	.st1{fill:#02103F;}
</style>
<g>
	<path class="st0" d="M47.6,21.3c0-5.4,4-9.6,9.6-9.6c3.3,0,6.3,1.7,7.9,4.3L61.5,18c-0.8-1.4-2.4-2.3-4.3-2.3
		c-3.3,0-5.4,2.2-5.4,5.5c0,3.3,2.1,5.5,5.4,5.5c1.9,0,3.5-0.8,4.3-2.3l3.6,2.1c-1.6,2.6-4.5,4.3-7.9,4.3
		C51.7,30.8,47.6,26.7,47.6,21.3z"/>
	<path class="st0" d="M66,21.3c0-5.4,4.3-9.6,9.6-9.6s9.6,4.2,9.6,9.6s-4.3,9.6-9.6,9.6S66,26.7,66,21.3z M81,21.3
		c0-3.3-2.4-5.5-5.4-5.5s-5.4,2.2-5.4,5.5c0,3.3,2.4,5.5,5.4,5.5S81,24.5,81,21.3z"/>
	<path class="st0" d="M101,18.4c0,3.5-2.8,6.3-6.4,6.3h-2.8v5.8h-4.2V12h7C98.2,12,101,14.9,101,18.4z M96.8,18.4
		c0-1.3-0.9-2.4-2.2-2.4h-2.8v4.7h2.8C95.8,20.7,96.8,19.7,96.8,18.4z"/>
	<path class="st0" d="M109.3,24.4h-2v6.1h-4.2V12h7.4c3.5,0,6.3,2.8,6.3,6.3c0,2.3-1.4,4.3-3.4,5.3l3.9,6.8h-4.5L109.3,24.4z
		 M107.3,20.7h3.2c1.2,0,2.1-1,2.1-2.4c0-1.3-0.9-2.4-2.1-2.4h-3.2V20.7z"/>
	<path class="st0" d="M118.2,21.3c0-5.4,4.3-9.6,9.6-9.6s9.6,4.2,9.6,9.6s-4.3,9.6-9.6,9.6S118.2,26.7,118.2,21.3z M133.2,21.3
		c0-3.3-2.4-5.5-5.4-5.5c-3,0-5.4,2.2-5.4,5.5c0,3.3,2.4,5.5,5.4,5.5C130.8,26.7,133.2,24.5,133.2,21.3z"/>
	<path class="st0" d="M156,21.3c0,5.2-3.9,9.2-8.9,9.2h-7.4V12h7.4C152.2,12,156,16,156,21.3z M152,21.3c0-3.2-2-5.2-4.9-5.2h-3.2
		v10.3h3.2C150,26.4,152,24.4,152,21.3z"/>
	<path class="st0" d="M158.2,24.5V12h4.2v12.1c0,1.4,0.7,2.6,2.9,2.6c2.2,0,2.9-1.2,2.9-2.6V12h4.2v12.5c0,3.9-3.1,6.3-7.1,6.3
		C161.2,30.8,158.2,28.5,158.2,24.5z"/>
	<path class="st0" d="M187.8,16.1H183v14.4h-4.2V16.1h-4.7V12h13.7V16.1z"/>
	<path class="st0" d="M187.8,21.3c0-5.4,4.3-9.6,9.6-9.6s9.6,4.2,9.6,9.6s-4.3,9.6-9.6,9.6S187.8,26.7,187.8,21.3z M202.7,21.3
		c0-3.3-2.4-5.5-5.4-5.5S192,18,192,21.3c0,3.3,2.4,5.5,5.4,5.5S202.7,24.5,202.7,21.3z"/>
	<path class="st0" d="M215.5,24.4h-2v6.1h-4.2V12h7.4c3.5,0,6.3,2.8,6.3,6.3c0,2.3-1.4,4.3-3.4,5.3l3.9,6.8H219L215.5,24.4z
		 M213.5,20.7h3.2c1.2,0,2.1-1,2.1-2.4c0-1.3-0.9-2.4-2.1-2.4h-3.2V20.7z"/>
	<path class="st0" d="M237,26.4v4.1h-11.6V12h11.4v4.1h-7.2v3.1h6.6v4h-6.6v3.3H237z"/>
	<path class="st0" d="M238.5,26.3l3.6-2.1c0.7,1.5,1.8,2.6,3.9,2.6c2,0,2.5-0.8,2.5-1.5c0-1.1-1.1-1.6-3.8-2.3
		c-2.7-0.8-5.4-2.1-5.4-5.6c0-3.6,3-5.6,6.2-5.6c3,0,5.4,1.4,6.7,4.2l-3.6,2.1c-0.6-1.3-1.5-2.1-3.2-2.1c-1.3,0-2,0.7-2,1.4
		c0,0.8,0.4,1.4,3.3,2.3c2.8,0.8,5.9,1.8,5.9,5.7c0,3.6-2.8,5.7-6.8,5.7C242,30.8,239.5,29,238.5,26.3z"/>
</g>
<circle class="st1" cx="85.8" cy="101.4" r="31.4"/>
<g>
	<path class="st1" d="M110.4,131.5c-6.8,5.5-15.3,8.9-24.6,8.9S68,137,61.2,131.5c-14,4.2-24.2,17.4-24.2,32.6v19.1
		c0,4.7,3.8,8.5,8.5,8.5h80.1c4.7,0,8.5-3.8,8.5-8.5v-19.1C134.6,148.8,124.4,135.7,110.4,131.5z"/>
</g>
<circle class="st1" cx="208.3" cy="176" r="32.3"/>
<g>
	<path class="st1" d="M233.6,207c-7,5.7-15.7,9.2-25.3,9.2c-9.6,0-18.3-3.5-25.3-9.2c-14.4,4.4-24.9,17.9-24.9,33.6v19.6
		c0,4.8,3.9,8.7,8.7,8.7h82.4c4.8,0,8.7-3.9,8.7-8.7v-19.6C258.4,224.9,248,211.3,233.6,207z"/>
</g>
</svg>
