<?xml version="1.0" encoding="utf-8"?>
<!-- Generator: Adobe Illustrator 24.2.1, SVG Export Plug-In . SVG Version: 6.00 Build 0)  -->
<svg version="1.1" id="Camada_1" xmlns="http://www.w3.org/2000/svg" xmlns:xlink="http://www.w3.org/1999/xlink" x="0px" y="0px"
	 width="300px" height="300px" viewBox="0 0 300 300" style="enable-background:new 0 0 300 300;" xml:space="preserve">
<style type="text/css">
	.st0{enable-background:new    ;}
	.st1{fill:#0025FF;}
	.st2{fill:#02103F;}
</style>
<g class="st0">
	<path class="st1" d="M74.2,12c1.8,0,3.3,0.6,4.6,1.8s1.9,2.7,1.9,4.5c0,1.8-0.6,3.2-1.9,4.5c-1.2,1.2-2.8,1.8-4.6,1.8h-2.8v5.8
		h-4.2V12H74.2z M74.2,20.7c0.6,0,1.2-0.2,1.6-0.7c0.4-0.5,0.6-1,0.6-1.7c0-0.7-0.2-1.2-0.6-1.7c-0.4-0.5-1-0.7-1.6-0.7h-2.8v4.7
		H74.2z"/>
	<path class="st1" d="M92.5,30.5L89,24.4h-2v6.1h-4.2V12h7.4c1.8,0,3.2,0.6,4.5,1.8c1.2,1.2,1.8,2.7,1.8,4.5c0,1.1-0.3,2.2-0.9,3.1
		c-0.6,1-1.4,1.7-2.5,2.2l3.9,6.8H92.5z M87,16v4.7h3.2c0.6,0,1.1-0.2,1.5-0.7s0.6-1,0.6-1.7c0-0.7-0.2-1.2-0.6-1.7S90.7,16,90.2,16
		H87z"/>
	<path class="st1" d="M114.3,28.1c-1.9,1.8-4.1,2.8-6.8,2.8c-2.7,0-4.9-0.9-6.8-2.8s-2.8-4.1-2.8-6.8c0-2.7,0.9-5,2.8-6.8
		c1.9-1.8,4.1-2.8,6.8-2.8c2.7,0,4.9,0.9,6.8,2.8c1.9,1.8,2.8,4.1,2.8,6.8C117.1,24,116.2,26.2,114.3,28.1z M103.7,25.2
		c1,1,2.3,1.5,3.8,1.5c1.5,0,2.8-0.5,3.8-1.5c1-1,1.5-2.3,1.5-3.9c0-1.6-0.5-2.9-1.5-3.9c-1-1-2.3-1.5-3.8-1.5
		c-1.5,0-2.8,0.5-3.8,1.5c-1,1-1.5,2.3-1.5,3.9C102.1,22.9,102.7,24.2,103.7,25.2z"/>
	<path class="st1" d="M126.8,12c2.5,0,4.7,0.9,6.4,2.6c1.7,1.8,2.6,4,2.6,6.6c0,2.6-0.9,4.8-2.6,6.6s-3.8,2.6-6.4,2.6h-7.4V12H126.8
		z M126.8,26.4c1.5,0,2.6-0.5,3.5-1.4c0.9-0.9,1.4-2.2,1.4-3.8c0-1.6-0.5-2.8-1.4-3.7c-0.9-0.9-2.1-1.4-3.5-1.4h-3.2v10.3H126.8z"/>
	<path class="st1" d="M150.1,29.1c-1.3,1.1-3,1.7-5.1,1.7s-3.8-0.6-5.1-1.7c-1.3-1.1-2-2.7-2-4.6V12h4.2v12.1c0,1.7,1,2.6,2.9,2.6
		s2.9-0.9,2.9-2.6V12h4.2v12.5C152.1,26.4,151.4,28,150.1,29.1z"/>
	<path class="st1" d="M167.5,12v4.1h-4.7v14.4h-4.2V16.1h-4.7V12H167.5z"/>
	<path class="st1" d="M183.8,28.1c-1.9,1.8-4.1,2.8-6.8,2.8c-2.7,0-4.9-0.9-6.8-2.8s-2.8-4.1-2.8-6.8c0-2.7,0.9-5,2.8-6.8
		c1.9-1.8,4.1-2.8,6.8-2.8c2.7,0,4.9,0.9,6.8,2.8c1.9,1.8,2.8,4.1,2.8,6.8C186.6,24,185.7,26.2,183.8,28.1z M173.2,25.2
		c1,1,2.3,1.5,3.8,1.5c1.5,0,2.8-0.5,3.8-1.5s1.5-2.3,1.5-3.9c0-1.6-0.5-2.9-1.5-3.9s-2.3-1.5-3.8-1.5c-1.5,0-2.8,0.5-3.8,1.5
		s-1.5,2.3-1.5,3.9C171.7,22.9,172.2,24.2,173.2,25.2z"/>
	<path class="st1" d="M198.7,30.5l-3.5-6.1h-2v6.1H189V12h7.4c1.8,0,3.2,0.6,4.5,1.8c1.2,1.2,1.8,2.7,1.8,4.5c0,1.1-0.3,2.2-0.9,3.1
		c-0.6,1-1.4,1.7-2.5,2.2l3.9,6.8H198.7z M193.2,16v4.7h3.2c0.6,0,1.1-0.2,1.5-0.7s0.6-1,0.6-1.7c0-0.7-0.2-1.2-0.6-1.7
		s-0.9-0.7-1.5-0.7H193.2z"/>
	<path class="st1" d="M209.4,26.4h7.4v4.1h-11.6V12h11.4v4.1h-7.2v3.1h6.6v4h-6.6V26.4z"/>
	<path class="st1" d="M225.6,30.8c-1.9,0-3.4-0.4-4.7-1.2c-1.3-0.8-2.1-1.9-2.7-3.3l3.6-2.1c0.7,1.7,2,2.6,3.9,2.6
		c1.7,0,2.5-0.5,2.5-1.5c0-0.5-0.3-1-0.8-1.3c-0.5-0.3-1.5-0.7-3-1.1c-0.8-0.2-1.4-0.4-2-0.7c-0.6-0.3-1.1-0.6-1.7-1s-1-1-1.3-1.6
		c-0.3-0.6-0.4-1.4-0.4-2.2c0-1.7,0.6-3.1,1.8-4.1c1.2-1,2.7-1.5,4.4-1.5c1.5,0,2.8,0.4,4,1.1c1.2,0.7,2.1,1.7,2.7,3.1l-3.6,2.1
		c-0.3-0.7-0.7-1.2-1.2-1.6s-1.1-0.5-1.9-0.5c-0.6,0-1.1,0.1-1.5,0.4c-0.3,0.3-0.5,0.6-0.5,1c0,0.5,0.2,0.9,0.6,1.2
		c0.4,0.3,1.3,0.7,2.7,1.1c0.7,0.2,1.3,0.4,1.7,0.6c0.4,0.1,0.9,0.4,1.5,0.7c0.6,0.3,1.1,0.7,1.4,1c0.3,0.4,0.6,0.8,0.9,1.4
		s0.4,1.3,0.4,2c0,1.8-0.6,3.1-1.9,4.1C229.3,30.3,227.6,30.8,225.6,30.8z"/>
</g>
<circle class="st2" cx="66.6" cy="116.2" r="17.4"/>
<g>
	<path class="st2" d="M80.2,132.9c-3.8,3.1-8.4,4.9-13.6,4.9s-9.9-1.9-13.6-4.9c-7.7,2.3-13.4,9.6-13.4,18.1v10.6
		c0,2.6,2.1,4.7,4.7,4.7h44.4c2.6,0,4.7-2.1,4.7-4.7v-10.6C93.6,142.5,88,135.2,80.2,132.9z"/>
</g>
<circle class="st2" cx="136.4" cy="74.5" r="17.4"/>
<g>
	<path class="st2" d="M150,91.1c-3.8,3.1-8.4,4.9-13.6,4.9c-5.2,0-9.9-1.9-13.6-4.9c-7.7,2.3-13.4,9.6-13.4,18.1v10.6
		c0,2.6,2.1,4.7,4.7,4.7h44.4c2.6,0,4.7-2.1,4.7-4.7v-10.6C163.4,100.7,157.8,93.5,150,91.1z"/>
</g>
<circle class="st2" cx="163.3" cy="166.9" r="17.4"/>
<g>
	<path class="st2" d="M176.9,183.5c-3.8,3.1-8.4,4.9-13.6,4.9c-5.2,0-9.9-1.9-13.6-4.9c-7.7,2.3-13.4,9.6-13.4,18.1v10.6
		c0,2.6,2.1,4.7,4.7,4.7h44.4c2.6,0,4.7-2.1,4.7-4.7v-10.6C190.3,193.2,184.6,185.9,176.9,183.5z"/>
</g>
<circle class="st2" cx="228" cy="91.5" r="17.4"/>
<g>
	<path class="st2" d="M241.6,108.1c-3.8,3.1-8.4,4.9-13.6,4.9c-5.2,0-9.9-1.9-13.6-4.9c-7.7,2.3-13.4,9.6-13.4,18.1v10.6
		c0,2.6,2.1,4.7,4.7,4.7h44.4c2.6,0,4.7-2.1,4.7-4.7v-10.6C255,117.8,249.4,110.5,241.6,108.1z"/>
</g>
<circle class="st2" cx="241.2" cy="200.6" r="17.4"/>
<g>
	<path class="st2" d="M254.8,217.2c-3.8,3.1-8.4,4.9-13.6,4.9c-5.2,0-9.9-1.9-13.6-4.9c-7.7,2.3-13.4,9.6-13.4,18.1v10.6
		c0,2.6,2.1,4.7,4.7,4.7h44.4c2.6,0,4.7-2.1,4.7-4.7v-10.6C268.2,226.8,262.6,219.6,254.8,217.2z"/>
</g>
<circle class="st2" cx="88.7" cy="221.9" r="17.4"/>
<g>
	<path class="st2" d="M102.3,238.6c-3.8,3.1-8.4,4.9-13.6,4.9s-9.9-1.9-13.6-4.9c-7.7,2.3-13.4,9.6-13.4,18.1v10.6
		c0,2.6,2.1,4.7,4.7,4.7h44.4c2.6,0,4.7-2.1,4.7-4.7v-10.6C115.7,248.2,110.1,240.9,102.3,238.6z"/>
</g>
</svg>
