<?xml version="1.0" encoding="utf-8"?>
<!-- Generator: Adobe Illustrator 24.2.1, SVG Export Plug-In . SVG Version: 6.00 Build 0)  -->
<svg version="1.1" id="Camada_1" xmlns="http://www.w3.org/2000/svg" xmlns:xlink="http://www.w3.org/1999/xlink" x="0px" y="0px"
	 width="300px" height="300px" viewBox="0 0 300 300" style="enable-background:new 0 0 300 300;" xml:space="preserve">
<style type="text/css">
	.st0{fill:#0025FF;}
	.st1{fill:#FFFFFF;}
	.st2{fill:#7B7E8A;}
</style>
<path class="st0" d="M270.4,211.4H30.3c-7.5,0-13.6-6.1-13.6-13.6V71.6c0-7.5,6.1-13.6,13.6-13.6h240.2c7.5,0,13.6,6.1,13.6,13.6
	v126.2C284,205.3,277.9,211.4,270.4,211.4z"/>
<path class="st1" d="M243.7,92.7h-89.8c-2.2,0-4.1,1.8-4.1,4.1v18.9l-8.2,8.2l8.2,8.2v4.6c0,2.2,1.8,4.1,4.1,4.1h89.7
	c2.2,0,4.1-1.8,4.1-4V96.8C247.7,94.6,245.9,92.7,243.7,92.7z M157.2,112c0-1.1,0.9-2,2-2h54c1.1,0,2,0.9,2,2v0.3c0,1.1-0.9,2-2,2
	h-54c-1.1,0-2-0.9-2-2V112z M220.2,131.2c0,1.2-1,2.2-2.1,2.2h-58.7c-1.2,0-2.1-1-2.1-2.1v-0.1c0-1.2,1-2.1,2.1-2.1h58.7
	C219.2,129,220.2,130,220.2,131.2L220.2,131.2z M224.8,123.8h-65.4c-1.2,0-2.2-1-2.2-2.2c0-1.2,1-2.2,2.2-2.2h65.4
	c1.2,0,2.2,1,2.2,2.2C227,122.9,226,123.8,224.8,123.8z M237.3,104.7h-77.9c-1.2,0-2.2-1-2.2-2.2c0-1.2,1-2.2,2.2-2.2h77.9
	c1.2,0,2.2,1,2.2,2.2C239.4,103.8,238.5,104.7,237.3,104.7z"/>
<circle class="st1" cx="95" cy="112.1" r="30.6"/>
<g>
	<path class="st1" d="M119.1,141.4c-6.7,5.4-14.9,8.7-24.1,8.7s-17.5-3.3-24.1-8.7c-13.6,4.1-23.6,17-23.6,31.9V192
		c0,4.6,3.9,8.2,8.2,8.2h78.3c4.6,0,8.2-3.9,8.2-8.2v-18.8C142.7,158.6,132.7,145.7,119.1,141.4z"/>
</g>
<g>
	<path class="st2" d="M42.5,223.5h1.5V237h-1.8v-11.6l-2.9,0.8l-0.4-1.5L42.5,223.5z"/>
	<path class="st2" d="M47.9,237.2c-0.3,0-0.6-0.1-0.9-0.4s-0.4-0.5-0.4-0.9c0-0.3,0.1-0.6,0.4-0.9c0.2-0.2,0.5-0.4,0.9-0.4
		c0.4,0,0.7,0.1,0.9,0.4c0.2,0.2,0.4,0.5,0.4,0.9c0,0.3-0.1,0.6-0.4,0.9C48.6,237.1,48.3,237.2,47.9,237.2z"/>
	<path class="st2" d="M58.1,230c0.7,0.3,1.2,0.8,1.5,1.3c0.4,0.6,0.6,1.2,0.6,1.9c0,1.2-0.4,2.2-1.3,2.9c-0.9,0.7-2,1.1-3.3,1.1
		c-1.4,0-2.5-0.4-3.3-1.1c-0.9-0.7-1.3-1.7-1.3-2.9c0-0.7,0.2-1.4,0.6-1.9c0.4-0.6,0.9-1,1.5-1.3c-1.1-0.7-1.7-1.7-1.7-3
		c0-1.2,0.4-2.2,1.2-2.8s1.8-1,2.9-1c1.2,0,2.1,0.3,3,1s1.2,1.6,1.2,2.8C59.8,228.4,59.2,229.3,58.1,230z M55.6,235.6
		c0.9,0,1.6-0.2,2.1-0.6s0.8-1,0.8-1.7c0-0.7-0.3-1.3-0.8-1.7s-1.2-0.6-2.1-0.6c-0.8,0-1.5,0.2-2.1,0.6c-0.5,0.4-0.8,1-0.8,1.7
		c0,0.8,0.3,1.3,0.8,1.7C54.1,235.3,54.8,235.6,55.6,235.6z M55.6,225c-0.7,0-1.3,0.2-1.7,0.5c-0.5,0.4-0.7,0.9-0.7,1.6
		c0,0.7,0.2,1.2,0.7,1.6c0.5,0.4,1,0.6,1.7,0.6c0.7,0,1.2-0.2,1.7-0.6c0.5-0.4,0.7-0.9,0.7-1.6c0-0.7-0.2-1.2-0.7-1.6
		S56.3,225,55.6,225z"/>
	<path class="st2" d="M66.6,229c1,0.2,1.9,0.6,2.5,1.3c0.7,0.7,1,1.6,1,2.6c0,1.3-0.5,2.3-1.4,3.1c-0.9,0.8-2,1.1-3.3,1.1
		c-1,0-1.9-0.2-2.7-0.7c-0.8-0.5-1.4-1.1-1.7-2l1.5-0.9c0.4,1.2,1.4,1.9,2.9,1.9c0.8,0,1.5-0.2,2-0.7c0.5-0.4,0.8-1,0.8-1.8
		c0-0.8-0.3-1.4-0.8-1.8c-0.5-0.4-1.2-0.7-2-0.7H65l-0.7-1.1l3.1-4.2h-6v-1.7h8.1l0,1.6L66.6,229z"/>
	<path class="st2" d="M71.4,237v-1.5l4.8-4.9c1.3-1.3,1.9-2.4,1.9-3.3c0-0.8-0.2-1.4-0.7-1.8c-0.5-0.4-1-0.6-1.7-0.6
		c-1.3,0-2.2,0.6-2.8,1.8l-1.5-0.9c0.4-0.9,1-1.5,1.8-2s1.6-0.7,2.5-0.7c1.1,0,2.1,0.4,3,1.1c0.8,0.7,1.3,1.7,1.3,3
		c0,1.4-0.8,2.9-2.4,4.5l-3.4,3.4h6.1v1.7H71.4z"/>
	<path class="st2" d="M83.2,237.2c-0.3,0-0.6-0.1-0.9-0.4s-0.4-0.5-0.4-0.9c0-0.3,0.1-0.6,0.4-0.9c0.2-0.2,0.5-0.4,0.9-0.4
		c0.4,0,0.7,0.1,0.9,0.4c0.2,0.2,0.4,0.5,0.4,0.9c0,0.3-0.1,0.6-0.4,0.9C83.8,237.1,83.5,237.2,83.2,237.2z"/>
	<path class="st2" d="M86.2,237v-1.5l4.8-4.9c1.3-1.3,1.9-2.4,1.9-3.3c0-0.8-0.2-1.4-0.7-1.8c-0.5-0.4-1-0.6-1.7-0.6
		c-1.3,0-2.2,0.6-2.8,1.8l-1.5-0.9c0.4-0.9,1-1.5,1.8-2s1.6-0.7,2.5-0.7c1.1,0,2.1,0.4,3,1.1c0.8,0.7,1.3,1.7,1.3,3
		c0,1.4-0.8,2.9-2.4,4.5l-3.4,3.4h6.1v1.7H86.2z"/>
	<path class="st2" d="M99.4,223.5h1.5V237h-1.8v-11.6l-2.9,0.8l-0.4-1.5L99.4,223.5z"/>
	<path class="st2" d="M112.3,227.8c0,1-0.3,1.9-0.8,2.7h0l-4.4,6.5h-2l3.2-4.7c-0.3,0-0.5,0-0.7,0c-1.4,0-2.5-0.4-3.3-1.3
		c-0.9-0.8-1.3-1.9-1.3-3.3s0.4-2.4,1.3-3.3c0.9-0.8,2-1.3,3.3-1.3s2.5,0.4,3.3,1.3C111.9,225.4,112.3,226.5,112.3,227.8z
		 M105.6,225.8c-0.5,0.5-0.8,1.2-0.8,2s0.3,1.5,0.8,2.1c0.5,0.5,1.2,0.8,2.1,0.8c0.8,0,1.5-0.3,2.1-0.8c0.5-0.5,0.8-1.2,0.8-2.1
		s-0.3-1.5-0.8-2c-0.5-0.5-1.2-0.8-2.1-0.8C106.8,225,106.1,225.2,105.6,225.8z"/>
	<path class="st2" d="M126.9,223.5h1.7V237h-1.7v-1.7c-0.8,1.3-2.1,1.9-3.6,1.9c-1.4,0-2.5-0.5-3.5-1.5c-1-1-1.4-2.2-1.4-3.6
		c0-1.4,0.5-2.6,1.4-3.6c1-1,2.1-1.5,3.5-1.5c1.6,0,2.8,0.6,3.6,1.9V223.5z M123.5,235.6c1,0,1.8-0.3,2.5-1c0.7-0.7,1-1.5,1-2.5
		s-0.3-1.8-1-2.5c-0.7-0.7-1.5-1-2.5-1c-1,0-1.8,0.3-2.4,1c-0.7,0.7-1,1.5-1,2.5s0.3,1.8,1,2.5S122.5,235.6,123.5,235.6z"/>
	<path class="st2" d="M132.3,233c0.2,0.9,0.6,1.5,1.2,2c0.6,0.5,1.4,0.7,2.3,0.7c1.3,0,2.2-0.5,2.8-1.4l1.4,0.8
		c-0.9,1.5-2.4,2.2-4.2,2.2c-1.5,0-2.8-0.5-3.7-1.4c-1-1-1.4-2.2-1.4-3.6c0-1.5,0.5-2.7,1.4-3.6c0.9-1,2.2-1.4,3.6-1.4
		c1.4,0,2.6,0.5,3.5,1.5c0.9,1,1.3,2.2,1.3,3.6c0,0.2,0,0.5-0.1,0.8H132.3z M135.7,228.7c-0.9,0-1.6,0.3-2.2,0.8
		c-0.6,0.5-1,1.2-1.1,2h6.4c-0.1-0.9-0.5-1.6-1.1-2.1C137.1,228.9,136.4,228.7,135.7,228.7z"/>
	<path class="st2" d="M154,227.4h1.8l-3.9,9.6h-2l-3.9-9.6h1.8l3,7.8L154,227.4z"/>
	<path class="st2" d="M158.1,225.6c-0.3,0-0.6-0.1-0.8-0.3s-0.3-0.5-0.3-0.8s0.1-0.6,0.3-0.8s0.5-0.3,0.8-0.3c0.3,0,0.6,0.1,0.8,0.3
		s0.3,0.5,0.3,0.8s-0.1,0.6-0.3,0.8S158.4,225.6,158.1,225.6z M157.2,237v-9.6h1.7v9.6H157.2z"/>
	<path class="st2" d="M162.9,229.9c0,0.4,0.2,0.7,0.6,0.9c0.4,0.2,0.8,0.4,1.4,0.6c0.5,0.2,1.1,0.3,1.6,0.5c0.5,0.2,1,0.4,1.3,0.9
		c0.4,0.4,0.6,1,0.6,1.6c0,0.9-0.3,1.6-1,2.1c-0.7,0.5-1.5,0.8-2.6,0.8c-0.9,0-1.7-0.2-2.4-0.6c-0.7-0.4-1.1-1-1.4-1.6l1.4-0.8
		c0.2,0.5,0.4,0.8,0.9,1.1c0.4,0.3,0.9,0.4,1.5,0.4c0.6,0,1-0.1,1.4-0.3c0.4-0.2,0.5-0.5,0.5-1c0-0.4-0.2-0.7-0.6-0.9
		c-0.4-0.2-0.8-0.4-1.3-0.6s-1.1-0.3-1.6-0.5c-0.5-0.2-1-0.4-1.4-0.9c-0.4-0.4-0.6-0.9-0.6-1.6c0-0.8,0.3-1.5,1-2.1s1.5-0.8,2.4-0.8
		c0.8,0,1.5,0.2,2.1,0.5c0.6,0.4,1.1,0.8,1.4,1.5l-1.4,0.8c-0.3-0.8-1-1.2-2.1-1.2c-0.5,0-0.9,0.1-1.2,0.3
		C163.1,229.2,162.9,229.5,162.9,229.9z"/>
	<path class="st2" d="M176.8,227.4h1.7v9.6h-1.7v-1.4c-0.7,1.1-1.7,1.6-3.1,1.6c-1.1,0-2-0.4-2.7-1.1s-1-1.7-1-2.9v-5.9h1.7v5.8
		c0,0.8,0.2,1.4,0.6,1.8c0.4,0.4,1,0.6,1.8,0.6c0.8,0,1.5-0.3,2-0.8c0.5-0.5,0.8-1.3,0.8-2.4V227.4z"/>
	<path class="st2" d="M189.1,227.4h1.7v9.6h-1.7v-1.7c-0.8,1.3-2.1,1.9-3.6,1.9c-1.4,0-2.5-0.5-3.5-1.5c-1-1-1.4-2.2-1.4-3.6
		c0-1.4,0.5-2.6,1.4-3.6c1-1,2.1-1.5,3.5-1.5c1.6,0,2.8,0.6,3.6,1.9V227.4z M185.6,235.6c1,0,1.8-0.3,2.5-1c0.7-0.7,1-1.5,1-2.5
		s-0.3-1.8-1-2.5c-0.7-0.7-1.5-1-2.5-1c-1,0-1.8,0.3-2.4,1c-0.7,0.7-1,1.5-1,2.5s0.3,1.8,1,2.5S184.7,235.6,185.6,235.6z"/>
	<path class="st2" d="M193.3,237v-14.1h1.7V237H193.3z"/>
	<path class="st2" d="M198.4,225.6c-0.3,0-0.6-0.1-0.8-0.3s-0.3-0.5-0.3-0.8s0.1-0.6,0.3-0.8s0.5-0.3,0.8-0.3c0.3,0,0.6,0.1,0.8,0.3
		s0.3,0.5,0.3,0.8s-0.1,0.6-0.3,0.8S198.7,225.6,198.4,225.6z M197.5,237v-9.6h1.7v9.6H197.5z"/>
	<path class="st2" d="M203.7,235.4h5.1v1.6h-7.4v-1.1l4.9-6.9h-4.7v-1.6h7v1.1L203.7,235.4z"/>
	<path class="st2" d="M218.2,227.4h1.7v9.6h-1.7v-1.7c-0.8,1.3-2.1,1.9-3.6,1.9c-1.4,0-2.5-0.5-3.5-1.5c-1-1-1.4-2.2-1.4-3.6
		c0-1.4,0.5-2.6,1.4-3.6c1-1,2.1-1.5,3.5-1.5c1.6,0,2.8,0.6,3.6,1.9V227.4z M214.8,235.6c1,0,1.8-0.3,2.5-1s1-1.5,1-2.5
		s-0.3-1.8-1-2.5c-0.7-0.7-1.5-1-2.5-1c-1,0-1.8,0.3-2.4,1c-0.7,0.7-1,1.5-1,2.5s0.3,1.8,1,2.5S213.8,235.6,214.8,235.6z"/>
	<path class="st2" d="M231.3,234.8c-0.4,0.7-0.9,1.2-1.5,1.6c-0.6,0.4-1.3,0.7-2.1,0.8v0.7c0.5,0.1,0.9,0.3,1.2,0.6
		c0.3,0.3,0.5,0.6,0.5,1c0,1.3-1.4,1.9-4.1,1.8v-1.3c1.7,0.1,2.6-0.1,2.6-0.6c0-0.4-0.5-0.6-1.6-0.7v-1.4c-1.3-0.2-2.3-0.7-3.1-1.7
		c-0.8-0.9-1.2-2.1-1.2-3.4c0-1.4,0.5-2.6,1.4-3.6c1-1,2.2-1.5,3.6-1.5c1,0,1.8,0.2,2.6,0.7c0.8,0.5,1.3,1.1,1.7,1.8l-1.4,0.8
		c-0.2-0.5-0.6-0.9-1.1-1.2c-0.5-0.3-1.1-0.5-1.7-0.5c-1,0-1.8,0.3-2.4,1c-0.7,0.7-1,1.5-1,2.5c0,1,0.3,1.8,1,2.4
		c0.6,0.7,1.5,1,2.4,1c0.6,0,1.2-0.2,1.7-0.5c0.5-0.3,0.9-0.7,1.2-1.2L231.3,234.8z"/>
	<path class="st2" d="M241,235.8c-1,1-2.2,1.5-3.6,1.5s-2.6-0.5-3.6-1.5c-1-1-1.5-2.2-1.5-3.6s0.5-2.6,1.5-3.6c1-1,2.2-1.5,3.6-1.5
		s2.6,0.5,3.6,1.5s1.5,2.2,1.5,3.6S242,234.8,241,235.8z M237.4,235.6c1,0,1.8-0.3,2.4-1s1-1.5,1-2.5s-0.3-1.8-1-2.5
		c-0.7-0.7-1.5-1-2.4-1c-1,0-1.8,0.3-2.4,1c-0.7,0.7-1,1.5-1,2.5s0.3,1.8,1,2.5C235.6,235.3,236.4,235.6,237.4,235.6z M234.5,225.9
		c0-0.8,0.2-1.4,0.5-1.9c0.3-0.4,0.7-0.6,1.1-0.6s0.9,0.2,1.4,0.5c0.5,0.4,0.8,0.6,1.1,0.5c0.2,0,0.3-0.4,0.3-1h1.4
		c0,0.8-0.1,1.4-0.4,1.9c-0.3,0.4-0.7,0.6-1.1,0.6s-0.9-0.2-1.4-0.5c-0.5-0.4-0.8-0.6-1-0.5c-0.2,0-0.3,0.4-0.3,1H234.5z"/>
	<path class="st2" d="M245.7,233c0.2,0.9,0.6,1.5,1.2,2s1.4,0.7,2.3,0.7c1.3,0,2.2-0.5,2.8-1.4l1.4,0.8c-0.9,1.5-2.4,2.2-4.2,2.2
		c-1.5,0-2.8-0.5-3.7-1.4c-1-1-1.4-2.2-1.4-3.6c0-1.5,0.5-2.7,1.4-3.6c0.9-1,2.2-1.4,3.6-1.4c1.4,0,2.6,0.5,3.5,1.5
		c0.9,1,1.3,2.2,1.3,3.6c0,0.2,0,0.5-0.1,0.8H245.7z M249,228.7c-0.9,0-1.6,0.3-2.2,0.8s-1,1.2-1.1,2h6.4c-0.1-0.9-0.5-1.6-1.1-2.1
		C250.4,228.9,249.8,228.7,249,228.7z"/>
	<path class="st2" d="M256.8,229.9c0,0.4,0.2,0.7,0.6,0.9c0.4,0.2,0.8,0.4,1.4,0.6c0.5,0.2,1.1,0.3,1.6,0.5c0.5,0.2,1,0.4,1.3,0.9
		s0.6,1,0.6,1.6c0,0.9-0.3,1.6-1,2.1c-0.7,0.5-1.5,0.8-2.6,0.8c-0.9,0-1.7-0.2-2.4-0.6c-0.7-0.4-1.1-1-1.4-1.6l1.4-0.8
		c0.2,0.5,0.4,0.8,0.9,1.1c0.4,0.3,0.9,0.4,1.5,0.4c0.6,0,1-0.1,1.4-0.3c0.4-0.2,0.5-0.5,0.5-1c0-0.4-0.2-0.7-0.6-0.9
		c-0.4-0.2-0.8-0.4-1.3-0.6c-0.5-0.2-1.1-0.3-1.6-0.5c-0.5-0.2-1-0.4-1.4-0.9c-0.4-0.4-0.6-0.9-0.6-1.6c0-0.8,0.3-1.5,1-2.1
		s1.5-0.8,2.4-0.8c0.8,0,1.5,0.2,2.1,0.5c0.6,0.4,1.1,0.8,1.4,1.5l-1.4,0.8c-0.3-0.8-1-1.2-2.1-1.2c-0.5,0-0.9,0.1-1.2,0.3
		C257,229.2,256.8,229.5,256.8,229.9z"/>
</g>
</svg>
