<?xml version="1.0" encoding="utf-8"?>
<!-- Generator: Adobe Illustrator 24.2.1, SVG Export Plug-In . SVG Version: 6.00 Build 0)  -->
<svg version="1.1" id="Camada_1" xmlns="http://www.w3.org/2000/svg" xmlns:xlink="http://www.w3.org/1999/xlink" x="0px" y="0px"
	 width="300px" height="84px" viewBox="0 0 300 84" style="enable-background:new 0 0 300 84;" xml:space="preserve">
<style type="text/css">
	.st0{fill:#FFFFFF;}
</style>
<polygon class="st0" points="23.2,59.2 47.8,59.2 47.8,80.9 1.9,80.9 23.2,2.4 "/>
<polygon class="st0" points="71.1,60.4 103.4,60.4 57.1,81 57.1,2.6 102.9,22.9 71.1,22.9 "/>
<path class="st0" d="M150.7,81c-11.3,0-20.6-3.7-28.1-11.2c-7.4-7.5-11.1-16.8-11.1-28s3.7-20.5,11.1-28
	c7.4-7.5,16.8-11.2,28.1-11.2v21c-5.3,0-9.6,1.7-12.8,5.1c-3.3,3.4-4.9,7.8-4.9,13.1c0,5.3,1.6,9.6,4.9,13.1
	c3.3,3.4,7.6,5.1,12.8,5.1c3.2,0,6.1-0.7,8.6-2.1c2.5-1.4,4.4-3.4,5.6-5.9l18.6,10.7c-3.3,5.6-7.9,10.1-13.7,13.4
	C164,79.4,157.6,81,150.7,81"/>
<path class="st0" d="M199.8,2.4c10.3,0,19,3.8,26,11.3c7,7.5,10.4,16.9,10.4,28c0,11.2-3.5,20.5-10.4,28c-7,7.5-15.6,11.3-26,11.3
	l-31-78.6H199.8z"/>
<polygon class="st0" points="298,2.3 298,24.1 280.4,24.1 259,81 259,24.1 241.4,24.1 "/>
<path class="st0" d="M103,50.1H80.5V33H103l-0.1,0.3C101.9,38.9,101.9,44.5,103,50.1"/>
</svg>
