<?xml version="1.0" encoding="utf-8"?>
<!-- Generator: Adobe Illustrator 24.2.1, SVG Export Plug-In . SVG Version: 6.00 Build 0)  -->
<svg version="1.1" id="Camada_1" xmlns="http://www.w3.org/2000/svg" xmlns:xlink="http://www.w3.org/1999/xlink" x="0px" y="0px"
	 width="300px" height="300px" viewBox="0 0 300 300" style="enable-background:new 0 0 300 300;" xml:space="preserve">
<style type="text/css">
	.st0{fill:#FFFFFF;}
	.st1{fill:url(#SVGID_1_);}
	.st2{fill:url(#SVGID_2_);}
	.st3{fill:url(#SVGID_3_);}
	.st4{fill:url(#SVGID_4_);}
</style>
<path class="st0" d="M239.5,155.2h-98.9c-2.5,0-4.5,2-4.5,4.5v21.1l-8.8,8.8l8.8,8.8v5.3c0,2.5,2,4.5,4.5,4.5h98.9
	c2.5,0,4.5-2,4.5-4.4v-44C244,157.2,242,155.2,239.5,155.2z M213.9,197.6c0,1.3-1,2.4-2.3,2.4h-64.7c-1.3,0-2.3-1-2.3-2.3v-0.1
	c0-1.3,1-2.3,2.3-2.3h64.7C212.9,195.1,213.9,196.2,213.9,197.6L213.9,197.6z M219,189.4h-72.1c-1.3,0-2.4-1.1-2.4-2.4
	c0-1.3,1.1-2.4,2.4-2.4H219c1.3,0,2.4,1.1,2.4,2.4C221.3,188.4,220.2,189.4,219,189.4z M144.5,177v-0.3c0-1.2,1-2.3,2.3-2.3h59.5
	c1.2,0,2.3,1,2.3,2.3v0.3c0,1.2-1,2.3-2.3,2.3h-59.5C145.5,179.2,144.5,178.2,144.5,177z M232.7,168.7h-85.8c-1.3,0-2.4-1.1-2.4-2.4
	c0-1.3,1.1-2.4,2.4-2.4h85.8c1.3,0,2.4,1.1,2.4,2.4C235.1,167.6,234,168.7,232.7,168.7z"/>
<linearGradient id="SVGID_1_" gradientUnits="userSpaceOnUse" x1="71.9852" y1="72.1245" x2="121.435" y2="72.1245">
	<stop  offset="0" style="stop-color:#00EBFC"/>
	<stop  offset="1" style="stop-color:#0025FF"/>
</linearGradient>
<path class="st1" d="M88.4,80.4l-3.3,18.8L72,96.9l10-57.3l22.9,4c10.9,1.9,18.1,12.2,16.2,23.1c-1.2,7-6.6,12.7-13.5,14.8l8.5,23.2
	L88.4,80.4z M90.4,68.9l9.8,1.7c3.6,0.6,7.1-2,7.8-6.2c0.7-4.2-1.7-7.9-5.3-8.5L93,54.2L90.4,68.9z"/>
<linearGradient id="SVGID_2_" gradientUnits="userSpaceOnUse" x1="121.1644" y1="80.311" x2="168.0904" y2="80.311">
	<stop  offset="0" style="stop-color:#00EBFC"/>
	<stop  offset="1" style="stop-color:#0025FF"/>
</linearGradient>
<path class="st2" d="M143.7,110.4l-1.3,7.2l-5.7-1l1.2-7.1c-9.1-2.3-15.2-8.2-16.8-16.6l12.4-4.6c1,4.2,3,6.9,6.6,8.2l2-11.3
	c-0.3-0.2-0.7-0.4-1-0.6c-6.6-4.1-14.4-9.6-12.5-20.6c1.9-10.6,10.8-14.7,19.7-14l1.2-7.1l5.7,1l-1.3,7.3
	c6.9,2.1,12.1,6.9,14.1,14.7l-12.2,4.5c-0.6-3.1-1.9-5-4.1-6.2l-1.9,11.1c6.6,4.3,15.8,8.7,13.7,20.6
	C161.7,106.2,153.6,111,143.7,110.4z M144.6,71.6l1.5-8.6c-2.5,0.2-4,1.5-4.3,3.5C141.5,68,142,69.5,144.6,71.6z M150.4,93.8
	c0.4-2-0.7-3.5-2.9-5.1l-1.5,8.8C148.9,97.2,150.1,95.5,150.4,93.8z"/>
<g>
	<linearGradient id="SVGID_3_" gradientUnits="userSpaceOnUse" x1="239.8994" y1="8.2445" x2="222.4892" y2="132.1247">
		<stop  offset="0" style="stop-color:#00EBFC"/>
		<stop  offset="1" style="stop-color:#0025FF"/>
	</linearGradient>
	<path class="st3" d="M183,61.7c6.4-36.6,28.4-58.6,59-53.2s43.9,33.5,37.5,70.1s-28.4,58.6-59,53.2
		C189.8,126.5,176.6,98.3,183,61.7z M252.4,73.9c4-22.9-0.8-36.4-15-38.9c-14.2-2.5-23.3,8.7-27.3,31.5c-4,22.9,0.8,36.4,15,38.9
		C239.3,107.9,248.4,96.7,252.4,73.9z"/>
</g>
<circle class="st0" cx="74.8" cy="177.1" r="37.8"/>
<g>
	<path class="st0" d="M104.7,213.3c-8.3,6.7-18.4,10.8-29.8,10.8S53.2,220,45,213.3c-16.8,5.1-29.2,21-29.2,39.4v23.2
		c0,5.7,4.8,10.2,10.2,10.2h96.9c5.7,0,10.2-4.8,10.2-10.2v-23.2C133.9,234.6,121.5,218.7,104.7,213.3z"/>
</g>
<linearGradient id="SVGID_4_" gradientUnits="userSpaceOnUse" x1="181.3889" y1="63.8814" x2="262" y2="63.8814">
	<stop  offset="0" style="stop-color:#00EBFC"/>
	<stop  offset="1" style="stop-color:#0025FF"/>
</linearGradient>
<path class="st4" d="M212,120c27.6,0,50-35.6,50-79.5c0-8.9-0.9-17.4-2.6-25.4c-5-3.2-10.8-5.4-17.4-6.6
	c-30.6-5.4-52.6,16.6-59,53.2c-3.5,19.8-1.2,37.2,6.6,49.8C196.3,116.9,203.9,120,212,120z M210.1,66.5c4-22.9,13.1-34,27.3-31.5
	c14.2,2.5,19,16,15,38.9c-4,22.9-13.1,34-27.3,31.5C210.8,102.9,206.1,89.4,210.1,66.5z"/>
</svg>
