<?xml version="1.0" encoding="utf-8"?>
<!-- Generator: Adobe Illustrator 24.2.1, SVG Export Plug-In . SVG Version: 6.00 Build 0)  -->
<svg version="1.1" id="Camada_1" xmlns="http://www.w3.org/2000/svg" xmlns:xlink="http://www.w3.org/1999/xlink" x="0px" y="0px"
	 width="187.7px" height="300px" viewBox="0 0 187.7 300" style="enable-background:new 0 0 187.7 300;" xml:space="preserve">
<style type="text/css">
	.st0{fill:#02103F;}
	.st1{fill:#021031;}
	.st2{fill:#0025FF;}
	.st3{fill:#001DC9;}
	.st4{fill:url(#SVGID_1_);}
	.st5{fill:url(#SVGID_2_);}
	.st6{fill:url(#SVGID_3_);}
	.st7{fill:url(#SVGID_4_);}
	.st8{fill:url(#SVGID_5_);}
	.st9{fill:url(#SVGID_6_);}
	.st10{fill:url(#SVGID_7_);}
	.st11{fill:url(#SVGID_8_);}
	.st12{fill:url(#SVGID_9_);}
	.st13{fill:url(#SVGID_10_);}
	.st14{fill:#00A4FD;}
	.st15{fill:#0067FE;}
	.st16{fill:#FFFFFF;}
	.st17{fill:url(#SVGID_11_);}
	.st18{fill:url(#SVGID_12_);}
	.st19{fill:url(#SVGID_13_);}
	.st20{fill:url(#SVGID_14_);}
	.st21{fill:url(#SVGID_15_);}
	.st22{fill:url(#SVGID_16_);}
	.st23{fill:url(#SVGID_17_);}
	.st24{fill:url(#SVGID_18_);}
	.st25{fill:url(#SVGID_19_);}
</style>
<polygon class="st0" points="185.3,19 185.3,280.9 16.7,297.3 16.7,2.7 "/>
<polygon class="st1" points="16.7,2.7 3.5,10.4 3.5,290.5 16.7,297.3 "/>
<path class="st2" d="M185.3,249.7c-15.5,4.5-31.3,8.3-51.5,8.4c-36.2,0.1-40.9-12.1-73.8-10.9c-8.6,0.3-27-3.3-43.4,3.8v46.4
	l168.6-16.5V249.7z"/>
<path class="st3" d="M16.7,250.9c0,0-9.9-2.5-13.2,0.4v39.2l13.2,6.9V250.9z"/>
<g>
	
		<linearGradient id="SVGID_1_" gradientUnits="userSpaceOnUse" x1="53.5058" y1="116.6964" x2="67.2921" y2="127.4674" gradientTransform="matrix(0.9918 3.683000e-02 -1.818766e-03 1.0082 1.0782 -4.8519)">
		<stop  offset="0" style="stop-color:#00EBFC"/>
		<stop  offset="1" style="stop-color:#0025FF"/>
	</linearGradient>
	<path class="st4" d="M67,114.4l0,12.5l-3.4-0.1l0-4.8l-2.8,2.6l-2.8-2.8l0,4.8l-3.4-0.1l0-12.5l6.2,5.3L67,114.4z"/>
	
		<linearGradient id="SVGID_2_" gradientUnits="userSpaceOnUse" x1="63.3496" y1="113.9165" x2="56.6132" y2="123.537" gradientTransform="matrix(0.9918 3.683000e-02 -1.818766e-03 1.0082 1.0782 -4.8519)">
		<stop  offset="0" style="stop-color:#00EBFC"/>
		<stop  offset="1" style="stop-color:#0025FF"/>
	</linearGradient>
	<path class="st5" d="M67,114.8l0,4.2l-6.2,5.6l-6.2-6.2l0-4.5l6.2,5.3L67,114.8z"/>
	
		<linearGradient id="SVGID_3_" gradientUnits="userSpaceOnUse" x1="73.132" y1="129.9753" x2="77.533" y2="116.4304" gradientTransform="matrix(0.9918 3.683000e-02 -1.818766e-03 1.0082 1.0782 -4.8519)">
		<stop  offset="0" style="stop-color:#00EBFC"/>
		<stop  offset="1" style="stop-color:#0025FF"/>
	</linearGradient>
	<path class="st6" d="M76.2,127.3l-0.4-1.6l-7.5,1.3l3.8-12.4l4,0.1l3.8,12.7L76.2,127.3z M73.1,122.7l1.9-0.3l-0.9-3.5L73.1,122.7z
		"/>
	
		<linearGradient id="SVGID_4_" gradientUnits="userSpaceOnUse" x1="70.8748" y1="119.6508" x2="81.335" y2="124.7526" gradientTransform="matrix(0.9918 3.683000e-02 -1.818766e-03 1.0082 1.0782 -4.8519)">
		<stop  offset="0" style="stop-color:#00EBFC"/>
		<stop  offset="1" style="stop-color:#0025FF"/>
	</linearGradient>
	<path class="st7" d="M76.2,127.3L73,114.6l3,0.1l3.8,12.7L76.2,127.3z"/>
	
		<linearGradient id="SVGID_5_" gradientUnits="userSpaceOnUse" x1="109.3047" y1="115.8097" x2="108.8615" y2="128.5022" gradientTransform="matrix(0.9918 3.683000e-02 -1.818766e-03 1.0082 1.0782 -4.8519)">
		<stop  offset="0" style="stop-color:#00EBFC"/>
		<stop  offset="1" style="stop-color:#0025FF"/>
	</linearGradient>
	<path class="st8" d="M110.9,128.6l-0.4-1.6l-7.5,1.3l3.8-12.4l4,0.1l3.8,12.7L110.9,128.6z M107.8,124l1.9-0.3l-0.9-3.5L107.8,124z
		"/>
	
		<linearGradient id="SVGID_6_" gradientUnits="userSpaceOnUse" x1="108.1061" y1="127.0879" x2="104.6893" y2="116.5721" gradientTransform="matrix(0.9918 3.683000e-02 -1.818766e-03 1.0082 1.0782 -4.8519)">
		<stop  offset="0" style="stop-color:#00EBFC"/>
		<stop  offset="1" style="stop-color:#0025FF"/>
	</linearGradient>
	<path class="st9" d="M106.9,127.6l-3.9,0.7l3.8-12.4l3,0.1L106.9,127.6z"/>
	
		<linearGradient id="SVGID_7_" gradientUnits="userSpaceOnUse" x1="91.486" y1="121.4139" x2="101.8844" y2="122.3236" gradientTransform="matrix(0.9918 3.683000e-02 -1.818766e-03 1.0082 1.0782 -4.8519)">
		<stop  offset="0" style="stop-color:#00EBFC"/>
		<stop  offset="1" style="stop-color:#0025FF"/>
	</linearGradient>
	<path class="st10" d="M100.4,127c-0.9,0.8-2.1,1.1-3.5,1.1c-1.4-0.1-2.6-0.5-3.5-1.3c-0.9-0.8-1.3-1.9-1.3-3.2l0-8.2l3.4,0.1l0,7.8
		c0,0.9,0.5,1.4,1.4,1.4c1,0,1.4-0.4,1.4-1.3l0-7.8l3.4,0.1l0,8.2C101.7,125.2,101.3,126.2,100.4,127z"/>
	
		<linearGradient id="SVGID_8_" gradientUnits="userSpaceOnUse" x1="114.859" y1="116.4539" x2="121.405" y2="129.3012" gradientTransform="matrix(0.9918 3.683000e-02 -1.818766e-03 1.0082 1.0782 -4.8519)">
		<stop  offset="0" style="stop-color:#00EBFC"/>
		<stop  offset="1" style="stop-color:#0025FF"/>
	</linearGradient>
	<path class="st11" d="M119.3,125.4l3.9,3.6l-7.3-0.3l0-12.5l3.4,0.1L119.3,125.4z"/>
	
		<linearGradient id="SVGID_9_" gradientUnits="userSpaceOnUse" x1="116.0161" y1="125.1149" x2="123.3711" y2="125.1149" gradientTransform="matrix(0.9918 3.683000e-02 -1.818766e-03 1.0082 1.0782 -4.8519)">
		<stop  offset="0" style="stop-color:#00EBFC"/>
		<stop  offset="1" style="stop-color:#0025FF"/>
	</linearGradient>
	<path class="st12" d="M123.2,129l-7.3-0.3l0-6.4L123.2,129z"/>
	<g>
		
			<linearGradient id="SVGID_10_" gradientUnits="userSpaceOnUse" x1="127.9476" y1="121.9305" x2="137.0054" y2="121.9305" gradientTransform="matrix(0.9918 3.683000e-02 -1.818766e-03 1.0082 1.0782 -4.8519)">
			<stop  offset="0" style="stop-color:#00EBFC"/>
			<stop  offset="1" style="stop-color:#0025FF"/>
		</linearGradient>
		<path class="st13" d="M132.3,118.4L132.3,118.4c-2.5-0.1-4.5,1.9-4.5,4.4v0c0,2.5,2,4.6,4.5,4.7l0,0c2.5,0.1,4.5-1.9,4.5-4.4v0
			C136.7,120.6,134.7,118.5,132.3,118.4z M130.8,124.4l-1.1,0l0-2.8l1.1,0c0.4,0,0.7,0.2,1,0.4c0.3,0.3,0.4,0.6,0.4,1
			c0,0.4-0.1,0.7-0.4,1C131.5,124.3,131.2,124.5,130.8,124.4z M134,124.6l-0.1-0.4l-0.8,0l-0.1,0.4l-0.8,0l0.9-2.8l0.9,0l0.9,2.8
			L134,124.6z"/>
		<path class="st14" d="M130.9,122.5l-0.3,0l0,1.2l0.3,0c0.2,0,0.3,0,0.4-0.2c0.1-0.1,0.2-0.3,0.2-0.4c0-0.2-0.1-0.3-0.2-0.5
			C131.2,122.5,131,122.5,130.9,122.5z"/>
		<polygon class="st15" points="133.3,123.6 133.7,123.6 133.5,122.7 		"/>
	</g>
	<path class="st16" d="M41.5,142.2c-1.9-0.1-3.5-0.8-4.7-2.1c-1.3-1.3-1.9-3-1.9-4.9c0-1.9,0.6-3.5,1.9-4.7c1.3-1.2,2.8-1.8,4.8-1.8
		c1.2,0,2.3,0.4,3.2,1c1,0.6,1.8,1.4,2.3,2.4l-3.2,1.7c-0.2-0.4-0.5-0.8-1-1c-0.4-0.3-0.9-0.4-1.4-0.4c-0.9,0-1.6,0.2-2.2,0.8
		c-0.6,0.6-0.8,1.3-0.8,2.2c0,0.9,0.3,1.7,0.8,2.3c0.6,0.6,1.3,0.9,2.2,1c0.5,0,1-0.1,1.5-0.3c0.4-0.2,0.7-0.6,1-1l3.2,2
		c-0.6,0.9-1.3,1.7-2.3,2.2C43.8,142,42.7,142.2,41.5,142.2z"/>
	<path class="st16" d="M59.9,140.9c-1.3,1.2-2.9,1.8-4.8,1.8c-1.9-0.1-3.5-0.8-4.8-2.1c-1.3-1.3-1.9-3-1.9-4.9c0-1.9,0.7-3.5,2-4.7
		c1.3-1.2,2.9-1.8,4.8-1.8c1.9,0.1,3.5,0.8,4.8,2.1c1.3,1.3,1.9,3,1.9,4.9C61.8,138.1,61.2,139.7,59.9,140.9z M52.9,138.1
		c0.6,0.6,1.3,0.9,2.2,1c0.9,0,1.6-0.2,2.2-0.8c0.6-0.6,0.9-1.3,0.9-2.2c0-0.9-0.3-1.7-0.9-2.3c-0.6-0.6-1.3-0.9-2.2-1
		c-0.9,0-1.6,0.2-2.2,0.8c-0.6,0.6-0.9,1.3-0.9,2.2C52,136.7,52.3,137.5,52.9,138.1z"/>
	<path class="st16" d="M68.3,129.7c1.3,0,2.4,0.5,3.3,1.4c0.9,0.9,1.3,2.1,1.3,3.6c0,1.5-0.4,2.6-1.3,3.5c-0.9,0.8-2,1.2-3.3,1.2
		l-1.5-0.1l0,3.8l-3.6-0.1l0-13.5L68.3,129.7z M68.2,135.6c0.3,0,0.5-0.1,0.7-0.3c0.2-0.2,0.3-0.5,0.3-0.8c0-0.3-0.1-0.6-0.3-0.8
		c-0.2-0.2-0.4-0.3-0.7-0.3l-1.5-0.1l0,2.2L68.2,135.6z"/>
	<path class="st16" d="M77.8,139.3l0,4.2l-3.6-0.1l0-13.5l5.1,0.2c1.4,0.1,2.5,0.5,3.4,1.4c0.9,0.9,1.4,2.1,1.4,3.5
		c0,0.8-0.2,1.5-0.5,2.1c-0.3,0.6-0.8,1.1-1.4,1.5l2.5,5.1L77.8,139.3z M77.8,133.6l0,2.5l1.4,0.1c0.4,0,0.7-0.1,0.9-0.3
		c0.2-0.2,0.3-0.5,0.3-0.9c0-0.4-0.1-0.7-0.3-0.9c-0.2-0.2-0.5-0.4-0.9-0.4L77.8,133.6z"/>
	<path class="st16" d="M97.4,142.3c-1.3,1.2-2.9,1.8-4.8,1.8c-1.9-0.1-3.5-0.8-4.8-2.1c-1.3-1.3-1.9-3-1.9-4.9c0-1.9,0.7-3.5,2-4.7
		c1.3-1.2,2.9-1.8,4.8-1.8c1.9,0.1,3.5,0.8,4.8,2.1c1.3,1.3,1.9,3,1.9,4.9C99.4,139.5,98.7,141.1,97.4,142.3z M90.4,139.5
		c0.6,0.6,1.3,0.9,2.2,1c0.9,0,1.6-0.2,2.2-0.8c0.6-0.6,0.9-1.3,0.9-2.2c0-0.9-0.3-1.7-0.9-2.3c-0.6-0.6-1.3-0.9-2.2-1
		c-0.9,0-1.6,0.2-2.2,0.8c-0.6,0.6-0.9,1.3-0.9,2.2C89.6,138.1,89.8,138.9,90.4,139.5z"/>
	<path class="st16" d="M106,131.1c1.8,0.1,3.2,0.8,4.4,2.1c1.2,1.3,1.8,3,1.8,4.9c0,1.9-0.6,3.5-1.8,4.7c-1.2,1.2-2.6,1.8-4.4,1.8
		l-5.3-0.2l0-13.5L106,131.1z M106,140.9c0.7,0,1.3-0.2,1.8-0.8c0.5-0.5,0.7-1.3,0.7-2.1c0-0.9-0.2-1.6-0.7-2.2
		c-0.5-0.6-1.1-0.9-1.8-0.9l-1.5-0.1l0,6L106,140.9z"/>
	<path class="st16" d="M122.3,143.9c-1,0.8-2.2,1.2-3.7,1.2c-1.5-0.1-2.8-0.5-3.7-1.4c-1-0.9-1.4-2.1-1.4-3.5l0-8.8l3.6,0.1l0,8.4
		c0,1,0.5,1.5,1.5,1.5c1,0,1.5-0.4,1.5-1.4l0-8.4l3.6,0.1l0,8.8C123.8,142,123.3,143.1,122.3,143.9z"/>
	<path class="st16" d="M147,146.1l-0.4-1.8l-8,1.4l4.1-13.3l4.2,0.2l4,13.6L147,146.1z M143.7,141.2l2-0.3l-0.9-3.8L143.7,141.2z"/>
	<path class="st16" d="M163.7,144.8c-1.3,1.2-2.9,1.8-4.8,1.8c-1.9-0.1-3.5-0.8-4.8-2.1c-1.3-1.3-1.9-3-1.9-4.9c0-1.9,0.7-3.5,2-4.7
		c1.3-1.2,2.9-1.8,4.8-1.8c1.9,0.1,3.5,0.8,4.8,2.1c1.3,1.3,1.9,3,1.9,4.9C165.7,142,165,143.5,163.7,144.8z M156.8,142
		c0.6,0.6,1.3,0.9,2.2,1c0.9,0,1.6-0.2,2.2-0.8c0.6-0.6,0.9-1.3,0.9-2.2c0-0.9-0.3-1.7-0.9-2.3c-0.6-0.6-1.3-0.9-2.2-1
		c-0.9,0-1.6,0.2-2.2,0.8c-0.6,0.6-0.9,1.3-0.9,2.2C155.9,140.6,156.2,141.4,156.8,142z"/>
	
		<linearGradient id="SVGID_11_" gradientUnits="userSpaceOnUse" x1="85.678" y1="128.3821" x2="85.8986" y2="115.7425" gradientTransform="matrix(0.9918 3.683000e-02 -1.818766e-03 1.0082 1.0782 -4.8519)">
		<stop  offset="0" style="stop-color:#00EBFC"/>
		<stop  offset="1" style="stop-color:#0025FF"/>
	</linearGradient>
	<path class="st17" d="M87.4,115.1l3.3,0.1l0,12.6l-6.3-5.6l0,5.4l-3.3-0.1l0-12.6l6.3,5.4L87.4,115.1z"/>
	
		<linearGradient id="SVGID_12_" gradientUnits="userSpaceOnUse" x1="88.8938" y1="120.4111" x2="82.6497" y2="123.7311" gradientTransform="matrix(0.9918 3.683000e-02 -1.818766e-03 1.0082 1.0782 -4.8519)">
		<stop  offset="0" style="stop-color:#00EBFC"/>
		<stop  offset="1" style="stop-color:#0025FF"/>
	</linearGradient>
	<path class="st18" d="M90.8,123.2l0,4.6l-9.6-8.2l0-4.7L90.8,123.2z"/>
	<path class="st16" d="M141.6,131.1c0.1-0.4,0.2-0.7,0.4-1c0.1-0.2,0.2-0.3,0.3-0.4c0.1-0.1,0.3-0.3,0.4-0.4
		c0.3-0.2,0.7-0.4,1.2-0.4c0.2,0,0.5,0,0.7,0.1c0.2,0.1,0.4,0.2,0.6,0.2c0.3,0.2,0.4,0.2,0.6,0.3c0.2,0.1,0.4,0.1,0.6,0.1
		c0.1,0,0.2,0,0.4,0c0.1,0,0.3,0,0.4-0.1c0.3,0,0.6-0.1,1-0.2c0,0.2-0.1,0.4-0.2,0.5c-0.1,0.2-0.2,0.3-0.3,0.5
		c-0.2,0.3-0.5,0.5-0.8,0.7c-0.3,0.2-0.8,0.3-1.2,0.3c-0.2,0-0.5-0.1-0.7-0.1c-0.2-0.1-0.4-0.2-0.5-0.2c-0.3-0.1-0.3-0.2-0.5-0.2
		c-0.2,0-0.3,0-0.6,0c-0.2,0-0.5,0.1-0.8,0.2C142.3,130.9,142,131,141.6,131.1z"/>
	<path class="st16" d="M133.2,141.8c-0.4,0.2-0.9,0.3-1.5,0.3c-0.9,0-1.6-0.4-2.2-1c-0.6-0.6-0.8-1.4-0.8-2.3c0-0.9,0.3-1.7,0.8-2.3
		c0.6-0.6,1.3-0.8,2.2-0.8c0.5,0,1,0.2,1.4,0.4c0.4,0.3,0.8,0.6,1,1l3.2-1.8c-0.6-1-1.3-1.8-2.3-2.4c-1-0.6-2.1-0.9-3.2-1
		c-1.9-0.1-3.5,0.5-4.8,1.8c-1.3,1.3-1.9,2.9-1.9,4.8c0,1.7,0.5,3.2,1.5,4.5c0.8,1.1,1.9,1.8,3.2,2.3l0,1.3l3.6,1.2l0-2.3
		c1.7-0.4,3.1-1.3,3.9-2.8l-3.2-2C133.9,141.2,133.6,141.5,133.2,141.8z"/>
	
		<linearGradient id="SVGID_13_" gradientUnits="userSpaceOnUse" x1="96.6987" y1="115.6993" x2="97.0283" y2="125.1391" gradientTransform="matrix(0.9918 3.683000e-02 -1.818766e-03 1.0082 1.0782 -4.8519)">
		<stop  offset="0" style="stop-color:#00EBFC"/>
		<stop  offset="1" style="stop-color:#0025FF"/>
	</linearGradient>
	<path class="st19" d="M101.7,122l0-6.3l-3.4-0.1l0,7.8c0,0.9-0.5,1.3-1.4,1.3c-1,0-1.4-0.5-1.4-1.4l0-7.8l-3.4-0.1l0,8.2
		c0,0,0,0,0,0.1c1.1,0.8,2.4,1.2,3.9,1.3C98.3,125,100.4,123.8,101.7,122z"/>
</g>
<linearGradient id="SVGID_14_" gradientUnits="userSpaceOnUse" x1="40.2802" y1="289.5742" x2="74.3939" y2="184.583">
	<stop  offset="0" style="stop-color:#00EBFC"/>
	<stop  offset="1" style="stop-color:#0025FF"/>
</linearGradient>
<path class="st20" d="M16.7,250.9l36.5,42.8l12.7-1.2L92,229l16.8,5.7l22-31.8L16.7,170.1V250.9z M50.3,236.2l-28.4-30.6l36.7,12.2
	L50.3,236.2z"/>
<linearGradient id="SVGID_15_" gradientUnits="userSpaceOnUse" x1="14.5696" y1="174.4822" x2="119.6975" y2="225.7565">
	<stop  offset="0" style="stop-color:#00EBFC"/>
	<stop  offset="1" style="stop-color:#0025FF"/>
</linearGradient>
<polygon class="st21" points="16.7,203.8 108.9,234.7 130.8,202.9 16.7,170.1 "/>
<linearGradient id="SVGID_16_" gradientUnits="userSpaceOnUse" x1="163.66" y1="21.9754" x2="131.9902" y2="58.4074">
	<stop  offset="0" style="stop-color:#00EBFC"/>
	<stop  offset="1" style="stop-color:#0025FF"/>
</linearGradient>
<path class="st22" d="M185.3,40.8c-0.8-0.4-1.7-0.9-2.6-1.4l-37.9-24.3L102.4,11L93,24.5l72.7,46.6c6.4,4.1,12.9,6.6,19.6,7.5V40.8z
	"/>
<linearGradient id="SVGID_17_" gradientUnits="userSpaceOnUse" x1="125.3871" y1="5.4892" x2="127.5475" y2="67.3533">
	<stop  offset="0" style="stop-color:#00EBFC"/>
	<stop  offset="1" style="stop-color:#0025FF"/>
</linearGradient>
<path class="st23" d="M185.3,40.8c-0.8-0.4-1.7-0.9-2.6-1.4l-37.9-24.3L66.8,7.5l83.3,53.5c0.2,0.1,22.1,11.3,35.2-0.8V40.8z"/>
<path class="st16" d="M128.1,274.8l2.1-0.2l-0.1,1.3l-3.5,0.3l0.3-5.3l3.4-0.3l-0.1,1.3l-2.1,0.2l0,0.7l1.9-0.2l-0.1,1.3l-1.9,0.2
	L128.1,274.8z"/>
<path class="st16" d="M134.5,275.1c-0.4,0.4-0.9,0.6-1.6,0.7c-0.6,0.1-1.1-0.1-1.5-0.4c-0.4-0.3-0.6-0.7-0.5-1.3l0.2-3.6l1.4-0.1
	l-0.2,3.4c0,0.4,0.2,0.6,0.7,0.6c0.5,0,0.8-0.3,0.8-0.7l0.2-3.4l1.4-0.1l-0.2,3.6C135.1,274.2,134.9,274.7,134.5,275.1z"/>
<path class="st16" d="M138.9,275c-0.6,0.1-1,0-1.4-0.2c-0.4-0.2-0.6-0.5-0.7-0.9l1.2-0.8c0.2,0.5,0.5,0.7,1,0.6
	c0.4,0,0.6-0.2,0.7-0.4c0-0.2-0.1-0.3-0.3-0.3c-0.1,0-0.3-0.1-0.7-0.1c-0.5-0.1-0.9-0.3-1.1-0.5c-0.3-0.2-0.4-0.6-0.4-1
	c0-0.5,0.2-0.9,0.6-1.2c0.4-0.3,0.8-0.5,1.4-0.6c0.5,0,0.8,0,1.2,0.2c0.3,0.2,0.6,0.4,0.8,0.8l-1.2,0.8c-0.1-0.4-0.4-0.5-0.8-0.5
	c-0.2,0-0.3,0.1-0.4,0.1c-0.1,0.1-0.1,0.2-0.1,0.3c0,0.1,0,0.2,0.2,0.3c0.1,0.1,0.4,0.1,0.7,0.2c0.3,0.1,0.5,0.1,0.6,0.2
	c0.2,0,0.3,0.1,0.5,0.2c0.2,0.1,0.3,0.3,0.4,0.4c0.1,0.2,0.1,0.4,0.1,0.7c0,0.5-0.2,0.9-0.6,1.3C140,274.7,139.5,274.9,138.9,275z"
	/>
<path class="st16" d="M146.1,273.4c-0.6,0.6-1.3,0.9-2.1,1s-1.4-0.1-2-0.6c-0.5-0.5-0.8-1.1-0.7-1.9s0.4-1.5,0.9-2.1
	c0.6-0.6,1.3-0.9,2.1-1s1.4,0.1,2,0.6c0.5,0.5,0.8,1.1,0.7,1.9C147,272.1,146.7,272.8,146.1,273.4z M143.1,272.8
	c0.3,0.2,0.6,0.3,1,0.3s0.8-0.2,1.1-0.5c0.3-0.3,0.5-0.7,0.5-1.1s-0.1-0.8-0.4-1c-0.3-0.2-0.6-0.3-1-0.3s-0.8,0.2-1.1,0.5
	c-0.3,0.3-0.5,0.7-0.5,1.1S142.9,272.5,143.1,272.8z"/>
<path class="st16" d="M151,273c-0.4,0.4-0.9,0.6-1.6,0.7s-1.1-0.1-1.5-0.4c-0.4-0.3-0.6-0.7-0.5-1.3l0.2-3.6l1.4-0.1l-0.2,3.4
	c0,0.4,0.2,0.6,0.7,0.6c0.5,0,0.8-0.3,0.8-0.7l0.2-3.4l1.4-0.1l-0.2,3.6C151.7,272.1,151.5,272.6,151,273z"/>
<path class="st16" d="M158.2,271.9c-0.6,0.6-1.3,0.9-2.1,1s-1.4-0.1-2-0.6c-0.5-0.5-0.8-1.1-0.7-1.9s0.4-1.5,0.9-2.1
	c0.6-0.6,1.3-0.9,2.1-1s1.4,0.1,2,0.6c0.5,0.5,0.8,1.1,0.7,1.9S158.8,271.4,158.2,271.9z M155.2,271.3c0.3,0.2,0.6,0.3,1,0.3
	c0.4,0,0.8-0.2,1.1-0.5c0.3-0.3,0.5-0.7,0.5-1.1s-0.1-0.8-0.4-1c-0.3-0.2-0.6-0.3-1-0.3c-0.4,0-0.8,0.2-1.1,0.5
	c-0.3,0.3-0.5,0.7-0.5,1.1S155,271.1,155.2,271.3z"/>
<path class="st16" d="M166.4,266.5l-0.3,5.3l-1.4,0.1l0.2-2.9l-1.4,2.3l-0.1,0l-1.2-2l-0.2,2.9l-1.4,0.1l0.3-5.3l1.4-0.1l1.2,2.1
	l1.5-2.4L166.4,266.5z"/>
<path class="st16" d="M170.5,271.2l-0.2-0.7l-1.8,0.2l-0.3,0.8l-1.5,0.1l2-5.5l1.7-0.2l1.5,5.1L170.5,271.2z M168.9,269.5l1.1-0.1
	l-0.4-1.8L168.9,269.5z"/>
<path class="st16" d="M174.6,270.8c-0.8,0.1-1.5-0.1-2-0.6c-0.5-0.5-0.7-1.1-0.7-1.9c0-0.8,0.3-1.5,0.9-2.1c0.6-0.6,1.3-0.9,2.1-1
	c0.5,0,0.9,0,1.3,0.2c0.4,0.2,0.7,0.5,0.9,0.8l-1.2,0.8c-0.1-0.2-0.2-0.3-0.4-0.4c-0.2-0.1-0.4-0.1-0.7-0.1c-0.4,0-0.8,0.2-1.1,0.5
	c-0.3,0.3-0.4,0.7-0.5,1.1c0,0.4,0.1,0.8,0.3,1c0.3,0.2,0.6,0.3,1,0.3c0.3,0,0.5-0.1,0.7-0.2c0.2-0.1,0.4-0.3,0.5-0.5l1.2,0.6
	c-0.3,0.4-0.6,0.8-1,1S175.1,270.7,174.6,270.8z"/>
<linearGradient id="SVGID_18_" gradientUnits="userSpaceOnUse" x1="2.6534" y1="172.6154" x2="17.5631" y2="257.1725">
	<stop  offset="0" style="stop-color:#00EBFC"/>
	<stop  offset="1" style="stop-color:#0025FF"/>
</linearGradient>
<polyline class="st24" points="16.7,170.1 3.5,176.1 3.5,259.6 16.7,250.9 "/>
<linearGradient id="SVGID_19_" gradientUnits="userSpaceOnUse" x1="-3.9184" y1="200.879" x2="23.7893" y2="179.2314">
	<stop  offset="0" style="stop-color:#00EBFC"/>
	<stop  offset="1" style="stop-color:#0025FF"/>
</linearGradient>
<polyline class="st25" points="16.7,170.1 3.5,176.1 3.5,210.4 16.7,203.8 "/>
</svg>
