<?xml version="1.0" encoding="utf-8"?>
<!-- Generator: Adobe Illustrator 24.2.1, SVG Export Plug-In . SVG Version: 6.00 Build 0)  -->
<svg version="1.1" id="Camada_1" xmlns="http://www.w3.org/2000/svg" xmlns:xlink="http://www.w3.org/1999/xlink" x="0px" y="0px"
	 width="200px" height="79.4px" viewBox="0 0 200 79.4" style="enable-background:new 0 0 200 79.4;" xml:space="preserve">
<style type="text/css">
	.st0{fill:#FFFFFF;}
	.st1{fill:url(#SVGID_1_);}
	.st2{fill:url(#SVGID_2_);}
	.st3{fill:url(#SVGID_3_);}
	.st4{fill:url(#SVGID_4_);}
	.st5{fill:url(#SVGID_5_);}
	.st6{fill:url(#SVGID_6_);}
	.st7{fill:url(#SVGID_7_);}
	.st8{fill:url(#SVGID_8_);}
	.st9{fill:url(#SVGID_9_);}
	.st10{fill:url(#SVGID_10_);}
</style>
<g>
	<path class="st0" d="M44,12.6v2.6c0,3.2-1,5.8-3.1,7.9s-4.8,3.1-8.1,3.1c-3.5,0-6.3-1.1-8.6-3.3c-2.2-2.2-3.3-5-3.3-8.3
		s1.1-6.1,3.3-8.3s5-3.4,8.3-3.4c2.1,0,4,0.5,5.7,1.4s3.1,2.2,4.1,3.8L37,11.2c-0.9-1.4-2.3-2-4.3-2c-1.6,0-2.9,0.5-3.9,1.5
		s-1.5,2.3-1.5,4c0,1.5,0.5,2.9,1.4,4s2.3,1.7,4.2,1.7c2.2,0,3.7-0.8,4.4-2.4h-4.8v-5.4C32.5,12.6,44,12.6,44,12.6z"/>
	<path class="st0" d="M58.6,25.8l-0.8-2.9l-14.1,2.9l7.1-22.3h7.5l7.1,22.3H58.6z M52.7,17.8l3.6-0.6l-1.7-6.3L52.7,17.8z"/>
	<path class="st0" d="M73.1,18.7v7h-6.4V3.4h8.9c2.4,0,4.5,0.7,6.1,2.2s2.4,3.3,2.4,5.7c0,1.3-0.3,2.5-0.9,3.6s-1.5,1.9-2.5,2.6
		l4.4,8.3L73.1,18.7z M73.1,9.3v4.2h2.4c0.7,0,1.2-0.1,1.6-0.5s0.6-0.9,0.6-1.5s-0.2-1.2-0.6-1.5c-0.4-0.4-0.9-0.6-1.6-0.6L73.1,9.3
		L73.1,9.3z"/>
	<path class="st0" d="M100.2,25.8l-0.8-2.9l-14.1,2.9l7.1-22.3h7.5l7.1,22.3H100.2z M94.4,17.8l3.6-0.5l-1.7-6.4L94.4,17.8z"/>
	<path class="st0" d="M120.5,3.4h6.4v22.3l-12.1-10.2v10.2h-6.4V3.4l12.1,10.2V3.4z"/>
	<path class="st0" d="M145.7,3.4v6.2h-5.3v16.2H134V9.6h-5.3V3.4H145.7z"/>
	<path class="st0" d="M147.6,3.4h6.4v22.3h-6.4V3.4z"/>
	<path class="st0" d="M170.1,25.8l-0.8-2.9l-14.1,2.9l7.1-22.3h7.5l7.1,22.3H170.1z M164.3,17.8l3.5-0.6l-1.7-6.3L164.3,17.8z"/>
</g>
<linearGradient id="SVGID_1_" gradientUnits="userSpaceOnUse" x1="-2.4312" y1="252.2302" x2="34.3314" y2="286.5118" gradientTransform="matrix(1 0 0 1 0 -218)">
	<stop  offset="0" style="stop-color:#00EBFC"/>
	<stop  offset="1" style="stop-color:#0025FF"/>
</linearGradient>
<path class="st1" d="M37.5,42.9H26.3V77H12.8V42.9H1.7V29.8L37.5,42.9z"/>
<linearGradient id="SVGID_2_" gradientUnits="userSpaceOnUse" x1="16.319" y1="249.3365" x2="11.5265" y2="294.9337" gradientTransform="matrix(1 0 0 1 0 -218)">
	<stop  offset="0" style="stop-color:#00EBFC"/>
	<stop  offset="1" style="stop-color:#0025FF"/>
</linearGradient>
<path class="st2" d="M26.3,42.9V77H12.8V42.9L1.7,29.8L26.3,42.9z"/>
<linearGradient id="SVGID_3_" gradientUnits="userSpaceOnUse" x1="54.8023" y1="247.8979" x2="70.9983" y2="294.9347" gradientTransform="matrix(1 0 0 1 0 -218)">
	<stop  offset="0" style="stop-color:#00EBFC"/>
	<stop  offset="1" style="stop-color:#0025FF"/>
</linearGradient>
<path class="st3" d="M80.7,71c-4.8,4.8-10.8,7.1-17.8,7.1s-13-2.4-17.8-7.1s-7.3-10.6-7.3-17.6s2.4-12.8,7.3-17.6
	c4.8-4.7,10.8-7.1,17.8-7.1s13,2.4,17.8,7.1c4.8,4.8,7.3,10.6,7.3,17.6C87.9,60.4,85.5,66.3,80.7,71z M54.6,61.6
	c2.2,2.2,4.9,3.3,8.3,3.3c3.3,0,6.1-1.1,8.3-3.3s3.3-4.9,3.3-8.2s-1.1-6-3.3-8.2c-2.2-2.2-4.9-3.3-8.3-3.3c-3.3,0-6.1,1.1-8.3,3.3
	s-3.3,4.9-3.3,8.2S52.4,59.4,54.6,61.6z"/>
<linearGradient id="SVGID_4_" gradientUnits="userSpaceOnUse" x1="92.7401" y1="281.9293" x2="131.4306" y2="262.2155" gradientTransform="matrix(1 0 0 1 0 -218)">
	<stop  offset="0" style="stop-color:#00EBFC"/>
	<stop  offset="1" style="stop-color:#0025FF"/>
</linearGradient>
<path class="st4" d="M124,29.8v13.1h-11.1V77H99.4V42.9H88.2L124,29.8z"/>
<linearGradient id="SVGID_5_" gradientUnits="userSpaceOnUse" x1="95.9326" y1="277.213" x2="115.8044" y2="281.4369" gradientTransform="matrix(1 0 0 1 0 -218)">
	<stop  offset="0" style="stop-color:#00EBFC"/>
	<stop  offset="1" style="stop-color:#0025FF"/>
</linearGradient>
<path class="st5" d="M112.9,77H99.4V42.9L112.9,77z"/>
<linearGradient id="SVGID_6_" gradientUnits="userSpaceOnUse" x1="120.7" y1="271.35" x2="166.6" y2="271.35" gradientTransform="matrix(1 0 0 1 0 -218)">
	<stop  offset="0" style="stop-color:#00EBFC"/>
	<stop  offset="1" style="stop-color:#0025FF"/>
</linearGradient>
<path class="st6" d="M152.1,77l-1.6-6.1L120.7,77l15.1-47.3h15.8l15,47.3H152.1z M139.7,60.2l8.3-1.5l-4.4-13.1L139.7,60.2z"/>
<linearGradient id="SVGID_7_" gradientUnits="userSpaceOnUse" x1="135.7236" y1="271.35" x2="166.5859" y2="271.35" gradientTransform="matrix(1 0 0 1 0 -218)">
	<stop  offset="0" style="stop-color:#00EBFC"/>
	<stop  offset="1" style="stop-color:#0025FF"/>
</linearGradient>
<path class="st7" d="M152.1,77l-16.3-47.3h15.8l15,47.3H152.1z"/>
<linearGradient id="SVGID_8_" gradientUnits="userSpaceOnUse" x1="193.7691" y1="254.133" x2="169.9233" y2="295.4352" gradientTransform="matrix(1 0 0 1 0 -218)">
	<stop  offset="0" style="stop-color:#00EBFC"/>
	<stop  offset="1" style="stop-color:#0025FF"/>
</linearGradient>
<path class="st8" d="M182.8,63.9L198.3,77h-29V29.8h13.5V63.9z"/>
<linearGradient id="SVGID_9_" gradientUnits="userSpaceOnUse" x1="175.2444" y1="268.6685" x2="185.1846" y2="299.2614" gradientTransform="matrix(1 0 0 1 0 -218)">
	<stop  offset="0" style="stop-color:#00EBFC"/>
	<stop  offset="1" style="stop-color:#0025FF"/>
</linearGradient>
<path class="st9" d="M198.3,77h-29V52.6L198.3,77z"/>
<linearGradient id="SVGID_10_" gradientUnits="userSpaceOnUse" x1="37.8" y1="268.6" x2="83.2" y2="268.6" gradientTransform="matrix(1 0 0 1 0 -218)">
	<stop  offset="0" style="stop-color:#00EBFC"/>
	<stop  offset="1" style="stop-color:#0025FF"/>
</linearGradient>
<path class="st10" d="M83.2,38.7c-0.8-1-1.6-2-2.5-2.9c-4.8-4.7-10.8-7.1-17.8-7.1s-13,2.4-17.8,7.1c-4.8,4.8-7.3,10.6-7.3,17.6
	s2.4,12.8,7.3,17.6c0.6,0.5,1.1,1,1.7,1.5C66,72.4,81.7,57.6,83.2,38.7z M54.6,45.2c2.2-2.2,4.9-3.3,8.3-3.3c3.3,0,6.1,1.1,8.3,3.3
	s3.3,4.9,3.3,8.2s-1.1,6-3.3,8.2c-2.2,2.2-4.9,3.3-8.3,3.3c-3.3,0-6.1-1.1-8.3-3.3s-3.3-4.9-3.3-8.2C51.3,50.1,52.4,47.4,54.6,45.2z
	"/>
</svg>
