<?xml version="1.0" encoding="utf-8"?>
<!-- Generator: Adobe Illustrator 24.2.1, SVG Export Plug-In . SVG Version: 6.00 Build 0)  -->
<svg version="1.1" id="Camada_1" xmlns="http://www.w3.org/2000/svg" xmlns:xlink="http://www.w3.org/1999/xlink" x="0px" y="0px"
	 width="200px" height="200px" viewBox="0 0 200 200" style="enable-background:new 0 0 200 200;" xml:space="preserve">
<style type="text/css">
	.st0{fill:#FFFFFF;}
	.st1{fill:#7B7E8A;}
	.st2{fill:#F03232;}
	.st3{opacity:0.25;enable-background:new    ;}
	.st4{fill:#EFABA1;}
	.st5{opacity:5.000000e-02;enable-background:new    ;}
	.st6{fill:#2C191B;}
	.st7{opacity:0.64;}
	.st8{fill:#FF7C86;}
	.st9{fill:#F37378;}
	.st10{fill:#07060B;}
	.st11{fill:#191C1F;}
	.st12{fill:#02103F;}
</style>
<path class="st0" d="M100,199L100,199c-54.7,0-99-44.3-99-99l0,0C1,45.3,45.3,1,100,1l0,0c54.7,0,99,44.3,99,99l0,0
	C199,154.7,154.7,199,100,199z"/>
<path class="st1" d="M100,9.9c49.7,0,90.1,40.4,90.1,90.1s-40.4,90.1-90.1,90.1S9.9,149.7,9.9,100C9.9,50.3,50.3,9.9,100,9.9 M100,1
	L100,1C45.3,1,1,45.3,1,100l0,0c0,54.7,44.3,99,99,99l0,0c54.7,0,99-44.3,99-99l0,0C199,45.3,154.7,1,100,1L100,1z"/>
<path class="st2" d="M167,142.7c-7.2-10.2-31.6-18.7-31.6-18.7s-29.9-9.5-55.2-3c-25.3,6.6-26.5-2.3-41.8,27
	c-3.8,7.4-6.6,14.9-8.6,21.9c17.9,18,42.8,29.2,70.2,29.2l0,0c27,0,51.5-10.8,69.3-28.3C170.9,159,170.8,148.1,167,142.7z"/>
<path class="st3" d="M81.2,119.7c-1.2,0.3,3.7,0.7,2.6,1c0,0,7.6,0.5,0.3-0.7c0,0-16.1,20.1,2.2,26.9l0,0c3.7,0.7,5.2,0.8,9,0.7
	c34.2-0.7,43.9-22.2,43.9-22.2l0,0c-2.2-0.9-5.9-2-5.9-2S106.5,113.1,81.2,119.7z"/>
<path class="st3" d="M165.8,141.2c-0.3-0.3-0.6-0.7-1-1l-0.1-0.1c-0.2,0-27-3.5-39.5,34.2c-3.1,9.5-6.1,17.2-8.8,23.4
	c20.4-3.4,38.7-13.1,52.9-27c0.1-0.7,0.2-1.4,0.3-2.1c0-0.1,0-0.2,0-0.2c0.1-0.6,0.1-1.3,0.2-1.9c0-0.1,0-0.3,0-0.4
	c0.1-0.6,0.1-1.1,0.2-1.7c0-0.2,0-0.3,0-0.5c0-0.5,0.1-1,0.1-1.5c0-0.2,0-0.4,0-0.6c0-0.5,0-1,0.1-1.4c0-0.2,0-0.4,0-0.6
	c0-0.4,0-0.9,0-1.3c0-0.2,0-0.4,0-0.7c0-0.4,0-0.8,0-1.2c0-0.2,0-0.5,0-0.7c0-0.4,0-0.8-0.1-1.1c0-0.2,0-0.5,0-0.7
	c0-0.4-0.1-0.7-0.1-1.1c0-0.2,0-0.5-0.1-0.7c0-0.3-0.1-0.7-0.1-1c0-0.2-0.1-0.4-0.1-0.7s-0.1-0.6-0.2-0.9c0-0.2-0.1-0.4-0.1-0.6
	c-0.1-0.3-0.1-0.6-0.2-0.9c0-0.2-0.1-0.4-0.2-0.6c-0.1-0.3-0.2-0.6-0.3-0.8s-0.1-0.4-0.2-0.6c-0.1-0.3-0.2-0.5-0.3-0.8
	c-0.1-0.2-0.1-0.3-0.2-0.5c-0.1-0.3-0.3-0.5-0.4-0.8c-0.1-0.1-0.1-0.3-0.2-0.4c-0.2-0.4-0.4-0.7-0.7-1c-0.3-0.4-0.6-0.8-0.9-1.2
	C165.9,141.4,165.8,141.3,165.8,141.2z"/>
<path class="st3" d="M54,184.6c0.1-1.1,0.1-2.1,0.2-3.2c0.1-2.1,0.3-4.2,0.5-6.3c0.4-4.2,0.9-8.4,1.5-12.6c0.6-4.2,1.3-8.4,1.9-12.7
	c-0.5,1-0.9,1.9-1.4,2.9c-0.4,1-0.8,2-1.2,3c-0.7,2-1.4,4.1-1.9,6.2c-1.1,4.2-1.9,8.5-2.3,12.8c-0.1,1.1-0.2,2.2-0.2,3.2
	c0,1.1-0.1,2.2-0.1,3.3c0,1.6,0,3.2,0.2,4.8c0.9,0.5,1.8,1,2.7,1.5c0-0.5,0-1,0-1.4C54,185.7,54,185.2,54,184.6z"/>
<g>
	<path class="st4" d="M120.3,93c0,0-3.4,19.5,1.2,23.4s12.9,7.6,12.9,7.6s-12.5,16.1-30.4,18.7c-15.8,2.3-22.5,0.3-21.8-5.3
		c0.7-5.6,0.3-21.4-2-29.3S110.9,86.3,120.3,93z"/>
	<path class="st5" d="M119.2,103.6c0.3-5.5,1.2-10.6,1.2-10.6c-9.5-6.6-42.5,7.3-40.2,15.2c0.9,3,1.5,7.3,1.8,11.6
		C88.5,124.1,100.8,126,119.2,103.6z"/>
</g>
<path class="st6" d="M70.3,81.5c0,0-1.6-32.2-1.3-40.1c0.3-7.9,3.9-13.2,12.6-16.1s21.4-3.9,28.8-3s17.2,5.6,19.4,14.5
	s1.9,32.9,0,39.1c-1.9,6.2-12.3,13.5-12.3,13.5L70.3,81.5z"/>
<path class="st4" d="M118.5,93.7c0,0-7.8,14.8-16.8,18.7c-8.5,3.7-16.8,4.3-22.7-4.3c-5.8-8.5-9.1-14.1-8.7-24
	c0.3-9.9,1.3-33.2,2.3-34.5s8.7-9.2,14.6-8.2c5.8,1,22.7,8.2,24,10.2s-1.6,6.2,1.3,10.9S117,73,117.7,76s1,9.2,1,9.5
	s1.6-9.5,5.2-11.8s6.5-3.3,7.1,0.7c0.6,3.9-1.3,11.2-3.9,13.8C124.4,90.7,121.1,95.7,118.5,93.7z"/>
<g class="st7">
	<path class="st8" d="M96.3,99.3c0,0-1.3,4.6-8.2,5.3c-6.9,0.7-7.6-4.6-9.5-5.6C78.5,99,92.3,98.6,96.3,99.3z"/>
	<path class="st9" d="M96.3,99.3c0,0-4.9-2.6-7.2-3c-2.3-0.3-3,0-3,0s-4.3-0.7-7.6,2.6C80.2,99.6,94,99.9,96.3,99.3z"/>
</g>
<g>
	<g>
		<g>
			<path class="st6" d="M91,65.4c0,0,0,3.3,3,3s8.5-3.9,16.8,2.6C110.1,69,106.5,59.8,91,65.4z"/>
		</g>
		<g>
			<path class="st6" d="M82.8,65.4c0,0,0.7,2.6-1.3,2.6c-1.4,0-6.3-1.3-10.2-0.1c-0.4,0.1-1.7-1.2,0-2.4C73.5,64,77,63.2,82.8,65.4z
				"/>
		</g>
	</g>
</g>
<g>
	<path class="st0" d="M94.3,73.1c0,0,2-3.1,5.9-3.1s5.6,2.7,5.6,2.7s-2,3.4-7.2,1.5C95.3,73.1,94.3,73.1,94.3,73.1z"/>
	<path class="st10" d="M103.8,71.6c0-0.3,0-0.6-0.1-0.8c-0.9-0.4-2-0.8-3.5-0.8c-0.3,0-0.6,0-0.9,0.1c-0.3,0.4-0.5,1-0.5,1.6
		c0,1.5,1.1,2.7,2.5,2.7S103.8,73.1,103.8,71.6z"/>
	<path class="st0" d="M82.8,72.3c0,0-4.9-5.3-10.2,1C74.6,74.3,80.8,75.9,82.8,72.3z"/>
	<path class="st11" d="M76.2,70.6c-0.2,0.4-0.3,0.8-0.3,1.2c0,1.4,1.1,2.5,2.5,2.5s2.5-1.1,2.5-2.5c0-0.4-0.1-0.7-0.2-1
		C79.5,70.3,77.9,70,76.2,70.6z"/>
	<circle class="st0" cx="77.4" cy="71.5" r="0.5"/>
	<circle class="st0" cx="100.1" cy="71.5" r="0.5"/>
</g>
<path class="st5" d="M83.5,66.1c2.3,3.1,2.9,7.4,1.7,11.2l-0.5,1.4L84,80c-0.4,0.9-0.9,1.7-1.3,2.5s-0.9,1.7-1.3,2.5
	s-0.8,1.7-0.9,2.5c-0.1,0.4,0,0.7,0.1,1c0.1,0.2,0.4,0.5,0.8,0.6c0.7,0.3,1.7,0.5,2.6,0.7c1.8,0.3,3.7,0.3,5.5,0
	c0.9-0.2,1.8-0.4,2.6-0.8c0.4-0.2,0.8-0.4,1.1-0.7c0.3-0.3,0.5-0.6,0.6-1s-0.1-0.8-0.3-1.2c-0.2-0.4-0.5-0.8-0.7-1.2
	c-0.2-0.4-0.5-0.8-0.7-1.3c-0.1-0.2-0.2-0.4-0.3-0.7c0-0.1-0.1-0.2-0.1-0.3c0-0.1,0-0.1-0.1-0.2c0-0.1,0-0.1,0-0.2c0,0,0,0.1,0,0.2
	s0,0.1,0.1,0.2s0.1,0.2,0.2,0.3c0.1,0.2,0.2,0.4,0.4,0.6c0.3,0.4,0.5,0.8,0.8,1.2c0.3,0.4,0.5,0.8,0.8,1.2c0.3,0.4,0.5,0.9,0.5,1.5
	s-0.3,1.1-0.6,1.5c-0.4,0.4-0.8,0.7-1.2,1c-0.9,0.5-1.8,0.8-2.8,1.1c-1,0.2-1.9,0.4-2.9,0.4s-2,0-3-0.1c-0.5-0.1-1-0.2-1.5-0.3
	c-0.5-0.1-1-0.3-1.5-0.5s-1-0.6-1.4-1.2c-0.2-0.3-0.3-0.6-0.3-0.9s0-0.6,0-0.9c0.1-0.6,0.3-1,0.4-1.5c0.2-0.5,0.4-0.9,0.6-1.4
	c0.4-0.9,0.9-1.7,1.3-2.6c0.5-0.8,0.9-1.7,1.4-2.5l0.6-1.2L84,77c0.6-1.7,0.9-3.6,0.8-5.5c0-0.5-0.1-0.9-0.1-1.4
	c-0.1-0.5-0.2-0.9-0.3-1.4c-0.1-0.2-0.1-0.5-0.2-0.7S84,67.6,84,67.3C83.9,66.9,83.7,66.5,83.5,66.1z"/>
<circle class="st12" cx="120.3" cy="91.1" r="1.6"/>
</svg>
