<?xml version="1.0" encoding="utf-8"?>
<!-- Generator: Adobe Illustrator 24.2.1, SVG Export Plug-In . SVG Version: 6.00 Build 0)  -->
<svg version="1.1" id="Camada_1" xmlns="http://www.w3.org/2000/svg" xmlns:xlink="http://www.w3.org/1999/xlink" x="0px" y="0px"
	 width="200px" height="200px" viewBox="0 0 200 200" style="enable-background:new 0 0 200 200;" xml:space="preserve">
<style type="text/css">
	.st0{fill:url(#SVGID_1_);}
	.st1{fill:#FFFFFF;}
	.st2{fill:url(#SVGID_2_);}
	.st3{fill:url(#SVGID_3_);}
</style>
<linearGradient id="SVGID_1_" gradientUnits="userSpaceOnUse" x1="193.9863" y1="144.0429" x2="123.0918" y2="144.0429">
	<stop  offset="0" style="stop-color:#00EBFC"/>
	<stop  offset="1" style="stop-color:#0025FF"/>
</linearGradient>
<path class="st0" d="M166.8,137.6c-0.1,0-0.2-0.1-0.3-0.2c-0.1-0.1-0.2-0.1-0.2-0.2l3-11.1c1.7,1.4,2.7,3.9,2.8,7.5l21.9-5.1
	c-1.9-11.2-8.3-19-19.1-23.3l2.8-10.5l-7.8-2.1l-2.8,10.4l-0.1,0c-7.5-1.4-14.2-0.5-20.1,2.8c-5.8,3.3-9.7,8.5-11.7,15.6
	c-1,3.6-1.3,6.9-0.9,9.8c0.4,3,1.5,5.8,3.4,8.3c1.9,2.5,3.9,4.8,6.2,6.8c2.3,2,5.3,4.2,9,6.8l0.4,0.2l-2.9,10.6
	c-3.4-2-5-5.5-4.9-10.3l-22.6,5.3c0.3,5.8,2.3,11,6.1,15.5c3.8,4.5,9.1,7.9,15.7,10.2l0.1,0l-2.3,8.7l7.8,2.1l2.4-8.8
	c7.8,1.4,14.6,0.5,20.3-2.6c5.7-3.1,9.6-8.3,11.5-15.5c2.1-7.7,0.6-14.4-4.5-20.1C178.1,146,173.7,142.4,166.8,137.6z M156.6,127
	c0.6-2.2,2.2-3.4,4.9-3.5l-2.3,8.6C157,130.4,156.1,128.7,156.6,127z M163.3,163.2c-0.6,2.1-2.2,3.1-4.9,3l2.1-7.9
	C162.8,160,163.8,161.7,163.3,163.2z"/>
<circle class="st1" cx="27.1" cy="26.4" r="7.4"/>
<g>
	<path class="st1" d="M32.9,33.4c-1.6,1.3-3.6,2.1-5.8,2.1s-4.2-0.8-5.8-2.1c-3.3,1-5.7,4.1-5.7,7.7v4.5c0,1.1,0.9,2,2,2h18.9
		c1.1,0,2-0.9,2-2v-4.5C38.6,37.5,36.2,34.4,32.9,33.4z"/>
</g>
<circle class="st1" cx="58.6" cy="17.2" r="7.4"/>
<g>
	<path class="st1" d="M64.4,24.2c-1.6,1.3-3.6,2.1-5.8,2.1s-4.2-0.8-5.8-2.1c-3.3,1-5.7,4.1-5.7,7.7v4.5c0,1.1,0.9,2,2,2h18.9
		c1.1,0,2-0.9,2-2V32C70.1,28.3,67.7,25.3,64.4,24.2z"/>
</g>
<circle class="st1" cx="83.8" cy="36.5" r="7.4"/>
<g>
	<path class="st1" d="M89.6,43.5c-1.6,1.3-3.6,2.1-5.8,2.1s-4.2-0.8-5.8-2.1c-3.3,1-5.7,4.1-5.7,7.7v4.5c0,1.1,0.9,2,2,2h18.9
		c1.1,0,2-0.9,2-2v-4.5C95.3,47.6,92.9,44.6,89.6,43.5z"/>
</g>
<circle class="st1" cx="56.8" cy="55.1" r="7.4"/>
<g>
	<path class="st1" d="M62.5,62.2c-1.6,1.3-3.6,2.1-5.8,2.1s-4.2-0.8-5.8-2.1c-3.3,1-5.7,4.1-5.7,7.7v4.5c0,1.1,0.9,2,2,2h18.9
		c1.1,0,2-0.9,2-2v-4.5C68.2,66.3,65.8,63.2,62.5,62.2z"/>
</g>
<circle class="st1" cx="20.9" cy="69.5" r="7.4"/>
<g>
	<path class="st1" d="M26.7,76.6c-1.6,1.3-3.6,2.1-5.8,2.1s-4.2-0.8-5.8-2.1c-3.3,1-5.7,4.1-5.7,7.7v4.5c0,1.1,0.9,2,2,2h18.9
		c1.1,0,2-0.9,2-2v-4.5C32.4,80.7,30,77.6,26.7,76.6z"/>
</g>
<circle class="st1" cx="51.2" cy="94.8" r="7.4"/>
<g>
	<path class="st1" d="M57,101.9c-1.6,1.3-3.6,2.1-5.8,2.1s-4.2-0.8-5.8-2.1c-3.3,1-5.7,4.1-5.7,7.7v4.5c0,1.1,0.9,2,2,2h18.9
		c1.1,0,2-0.9,2-2v-4.5C62.7,106,60.3,102.9,57,101.9z"/>
</g>
<circle class="st1" cx="83.8" cy="78.6" r="7.4"/>
<g>
	<path class="st1" d="M89.6,85.7C88,87,86,87.8,83.8,87.8S79.6,87,78,85.7c-3.3,1-5.7,4.1-5.7,7.7V98c0,1.1,0.9,2,2,2h18.9
		c1.1,0,2-0.9,2-2v-4.5C95.3,89.8,92.9,86.7,89.6,85.7z"/>
</g>
<circle class="st1" cx="114.9" cy="57.5" r="7.4"/>
<g>
	<path class="st1" d="M120.7,64.5c-1.6,1.3-3.6,2.1-5.8,2.1s-4.2-0.8-5.8-2.1c-3.3,1-5.7,4.1-5.7,7.7v4.5c0,1.1,0.9,2,2,2h18.9
		c1.1,0,2-0.9,2-2v-4.5C126.4,68.6,124,65.6,120.7,64.5z"/>
</g>
<circle class="st1" cx="111.5" cy="19.4" r="7.4"/>
<g>
	<path class="st1" d="M117.3,26.4c-1.6,1.3-3.6,2.1-5.8,2.1s-4.2-0.8-5.8-2.1c-3.3,1-5.7,4.1-5.7,7.7v4.5c0,1.1,0.9,2,2,2h18.9
		c1.1,0,2-0.9,2-2v-4.5C122.9,30.5,120.5,27.5,117.3,26.4z"/>
</g>
<circle class="st1" cx="143.9" cy="36.6" r="7.4"/>
<g>
	<path class="st1" d="M149.7,43.6c-1.6,1.3-3.6,2.1-5.8,2.1s-4.2-0.8-5.8-2.1c-3.3,1-5.7,4.1-5.7,7.7v4.5c0,1.1,0.9,2,2,2h18.9
		c1.1,0,2-0.9,2-2v-4.5C155.4,47.7,153,44.6,149.7,43.6z"/>
</g>
<path class="st1" d="M114.1,169.2l-14.3-14.5c-1-1-2.6-1-3.5,0c-1,1-1,2.6,0,3.5l9.4,9.5c-8.3,2.1-15.7,1.2-22-2.6
	c-13.5-8.3-18.6-28.1-20-34.9c-0.3-1.3-1.5-2.2-2.8-2c-1.4,0.2-2.4,1.6-2.1,3c1.5,7.4,7.1,28.7,22.3,38.1c4.9,3,10.3,4.5,16.1,4.5
	c3.1,0,6.4-0.4,9.8-1.3l-8.3,12.1c-0.8,1.1-0.5,2.7,0.6,3.5h0c1.1,0.8,2.7,0.5,3.5-0.6l11.5-16.8
	C114.5,170.3,114.5,169.6,114.1,169.2z"/>
<linearGradient id="SVGID_2_" gradientUnits="userSpaceOnUse" x1="193.2258" y1="125.0623" x2="118.7236" y2="145.0251">
	<stop  offset="0" style="stop-color:#00EBFC"/>
	<stop  offset="1" style="stop-color:#0025FF"/>
</linearGradient>
<path class="st2" d="M172.1,133.6l21.9-5.1c-1.9-11.2-8.3-19-19.1-23.3l2.8-10.5l-7.8-2.1l-2.8,10.4l-0.1,0
	c-7.5-1.4-14.2-0.5-20.1,2.8c-5.8,3.3-9.7,8.5-11.7,15.6c-1,3.6-1.3,6.9-0.9,9.8c0.4,3,1.5,5.8,3.4,8.3c1.9,2.5,3.9,4.8,6.2,6.8
	c2.3,2,5.3,4.2,9,6.8l0.4,0.2l-2.9,10.6c-3.4-2-5-5.5-4.9-10.3l-22.6,5.3c0.2,4.4,1.4,8.5,3.7,12.1c6.1,2.1,12.6,3.2,19.3,3.2
	c15.1,0,28.9-5.6,39.4-14.9c-0.5-4-2.3-7.6-5.2-10.9c-2.1-2.4-6.5-6-13.4-10.8c-0.1,0-0.2-0.1-0.3-0.2c-0.1-0.1-0.2-0.1-0.2-0.2
	l3-11.1C171,127.6,171.9,130.1,172.1,133.6z M156.6,127c0.6-2.2,2.2-3.4,4.9-3.5l-2.3,8.6C157,130.4,156.1,128.7,156.6,127z
	 M163.3,163.2c-0.6,2.1-2.2,3.1-4.9,3l2.1-7.9C162.8,160,163.8,161.7,163.3,163.2z"/>
<linearGradient id="SVGID_3_" gradientUnits="userSpaceOnUse" x1="171.997" y1="112.584" x2="144.0702" y2="178.3756">
	<stop  offset="0" style="stop-color:#00EBFC"/>
	<stop  offset="1" style="stop-color:#0025FF"/>
</linearGradient>
<path class="st3" d="M185.4,159.4c-0.5-4-2.3-7.6-5.2-10.9c-2.1-2.4-6.5-6-13.4-10.8c-0.1,0-0.2-0.1-0.3-0.2
	c-0.1-0.1-0.2-0.1-0.2-0.2l3-11.1c1.7,1.4,2.7,3.9,2.8,7.5l14.7-3.4c-8.2-12.9-21.2-22.4-36.5-25.9c-1.1,0.4-2.2,0.9-3.2,1.5
	c-5.8,3.3-9.7,8.5-11.7,15.6c-1,3.6-1.3,6.9-0.9,9.8c0.4,3,1.5,5.8,3.4,8.3c1.9,2.5,3.9,4.8,6.2,6.8c2.3,2,5.3,4.2,9,6.8l0.4,0.2
	l-2.9,10.6c-3.4-2-5-5.5-4.9-10.3l-22.6,5.3c0.2,4.4,1.4,8.5,3.7,12.1c6.1,2.1,12.6,3.2,19.3,3.2
	C161.2,174.2,174.9,168.6,185.4,159.4z M163.3,163.2c-0.6,2.1-2.2,3.1-4.9,3l2.1-7.9C162.8,160,163.8,161.7,163.3,163.2z M156.6,127
	c0.6-2.2,2.2-3.4,4.9-3.5l-2.3,8.6C157,130.4,156.1,128.7,156.6,127z"/>
</svg>
