<?xml version="1.0" encoding="utf-8"?>
<!-- Generator: Adobe Illustrator 24.2.1, SVG Export Plug-In . SVG Version: 6.00 Build 0)  -->
<svg version="1.1" id="Camada_1" xmlns="http://www.w3.org/2000/svg" xmlns:xlink="http://www.w3.org/1999/xlink" x="0px" y="0px"
	 width="200px" height="74px" viewBox="0 0 200 74" style="enable-background:new 0 0 200 74;" xml:space="preserve">
<style type="text/css">
	.st0{fill:#02103F;}
	.st1{fill:url(#SVGID_1_);}
	.st2{fill:url(#SVGID_2_);}
	.st3{fill:url(#SVGID_3_);}
	.st4{fill:url(#SVGID_4_);}
	.st5{fill:url(#SVGID_5_);}
	.st6{fill:url(#SVGID_6_);}
	.st7{fill:url(#SVGID_7_);}
	.st8{fill:url(#SVGID_8_);}
	.st9{fill:url(#SVGID_9_);}
	.st10{fill:url(#SVGID_10_);}
	.st11{fill:url(#SVGID_11_);}
	.st12{fill:url(#SVGID_12_);}
</style>
<path class="st0" d="M22.3,2.4v19.9h-5.4v-7l-4.5,3.8L8,15.3v7H2.5V2.4l9.9,8.1L22.3,2.4z"/>
<path class="st0" d="M41.8,19.4c-1.9,1.9-4.3,2.9-7.1,2.9c-2.8,0-5.2-1-7.1-2.9c-1.9-1.9-2.9-4.3-2.9-7.1c0-2.8,1-5.2,2.9-7.1
	c1.9-1.9,4.3-2.9,7.1-2.9c2.8,0,5.2,1,7.1,2.9c1.9,1.9,2.9,4.3,2.9,7.1C44.7,15.1,43.8,17.5,41.8,19.4z M31.3,15.6
	c0.9,0.9,2,1.3,3.3,1.3c1.3,0,2.4-0.4,3.3-1.3c0.9-0.9,1.3-2,1.3-3.3c0-1.3-0.4-2.4-1.3-3.3c-0.9-0.9-2-1.3-3.3-1.3
	c-1.3,0-2.4,0.4-3.3,1.3c-0.9,0.9-1.3,2-1.3,3.3C30,13.7,30.5,14.8,31.3,15.6z"/>
<path class="st0" d="M57.3,2.4h5.4v19.9l-10.3-8.5v8.5H47V2.4l10.3,8.2L57.3,2.4z"/>
<linearGradient id="SVGID_1_" gradientUnits="userSpaceOnUse" x1="58.9331" y1="73.8707" x2="76.0666" y2="24.1114">
	<stop  offset="0" style="stop-color:#00EBFC"/>
	<stop  offset="1" style="stop-color:#0025FF"/>
</linearGradient>
<path class="st1" d="M72.7,27h11.6V71L62.3,52.2V71H50.6V27l22.1,18.2L72.7,27z"/>
<linearGradient id="SVGID_2_" gradientUnits="userSpaceOnUse" x1="79.4523" y1="43.6694" x2="55.9207" y2="54.1464">
	<stop  offset="0" style="stop-color:#00EBFC"/>
	<stop  offset="1" style="stop-color:#0025FF"/>
</linearGradient>
<path class="st2" d="M84.4,54.7V71L50.6,42.3V27L84.4,54.7z"/>
<linearGradient id="SVGID_3_" gradientUnits="userSpaceOnUse" x1="166.7318" y1="48.9911" x2="133.0232" y2="48.9911">
	<stop  offset="0" style="stop-color:#00EBFC"/>
	<stop  offset="1" style="stop-color:#0025FF"/>
</linearGradient>
<path class="st3" d="M155.1,27h11.6V71l-22.1-18.8V71H133V27l22.1,18.2L155.1,27z"/>
<linearGradient id="SVGID_4_" gradientUnits="userSpaceOnUse" x1="144.307" y1="24.36" x2="155.6683" y2="73.5713">
	<stop  offset="0" style="stop-color:#00EBFC"/>
	<stop  offset="1" style="stop-color:#0025FF"/>
</linearGradient>
<path class="st4" d="M166.7,54.7V71L133,42.3V27L166.7,54.7z"/>
<path class="st0" d="M70.4,16.6h7.1v5.7H65V2.4h12.5v5.7h-7.1v1.4h4.3v5.7h-4.3V16.6z"/>
<linearGradient id="SVGID_5_" gradientUnits="userSpaceOnUse" x1="201.844" y1="30.6772" x2="166.4729" y2="67.305">
	<stop  offset="0" style="stop-color:#00EBFC"/>
	<stop  offset="1" style="stop-color:#0025FF"/>
</linearGradient>
<path class="st5" d="M182.4,58.4H198V71h-27.7V27H198v12.6h-15.6v3.1h9.5v12.6h-9.5V58.4z"/>
<linearGradient id="SVGID_6_" gradientUnits="userSpaceOnUse" x1="162.5064" y1="64.9148" x2="184.4147" y2="36.8734">
	<stop  offset="0" style="stop-color:#00EBFC"/>
	<stop  offset="1" style="stop-color:#0025FF"/>
</linearGradient>
<path class="st6" d="M182.4,58.4l-12,12.6V27l12,12.6v3.1h9.5v12.6h-9.5V58.4z"/>
<path class="st0" d="M94.1,2.4v5.7h-4.5v14.2h-5.4V8.1h-4.5V2.4H94.1z"/>
<path class="st0" d="M96.4,2.4h5.4v19.9h-5.4V2.4z"/>
<path class="st0" d="M112,16.6h5.6v5.7h-13.4l5.3-14.2h-5.3V2.4h13.4L112,16.6z"/>
<path class="st0" d="M132.4,22.3l-0.7-2.6l-12,2.6l6-19.9h6.3l6,19.9H132.4z M127.4,15.2l3-0.5L129,9.1L127.4,15.2z"/>
<path class="st0" d="M166.4,2.4c2.6,0,4.8,1,6.6,2.9c1.8,1.9,2.6,4.3,2.6,7.1c0,2.8-0.9,5.2-2.6,7.1c-1.8,1.9-4,2.9-6.6,2.9h-7.9
	V2.4H166.4z M166.4,16.8c1.1,0,2-0.4,2.7-1.2c0.7-0.8,1.1-1.9,1.1-3.2c0-1.3-0.4-2.4-1.1-3.2c-0.7-0.8-1.6-1.2-2.7-1.2h-2.2v8.8
	H166.4z"/>
<path class="st0" d="M195.1,19.4c-1.9,1.9-4.3,2.9-7.1,2.9c-2.8,0-5.2-1-7.1-2.9c-1.9-1.9-2.9-4.3-2.9-7.1c0-2.8,1-5.2,2.9-7.1
	c1.9-1.9,4.3-2.9,7.1-2.9c2.8,0,5.2,1,7.1,2.9c1.9,1.9,2.9,4.3,2.9,7.1C198,15.1,197,17.5,195.1,19.4z M184.6,15.6
	c0.9,0.9,2,1.3,3.3,1.3c1.3,0,2.4-0.4,3.3-1.3c0.9-0.9,1.3-2,1.3-3.3c0-1.3-0.4-2.4-1.3-3.3c-0.9-0.9-2-1.3-3.3-1.3
	c-1.3,0-2.4,0.4-3.3,1.3c-0.9,0.9-1.3,2-1.3,3.3C183.3,13.7,183.7,14.8,184.6,15.6z"/>
<linearGradient id="SVGID_7_" gradientUnits="userSpaceOnUse" x1="13.2756" y1="68.0601" x2="36.191" y2="29.9225">
	<stop  offset="0" style="stop-color:#00EBFC"/>
	<stop  offset="1" style="stop-color:#0025FF"/>
</linearGradient>
<path class="st7" d="M40.6,64.7C36.3,68.9,31,71,24.7,71s-11.5-2.1-15.9-6.3C4.6,60.4,2.4,55.2,2.4,49c0-6.2,2.2-11.4,6.5-15.7
	c4.3-4.2,9.6-6.3,15.9-6.3s11.5,2.1,15.9,6.3c4.3,4.2,6.5,9.5,6.5,15.7C47.1,55.2,44.9,60.4,40.6,64.7z M17.4,56.3
	c1.9,1.9,4.4,2.9,7.4,2.9c3,0,5.4-1,7.4-2.9c1.9-1.9,2.9-4.4,2.9-7.3c0-2.9-1-5.4-2.9-7.3c-1.9-1.9-4.4-2.9-7.4-2.9
	c-3,0-5.4,1-7.4,2.9c-1.9,1.9-2.9,4.4-2.9,7.3C14.4,51.9,15.4,54.4,17.4,56.3z"/>
<linearGradient id="SVGID_8_" gradientUnits="userSpaceOnUse" x1="92.9545" y1="26.0807" x2="101.2682" y2="73.2297">
	<stop  offset="0" style="stop-color:#00EBFC"/>
	<stop  offset="1" style="stop-color:#0025FF"/>
</linearGradient>
<path class="st8" d="M100,58.8L113.8,71H87.9V27h12V58.8z"/>
<linearGradient id="SVGID_9_" gradientUnits="userSpaceOnUse" x1="87.9392" y1="59.6277" x2="113.8168" y2="59.6277">
	<stop  offset="0" style="stop-color:#00EBFC"/>
	<stop  offset="1" style="stop-color:#0025FF"/>
</linearGradient>
<path class="st9" d="M113.8,71H87.9V48.2L113.8,71z"/>
<linearGradient id="SVGID_10_" gradientUnits="userSpaceOnUse" x1="116.372" y1="27.2997" x2="130.468" y2="70.6825">
	<stop  offset="0" style="stop-color:#00EBFC"/>
	<stop  offset="1" style="stop-color:#0025FF"/>
</linearGradient>
<path class="st10" d="M117.4,27h12V71h-12V27z"/>
<linearGradient id="SVGID_11_" gradientUnits="userSpaceOnUse" x1="113.7146" y1="52.0474" x2="133.5636" y2="48.1891">
	<stop  offset="0" style="stop-color:#00EBFC"/>
	<stop  offset="1" style="stop-color:#0025FF"/>
</linearGradient>
<path class="st11" d="M129.4,27V71h-12L129.4,27z"/>
<path class="st0" d="M150.8,2.4h5.4v19.9l-10.3-8.5v8.5h-5.4V2.4l10.3,8.2L150.8,2.4z"/>
<linearGradient id="SVGID_12_" gradientUnits="userSpaceOnUse" x1="20.3444" y1="27.1017" x2="21.5853" y2="62.6365">
	<stop  offset="0" style="stop-color:#00EBFC"/>
	<stop  offset="1" style="stop-color:#0025FF"/>
</linearGradient>
<path class="st12" d="M8.9,33.3C4.6,37.5,2.4,42.8,2.4,49c0,4.3,1,8.1,3,11.4c3.1,1.6,6.7,2.4,10.4,2.4c13,0,23.6-10.6,23.6-23.6
	c0-2.8-0.5-5.6-1.4-8.1c-3.8-2.8-8.2-4.2-13.3-4.2C18.5,27,13.2,29.1,8.9,33.3z M35,49c0,2.9-1,5.4-2.9,7.3
	c-1.9,1.9-4.4,2.9-7.4,2.9c-3,0-5.4-1-7.4-2.9c-1.9-1.9-2.9-4.4-2.9-7.3c0-2.9,1-5.4,2.9-7.3c1.9-1.9,4.4-2.9,7.4-2.9
	c3,0,5.4,1,7.4,2.9C34.1,43.6,35,46.1,35,49z"/>
</svg>
