<?xml version="1.0" encoding="utf-8"?>
<!-- Generator: Adobe Illustrator 24.2.1, SVG Export Plug-In . SVG Version: 6.00 Build 0)  -->
<svg version="1.1" id="Camada_1" xmlns="http://www.w3.org/2000/svg" xmlns:xlink="http://www.w3.org/1999/xlink" x="0px" y="0px"
	 width="200px" height="200px" viewBox="0 0 200 200" style="enable-background:new 0 0 200 200;" xml:space="preserve">
<style type="text/css">
	.st0{fill:url(#SVGID_1_);}
	.st1{fill:url(#SVGID_2_);}
</style>
<g>
	<linearGradient id="SVGID_1_" gradientUnits="userSpaceOnUse" x1="21.6434" y1="100.3139" x2="178.1588" y2="100.3139">
		<stop  offset="0" style="stop-color:#00EBFC"/>
		<stop  offset="1" style="stop-color:#0025FF"/>
	</linearGradient>
	<path class="st0" d="M42.7,165.1l50.2-75.5c0.9-1.4,2.1-3.3,3.9-5.8c1.7-2.5,2.9-4.2,3.5-5.2c0.7-1,1.5-2.4,2.6-4.1
		c1.1-1.7,1.8-3.1,2.1-4.2c0.3-1,0.6-2.2,0.8-3.4c0.3-1.2,0.3-2.5,0.1-3.7c-0.5-3-2-5.4-4.4-7.1c-2.5-1.7-5.7-2.2-9.8-1.6
		c-9.9,1.6-16.3,9.1-19.1,22.4L21.6,59c3.9-15.7,11.3-28.4,22.2-37.9C54.8,11.5,67.7,5.5,82.6,3.1c18.3-2.9,34.8-0.2,49.5,8.1
		c14.7,8.3,23.5,21.6,26.4,39.9c1.8,11.2,0.9,21.3-2.6,30.5c-3.6,9.1-9.6,20.4-18.2,33.8l-15.5,24.1l53.2-8.5l2.8,67.8L42.7,165.1z"
		/>
</g>
<g>
	<linearGradient id="SVGID_2_" gradientUnits="userSpaceOnUse" x1="97.2971" y1="104.3094" x2="178.8013" y2="198.0692">
		<stop  offset="0" style="stop-color:#00EBFC"/>
		<stop  offset="1" style="stop-color:#0025FF"/>
	</linearGradient>
	<path class="st1" d="M42.7,165.1c0,0,73.7-32.7,115.8-114.1c1.8,11.2,0.9,21.3-2.6,30.5c-3.6,9.1-9.6,20.4-18.2,33.8l-15.5,24.1
		l56.1,59.3L42.7,165.1z"/>
</g>
</svg>
