<?xml version="1.0" encoding="utf-8"?>
<!-- Generator: Adobe Illustrator 24.2.1, SVG Export Plug-In . SVG Version: 6.00 Build 0)  -->
<svg version="1.1" id="Camada_1" xmlns="http://www.w3.org/2000/svg" xmlns:xlink="http://www.w3.org/1999/xlink" x="0px" y="0px"
	 width="300px" height="300px" viewBox="0 0 300 300" style="enable-background:new 0 0 300 300;" xml:space="preserve">
<style type="text/css">
	.st0{fill:#039BE5;}
	.st1{fill:#FFFFFF;}
</style>
<rect x="0" y="0" class="st0" width="300" height="300"/>
<path class="st1" d="M150,64.4c-47.3,0-85.6,38.3-85.6,85.6s38.3,85.6,85.6,85.6s85.6-38.3,85.6-85.6S197.3,64.4,150,64.4z M192,123
	L178,189.3c-1,4.7-3.8,5.8-7.7,3.6l-21.4-15.8l-10.3,9.9c-1.1,1.1-2.1,2.1-4.3,2.1l1.5-21.8l39.7-35.8c1.7-1.5-0.4-2.4-2.7-0.9
	l-49,30.9l-21.1-6.6c-4.6-1.5-4.7-4.6,1-6.8h0l82.5-31.8C189.9,114.9,193.3,117.3,192,123L192,123z"/>
</svg>
