<?xml version="1.0" encoding="utf-8"?>
<!-- Generator: Adobe Illustrator 24.2.1, SVG Export Plug-In . SVG Version: 6.00 Build 0)  -->
<svg version="1.1" id="Camada_1" xmlns="http://www.w3.org/2000/svg" xmlns:xlink="http://www.w3.org/1999/xlink" x="0px" y="0px"
	 width="300px" height="300px" viewBox="0 0 300 300" style="enable-background:new 0 0 300 300;" xml:space="preserve">
<style type="text/css">
	.st0{fill:url(#SVGID_1_);}
	.st1{fill:#FFFFFF;}
</style>
<linearGradient id="SVGID_1_" gradientUnits="userSpaceOnUse" x1="-9.7081" y1="288.8321" x2="309.7081" y2="11.1679">
	<stop  offset="7.300000e-02" style="stop-color:#EACC7B"/>
	<stop  offset="0.184" style="stop-color:#ECAA59"/>
	<stop  offset="0.307" style="stop-color:#EF802E"/>
	<stop  offset="0.358" style="stop-color:#EF6D3A"/>
	<stop  offset="0.46" style="stop-color:#F04B50"/>
	<stop  offset="0.516" style="stop-color:#F03E58"/>
	<stop  offset="0.689" style="stop-color:#DB359E"/>
	<stop  offset="0.724" style="stop-color:#CE37A4"/>
	<stop  offset="0.789" style="stop-color:#AC3CB4"/>
	<stop  offset="0.877" style="stop-color:#7544CF"/>
	<stop  offset="0.98" style="stop-color:#2B4FF2"/>
</linearGradient>
<rect x="0" y="0" class="st0" width="300" height="300"/>
<path class="st1" d="M150,90.5c20.5,0,22.7,0,30.8,0.4c7.6,0.4,11.6,1.8,14.3,2.7c3.6,1.3,6.2,3.1,8.9,5.8s4.5,5.4,5.8,8.9
	c0.9,2.7,2.2,6.7,2.7,14.3c0,7.6,0,9.8,0,30.3s0,22.7-0.4,30.8c-0.4,7.6-1.8,11.6-2.7,14.3c-1.3,3.6-3.1,6.2-5.8,8.9
	s-5.4,4.5-8.9,5.8c-2.7,0.9-6.7,2.2-14.3,2.7c-7.6,0-9.8,0-30.3,0s-22.7,0-30.8-0.4c-7.6-0.4-11.6-1.8-14.3-2.7
	c-3.6-1.3-6.2-3.1-8.9-5.8s-4.5-5.4-5.8-8.9c-0.9-2.7-2.2-6.7-2.7-14.3c0-7.6,0-9.8,0-30.3s0-22.7,0.4-30.8
	c0.4-7.6,1.8-11.6,2.7-14.3c1.3-3.6,3.1-6.2,5.8-8.9c2.7-2.7,5.4-4.5,8.9-5.8c2.7-0.9,6.7-2.2,14.3-2.7
	C127.3,90.5,129.5,90.5,150,90.5 M150,77.1c-20.5,0-23.2,0-31.2,0.4s-13.4,1.8-18.3,3.6c-4.9,1.8-9.4,4.5-13.4,8.9
	c-4,4.5-6.7,8.5-8.9,13.4c-1.8,4.9-3.1,10.3-3.6,18.3c-0.4,8-0.4,10.7-0.4,31.2s0,23.2,0.4,31.2c0.4,8,1.8,13.4,3.6,18.3
	c1.8,4.9,4.5,9.4,8.9,13.4c4,4,8.5,6.7,13.4,8.9c4.9,1.8,10.3,3.1,18.3,3.6s10.7,0.4,31.2,0.4s23.2,0,31.2-0.4
	c8-0.4,13.4-1.8,18.3-3.6c4.9-1.8,9.4-4.5,13.4-8.9c4-4,6.7-8.5,8.9-13.4c1.8-4.9,3.1-10.3,3.6-18.3c0.4-8,0.4-10.7,0.4-31.2
	s0-23.2-0.4-31.2s-1.8-13.4-3.6-18.3c-1.8-4.9-4.5-9.4-8.9-13.4c-4.5-4-8.5-6.7-13.4-8.9c-4.9-1.8-10.3-3.1-18.3-3.6
	C173.2,77.1,170.5,77.1,150,77.1L150,77.1z"/>
<path class="st1" d="M150,112.8c-22.3,0-40.1,17.8-40.1,40.1s17.8,40.1,40.1,40.1s40.1-17.8,40.1-40.1S172.3,112.8,150,112.8z
	 M150,179.7c-14.7,0-26.8-12-26.8-26.8s12-26.8,26.8-26.8s26.8,12,26.8,26.8S164.7,179.7,150,179.7z"/>
<circle class="st1" cx="190.1" cy="112.8" r="8.9"/>
</svg>
