<?xml version="1.0" encoding="utf-8"?>
<!-- Generator: Adobe Illustrator 24.2.1, SVG Export Plug-In . SVG Version: 6.00 Build 0)  -->
<svg version="1.1" id="Camada_1" xmlns="http://www.w3.org/2000/svg" xmlns:xlink="http://www.w3.org/1999/xlink" x="0px" y="0px"
	 width="300px" height="300px" viewBox="0 0 300 300" style="enable-background:new 0 0 300 300;" xml:space="preserve">
<style type="text/css">
	.st0{fill:#001382;}
	.st1{fill:#02103F;}
	.st2{fill:#021031;}
	.st3{fill:#0025FF;}
	.st4{fill:#001DC9;}
	.st5{fill:url(#SVGID_1_);}
	.st6{fill:url(#SVGID_2_);}
	.st7{fill:url(#SVGID_3_);}
	.st8{fill:url(#SVGID_4_);}
	.st9{fill:url(#SVGID_5_);}
	.st10{fill:url(#SVGID_6_);}
	.st11{fill:url(#SVGID_7_);}
	.st12{fill:url(#SVGID_8_);}
	.st13{fill:url(#SVGID_9_);}
	.st14{fill:url(#SVGID_10_);}
	.st15{fill:#00A4FD;}
	.st16{fill:#0067FE;}
	.st17{fill:#FFFFFF;}
	.st18{fill:url(#SVGID_11_);}
	.st19{fill:url(#SVGID_12_);}
	.st20{fill:url(#SVGID_13_);}
	.st21{fill:url(#SVGID_14_);}
	.st22{fill:url(#SVGID_15_);}
	.st23{fill:url(#SVGID_16_);}
	.st24{fill:url(#SVGID_17_);}
	.st25{fill:url(#SVGID_18_);}
	.st26{fill:url(#SVGID_19_);}
</style>
<rect class="st0" width="300" height="300"/>
<g>
	<polygon class="st1" points="215,56 215,243.8 94.1,255.6 94.1,44.3 	"/>
	<polygon class="st2" points="94.1,44.3 84.7,49.9 84.7,250.7 94.1,255.6 	"/>
	<path class="st3" d="M215,221.5c-11.1,3.2-22.4,6-36.9,6c-26,0.1-29.3-8.7-52.9-7.8c-6.2,0.2-19.4-2.4-31.1,2.7v33.3L215,243.8
		V221.5L215,221.5z"/>
	<path class="st4" d="M94.1,222.3c0,0-7.1-1.8-9.5,0.3v28.1l9.5,4.9V222.3z"/>
	<g>
		
			<linearGradient id="SVGID_1_" gradientUnits="userSpaceOnUse" x1="269.8102" y1="89.7733" x2="279.6953" y2="97.4964" gradientTransform="matrix(0.9918 3.683000e-02 -1.818766e-03 1.0082 -146.5596 24.2032)">
			<stop  offset="0" style="stop-color:#00EBFC"/>
			<stop  offset="1" style="stop-color:#0025FF"/>
		</linearGradient>
		<path class="st5" d="M130.2,124.4v9l-2.4-0.1v-3.4l-2,1.9l-2-2v3.4l-2.4-0.1v-9l4.4,3.8L130.2,124.4z"/>
		
			<linearGradient id="SVGID_2_" gradientUnits="userSpaceOnUse" x1="276.8607" y1="87.8575" x2="272.0305" y2="94.7557" gradientTransform="matrix(0.9918 3.683000e-02 -1.818766e-03 1.0082 -146.5596 24.2032)">
			<stop  offset="0" style="stop-color:#00EBFC"/>
			<stop  offset="1" style="stop-color:#0025FF"/>
		</linearGradient>
		<path class="st6" d="M130.2,124.7v3l-4.4,4l-4.4-4.4v-3.2l4.4,3.8L130.2,124.7z"/>
		
			<linearGradient id="SVGID_3_" gradientUnits="userSpaceOnUse" x1="283.8388" y1="99.3508" x2="286.9944" y2="89.6388" gradientTransform="matrix(0.9918 3.683000e-02 -1.818766e-03 1.0082 -146.5596 24.2032)">
			<stop  offset="0" style="stop-color:#00EBFC"/>
			<stop  offset="1" style="stop-color:#0025FF"/>
		</linearGradient>
		<path class="st7" d="M136.8,133.7l-0.3-1.1l-5.4,0.9l2.7-8.9l2.9,0.1l2.7,9.1L136.8,133.7z M134.6,130.4l1.4-0.2l-0.6-2.5
			L134.6,130.4z"/>
		
			<linearGradient id="SVGID_4_" gradientUnits="userSpaceOnUse" x1="282.2195" y1="91.9436" x2="289.7198" y2="95.6018" gradientTransform="matrix(0.9918 3.683000e-02 -1.818766e-03 1.0082 -146.5596 24.2032)">
			<stop  offset="0" style="stop-color:#00EBFC"/>
			<stop  offset="1" style="stop-color:#0025FF"/>
		</linearGradient>
		<path class="st8" d="M136.8,133.7l-2.3-9.1l2.2,0.1l2.7,9.1L136.8,133.7z"/>
		
			<linearGradient id="SVGID_5_" gradientUnits="userSpaceOnUse" x1="309.738" y1="89.1924" x2="309.4202" y2="98.2932" gradientTransform="matrix(0.9918 3.683000e-02 -1.818766e-03 1.0082 -146.5596 24.2032)">
			<stop  offset="0" style="stop-color:#00EBFC"/>
			<stop  offset="1" style="stop-color:#0025FF"/>
		</linearGradient>
		<path class="st9" d="M161.7,134.6l-0.3-1.1l-5.4,0.9l2.7-8.9l2.9,0.1l2.7,9.1L161.7,134.6z M159.5,131.3l1.4-0.2l-0.6-2.5
			L159.5,131.3z"/>
		
			<linearGradient id="SVGID_6_" gradientUnits="userSpaceOnUse" x1="308.8705" y1="97.2886" x2="306.4206" y2="89.7485" gradientTransform="matrix(0.9918 3.683000e-02 -1.818766e-03 1.0082 -146.5596 24.2032)">
			<stop  offset="0" style="stop-color:#00EBFC"/>
			<stop  offset="1" style="stop-color:#0025FF"/>
		</linearGradient>
		<path class="st10" d="M158.8,133.9l-2.8,0.5l2.7-8.9l2.2,0.1L158.8,133.9z"/>
		
			<linearGradient id="SVGID_7_" gradientUnits="userSpaceOnUse" x1="296.9909" y1="93.3046" x2="304.4468" y2="93.9569" gradientTransform="matrix(0.9918 3.683000e-02 -1.818766e-03 1.0082 -146.5596 24.2032)">
			<stop  offset="0" style="stop-color:#00EBFC"/>
			<stop  offset="1" style="stop-color:#0025FF"/>
		</linearGradient>
		<path class="st11" d="M154.1,133.5c-0.6,0.6-1.5,0.8-2.5,0.8c-1-0.1-1.9-0.4-2.5-0.9s-0.9-1.4-0.9-2.3v-5.9l2.4,0.1v5.6
			c0,0.6,0.4,1,1,1c0.7,0,1-0.3,1-0.9v-5.6l2.4,0.1v5.9C155.1,132.2,154.8,132.9,154.1,133.5z"/>
		
			<linearGradient id="SVGID_8_" gradientUnits="userSpaceOnUse" x1="313.78" y1="89.6444" x2="318.4775" y2="98.8637" gradientTransform="matrix(0.9918 3.683000e-02 -1.818766e-03 1.0082 -146.5596 24.2032)">
			<stop  offset="0" style="stop-color:#00EBFC"/>
			<stop  offset="1" style="stop-color:#0025FF"/>
		</linearGradient>
		<path class="st12" d="M167.7,132.3l2.8,2.6l-5.2-0.2v-9l2.4,0.1V132.3z"/>
		
			<linearGradient id="SVGID_9_" gradientUnits="userSpaceOnUse" x1="314.5877" y1="95.8272" x2="319.8615" y2="95.8272" gradientTransform="matrix(0.9918 3.683000e-02 -1.818766e-03 1.0082 -146.5596 24.2032)">
			<stop  offset="0" style="stop-color:#00EBFC"/>
			<stop  offset="1" style="stop-color:#0025FF"/>
		</linearGradient>
		<path class="st13" d="M170.5,134.9l-5.2-0.2v-4.6L170.5,134.9z"/>
		<g>
			
				<linearGradient id="SVGID_10_" gradientUnits="userSpaceOnUse" x1="323.1429" y1="93.6077" x2="329.6376" y2="93.6077" gradientTransform="matrix(0.9918 3.683000e-02 -1.818766e-03 1.0082 -146.5596 24.2032)">
				<stop  offset="0" style="stop-color:#00EBFC"/>
				<stop  offset="1" style="stop-color:#0025FF"/>
			</linearGradient>
			<path class="st14" d="M177,127.3L177,127.3c-1.8-0.1-3.2,1.4-3.2,3.2l0,0c0,1.8,1.4,3.3,3.2,3.4l0,0c1.8,0.1,3.2-1.4,3.2-3.2l0,0
				C180.2,128.9,178.7,127.4,177,127.3z M175.9,131.6h-0.8v-2h0.8c0.3,0,0.5,0.1,0.7,0.3s0.3,0.4,0.3,0.7s-0.1,0.5-0.3,0.7
				S176.2,131.7,175.9,131.6z M178.2,131.8l-0.1-0.3h-0.6l-0.1,0.3H177l0.6-2h0.6l0.6,2H178.2z"/>
			<path class="st15" d="M176,130.2h-0.2v0.9h0.2c0.1,0,0.2,0,0.3-0.1s0.1-0.2,0.1-0.3s-0.1-0.2-0.1-0.4
				C176.2,130.2,176.1,130.2,176,130.2z"/>
			<polygon class="st16" points="177.7,131 178,131 177.9,130.4 			"/>
		</g>
		<path class="st17" d="M111.9,144.4c-1.4-0.1-2.5-0.6-3.4-1.5s-1.4-2.2-1.4-3.5s0.4-2.5,1.4-3.4s2-1.3,3.4-1.3
			c0.9,0,1.6,0.3,2.3,0.7c0.7,0.4,1.3,1,1.6,1.7l-2.3,1.2c-0.1-0.3-0.4-0.6-0.7-0.7c-0.3-0.2-0.6-0.3-1-0.3c-0.6,0-1.1,0.1-1.6,0.6
			s-0.6,0.9-0.6,1.6c0,0.6,0.2,1.2,0.6,1.6c0.4,0.4,0.9,0.6,1.6,0.7c0.4,0,0.7-0.1,1.1-0.2c0.3-0.1,0.5-0.4,0.7-0.7l2.3,1.4
			c-0.4,0.6-0.9,1.2-1.6,1.6C113.6,144.2,112.8,144.4,111.9,144.4z"/>
		<path class="st17" d="M125.1,143.4c-0.9,0.9-2.1,1.3-3.4,1.3c-1.4-0.1-2.5-0.6-3.4-1.5s-1.4-2.2-1.4-3.5c0-1.4,0.5-2.5,1.4-3.4
			s2.1-1.3,3.4-1.3c1.4,0.1,2.5,0.6,3.4,1.5s1.4,2.2,1.4,3.5C126.5,141.4,126,142.6,125.1,143.4z M120.1,141.4
			c0.4,0.4,0.9,0.6,1.6,0.7c0.6,0,1.1-0.1,1.6-0.6c0.4-0.4,0.6-0.9,0.6-1.6c0-0.6-0.2-1.2-0.6-1.6s-0.9-0.6-1.6-0.7
			c-0.6,0-1.1,0.1-1.6,0.6c-0.4,0.4-0.6,0.9-0.6,1.6S119.7,141,120.1,141.4z"/>
		<path class="st17" d="M131.1,135.4c0.9,0,1.7,0.4,2.4,1c0.6,0.6,0.9,1.5,0.9,2.6s-0.3,1.9-0.9,2.5c-0.6,0.6-1.4,0.9-2.4,0.9
			l-1.1-0.1v2.7l-2.6-0.1v-9.7L131.1,135.4z M131.1,139.6c0.2,0,0.4-0.1,0.5-0.2c0.1-0.1,0.2-0.4,0.2-0.6c0-0.2-0.1-0.4-0.2-0.6
			c-0.1-0.1-0.3-0.2-0.5-0.2H130v1.6H131.1z"/>
		<path class="st17" d="M137.9,142.3v3l-2.6-0.1v-9.7l3.7,0.1c1,0.1,1.8,0.4,2.4,1c0.6,0.6,1,1.5,1,2.5c0,0.6-0.1,1.1-0.4,1.5
			c-0.2,0.4-0.6,0.8-1,1.1l1.8,3.7L137.9,142.3z M137.9,138.2v1.8l1,0.1c0.3,0,0.5-0.1,0.6-0.2c0.1-0.1,0.2-0.4,0.2-0.6
			s-0.1-0.5-0.2-0.6s-0.4-0.3-0.6-0.3L137.9,138.2z"/>
		<path class="st17" d="M152,144.4c-0.9,0.9-2.1,1.3-3.4,1.3c-1.4-0.1-2.5-0.6-3.4-1.5s-1.4-2.2-1.4-3.5c0-1.4,0.5-2.5,1.4-3.4
			s2.1-1.3,3.4-1.3c1.4,0.1,2.5,0.6,3.4,1.5s1.4,2.2,1.4,3.5C153.4,142.4,152.9,143.6,152,144.4z M147,142.4
			c0.4,0.4,0.9,0.6,1.6,0.7c0.6,0,1.1-0.1,1.6-0.6c0.4-0.4,0.6-0.9,0.6-1.6c0-0.6-0.2-1.2-0.6-1.6c-0.4-0.4-0.9-0.6-1.6-0.7
			c-0.6,0-1.1,0.1-1.6,0.6c-0.4,0.4-0.6,0.9-0.6,1.6C146.4,141.4,146.5,142,147,142.4z"/>
		<path class="st17" d="M158.2,136.4c1.3,0.1,2.3,0.6,3.2,1.5s1.3,2.2,1.3,3.5c0,1.4-0.4,2.5-1.3,3.4s-1.9,1.3-3.2,1.3l-3.8-0.1
			v-9.7L158.2,136.4z M158.2,143.4c0.5,0,0.9-0.1,1.3-0.6c0.4-0.4,0.5-0.9,0.5-1.5s-0.1-1.1-0.5-1.6c-0.4-0.4-0.8-0.6-1.3-0.6
			l-1.1-0.1v4.3L158.2,143.4z"/>
		<path class="st17" d="M169.9,145.6c-0.7,0.6-1.6,0.9-2.7,0.9c-1.1-0.1-2-0.4-2.7-1s-1-1.5-1-2.5v-6.3l2.6,0.1v6
			c0,0.7,0.4,1.1,1.1,1.1s1.1-0.3,1.1-1v-6l2.6,0.1v6.3C170.9,144.2,170.6,145,169.9,145.6z"/>
		<path class="st17" d="M187.6,147.2l-0.3-1.3l-5.7,1l2.9-9.5l3,0.1l2.9,9.8L187.6,147.2z M185.2,143.7l1.4-0.2l-0.6-2.7
			L185.2,143.7z"/>
		<path class="st17" d="M199.5,146.2c-0.9,0.9-2.1,1.3-3.4,1.3c-1.4-0.1-2.5-0.6-3.4-1.5s-1.4-2.2-1.4-3.5c0-1.4,0.5-2.5,1.4-3.4
			s2.1-1.3,3.4-1.3c1.4,0.1,2.5,0.6,3.4,1.5s1.4,2.2,1.4,3.5C201,144.2,200.5,145.3,199.5,146.2z M194.6,144.2
			c0.4,0.4,0.9,0.6,1.6,0.7c0.6,0,1.1-0.1,1.6-0.6c0.4-0.4,0.6-0.9,0.6-1.6s-0.2-1.2-0.6-1.6c-0.4-0.4-0.9-0.6-1.6-0.7
			c-0.6,0-1.1,0.1-1.6,0.6c-0.4,0.4-0.6,0.9-0.6,1.6C193.9,143.2,194.2,143.8,194.6,144.2z"/>
		
			<linearGradient id="SVGID_11_" gradientUnits="userSpaceOnUse" x1="292.8018" y1="98.2079" x2="292.96" y2="89.145" gradientTransform="matrix(0.9918 3.683000e-02 -1.818766e-03 1.0082 -146.5596 24.2032)">
			<stop  offset="0" style="stop-color:#00EBFC"/>
			<stop  offset="1" style="stop-color:#0025FF"/>
		</linearGradient>
		<path class="st18" d="M144.8,124.9l2.4,0.1v9l-4.5-4v3.9l-2.4-0.1v-9l4.5,3.9V124.9z"/>
		
			<linearGradient id="SVGID_12_" gradientUnits="userSpaceOnUse" x1="295.1189" y1="92.4528" x2="290.6417" y2="94.8333" gradientTransform="matrix(0.9918 3.683000e-02 -1.818766e-03 1.0082 -146.5596 24.2032)">
			<stop  offset="0" style="stop-color:#00EBFC"/>
			<stop  offset="1" style="stop-color:#0025FF"/>
		</linearGradient>
		<path class="st19" d="M147.3,130.7v3.3l-6.9-5.9v-3.4L147.3,130.7z"/>
		<path class="st17" d="M183.7,136.4c0.1-0.3,0.1-0.5,0.3-0.7c0.1-0.1,0.1-0.2,0.2-0.3c0.1-0.1,0.2-0.2,0.3-0.3
			c0.2-0.1,0.5-0.3,0.9-0.3c0.1,0,0.4,0,0.5,0.1s0.3,0.1,0.4,0.1c0.2,0.1,0.3,0.1,0.4,0.2c0.1,0.1,0.3,0.1,0.4,0.1
			c0.1,0,0.1,0,0.3,0c0.1,0,0.2,0,0.3-0.1c0.2,0,0.4-0.1,0.7-0.1c0,0.1-0.1,0.3-0.1,0.4c-0.1,0.1-0.1,0.2-0.2,0.4
			c-0.1,0.2-0.4,0.4-0.6,0.5c-0.2,0.1-0.6,0.2-0.9,0.2c-0.1,0-0.4-0.1-0.5-0.1c-0.1-0.1-0.3-0.1-0.4-0.1c-0.2-0.1-0.2-0.1-0.4-0.1
			s-0.2,0-0.4,0c-0.1,0-0.4,0.1-0.6,0.1C184.2,136.3,184,136.3,183.7,136.4z"/>
		<path class="st17" d="M177.7,144.1c-0.3,0.1-0.6,0.2-1.1,0.2c-0.6,0-1.1-0.3-1.6-0.7c-0.4-0.4-0.6-1-0.6-1.6s0.2-1.2,0.6-1.6
			c0.4-0.4,0.9-0.6,1.6-0.6c0.4,0,0.7,0.1,1,0.3s0.6,0.4,0.7,0.7l2.3-1.3c-0.4-0.7-0.9-1.3-1.6-1.7c-0.7-0.4-1.5-0.6-2.3-0.7
			c-1.4-0.1-2.5,0.4-3.4,1.3c-0.9,0.9-1.4,2.1-1.4,3.4c0,1.2,0.4,2.3,1.1,3.2c0.6,0.8,1.4,1.3,2.3,1.6v0.9l2.6,0.9v-1.6
			c1.2-0.3,2.2-0.9,2.8-2l-2.3-1.4C178.2,143.7,178,143.9,177.7,144.1z"/>
		
			<linearGradient id="SVGID_13_" gradientUnits="userSpaceOnUse" x1="300.7865" y1="89.1128" x2="301.0229" y2="95.8814" gradientTransform="matrix(0.9918 3.683000e-02 -1.818766e-03 1.0082 -146.5596 24.2032)">
			<stop  offset="0" style="stop-color:#00EBFC"/>
			<stop  offset="1" style="stop-color:#0025FF"/>
		</linearGradient>
		<path class="st20" d="M155.1,129.9v-4.5l-2.4-0.1v5.6c0,0.6-0.4,0.9-1,0.9c-0.7,0-1-0.4-1-1v-5.6l-2.4-0.1v5.9c0,0,0,0,0,0.1
			c0.8,0.6,1.7,0.9,2.8,0.9C152.6,132,154.1,131.2,155.1,129.9z"/>
	</g>
	
		<linearGradient id="SVGID_14_" gradientUnits="userSpaceOnUse" x1="258.6484" y1="220.9266" x2="283.0902" y2="145.7027" gradientTransform="matrix(1 0 0 1 -147.6378 29.0551)">
		<stop  offset="0" style="stop-color:#00EBFC"/>
		<stop  offset="1" style="stop-color:#0025FF"/>
	</linearGradient>
	<path class="st21" d="M94.1,222.3l26.2,30.7l9.1-0.9l18.7-45.5l12,4.1l15.8-22.8l-81.8-23.5C94.1,164.4,94.1,222.3,94.1,222.3z
		 M118.2,211.8l-20.4-21.9l26.3,8.7L118.2,211.8z"/>
	
		<linearGradient id="SVGID_15_" gradientUnits="userSpaceOnUse" x1="240.2202" y1="138.4564" x2="315.5599" y2="175.202" gradientTransform="matrix(1 0 0 1 -147.6378 29.0551)">
		<stop  offset="0" style="stop-color:#00EBFC"/>
		<stop  offset="1" style="stop-color:#0025FF"/>
	</linearGradient>
	<polygon class="st22" points="94.1,188.5 160.2,210.7 175.9,187.9 94.1,164.4 	"/>
	
		<linearGradient id="SVGID_16_" gradientUnits="userSpaceOnUse" x1="347.2037" y1="29.1413" x2="324.5035" y2="55.255" gradientTransform="matrix(1 0 0 1 -147.6378 29.0551)">
		<stop  offset="0" style="stop-color:#00EBFC"/>
		<stop  offset="1" style="stop-color:#0025FF"/>
	</linearGradient>
	<path class="st23" d="M215,71.7c-0.6-0.3-1.2-0.6-1.9-1L186,53.2l-30.4-2.9l-6.7,9.7L201,93.4c4.6,2.9,9.2,4.7,14.1,5.4V71.7H215z"
		/>
	
		<linearGradient id="SVGID_17_" gradientUnits="userSpaceOnUse" x1="319.7193" y1="17.2788" x2="321.2693" y2="61.6615" gradientTransform="matrix(1 0 0 1 -147.6378 29.0551)">
		<stop  offset="0" style="stop-color:#00EBFC"/>
		<stop  offset="1" style="stop-color:#0025FF"/>
	</linearGradient>
	<path class="st24" d="M215,71.7c-0.6-0.3-1.2-0.6-1.9-1L186,53.2l-55.9-5.4l59.7,38.4c0.1,0.1,15.8,8.1,25.2-0.6V71.7z"/>
	<path class="st17" d="M174,239.4l1.5-0.1l-0.1,0.9l-2.5,0.2l0.2-3.8l2.4-0.2l-0.1,0.9l-1.5,0.1v0.5l1.4-0.1l-0.1,0.9l-1.4,0.1
		L174,239.4z"/>
	<path class="st17" d="M178.6,239.7c-0.3,0.3-0.6,0.4-1.1,0.5c-0.4,0.1-0.8-0.1-1.1-0.3s-0.4-0.5-0.4-0.9l0.1-2.6l1-0.1l-0.1,2.4
		c0,0.3,0.1,0.4,0.5,0.4s0.6-0.2,0.6-0.5l0.1-2.4l1-0.1l-0.1,2.6C179,239,178.9,239.4,178.6,239.7z"/>
	<path class="st17" d="M181.8,239.6c-0.4,0.1-0.7,0-1-0.1s-0.4-0.4-0.5-0.6l0.9-0.6c0.1,0.4,0.4,0.5,0.7,0.4c0.3,0,0.4-0.1,0.5-0.3
		c0-0.1-0.1-0.2-0.2-0.2c-0.1,0-0.2-0.1-0.5-0.1c-0.4-0.1-0.6-0.2-0.8-0.4c-0.2-0.1-0.3-0.4-0.3-0.7c0-0.4,0.1-0.6,0.4-0.9
		c0.3-0.2,0.6-0.4,1-0.4s0.6,0,0.9,0.1c0.2,0.1,0.4,0.3,0.6,0.6l-0.9,0.6c-0.1-0.3-0.3-0.4-0.6-0.4c-0.1,0-0.2,0.1-0.3,0.1
		c-0.1,0.1-0.1,0.1-0.1,0.2c0,0.1,0,0.1,0.1,0.2c0.1,0.1,0.3,0.1,0.5,0.1s0.4,0.1,0.4,0.1c0.1,0,0.2,0.1,0.4,0.1
		c0.1,0.1,0.2,0.2,0.3,0.3s0.1,0.3,0.1,0.5c0,0.4-0.1,0.6-0.4,0.9C182.5,239.4,182.2,239.5,181.8,239.6z"/>
	<path class="st17" d="M186.9,238.4c-0.4,0.4-0.9,0.6-1.5,0.7c-0.6,0.1-1-0.1-1.4-0.4c-0.4-0.4-0.6-0.8-0.5-1.4
		c0.1-0.6,0.3-1.1,0.6-1.5c0.4-0.4,0.9-0.6,1.5-0.7s1,0.1,1.4,0.4c0.4,0.4,0.6,0.8,0.5,1.4C187.6,237.5,187.3,238,186.9,238.4z
		 M184.8,238c0.2,0.1,0.4,0.2,0.7,0.2s0.6-0.1,0.8-0.4c0.2-0.2,0.4-0.5,0.4-0.8s-0.1-0.6-0.3-0.7c-0.2-0.1-0.4-0.2-0.7-0.2
		s-0.6,0.1-0.8,0.4c-0.2,0.2-0.4,0.5-0.4,0.8S184.6,237.8,184.8,238z"/>
	<path class="st17" d="M190.4,238.2c-0.3,0.3-0.6,0.4-1.1,0.5s-0.8-0.1-1.1-0.3s-0.4-0.5-0.4-0.9l0.1-2.6l1-0.1l-0.1,2.4
		c0,0.3,0.1,0.4,0.5,0.4s0.6-0.2,0.6-0.5l0.1-2.4l1-0.1l-0.1,2.6C190.9,237.5,190.8,237.9,190.4,238.2z"/>
	<path class="st17" d="M195.6,237.4c-0.4,0.4-0.9,0.6-1.5,0.7c-0.6,0.1-1-0.1-1.4-0.4c-0.4-0.4-0.6-0.8-0.5-1.4
		c0.1-0.6,0.3-1.1,0.6-1.5c0.4-0.4,0.9-0.6,1.5-0.7c0.6-0.1,1,0.1,1.4,0.4c0.4,0.4,0.6,0.8,0.5,1.4C196.2,236.4,196,237,195.6,237.4
		z M193.4,236.9c0.2,0.1,0.4,0.2,0.7,0.2s0.6-0.1,0.8-0.4c0.2-0.2,0.4-0.5,0.4-0.8s-0.1-0.6-0.3-0.7c-0.2-0.1-0.4-0.2-0.7-0.2
		s-0.6,0.1-0.8,0.4c-0.2,0.2-0.4,0.5-0.4,0.8C193.2,236.5,193.3,236.8,193.4,236.9z"/>
	<path class="st17" d="M201.5,233.5l-0.2,3.8l-1,0.1l0.1-2.1l-1,1.6h-0.1l-0.9-1.4l-0.1,2.1l-1,0.1l0.2-3.8l1-0.1l0.9,1.5l1.1-1.7
		L201.5,233.5z"/>
	<path class="st17" d="M204.4,236.9l-0.1-0.5l-1.3,0.1l-0.2,0.6l-1.1,0.1l1.4-3.9l1.2-0.1l1.1,3.7L204.4,236.9z M203.3,235.6
		l0.8-0.1l-0.3-1.3L203.3,235.6z"/>
	<path class="st17" d="M207.4,236.6c-0.6,0.1-1.1-0.1-1.4-0.4c-0.4-0.4-0.5-0.8-0.5-1.4c0-0.6,0.2-1.1,0.6-1.5
		c0.4-0.4,0.9-0.6,1.5-0.7c0.4,0,0.6,0,0.9,0.1c0.3,0.1,0.5,0.4,0.6,0.6l-0.9,0.6c-0.1-0.1-0.1-0.2-0.3-0.3
		c-0.1-0.1-0.3-0.1-0.5-0.1c-0.3,0-0.6,0.1-0.8,0.4c-0.2,0.2-0.3,0.5-0.4,0.8c0,0.3,0.1,0.6,0.2,0.7c0.2,0.1,0.4,0.2,0.7,0.2
		c0.2,0,0.4-0.1,0.5-0.1c0.1-0.1,0.3-0.2,0.4-0.4l0.9,0.4c-0.2,0.3-0.4,0.6-0.7,0.7S207.7,236.5,207.4,236.6z"/>
	
		<linearGradient id="SVGID_18_" gradientUnits="userSpaceOnUse" x1="231.6901" y1="137.1166" x2="242.3855" y2="197.7732" gradientTransform="matrix(1 0 0 1 -147.6378 29.0551)">
		<stop  offset="0" style="stop-color:#00EBFC"/>
		<stop  offset="1" style="stop-color:#0025FF"/>
	</linearGradient>
	<polyline class="st25" points="94.1,164.4 84.7,168.7 84.7,228.6 94.1,222.3 	"/>
	
		<linearGradient id="SVGID_19_" gradientUnits="userSpaceOnUse" x1="226.9876" y1="157.397" x2="246.8454" y2="141.8823" gradientTransform="matrix(1 0 0 1 -147.6378 29.0551)">
		<stop  offset="0" style="stop-color:#00EBFC"/>
		<stop  offset="1" style="stop-color:#0025FF"/>
	</linearGradient>
	<polyline class="st26" points="94.1,164.4 84.7,168.7 84.7,193.3 94.1,188.5 	"/>
</g>
</svg>
