<?xml version="1.0" encoding="utf-8"?>
<!-- Generator: Adobe Illustrator 24.2.1, SVG Export Plug-In . SVG Version: 6.00 Build 0)  -->
<svg version="1.1" id="Camada_1" xmlns="http://www.w3.org/2000/svg" xmlns:xlink="http://www.w3.org/1999/xlink" x="0px" y="0px"
	 width="300px" height="300px" viewBox="0 0 300 300" style="enable-background:new 0 0 300 300;" xml:space="preserve">
<style type="text/css">
	.st0{fill:#FF0000;}
	.st1{fill:#FFFFFF;}
</style>
<rect x="0" y="0" class="st0" width="300" height="300"/>
<path class="st1" d="M228.8,110.4c-1.9-7-7.5-12.6-14.5-14.5c-12.9-3.5-64.4-3.5-64.4-3.5s-51.5,0-64.4,3.4
	c-6.9,1.9-12.6,7.6-14.5,14.6c-3.4,12.9-3.4,39.6-3.4,39.6s0,26.8,3.4,39.6c1.9,7,7.5,12.6,14.5,14.5c13,3.5,64.4,3.5,64.4,3.5
	s51.5,0,64.4-3.4c7-1.9,12.6-7.5,14.5-14.5c3.4-12.9,3.4-39.6,3.4-39.6S232.4,123.3,228.8,110.4z M133.6,174.7v-49.3l42.8,24.7
	L133.6,174.7z"/>
</svg>
