<?xml version="1.0" encoding="utf-8"?>
<!-- Generator: Adobe Illustrator 24.2.1, SVG Export Plug-In . SVG Version: 6.00 Build 0)  -->
<svg version="1.1" id="Camada_1" xmlns="http://www.w3.org/2000/svg" xmlns:xlink="http://www.w3.org/1999/xlink" x="0px" y="0px"
	 width="300px" height="300px" viewBox="0 0 300 300" style="enable-background:new 0 0 300 300;" xml:space="preserve">
<style type="text/css">
	.st0{fill:#02103F;}
	.st1{fill:#FFFFFF;}
	.st2{fill:url(#SVGID_1_);}
	.st3{fill:url(#SVGID_2_);}
	.st4{fill:url(#SVGID_3_);}
	.st5{fill:url(#SVGID_4_);}
	.st6{fill:url(#SVGID_5_);}
	.st7{fill:url(#SVGID_6_);}
	.st8{fill:url(#SVGID_7_);}
	.st9{fill:url(#SVGID_8_);}
	.st10{fill:url(#SVGID_9_);}
	.st11{fill:url(#SVGID_10_);}
	.st12{fill:url(#SVGID_11_);}
	.st13{fill:url(#SVGID_12_);}
</style>
<rect x="0" y="0" class="st0" width="300" height="300"/>
<g>
	<path class="st1" d="M68.6,114.2v20.7H63v-7.3l-4.7,3.9l-4.7-3.9v7.3h-5.7v-20.7l10.3,8.4L68.6,114.2z"/>
	<path class="st1" d="M89,131.9c-2,2-4.5,3-7.5,3s-5.4-1-7.5-3c-2-2-3-4.5-3-7.4c0-2.9,1-5.4,3-7.4c2-2,4.5-3,7.5-3s5.4,1,7.5,3
		s3,4.5,3,7.4C92,127.5,91,129.9,89,131.9z M78,128c0.9,0.9,2.1,1.4,3.5,1.4c1.4,0,2.6-0.5,3.5-1.4c0.9-0.9,1.4-2.1,1.4-3.4
		c0-1.4-0.5-2.5-1.4-3.4c-0.9-0.9-2.1-1.4-3.5-1.4c-1.4,0-2.6,0.5-3.5,1.4s-1.4,2.1-1.4,3.4C76.7,125.9,77.1,127.1,78,128z"/>
	<path class="st1" d="M105.2,114.2h5.7v20.7l-10.8-8.9v8.9h-5.7v-20.7l10.8,8.6L105.2,114.2z"/>
	
		<linearGradient id="SVGID_1_" gradientUnits="userSpaceOnUse" x1="254.5034" y1="140.2231" x2="272.4108" y2="192.2301" gradientTransform="matrix(1 0 0 -1 -147.6378 329.0551)">
		<stop  offset="0" style="stop-color:#00EBFC"/>
		<stop  offset="1" style="stop-color:#0025FF"/>
	</linearGradient>
	<path class="st2" d="M121.3,139.8h12.2v46l-23.1-19.7v19.7H98.2v-46l23.1,19L121.3,139.8z"/>
	
		<linearGradient id="SVGID_2_" gradientUnits="userSpaceOnUse" x1="275.9528" y1="171.79" x2="251.3533" y2="160.8376" gradientTransform="matrix(1 0 0 -1 -147.6378 329.0551)">
		<stop  offset="0" style="stop-color:#00EBFC"/>
		<stop  offset="1" style="stop-color:#0025FF"/>
	</linearGradient>
	<path class="st3" d="M133.4,168.8v17.1l-35.2-30v-16L133.4,168.8z"/>
	
		<linearGradient id="SVGID_3_" gradientUnits="userSpaceOnUse" x1="367.1722" y1="166.2266" x2="331.9369" y2="166.2266" gradientTransform="matrix(1 0 0 -1 -147.6378 329.0551)">
		<stop  offset="0" style="stop-color:#00EBFC"/>
		<stop  offset="1" style="stop-color:#0025FF"/>
	</linearGradient>
	<path class="st4" d="M207.4,139.8h12.2v46l-23.1-19.7v19.7h-12.2v-46l23.1,19L207.4,139.8z"/>
	
		<linearGradient id="SVGID_4_" gradientUnits="userSpaceOnUse" x1="343.7329" y1="191.9702" x2="355.6074" y2="140.5363" gradientTransform="matrix(1 0 0 -1 -147.6378 329.0551)">
		<stop  offset="0" style="stop-color:#00EBFC"/>
		<stop  offset="1" style="stop-color:#0025FF"/>
	</linearGradient>
	<path class="st5" d="M219.5,168.8v17.1l-35.2-30v-16L219.5,168.8z"/>
	<path class="st1" d="M118.9,129h7.4v5.9h-13v-20.7h13v5.9h-7.4v1.5h4.5v5.9h-4.5V129z"/>
	
		<linearGradient id="SVGID_5_" gradientUnits="userSpaceOnUse" x1="403.8648" y1="185.3662" x2="366.8989" y2="147.087" gradientTransform="matrix(1 0 0 -1 -147.6378 329.0551)">
		<stop  offset="0" style="stop-color:#00EBFC"/>
		<stop  offset="1" style="stop-color:#0025FF"/>
	</linearGradient>
	<path class="st6" d="M235.9,172.7h16.3v13.2h-28.9v-46h28.9V153h-16.3v3.3h9.9v13.2h-9.9V172.7z"/>
	
		<linearGradient id="SVGID_6_" gradientUnits="userSpaceOnUse" x1="362.7538" y1="149.5844" x2="385.6502" y2="178.8905" gradientTransform="matrix(1 0 0 -1 -147.6378 329.0551)">
		<stop  offset="0" style="stop-color:#00EBFC"/>
		<stop  offset="1" style="stop-color:#0025FF"/>
	</linearGradient>
	<path class="st7" d="M235.9,172.7l-12.6,13.2v-46l12.6,13.2v3.3h9.9v13.2h-9.9V172.7z"/>
	<path class="st1" d="M143.6,114.2v5.9H139v14.8h-5.7v-14.8h-4.7v-5.9H143.6z"/>
	<path class="st1" d="M146,114.2h5.7v20.7H146V114.2z"/>
	<path class="st1" d="M162.3,129h5.8v5.9h-14l5.5-14.8h-5.5v-5.9h14L162.3,129z"/>
	<path class="st1" d="M183.7,134.9l-0.7-2.7l-12.5,2.7l6.3-20.7h6.6l6.3,20.7H183.7z M178.5,127.5l3.2-0.5l-1.5-5.8L178.5,127.5z"/>
	<path class="st1" d="M219.2,114.2c2.7,0,5,1,6.9,3s2.8,4.5,2.8,7.4c0,2.9-0.9,5.4-2.8,7.4c-1.8,2-4.1,3-6.9,3h-8.2v-20.7H219.2z
		 M219.2,129.2c1.2,0,2.1-0.4,2.9-1.3c0.7-0.9,1.1-2,1.1-3.3c0-1.4-0.4-2.5-1.1-3.3s-1.7-1.3-2.9-1.3h-2.3v9.2L219.2,129.2
		L219.2,129.2z"/>
	<path class="st1" d="M249.2,131.9c-2,2-4.5,3-7.5,3c-2.9,0-5.4-1-7.5-3c-2-2-3-4.5-3-7.4c0-2.9,1-5.4,3-7.4s4.5-3,7.5-3
		c2.9,0,5.4,1,7.5,3s3,4.5,3,7.4C252.2,127.5,251.2,129.9,249.2,131.9z M238.2,128c0.9,0.9,2.1,1.4,3.5,1.4c1.4,0,2.6-0.5,3.5-1.4
		c0.9-0.9,1.4-2.1,1.4-3.4c0-1.4-0.5-2.5-1.4-3.4s-2.1-1.4-3.5-1.4c-1.4,0-2.6,0.5-3.5,1.4c-0.9,0.9-1.4,2.1-1.4,3.4
		C236.8,125.9,237.3,127.1,238.2,128z"/>
	
		<linearGradient id="SVGID_7_" gradientUnits="userSpaceOnUse" x1="206.7865" y1="146.2965" x2="230.7349" y2="186.1532" gradientTransform="matrix(1 0 0 -1 -147.6378 329.0551)">
		<stop  offset="0" style="stop-color:#00EBFC"/>
		<stop  offset="1" style="stop-color:#0025FF"/>
	</linearGradient>
	<path class="st8" d="M87.7,179.2c-4.5,4.4-10,6.6-16.6,6.6c-6.5,0-12.1-2.2-16.6-6.6c-4.5-4.4-6.8-9.9-6.8-16.4s2.2-12,6.8-16.4
		c4.5-4.4,10-6.6,16.6-6.6c6.5,0,12.1,2.2,16.6,6.6c4.5,4.4,6.8,9.9,6.8,16.4C94.5,169.3,92.2,174.8,87.7,179.2z M63.4,170.5
		c2,2,4.6,3,7.7,3c3.1,0,5.7-1,7.7-3c2-2,3-4.6,3-7.6s-1-5.6-3-7.6c-2-2-4.6-3-7.7-3c-3.1,0-5.7,1-7.7,3c-2,2-3,4.6-3,7.6
		C60.4,165.9,61.4,168.4,63.4,170.5z"/>
	
		<linearGradient id="SVGID_8_" gradientUnits="userSpaceOnUse" x1="290.0616" y1="190.1711" x2="298.7505" y2="140.8938" gradientTransform="matrix(1 0 0 -1 -147.6378 329.0551)">
		<stop  offset="0" style="stop-color:#00EBFC"/>
		<stop  offset="1" style="stop-color:#0025FF"/>
	</linearGradient>
	<path class="st9" d="M149.8,173.1l14.5,12.8h-27v-46h12.6V173.1L149.8,173.1z"/>
	
		<linearGradient id="SVGID_9_" gradientUnits="userSpaceOnUse" x1="284.82" y1="155.1093" x2="311.8654" y2="155.1093" gradientTransform="matrix(1 0 0 -1 -147.6378 329.0551)">
		<stop  offset="0" style="stop-color:#00EBFC"/>
		<stop  offset="1" style="stop-color:#0025FF"/>
	</linearGradient>
	<path class="st10" d="M164.2,185.8h-27V162L164.2,185.8z"/>
	
		<linearGradient id="SVGID_10_" gradientUnits="userSpaceOnUse" x1="314.5349" y1="188.8974" x2="329.2673" y2="143.5558" gradientTransform="matrix(1 0 0 -1 -147.6378 329.0551)">
		<stop  offset="0" style="stop-color:#00EBFC"/>
		<stop  offset="1" style="stop-color:#0025FF"/>
	</linearGradient>
	<path class="st11" d="M168,139.8h12.6v46H168V139.8z"/>
	
		<linearGradient id="SVGID_11_" gradientUnits="userSpaceOnUse" x1="311.7569" y1="163.032" x2="332.5034" y2="167.0647" gradientTransform="matrix(1 0 0 -1 -147.6378 329.0551)">
		<stop  offset="0" style="stop-color:#00EBFC"/>
		<stop  offset="1" style="stop-color:#0025FF"/>
	</linearGradient>
	<path class="st12" d="M180.6,139.8v46H168L180.6,139.8z"/>
	<path class="st1" d="M202.9,114.2h5.7v20.7l-10.8-8.9v8.9h-5.7v-20.7l10.8,8.6V114.2z"/>
	
		<linearGradient id="SVGID_12_" gradientUnits="userSpaceOnUse" x1="214.1796" y1="189.1136" x2="215.4765" y2="151.9762" gradientTransform="matrix(1 0 0 -1 -147.6378 329.0551)">
		<stop  offset="0" style="stop-color:#00EBFC"/>
		<stop  offset="1" style="stop-color:#0025FF"/>
	</linearGradient>
	<path class="st13" d="M54.6,146.4c-4.5,4.4-6.8,9.9-6.8,16.4c0,4.5,1.1,8.4,3.2,11.9c3.3,1.6,7,2.5,10.9,2.5
		c13.6,0,24.6-11,24.6-24.6c0-3-0.5-5.8-1.5-8.5c-4-2.9-8.6-4.4-13.9-4.4C64.6,139.8,59.1,142,54.6,146.4z M81.9,162.8
		c0,3.1-1,5.6-3,7.6c-2,2-4.6,3-7.7,3c-3.1,0-5.7-1-7.7-3c-2-2-3-4.6-3-7.6s1-5.6,3-7.6c2-2,4.6-3,7.7-3c3.1,0,5.7,1,7.7,3
		C80.9,157.2,81.9,159.8,81.9,162.8z"/>
</g>
</svg>
