<?xml version="1.0" encoding="utf-8"?>
<!-- Generator: Adobe Illustrator 24.2.1, SVG Export Plug-In . SVG Version: 6.00 Build 0)  -->
<svg version="1.1" id="Camada_1" xmlns="http://www.w3.org/2000/svg" xmlns:xlink="http://www.w3.org/1999/xlink" x="0px" y="0px"
	 width="300px" height="308.9px" viewBox="0 0 300 308.9" style="enable-background:new 0 0 300 308.9;" xml:space="preserve">
<style type="text/css">
	.st0{fill:#7B7E8A;}
	.st1{fill:#02103F;}
	.st2{fill:url(#SVGID_1_);}
	.st3{fill:#FFFFFF;}
	.st4{fill:#B6B8BF;}
	.st5{fill:url(#SVGID_2_);}
	.st6{fill:url(#SVGID_3_);}
	.st7{fill:url(#SVGID_4_);}
	.st8{fill:#E8E9EB;}
</style>
<path class="st0" d="M79.1,305.6H32.8c-2.4,0-4.4-2-4.4-4.4v-5.7c0-2.4,2-4.4,4.4-4.4h46.3c2.4,0,4.4,2,4.4,4.4v5.7
	C83.5,303.6,81.6,305.6,79.1,305.6z"/>
<path class="st1" d="M165.4,305.6H112c-2.4,0-4.4-2-4.4-4.4v-5.7c0-2.4,2-4.4,4.4-4.4h53.5c2.4,0,4.4,2,4.4,4.4v5.7
	C169.9,303.6,167.9,305.6,165.4,305.6z"/>
<linearGradient id="SVGID_1_" gradientUnits="userSpaceOnUse" x1="193.843" y1="298.3298" x2="271.1919" y2="298.3298">
	<stop  offset="0" style="stop-color:#00EBFC"/>
	<stop  offset="1" style="stop-color:#0025FF"/>
</linearGradient>
<path class="st2" d="M266.8,305.6h-68.5c-2.4,0-4.4-2-4.4-4.4v-5.7c0-2.4,2-4.4,4.4-4.4h68.5c2.4,0,4.4,2,4.4,4.4v5.7
	C271.2,303.6,269.2,305.6,266.8,305.6z"/>
<g>
	<path class="st3" d="M37.3,301.1h-2.8l-0.4,1.2h-1.9l2.5-7.4H37l2.5,7.4h-1.9L37.3,301.1z M36.8,299.5l-0.9-2.7l-0.9,2.7H36.8z"/>
	<path class="st3" d="M41.9,296.5v1.4h2.8v1.6h-2.8v2.7h-1.7v-7.4h4.5v1.6H41.9z"/>
	<path class="st3" d="M47.4,294.8v7.4h-1.7v-7.4H47.4z"/>
	<path class="st3" d="M53,300.6v1.6h-4.3v-7.4h1.7v5.8H53z"/>
	<path class="st3" d="M55.4,294.8v7.4h-1.7v-7.4H55.4z"/>
	<path class="st3" d="M61.1,301.1h-2.8l-0.4,1.2h-1.9l2.5-7.4h2.2l2.5,7.4h-1.9L61.1,301.1z M60.5,299.5l-0.9-2.7l-0.9,2.7H60.5z"/>
	<path class="st3" d="M70.5,298.5c0,2.1-1.6,3.7-3.6,3.7h-3v-7.4h3C68.9,294.8,70.5,296.4,70.5,298.5z M68.9,298.5
		c0-1.3-0.8-2.1-2-2.1h-1.3v4.2h1.3C68,300.6,68.9,299.8,68.9,298.5z"/>
	<path class="st3" d="M71.1,298.5c0-2.2,1.7-3.9,3.9-3.9c2.1,0,3.9,1.7,3.9,3.9c0,2.2-1.7,3.9-3.9,3.9
		C72.8,302.4,71.1,300.7,71.1,298.5z M77.1,298.5c0-1.3-1-2.2-2.2-2.2c-1.2,0-2.2,0.9-2.2,2.2s1,2.2,2.2,2.2
		C76.2,300.7,77.1,299.9,77.1,298.5z"/>
</g>
<g>
	<path class="st3" d="M197.3,298.5c0-2.2,1.6-3.9,3.9-3.9c1.3,0,2.5,0.7,3.2,1.7l-1.5,0.8c-0.3-0.6-1-0.9-1.7-0.9
		c-1.3,0-2.2,0.9-2.2,2.2s0.8,2.2,2.2,2.2c0.8,0,1.4-0.3,1.7-0.9l1.5,0.8c-0.6,1-1.8,1.7-3.2,1.7
		C198.9,302.4,197.3,300.7,197.3,298.5z"/>
	<path class="st3" d="M204.7,298.5c0-2.2,1.7-3.9,3.9-3.9s3.9,1.7,3.9,3.9c0,2.2-1.7,3.9-3.9,3.9S204.7,300.7,204.7,298.5z
		 M210.7,298.5c0-1.3-1-2.2-2.2-2.2c-1.2,0-2.2,0.9-2.2,2.2s1,2.2,2.2,2.2C209.8,300.7,210.7,299.9,210.7,298.5z"/>
	<path class="st3" d="M218.8,297.4c0,1.4-1.1,2.5-2.6,2.5h-1.1v2.3h-1.7v-7.4h2.8C217.7,294.8,218.8,296,218.8,297.4z M217.1,297.4
		c0-0.5-0.4-1-0.9-1h-1.1v1.9h1.1C216.7,298.3,217.1,297.9,217.1,297.4z"/>
	<path class="st3" d="M222.1,299.8h-0.8v2.4h-1.7v-7.4h3c1.4,0,2.5,1.1,2.5,2.5c0,0.9-0.6,1.7-1.4,2.2l1.6,2.7h-1.8L222.1,299.8z
		 M221.3,298.3h1.3c0.5,0,0.8-0.4,0.8-1s-0.4-1-0.8-1h-1.3V298.3z"/>
	<path class="st3" d="M225.7,298.5c0-2.2,1.7-3.9,3.9-3.9c2.1,0,3.9,1.7,3.9,3.9c0,2.2-1.7,3.9-3.9,3.9
		C227.5,302.4,225.7,300.7,225.7,298.5z M231.8,298.5c0-1.3-1-2.2-2.2-2.2c-1.2,0-2.2,0.9-2.2,2.2s1,2.2,2.2,2.2
		C230.8,300.7,231.8,299.9,231.8,298.5z"/>
	<path class="st3" d="M241,298.5c0,2.1-1.6,3.7-3.6,3.7h-3v-7.4h3C239.4,294.8,241,296.4,241,298.5z M239.3,298.5
		c0-1.3-0.8-2.1-2-2.1h-1.3v4.2h1.3C238.5,300.6,239.3,299.8,239.3,298.5z"/>
	<path class="st3" d="M241.8,299.8v-5h1.7v4.9c0,0.6,0.3,1,1.2,1s1.2-0.5,1.2-1v-4.9h1.7v5c0,1.6-1.2,2.5-2.9,2.5
		S241.8,301.4,241.8,299.8z"/>
	<path class="st3" d="M253.7,296.5h-1.9v5.8h-1.7v-5.8h-1.9v-1.6h5.5V296.5z"/>
	<path class="st3" d="M253.7,298.5c0-2.2,1.7-3.9,3.9-3.9c2.1,0,3.9,1.7,3.9,3.9c0,2.2-1.7,3.9-3.9,3.9
		C255.5,302.4,253.7,300.7,253.7,298.5z M259.8,298.5c0-1.3-1-2.2-2.2-2.2c-1.2,0-2.2,0.9-2.2,2.2s1,2.2,2.2,2.2
		C258.8,300.7,259.8,299.9,259.8,298.5z"/>
	<path class="st3" d="M264.9,299.8h-0.8v2.4h-1.7v-7.4h3c1.4,0,2.5,1.1,2.5,2.5c0,0.9-0.6,1.7-1.4,2.2l1.6,2.7h-1.8L264.9,299.8z
		 M264.1,298.3h1.3c0.5,0,0.8-0.4,0.8-1s-0.4-1-0.8-1h-1.3V298.3z"/>
</g>
<g>
	<path class="st3" d="M117.5,297.4c0,1.4-1.1,2.5-2.6,2.5h-1.1v2.3h-1.7v-7.4h2.8C116.3,294.8,117.5,296,117.5,297.4z M115.8,297.4
		c0-0.5-0.4-1-0.9-1h-1.1v1.9h1.1C115.4,298.3,115.8,297.9,115.8,297.4z"/>
	<path class="st3" d="M120.8,299.8H120v2.4h-1.7v-7.4h3c1.4,0,2.5,1.1,2.5,2.5c0,0.9-0.6,1.7-1.4,2.2l1.6,2.7h-1.8L120.8,299.8z
		 M120,298.3h1.3c0.5,0,0.8-0.4,0.8-1s-0.4-1-0.8-1H120V298.3z"/>
	<path class="st3" d="M124.4,298.5c0-2.2,1.7-3.9,3.9-3.9c2.1,0,3.9,1.7,3.9,3.9c0,2.2-1.7,3.9-3.9,3.9
		C126.1,302.4,124.4,300.7,124.4,298.5z M130.4,298.5c0-1.3-1-2.2-2.2-2.2c-1.2,0-2.2,0.9-2.2,2.2s1,2.2,2.2,2.2
		C129.5,300.7,130.4,299.9,130.4,298.5z"/>
	<path class="st3" d="M139.6,298.5c0,2.1-1.6,3.7-3.6,3.7h-3v-7.4h3C138.1,294.8,139.6,296.4,139.6,298.5z M138,298.5
		c0-1.3-0.8-2.1-2-2.1h-1.3v4.2h1.3C137.2,300.6,138,299.8,138,298.5z"/>
	<path class="st3" d="M140.5,299.8v-5h1.7v4.9c0,0.6,0.3,1,1.2,1s1.2-0.5,1.2-1v-4.9h1.7v5c0,1.6-1.2,2.5-2.9,2.5
		C141.7,302.4,140.5,301.4,140.5,299.8z"/>
	<path class="st3" d="M152.4,296.5h-1.9v5.8h-1.7v-5.8h-1.9v-1.6h5.5V296.5z"/>
	<path class="st3" d="M152.4,298.5c0-2.2,1.7-3.9,3.9-3.9c2.1,0,3.9,1.7,3.9,3.9c0,2.2-1.7,3.9-3.9,3.9
		C154.1,302.4,152.4,300.7,152.4,298.5z M158.4,298.5c0-1.3-1-2.2-2.2-2.2c-1.2,0-2.2,0.9-2.2,2.2s1,2.2,2.2,2.2
		C157.5,300.7,158.4,299.9,158.4,298.5z"/>
	<path class="st3" d="M163.6,299.8h-0.8v2.4h-1.7v-7.4h3c1.4,0,2.5,1.1,2.5,2.5c0,0.9-0.6,1.7-1.4,2.2l1.6,2.7H165L163.6,299.8z
		 M162.8,298.3h1.3c0.5,0,0.8-0.4,0.8-1s-0.4-1-0.8-1h-1.3V298.3z"/>
</g>
<g>
	<path class="st4" d="M9.1,26.8l-1.9-3.2h-2v3.2H4.1v-8.4h3.4c0.7,0,1.3,0.3,1.8,0.8c0.5,0.5,0.8,1.1,0.8,1.8c0,0.5-0.2,1-0.5,1.5
		c-0.3,0.4-0.7,0.8-1.3,0.9l2,3.4H9.1z M5.2,19.5v3.1h2.2c0.4,0,0.8-0.2,1.1-0.5c0.3-0.3,0.4-0.7,0.4-1.1s-0.1-0.8-0.4-1.1
		s-0.6-0.5-1.1-0.5H5.2z"/>
	<path class="st4" d="M16.7,24.6c0,0.7-0.2,1.2-0.6,1.6c-0.4,0.4-1,0.7-1.7,0.8V28h-0.8V27c-0.7,0-1.2-0.2-1.7-0.5s-0.8-0.7-1-1.3
		l1-0.6c0.3,0.7,0.8,1.2,1.7,1.3V23c-0.4-0.1-0.7-0.2-0.9-0.4c-0.2-0.1-0.5-0.3-0.7-0.4s-0.4-0.4-0.5-0.7s-0.2-0.6-0.2-0.9
		c0-0.6,0.2-1.2,0.6-1.6c0.4-0.4,1-0.6,1.6-0.7v-1.1h0.8v1.1c0.5,0.1,0.9,0.2,1.3,0.5c0.4,0.3,0.7,0.6,0.9,1.1l-0.9,0.5
		c-0.2-0.6-0.6-0.9-1.2-1v2.8c0.4,0.1,0.7,0.3,0.9,0.4s0.5,0.3,0.7,0.4c0.3,0.2,0.4,0.4,0.6,0.7S16.7,24.2,16.7,24.6z M12.5,20.6
		c0,0.3,0.1,0.6,0.3,0.7c0.2,0.2,0.5,0.4,0.9,0.5v-2.5c-0.4,0-0.6,0.2-0.8,0.4S12.5,20.2,12.5,20.6z M14.4,25.9
		c0.4-0.1,0.7-0.2,0.9-0.4s0.3-0.5,0.3-0.8s-0.1-0.6-0.3-0.8c-0.2-0.2-0.5-0.4-0.9-0.6V25.9z"/>
	<path class="st4" d="M23.4,21.7c0.8,0,1.5,0.2,2,0.7c0.5,0.5,0.8,1.1,0.8,1.9c0,0.8-0.3,1.5-0.8,1.9c-0.6,0.5-1.2,0.7-2,0.7
		c-0.6,0-1.2-0.2-1.7-0.5c-0.5-0.3-0.9-0.8-1.1-1.3l0.9-0.5c0.1,0.4,0.3,0.7,0.6,0.9c0.3,0.2,0.7,0.3,1.2,0.3c0.5,0,1-0.1,1.3-0.4
		c0.3-0.3,0.5-0.7,0.5-1.1s-0.2-0.9-0.5-1.1c-0.3-0.3-0.7-0.4-1.3-0.4H21l0.3-4.4h4.6v1h-3.6l-0.1,2.2H23.4z"/>
	<path class="st4" d="M32.6,25.8C32,26.6,31.2,27,30.2,27c-1,0-1.8-0.4-2.4-1.2S27,23.9,27,22.6c0-1.3,0.3-2.4,0.9-3.2
		s1.4-1.2,2.4-1.2c1,0,1.8,0.4,2.4,1.2c0.6,0.8,0.9,1.8,0.9,3.2C33.4,23.9,33.2,25,32.6,25.8z M28.6,25c0.4,0.6,0.9,0.9,1.6,0.9
		c0.7,0,1.2-0.3,1.6-0.9c0.4-0.6,0.6-1.4,0.6-2.4c0-1-0.2-1.8-0.6-2.4c-0.4-0.6-0.9-0.9-1.6-0.9c-0.7,0-1.2,0.3-1.6,0.9
		c-0.4,0.6-0.6,1.4-0.6,2.4C28.1,23.7,28.3,24.5,28.6,25z"/>
	<path class="st4" d="M35.1,27c-0.2,0-0.4-0.1-0.6-0.2c-0.2-0.2-0.2-0.3-0.2-0.6s0.1-0.4,0.2-0.6c0.2-0.2,0.3-0.2,0.6-0.2
		c0.2,0,0.4,0.1,0.6,0.2c0.1,0.2,0.2,0.3,0.2,0.6s-0.1,0.4-0.2,0.6C35.5,26.9,35.3,27,35.1,27z"/>
	<path class="st4" d="M42.3,25.8C41.8,26.6,41,27,40,27c-1,0-1.8-0.4-2.4-1.2s-0.9-1.8-0.9-3.2c0-1.3,0.3-2.4,0.9-3.2
		s1.4-1.2,2.4-1.2c1,0,1.8,0.4,2.4,1.2c0.6,0.8,0.9,1.8,0.9,3.2C43.2,23.9,42.9,25,42.3,25.8z M38.4,25c0.4,0.6,0.9,0.9,1.6,0.9
		c0.7,0,1.2-0.3,1.6-0.9c0.4-0.6,0.6-1.4,0.6-2.4c0-1-0.2-1.8-0.6-2.4c-0.4-0.6-0.9-0.9-1.6-0.9c-0.7,0-1.2,0.3-1.6,0.9
		c-0.4,0.6-0.6,1.4-0.6,2.4C37.8,23.7,38,24.5,38.4,25z"/>
	<path class="st4" d="M49.9,25.8c-0.6,0.8-1.4,1.2-2.4,1.2c-1,0-1.8-0.4-2.4-1.2c-0.6-0.8-0.9-1.8-0.9-3.2c0-1.3,0.3-2.4,0.9-3.2
		c0.6-0.8,1.4-1.2,2.4-1.2c1,0,1.8,0.4,2.4,1.2c0.6,0.8,0.9,1.8,0.9,3.2C50.8,23.9,50.5,25,49.9,25.8z M45.9,25
		c0.4,0.6,0.9,0.9,1.6,0.9s1.2-0.3,1.6-0.9c0.4-0.6,0.6-1.4,0.6-2.4c0-1-0.2-1.8-0.6-2.4c-0.4-0.6-0.9-0.9-1.6-0.9s-1.2,0.3-1.6,0.9
		c-0.4,0.6-0.6,1.4-0.6,2.4C45.4,23.7,45.6,24.5,45.9,25z"/>
	<path class="st4" d="M57.5,25.8c-0.6,0.8-1.4,1.2-2.4,1.2c-1,0-1.8-0.4-2.4-1.2s-0.9-1.8-0.9-3.2c0-1.3,0.3-2.4,0.9-3.2
		s1.4-1.2,2.4-1.2c1,0,1.8,0.4,2.4,1.2c0.6,0.8,0.9,1.8,0.9,3.2C58.3,23.9,58,25,57.5,25.8z M53.5,25c0.4,0.6,0.9,0.9,1.6,0.9
		c0.7,0,1.2-0.3,1.6-0.9c0.4-0.6,0.6-1.4,0.6-2.4c0-1-0.2-1.8-0.6-2.4c-0.4-0.6-0.9-0.9-1.6-0.9c-0.7,0-1.2,0.3-1.6,0.9
		c-0.4,0.6-0.6,1.4-0.6,2.4C53,23.7,53.1,24.5,53.5,25z"/>
	<path class="st4" d="M10.1,68.8l-1.9-3.2h-2v3.2H5.1v-8.4h3.4c0.7,0,1.3,0.3,1.8,0.8c0.5,0.5,0.8,1.1,0.8,1.8c0,0.5-0.2,1-0.5,1.5
		c-0.3,0.4-0.7,0.8-1.3,0.9l2,3.4H10.1z M6.2,61.5v3.1h2.2c0.4,0,0.8-0.2,1.1-0.5c0.3-0.3,0.4-0.7,0.4-1.1s-0.1-0.8-0.4-1.1
		s-0.6-0.5-1.1-0.5H6.2z"/>
	<path class="st4" d="M17.7,66.6c0,0.7-0.2,1.2-0.6,1.6c-0.4,0.4-1,0.7-1.7,0.8V70h-0.8V69c-0.7,0-1.2-0.2-1.7-0.5s-0.8-0.7-1-1.3
		l1-0.6c0.3,0.7,0.8,1.2,1.7,1.3V65c-0.4-0.1-0.7-0.2-0.9-0.4c-0.2-0.1-0.5-0.3-0.7-0.4c-0.2-0.2-0.4-0.4-0.5-0.7s-0.2-0.6-0.2-0.9
		c0-0.6,0.2-1.2,0.6-1.6c0.4-0.4,1-0.6,1.6-0.7v-1.1h0.8v1.1c0.5,0.1,0.9,0.2,1.3,0.5c0.4,0.3,0.7,0.6,0.9,1.1l-0.9,0.5
		c-0.2-0.6-0.6-0.9-1.2-1v2.8c0.4,0.1,0.7,0.3,0.9,0.4s0.5,0.3,0.7,0.4c0.3,0.2,0.4,0.4,0.6,0.7S17.7,66.2,17.7,66.6z M13.5,62.6
		c0,0.3,0.1,0.6,0.3,0.7c0.2,0.2,0.5,0.4,0.9,0.5v-2.5c-0.4,0-0.6,0.2-0.8,0.4S13.5,62.2,13.5,62.6z M15.4,67.9
		c0.4-0.1,0.7-0.2,0.9-0.4s0.3-0.5,0.3-0.8s-0.1-0.6-0.3-0.8c-0.2-0.2-0.5-0.4-0.9-0.6V67.9z"/>
	<path class="st4" d="M21.6,68.8v-0.9l3-3c0.8-0.8,1.2-1.5,1.2-2c0-0.5-0.1-0.8-0.4-1.1s-0.6-0.4-1.1-0.4c-0.8,0-1.4,0.4-1.7,1.1
		l-0.9-0.6c0.3-0.5,0.6-1,1.1-1.2c0.5-0.3,1-0.4,1.6-0.4c0.7,0,1.3,0.2,1.8,0.7c0.5,0.5,0.8,1.1,0.8,1.9c0,0.8-0.5,1.8-1.5,2.8
		l-2.1,2.1H27v1.1H21.6z"/>
	<path class="st4" d="M30.6,63.7c0.8,0,1.5,0.2,2,0.7c0.5,0.5,0.8,1.1,0.8,1.9c0,0.8-0.3,1.5-0.8,1.9c-0.6,0.5-1.2,0.7-2,0.7
		c-0.6,0-1.2-0.2-1.7-0.5c-0.5-0.3-0.9-0.8-1.1-1.3l0.9-0.5c0.1,0.4,0.3,0.7,0.6,0.9s0.7,0.3,1.2,0.3c0.5,0,1-0.1,1.3-0.4
		c0.3-0.3,0.5-0.7,0.5-1.1s-0.2-0.9-0.5-1.1c-0.3-0.3-0.7-0.4-1.3-0.4h-2.4l0.3-4.4h4.6v1h-3.6l-0.1,2.2H30.6z"/>
	<path class="st4" d="M35.1,69c-0.2,0-0.4-0.1-0.6-0.2c-0.2-0.2-0.2-0.3-0.2-0.6s0.1-0.4,0.2-0.6c0.2-0.2,0.3-0.2,0.6-0.2
		c0.2,0,0.4,0.1,0.6,0.2c0.1,0.2,0.2,0.3,0.2,0.6s-0.1,0.4-0.2,0.6C35.5,68.9,35.3,69,35.1,69z"/>
	<path class="st4" d="M42.3,67.8C41.8,68.6,41,69,40,69c-1,0-1.8-0.4-2.4-1.2s-0.9-1.8-0.9-3.2c0-1.3,0.3-2.4,0.9-3.2
		s1.4-1.2,2.4-1.2c1,0,1.8,0.4,2.4,1.2c0.6,0.8,0.9,1.8,0.9,3.2C43.2,65.9,42.9,67,42.3,67.8z M38.4,67c0.4,0.6,0.9,0.9,1.6,0.9
		c0.7,0,1.2-0.3,1.6-0.9c0.4-0.6,0.6-1.4,0.6-2.4c0-1-0.2-1.8-0.6-2.4c-0.4-0.6-0.9-0.9-1.6-0.9c-0.7,0-1.2,0.3-1.6,0.9
		c-0.4,0.6-0.6,1.4-0.6,2.4C37.8,65.7,38,66.5,38.4,67z"/>
	<path class="st4" d="M49.9,67.8c-0.6,0.8-1.4,1.2-2.4,1.2c-1,0-1.8-0.4-2.4-1.2c-0.6-0.8-0.9-1.8-0.9-3.2c0-1.3,0.3-2.4,0.9-3.2
		c0.6-0.8,1.4-1.2,2.4-1.2c1,0,1.8,0.4,2.4,1.2c0.6,0.8,0.9,1.8,0.9,3.2C50.8,65.9,50.5,67,49.9,67.8z M45.9,67
		c0.4,0.6,0.9,0.9,1.6,0.9s1.2-0.3,1.6-0.9c0.4-0.6,0.6-1.4,0.6-2.4c0-1-0.2-1.8-0.6-2.4c-0.4-0.6-0.9-0.9-1.6-0.9s-1.2,0.3-1.6,0.9
		c-0.4,0.6-0.6,1.4-0.6,2.4C45.4,65.7,45.6,66.5,45.9,67z"/>
	<path class="st4" d="M57.5,67.8c-0.6,0.8-1.4,1.2-2.4,1.2c-1,0-1.8-0.4-2.4-1.2s-0.9-1.8-0.9-3.2c0-1.3,0.3-2.4,0.9-3.2
		s1.4-1.2,2.4-1.2c1,0,1.8,0.4,2.4,1.2c0.6,0.8,0.9,1.8,0.9,3.2C58.3,65.9,58,67,57.5,67.8z M53.5,67c0.4,0.6,0.9,0.9,1.6,0.9
		c0.7,0,1.2-0.3,1.6-0.9c0.4-0.6,0.6-1.4,0.6-2.4c0-1-0.2-1.8-0.6-2.4c-0.4-0.6-0.9-0.9-1.6-0.9c-0.7,0-1.2,0.3-1.6,0.9
		c-0.4,0.6-0.6,1.4-0.6,2.4C53,65.7,53.1,66.5,53.5,67z"/>
	<path class="st4" d="M11.1,110.8l-1.9-3.2h-2v3.2H6.1v-8.4h3.4c0.7,0,1.3,0.3,1.8,0.8c0.5,0.5,0.8,1.1,0.8,1.8c0,0.5-0.2,1-0.5,1.5
		c-0.3,0.4-0.7,0.8-1.3,0.9l2,3.4H11.1z M7.2,103.5v3.1h2.2c0.4,0,0.8-0.2,1.1-0.5c0.3-0.3,0.4-0.7,0.4-1.1s-0.1-0.8-0.4-1.1
		s-0.6-0.5-1.1-0.5H7.2z"/>
	<path class="st4" d="M18.7,108.6c0,0.7-0.2,1.2-0.6,1.6s-1,0.7-1.7,0.8v1.1h-0.8V111c-0.7,0-1.2-0.2-1.7-0.5
		c-0.5-0.3-0.8-0.7-1-1.3l1-0.6c0.3,0.7,0.8,1.2,1.7,1.3V107c-0.4-0.1-0.7-0.2-0.9-0.4c-0.2-0.1-0.5-0.3-0.7-0.4s-0.4-0.4-0.5-0.7
		s-0.2-0.6-0.2-0.9c0-0.6,0.2-1.2,0.6-1.6c0.4-0.4,1-0.6,1.6-0.7v-1.1h0.8v1.1c0.5,0.1,0.9,0.2,1.3,0.5c0.4,0.3,0.7,0.6,0.9,1.1
		l-0.9,0.5c-0.2-0.6-0.6-0.9-1.2-1v2.8c0.4,0.1,0.7,0.3,0.9,0.4s0.5,0.3,0.7,0.4c0.3,0.2,0.4,0.4,0.6,0.7
		C18.7,107.9,18.7,108.2,18.7,108.6z M14.5,104.6c0,0.3,0.1,0.6,0.3,0.7c0.2,0.2,0.5,0.4,0.9,0.5v-2.5c-0.4,0-0.6,0.2-0.8,0.4
		S14.5,104.2,14.5,104.6z M16.4,109.9c0.4-0.1,0.7-0.2,0.9-0.4c0.2-0.2,0.3-0.5,0.3-0.8s-0.1-0.6-0.3-0.8c-0.2-0.2-0.5-0.4-0.9-0.6
		V109.9z"/>
	<path class="st4" d="M24.5,102.4h1v8.4h-1.1v-7.2l-1.8,0.5l-0.3-1L24.5,102.4z"/>
	<path class="st4" d="M32.6,109.8c-0.6,0.8-1.4,1.2-2.4,1.2c-1,0-1.8-0.4-2.4-1.2s-0.9-1.8-0.9-3.2c0-1.3,0.3-2.4,0.9-3.2
		s1.4-1.2,2.4-1.2c1,0,1.8,0.4,2.4,1.2c0.6,0.8,0.9,1.8,0.9,3.2C33.4,107.9,33.2,109,32.6,109.8z M28.6,109c0.4,0.6,0.9,0.9,1.6,0.9
		c0.7,0,1.2-0.3,1.6-0.9c0.4-0.6,0.6-1.4,0.6-2.4c0-1-0.2-1.8-0.6-2.4c-0.4-0.6-0.9-0.9-1.6-0.9c-0.7,0-1.2,0.3-1.6,0.9
		c-0.4,0.6-0.6,1.4-0.6,2.4C28.1,107.7,28.3,108.5,28.6,109z"/>
	<path class="st4" d="M35.1,111c-0.2,0-0.4-0.1-0.6-0.2c-0.2-0.2-0.2-0.3-0.2-0.6s0.1-0.4,0.2-0.6c0.2-0.2,0.3-0.2,0.6-0.2
		c0.2,0,0.4,0.1,0.6,0.2c0.1,0.2,0.2,0.3,0.2,0.6s-0.1,0.4-0.2,0.6C35.5,110.9,35.3,111,35.1,111z"/>
	<path class="st4" d="M42.3,109.8c-0.6,0.8-1.4,1.2-2.4,1.2c-1,0-1.8-0.4-2.4-1.2s-0.9-1.8-0.9-3.2c0-1.3,0.3-2.4,0.9-3.2
		s1.4-1.2,2.4-1.2c1,0,1.8,0.4,2.4,1.2c0.6,0.8,0.9,1.8,0.9,3.2C43.2,107.9,42.9,109,42.3,109.8z M38.4,109c0.4,0.6,0.9,0.9,1.6,0.9
		c0.7,0,1.2-0.3,1.6-0.9s0.6-1.4,0.6-2.4c0-1-0.2-1.8-0.6-2.4c-0.4-0.6-0.9-0.9-1.6-0.9c-0.7,0-1.2,0.3-1.6,0.9
		c-0.4,0.6-0.6,1.4-0.6,2.4C37.8,107.7,38,108.5,38.4,109z"/>
	<path class="st4" d="M49.9,109.8c-0.6,0.8-1.4,1.2-2.4,1.2c-1,0-1.8-0.4-2.4-1.2c-0.6-0.8-0.9-1.8-0.9-3.2c0-1.3,0.3-2.4,0.9-3.2
		c0.6-0.8,1.4-1.2,2.4-1.2c1,0,1.8,0.4,2.4,1.2c0.6,0.8,0.9,1.8,0.9,3.2C50.8,107.9,50.5,109,49.9,109.8z M45.9,109
		c0.4,0.6,0.9,0.9,1.6,0.9s1.2-0.3,1.6-0.9s0.6-1.4,0.6-2.4c0-1-0.2-1.8-0.6-2.4c-0.4-0.6-0.9-0.9-1.6-0.9s-1.2,0.3-1.6,0.9
		c-0.4,0.6-0.6,1.4-0.6,2.4C45.4,107.7,45.6,108.5,45.9,109z"/>
	<path class="st4" d="M57.5,109.8c-0.6,0.8-1.4,1.2-2.4,1.2c-1,0-1.8-0.4-2.4-1.2c-0.6-0.8-0.9-1.8-0.9-3.2c0-1.3,0.3-2.4,0.9-3.2
		c0.6-0.8,1.4-1.2,2.4-1.2c1,0,1.8,0.4,2.4,1.2c0.6,0.8,0.9,1.8,0.9,3.2C58.3,107.9,58,109,57.5,109.8z M53.5,109
		c0.4,0.6,0.9,0.9,1.6,0.9s1.2-0.3,1.6-0.9s0.6-1.4,0.6-2.4c0-1-0.2-1.8-0.6-2.4c-0.4-0.6-0.9-0.9-1.6-0.9s-1.2,0.3-1.6,0.9
		c-0.4,0.6-0.6,1.4-0.6,2.4C53,107.7,53.1,108.5,53.5,109z"/>
	<path class="st4" d="M16.3,152.8l-1.9-3.2h-2v3.2h-1.1v-8.4h3.4c0.7,0,1.3,0.3,1.8,0.8c0.5,0.5,0.8,1.1,0.8,1.8
		c0,0.5-0.2,1-0.5,1.5c-0.3,0.4-0.7,0.8-1.3,0.9l2,3.4H16.3z M12.4,145.5v3.1h2.2c0.4,0,0.8-0.2,1.1-0.5c0.3-0.3,0.4-0.7,0.4-1.1
		s-0.1-0.8-0.4-1.1c-0.3-0.3-0.6-0.5-1.1-0.5H12.4z"/>
	<path class="st4" d="M23.9,150.6c0,0.7-0.2,1.2-0.6,1.6c-0.4,0.4-1,0.7-1.7,0.8v1.1h-0.8V153c-0.7,0-1.2-0.2-1.7-0.5
		c-0.5-0.3-0.8-0.7-1-1.3l1-0.6c0.3,0.7,0.8,1.2,1.7,1.3V149c-0.4-0.1-0.7-0.2-0.9-0.4s-0.5-0.3-0.7-0.4c-0.2-0.2-0.4-0.4-0.5-0.7
		c-0.1-0.3-0.2-0.6-0.2-0.9c0-0.6,0.2-1.2,0.6-1.6c0.4-0.4,1-0.6,1.6-0.7v-1.1h0.8v1.1c0.5,0.1,0.9,0.2,1.3,0.5
		c0.4,0.3,0.7,0.6,0.9,1.1l-0.9,0.5c-0.2-0.6-0.6-0.9-1.2-1v2.8c0.4,0.1,0.7,0.3,0.9,0.4c0.2,0.1,0.5,0.3,0.7,0.4
		c0.3,0.2,0.4,0.4,0.6,0.7C23.9,149.9,23.9,150.2,23.9,150.6z M19.7,146.6c0,0.3,0.1,0.6,0.3,0.7c0.2,0.2,0.5,0.4,0.9,0.5v-2.5
		c-0.4,0-0.6,0.2-0.8,0.4S19.7,146.2,19.7,146.6z M21.6,151.9c0.4-0.1,0.7-0.2,0.9-0.4c0.2-0.2,0.3-0.5,0.3-0.8
		c0-0.3-0.1-0.6-0.3-0.8c-0.2-0.2-0.5-0.4-0.9-0.6V151.9z"/>
	<path class="st4" d="M30.6,147.7c0.8,0,1.5,0.2,2,0.7s0.8,1.1,0.8,1.9c0,0.8-0.3,1.5-0.8,1.9c-0.6,0.5-1.2,0.7-2,0.7
		c-0.6,0-1.2-0.2-1.7-0.5c-0.5-0.3-0.9-0.8-1.1-1.3l0.9-0.5c0.1,0.4,0.3,0.7,0.6,0.9s0.7,0.3,1.2,0.3c0.5,0,1-0.1,1.3-0.4
		c0.3-0.3,0.5-0.7,0.5-1.1c0-0.5-0.2-0.9-0.5-1.1c-0.3-0.3-0.7-0.4-1.3-0.4h-2.4l0.3-4.4h4.6v1h-3.6l-0.1,2.2H30.6z"/>
	<path class="st4" d="M35.1,153c-0.2,0-0.4-0.1-0.6-0.2c-0.2-0.2-0.2-0.3-0.2-0.6c0-0.2,0.1-0.4,0.2-0.6c0.2-0.2,0.3-0.2,0.6-0.2
		c0.2,0,0.4,0.1,0.6,0.2c0.1,0.2,0.2,0.3,0.2,0.6c0,0.2-0.1,0.4-0.2,0.6C35.5,152.9,35.3,153,35.1,153z"/>
	<path class="st4" d="M42.3,151.8c-0.6,0.8-1.4,1.2-2.4,1.2c-1,0-1.8-0.4-2.4-1.2s-0.9-1.8-0.9-3.2c0-1.3,0.3-2.4,0.9-3.2
		s1.4-1.2,2.4-1.2c1,0,1.8,0.4,2.4,1.2c0.6,0.8,0.9,1.8,0.9,3.2C43.2,149.9,42.9,151,42.3,151.8z M38.4,151c0.4,0.6,0.9,0.9,1.6,0.9
		c0.7,0,1.2-0.3,1.6-0.9c0.4-0.6,0.6-1.4,0.6-2.4s-0.2-1.8-0.6-2.4c-0.4-0.6-0.9-0.9-1.6-0.9c-0.7,0-1.2,0.3-1.6,0.9
		c-0.4,0.6-0.6,1.4-0.6,2.4C37.8,149.7,38,150.5,38.4,151z"/>
	<path class="st4" d="M49.9,151.8c-0.6,0.8-1.4,1.2-2.4,1.2c-1,0-1.8-0.4-2.4-1.2c-0.6-0.8-0.9-1.8-0.9-3.2c0-1.3,0.3-2.4,0.9-3.2
		c0.6-0.8,1.4-1.2,2.4-1.2c1,0,1.8,0.4,2.4,1.2c0.6,0.8,0.9,1.8,0.9,3.2C50.8,149.9,50.5,151,49.9,151.8z M45.9,151
		c0.4,0.6,0.9,0.9,1.6,0.9s1.2-0.3,1.6-0.9c0.4-0.6,0.6-1.4,0.6-2.4s-0.2-1.8-0.6-2.4c-0.4-0.6-0.9-0.9-1.6-0.9s-1.2,0.3-1.6,0.9
		s-0.6,1.4-0.6,2.4C45.4,149.7,45.6,150.5,45.9,151z"/>
	<path class="st4" d="M57.5,151.8c-0.6,0.8-1.4,1.2-2.4,1.2c-1,0-1.8-0.4-2.4-1.2s-0.9-1.8-0.9-3.2c0-1.3,0.3-2.4,0.9-3.2
		s1.4-1.2,2.4-1.2c1,0,1.8,0.4,2.4,1.2c0.6,0.8,0.9,1.8,0.9,3.2C58.3,149.9,58,151,57.5,151.8z M53.5,151c0.4,0.6,0.9,0.9,1.6,0.9
		c0.7,0,1.2-0.3,1.6-0.9c0.4-0.6,0.6-1.4,0.6-2.4s-0.2-1.8-0.6-2.4c-0.4-0.6-0.9-0.9-1.6-0.9c-0.7,0-1.2,0.3-1.6,0.9
		c-0.4,0.6-0.6,1.4-0.6,2.4C53,149.7,53.1,150.5,53.5,151z"/>
	<path class="st4" d="M17.1,194.8l-1.9-3.2h-2v3.2h-1.1v-8.4h3.4c0.7,0,1.3,0.3,1.8,0.8c0.5,0.5,0.8,1.1,0.8,1.8
		c0,0.5-0.2,1-0.5,1.5c-0.3,0.4-0.7,0.8-1.3,0.9l2,3.4H17.1z M13.3,187.5v3.1h2.2c0.4,0,0.8-0.2,1.1-0.5c0.3-0.3,0.4-0.7,0.4-1.1
		s-0.1-0.8-0.4-1.1c-0.3-0.3-0.6-0.5-1.1-0.5H13.3z"/>
	<path class="st4" d="M24.8,192.6c0,0.7-0.2,1.2-0.6,1.6c-0.4,0.4-1,0.7-1.7,0.8v1.1h-0.8V195c-0.7,0-1.2-0.2-1.7-0.5
		c-0.5-0.3-0.8-0.7-1-1.3l1-0.6c0.3,0.7,0.8,1.2,1.7,1.3V191c-0.4-0.1-0.7-0.2-0.9-0.4s-0.5-0.3-0.7-0.4c-0.2-0.2-0.4-0.4-0.5-0.7
		c-0.1-0.3-0.2-0.6-0.2-0.9c0-0.6,0.2-1.2,0.6-1.6c0.4-0.4,1-0.6,1.6-0.7v-1.1h0.8v1.1c0.5,0.1,0.9,0.2,1.3,0.5
		c0.4,0.3,0.7,0.6,0.9,1.1l-0.9,0.5c-0.2-0.6-0.6-0.9-1.2-1v2.8c0.4,0.1,0.7,0.3,0.9,0.4c0.2,0.1,0.5,0.3,0.7,0.4
		c0.3,0.2,0.4,0.4,0.6,0.7C24.7,191.9,24.8,192.2,24.8,192.6z M20.5,188.6c0,0.3,0.1,0.6,0.3,0.7c0.2,0.2,0.5,0.4,0.9,0.5v-2.5
		c-0.4,0-0.6,0.2-0.8,0.4S20.5,188.2,20.5,188.6z M22.4,193.9c0.4-0.1,0.7-0.2,0.9-0.4c0.2-0.2,0.3-0.5,0.3-0.8
		c0-0.3-0.1-0.6-0.3-0.8c-0.2-0.2-0.5-0.4-0.9-0.6V193.9z"/>
	<path class="st4" d="M28.6,194.8v-0.9l3-3c0.8-0.8,1.2-1.5,1.2-2c0-0.5-0.1-0.8-0.4-1.1s-0.6-0.4-1.1-0.4c-0.8,0-1.4,0.4-1.7,1.1
		l-0.9-0.6c0.3-0.5,0.6-1,1.1-1.2c0.5-0.3,1-0.4,1.6-0.4c0.7,0,1.3,0.2,1.8,0.7c0.5,0.5,0.8,1.1,0.8,1.9c0,0.8-0.5,1.8-1.5,2.8
		l-2.1,2.1h3.8v1.1H28.6z"/>
	<path class="st4" d="M36,195c-0.2,0-0.4-0.1-0.6-0.2c-0.2-0.2-0.2-0.3-0.2-0.6c0-0.2,0.1-0.4,0.2-0.6c0.2-0.2,0.3-0.2,0.6-0.2
		c0.2,0,0.4,0.1,0.6,0.2c0.1,0.2,0.2,0.3,0.2,0.6c0,0.2-0.1,0.4-0.2,0.6C36.4,194.9,36.2,195,36,195z"/>
	<path class="st4" d="M40.7,189.7c0.8,0,1.5,0.2,2,0.7s0.8,1.1,0.8,1.9c0,0.8-0.3,1.5-0.8,1.9c-0.6,0.5-1.2,0.7-2,0.7
		c-0.6,0-1.2-0.2-1.7-0.5c-0.5-0.3-0.9-0.8-1.1-1.3l0.9-0.5c0.1,0.4,0.3,0.7,0.6,0.9s0.7,0.3,1.2,0.3c0.5,0,1-0.1,1.3-0.4
		c0.3-0.3,0.5-0.7,0.5-1.1c0-0.5-0.2-0.9-0.5-1.1s-0.7-0.4-1.3-0.4h-2.4l0.3-4.4h4.6v1h-3.6l-0.1,2.2H40.7z"/>
	<path class="st4" d="M49.9,193.8c-0.6,0.8-1.4,1.2-2.4,1.2c-1,0-1.8-0.4-2.4-1.2s-0.9-1.8-0.9-3.2c0-1.3,0.3-2.4,0.9-3.2
		s1.4-1.2,2.4-1.2c1,0,1.8,0.4,2.4,1.2c0.6,0.8,0.9,1.8,0.9,3.2C50.8,191.9,50.5,193,49.9,193.8z M45.9,193c0.4,0.6,0.9,0.9,1.6,0.9
		c0.7,0,1.2-0.3,1.6-0.9c0.4-0.6,0.6-1.4,0.6-2.4s-0.2-1.8-0.6-2.4c-0.4-0.6-0.9-0.9-1.6-0.9c-0.7,0-1.2,0.3-1.6,0.9
		c-0.4,0.6-0.6,1.4-0.6,2.4C45.4,191.7,45.6,192.5,45.9,193z"/>
	<path class="st4" d="M57.5,193.8c-0.6,0.8-1.4,1.2-2.4,1.2c-1,0-1.8-0.4-2.4-1.2c-0.6-0.8-0.9-1.8-0.9-3.2c0-1.3,0.3-2.4,0.9-3.2
		c0.6-0.8,1.4-1.2,2.4-1.2c1,0,1.8,0.4,2.4,1.2c0.6,0.8,0.9,1.8,0.9,3.2C58.3,191.9,58,193,57.5,193.8z M53.5,193
		c0.4,0.6,0.9,0.9,1.6,0.9s1.2-0.3,1.6-0.9c0.4-0.6,0.6-1.4,0.6-2.4s-0.2-1.8-0.6-2.4c-0.4-0.6-0.9-0.9-1.6-0.9s-1.2,0.3-1.6,0.9
		s-0.6,1.4-0.6,2.4C53,191.7,53.1,192.5,53.5,193z"/>
	<path class="st4" d="M40.2,236.8l-1.9-3.2h-2v3.2h-1.1v-8.4h3.4c0.7,0,1.3,0.3,1.8,0.8c0.5,0.5,0.8,1.1,0.8,1.8
		c0,0.5-0.2,1-0.5,1.5c-0.3,0.4-0.7,0.8-1.3,0.9l2,3.4H40.2z M36.4,229.5v3.1h2.2c0.4,0,0.8-0.2,1.1-0.5c0.3-0.3,0.4-0.7,0.4-1.1
		s-0.1-0.8-0.4-1.1c-0.3-0.3-0.6-0.5-1.1-0.5H36.4z"/>
	<path class="st4" d="M47.9,234.6c0,0.7-0.2,1.2-0.6,1.6s-1,0.7-1.7,0.8v1.1h-0.8V237c-0.7,0-1.2-0.2-1.7-0.5
		c-0.5-0.3-0.8-0.7-1-1.3l1-0.6c0.3,0.7,0.8,1.2,1.7,1.3V233c-0.4-0.1-0.7-0.2-0.9-0.4c-0.2-0.1-0.5-0.3-0.7-0.4
		c-0.2-0.2-0.4-0.4-0.5-0.7c-0.1-0.3-0.2-0.6-0.2-0.9c0-0.6,0.2-1.2,0.6-1.6c0.4-0.4,1-0.6,1.6-0.7v-1.1h0.8v1.1
		c0.5,0.1,0.9,0.2,1.3,0.5c0.4,0.3,0.7,0.6,0.9,1.1l-0.9,0.5c-0.2-0.6-0.6-0.9-1.2-1v2.8c0.4,0.1,0.7,0.3,0.9,0.4
		c0.2,0.1,0.5,0.3,0.7,0.4c0.3,0.2,0.4,0.4,0.6,0.7C47.8,233.9,47.9,234.2,47.9,234.6z M43.6,230.6c0,0.3,0.1,0.6,0.3,0.7
		c0.2,0.2,0.5,0.4,0.9,0.5v-2.5c-0.4,0-0.6,0.2-0.8,0.4S43.6,230.2,43.6,230.6z M45.6,235.9c0.4-0.1,0.7-0.2,0.9-0.4
		c0.2-0.2,0.3-0.5,0.3-0.8c0-0.3-0.1-0.6-0.3-0.8c-0.2-0.2-0.5-0.4-0.9-0.6V235.9z"/>
	<path class="st4" d="M57.5,235.8c-0.6,0.8-1.4,1.2-2.4,1.2c-1,0-1.8-0.4-2.4-1.2c-0.6-0.8-0.9-1.8-0.9-3.2c0-1.3,0.3-2.4,0.9-3.2
		c0.6-0.8,1.4-1.2,2.4-1.2c1,0,1.8,0.4,2.4,1.2c0.6,0.8,0.9,1.8,0.9,3.2C58.3,233.9,58,235,57.5,235.8z M53.5,235
		c0.4,0.6,0.9,0.9,1.6,0.9s1.2-0.3,1.6-0.9c0.4-0.6,0.6-1.4,0.6-2.4s-0.2-1.8-0.6-2.4c-0.4-0.6-0.9-0.9-1.6-0.9s-1.2,0.3-1.6,0.9
		s-0.6,1.4-0.6,2.4C53,233.7,53.1,234.5,53.5,235z"/>
</g>
<g>
	<path class="st4" d="M79.7,251.2h1v8.4h-1.1v-7.2l-1.8,0.5l-0.3-1L79.7,251.2z"/>
	<path class="st4" d="M91.9,253.4c0.7,0,1.2,0.2,1.6,0.7c0.4,0.4,0.6,1,0.6,1.8v3.7h-1v-3.7c0-0.5-0.1-0.8-0.4-1.1
		c-0.2-0.3-0.6-0.4-1-0.4c-0.4,0-0.8,0.2-1.1,0.5s-0.4,0.8-0.4,1.4v3.3h-1v-3.7c0-0.5-0.1-0.8-0.3-1.1c-0.2-0.3-0.5-0.4-0.9-0.4
		c-0.4,0-0.8,0.2-1.1,0.5s-0.4,0.8-0.4,1.4v3.3h-1v-6h1v0.8c0.4-0.6,1-1,1.8-1c0.8,0,1.4,0.3,1.8,1
		C90.4,253.8,91.1,253.4,91.9,253.4z"/>
	<path class="st4" d="M96.3,257.1c0.1,0.5,0.4,1,0.7,1.2c0.4,0.3,0.9,0.4,1.4,0.4c0.8,0,1.4-0.3,1.7-0.9l0.9,0.5
		c-0.6,0.9-1.5,1.4-2.6,1.4c-1,0-1.7-0.3-2.3-0.9c-0.6-0.6-0.9-1.3-0.9-2.3c0-0.9,0.3-1.7,0.9-2.3c0.6-0.6,1.3-0.9,2.3-0.9
		c0.9,0,1.6,0.3,2.2,0.9c0.6,0.6,0.8,1.4,0.8,2.2c0,0.2,0,0.3,0,0.5H96.3z M98.4,254.4c-0.6,0-1,0.2-1.4,0.5
		c-0.4,0.3-0.6,0.7-0.7,1.3h4c-0.1-0.6-0.3-1-0.7-1.3C99.3,254.6,98.9,254.4,98.4,254.4z M98.3,251.8l-0.7,1l-1.1,0l1.3-1.6h1.2
		l1.3,1.6l-1.1,0L98.3,251.8z"/>
	<path class="st4" d="M103.3,255.2c0,0.2,0.1,0.4,0.4,0.5c0.2,0.1,0.5,0.3,0.8,0.3c0.3,0.1,0.7,0.2,1,0.3c0.3,0.1,0.6,0.3,0.8,0.5
		s0.3,0.6,0.3,1c0,0.5-0.2,1-0.6,1.3s-1,0.5-1.6,0.5c-0.6,0-1.1-0.1-1.5-0.4c-0.4-0.3-0.7-0.6-0.9-1l0.9-0.5
		c0.1,0.3,0.3,0.5,0.5,0.7c0.3,0.2,0.6,0.3,0.9,0.3c0.3,0,0.6-0.1,0.9-0.2c0.2-0.1,0.3-0.3,0.3-0.6c0-0.2-0.1-0.4-0.3-0.6
		c-0.2-0.1-0.5-0.3-0.8-0.4c-0.3-0.1-0.7-0.2-1-0.3c-0.3-0.1-0.6-0.3-0.8-0.5c-0.2-0.3-0.3-0.6-0.3-1c0-0.5,0.2-0.9,0.6-1.3
		c0.4-0.3,0.9-0.5,1.5-0.5c0.5,0,0.9,0.1,1.3,0.3s0.7,0.5,0.9,0.9l-0.9,0.5c-0.2-0.5-0.6-0.8-1.3-0.8c-0.3,0-0.5,0.1-0.8,0.2
		C103.4,254.7,103.3,254.9,103.3,255.2z"/>
</g>
<g>
	<path class="st4" d="M164.6,254.1c0.8,0,1.5,0.3,2.1,0.8c0.5,0.5,0.8,1.2,0.8,2s-0.3,1.5-0.8,2c-0.5,0.5-1.2,0.8-2.1,0.8
		c-0.8,0-1.5-0.3-2.1-0.8c-0.5-0.5-0.8-1.2-0.8-2c0-0.6,0.2-1.2,0.5-1.7l2.7-4h1.3l-2,2.9C164.3,254.1,164.5,254.1,164.6,254.1z
		 M163.3,258.2c0.3,0.3,0.8,0.5,1.3,0.5c0.5,0,1-0.2,1.3-0.5s0.5-0.8,0.5-1.3c0-0.5-0.2-1-0.5-1.3s-0.8-0.5-1.3-0.5
		c-0.5,0-1,0.2-1.3,0.5c-0.3,0.3-0.5,0.7-0.5,1.3C162.8,257.4,162.9,257.9,163.3,258.2z"/>
	<path class="st4" d="M178.1,253.4c0.7,0,1.2,0.2,1.6,0.7c0.4,0.4,0.6,1,0.6,1.8v3.7h-1v-3.7c0-0.5-0.1-0.8-0.4-1.1
		c-0.2-0.3-0.6-0.4-1-0.4c-0.4,0-0.8,0.2-1.1,0.5c-0.3,0.3-0.4,0.8-0.4,1.4v3.3h-1v-3.7c0-0.5-0.1-0.8-0.3-1.1s-0.5-0.4-0.9-0.4
		c-0.4,0-0.8,0.2-1.1,0.5s-0.4,0.8-0.4,1.4v3.3h-1v-6h1v0.8c0.4-0.6,1-1,1.8-1c0.8,0,1.4,0.3,1.8,1
		C176.6,253.8,177.2,253.4,178.1,253.4z"/>
	<path class="st4" d="M182.5,257.1c0.1,0.5,0.4,1,0.7,1.2s0.9,0.4,1.4,0.4c0.8,0,1.4-0.3,1.7-0.9l0.9,0.5c-0.6,0.9-1.5,1.4-2.6,1.4
		c-1,0-1.7-0.3-2.3-0.9s-0.9-1.3-0.9-2.3c0-0.9,0.3-1.7,0.9-2.3c0.6-0.6,1.3-0.9,2.3-0.9c0.9,0,1.6,0.3,2.2,0.9
		c0.6,0.6,0.8,1.4,0.8,2.2c0,0.2,0,0.3,0,0.5H182.5z M184.6,254.4c-0.6,0-1,0.2-1.4,0.5c-0.4,0.3-0.6,0.7-0.7,1.3h4
		c-0.1-0.6-0.3-1-0.7-1.3C185.5,254.6,185,254.4,184.6,254.4z"/>
	<path class="st4" d="M189.4,255.2c0,0.2,0.1,0.4,0.4,0.5s0.5,0.3,0.8,0.3c0.3,0.1,0.7,0.2,1,0.3c0.3,0.1,0.6,0.3,0.8,0.5
		s0.3,0.6,0.3,1c0,0.5-0.2,1-0.6,1.3s-1,0.5-1.6,0.5c-0.6,0-1.1-0.1-1.5-0.4s-0.7-0.6-0.9-1l0.9-0.5c0.1,0.3,0.3,0.5,0.5,0.7
		c0.3,0.2,0.6,0.3,0.9,0.3c0.3,0,0.6-0.1,0.9-0.2c0.2-0.1,0.3-0.3,0.3-0.6c0-0.2-0.1-0.4-0.3-0.6s-0.5-0.3-0.8-0.4
		c-0.3-0.1-0.7-0.2-1-0.3c-0.3-0.1-0.6-0.3-0.8-0.5c-0.2-0.3-0.3-0.6-0.3-1c0-0.5,0.2-0.9,0.6-1.3c0.4-0.3,0.9-0.5,1.5-0.5
		c0.5,0,0.9,0.1,1.3,0.3s0.7,0.5,0.9,0.9l-0.9,0.5c-0.2-0.5-0.6-0.8-1.3-0.8c-0.3,0-0.5,0.1-0.8,0.2
		C189.5,254.7,189.4,254.9,189.4,255.2z"/>
	<path class="st4" d="M194.6,257.1c0.1,0.5,0.4,1,0.7,1.2s0.9,0.4,1.4,0.4c0.8,0,1.4-0.3,1.7-0.9l0.9,0.5c-0.6,0.9-1.5,1.4-2.6,1.4
		c-1,0-1.7-0.3-2.3-0.9s-0.9-1.3-0.9-2.3c0-0.9,0.3-1.7,0.9-2.3c0.6-0.6,1.3-0.9,2.3-0.9c0.9,0,1.6,0.3,2.2,0.9
		c0.6,0.6,0.8,1.4,0.8,2.2c0,0.2,0,0.3,0,0.5H194.6z M196.7,254.4c-0.6,0-1,0.2-1.4,0.5c-0.4,0.3-0.6,0.7-0.7,1.3h4
		c-0.1-0.6-0.3-1-0.7-1.3C197.6,254.6,197.1,254.4,196.7,254.4z"/>
	<path class="st4" d="M201.5,255.2c0,0.2,0.1,0.4,0.4,0.5s0.5,0.3,0.8,0.3c0.3,0.1,0.7,0.2,1,0.3c0.3,0.1,0.6,0.3,0.8,0.5
		s0.3,0.6,0.3,1c0,0.5-0.2,1-0.6,1.3s-1,0.5-1.6,0.5c-0.6,0-1.1-0.1-1.5-0.4s-0.7-0.6-0.9-1l0.9-0.5c0.1,0.3,0.3,0.5,0.5,0.7
		c0.3,0.2,0.6,0.3,0.9,0.3c0.3,0,0.6-0.1,0.9-0.2c0.2-0.1,0.3-0.3,0.3-0.6c0-0.2-0.1-0.4-0.3-0.6s-0.5-0.3-0.8-0.4
		c-0.3-0.1-0.7-0.2-1-0.3c-0.3-0.1-0.6-0.3-0.8-0.5c-0.2-0.3-0.3-0.6-0.3-1c0-0.5,0.2-0.9,0.6-1.3c0.4-0.3,0.9-0.5,1.5-0.5
		c0.5,0,0.9,0.1,1.3,0.3s0.7,0.5,0.9,0.9l-0.9,0.5c-0.2-0.5-0.6-0.8-1.3-0.8c-0.3,0-0.5,0.1-0.8,0.2
		C201.6,254.7,201.5,254.9,201.5,255.2z"/>
</g>
<g>
	<path class="st4" d="M258.4,251.9h1v8.4h-1.1v-7.2l-1.8,0.5l-0.3-1L258.4,251.9z"/>
	<path class="st4" d="M269.1,254.3h1v6h-1v-1c-0.5,0.8-1.3,1.2-2.3,1.2c-0.8,0-1.6-0.3-2.1-0.9c-0.6-0.6-0.9-1.4-0.9-2.2
		s0.3-1.6,0.9-2.2s1.3-0.9,2.1-0.9c1,0,1.7,0.4,2.3,1.2V254.3z M266.9,259.4c0.6,0,1.1-0.2,1.5-0.6c0.4-0.4,0.6-0.9,0.6-1.5
		c0-0.6-0.2-1.1-0.6-1.5c-0.4-0.4-0.9-0.6-1.5-0.6c-0.6,0-1.1,0.2-1.5,0.6c-0.4,0.4-0.6,0.9-0.6,1.5c0,0.6,0.2,1.1,0.6,1.5
		C265.8,259.2,266.3,259.4,266.9,259.4z"/>
	<path class="st4" d="M274.7,254.1c0.7,0,1.3,0.2,1.7,0.7c0.4,0.4,0.6,1,0.6,1.8v3.7h-1v-3.6c0-0.5-0.1-0.9-0.4-1.1
		c-0.3-0.3-0.6-0.4-1.1-0.4c-0.5,0-0.9,0.2-1.3,0.5c-0.3,0.3-0.5,0.8-0.5,1.5v3.2h-1v-6h1v0.9C273.2,254.5,273.8,254.1,274.7,254.1z
		"/>
	<path class="st4" d="M283.5,259.5c-0.6,0.6-1.4,0.9-2.2,0.9s-1.6-0.3-2.2-0.9c-0.6-0.6-0.9-1.4-0.9-2.2c0-0.9,0.3-1.6,0.9-2.2
		c0.6-0.6,1.4-0.9,2.2-0.9s1.6,0.3,2.2,0.9s0.9,1.4,0.9,2.2C284.4,258.2,284.1,258.9,283.5,259.5z M281.3,259.4
		c0.6,0,1.1-0.2,1.5-0.6c0.4-0.4,0.6-0.9,0.6-1.5c0-0.6-0.2-1.1-0.6-1.5s-0.9-0.6-1.5-0.6c-0.6,0-1.1,0.2-1.5,0.6
		c-0.4,0.4-0.6,0.9-0.6,1.5c0,0.6,0.2,1.1,0.6,1.5C280.2,259.2,280.7,259.4,281.3,259.4z"/>
</g>
<linearGradient id="SVGID_2_" gradientUnits="userSpaceOnUse" x1="59.6622" y1="209.2403" x2="100.254" y2="186.7399">
	<stop  offset="0" style="stop-color:#00EBFC"/>
	<stop  offset="1" style="stop-color:#0025FF"/>
</linearGradient>
<path class="st5" d="M82.9,158.8H77c-1.7,0-3.1,1.4-3.1,3.1v72.1c0,1.7,1.4,3.1,3.1,3.1h5.9c1.7,0,3.1-1.4,3.1-3.1v-72.1
	C86,160.2,84.6,158.8,82.9,158.8z"/>
<path class="st1" d="M97,184.2h-5.9c-1.7,0-3.1,1.4-3.1,3.1v46.7c0,1.7,1.4,3.1,3.1,3.1H97c1.7,0,3.1-1.4,3.1-3.1v-46.7
	C100.1,185.6,98.7,184.2,97,184.2z"/>
<path class="st0" d="M111.1,200.8h-5.9c-1.7,0-3.1,1.4-3.1,3.1v30.1c0,1.7,1.4,3.1,3.1,3.1h5.9c1.7,0,3.1-1.4,3.1-3.1v-30.1
	C114.3,202.2,112.8,200.8,111.1,200.8z"/>
<linearGradient id="SVGID_3_" gradientUnits="userSpaceOnUse" x1="144.2356" y1="197.3159" x2="198.0469" y2="167.4878">
	<stop  offset="0" style="stop-color:#00EBFC"/>
	<stop  offset="1" style="stop-color:#0025FF"/>
</linearGradient>
<path class="st6" d="M174.1,127.6h-5.9c-1.7,0-3.1,1.4-3.1,3.1v103.3c0,1.7,1.4,3.1,3.1,3.1h5.9c1.7,0,3.1-1.4,3.1-3.1V130.7
	C177.2,129,175.8,127.6,174.1,127.6z"/>
<path class="st1" d="M188.1,144h-5.9c-1.7,0-3.1,1.4-3.1,3.1v86.9c0,1.7,1.4,3.1,3.1,3.1h5.9c1.7,0,3.1-1.4,3.1-3.1v-86.9
	C191.3,145.4,189.9,144,188.1,144z"/>
<path class="st0" d="M202.3,190.6h-5.9c-1.7,0-3.1,1.4-3.1,3.1v40.3c0,1.7,1.4,3.1,3.1,3.1h5.9c1.7,0,3.1-1.4,3.1-3.1v-40.3
	C205.4,192,204,190.6,202.3,190.6z"/>
<linearGradient id="SVGID_4_" gradientUnits="userSpaceOnUse" x1="209.7333" y1="158.4231" x2="306.662" y2="104.6947">
	<stop  offset="0" style="stop-color:#00EBFC"/>
	<stop  offset="1" style="stop-color:#0025FF"/>
</linearGradient>
<path class="st7" d="M261.1,25.9h-5.9c-1.7,0-3.1,1.4-3.1,3.1v205c0,1.7,1.4,3.1,3.1,3.1h5.9c1.7,0,3.1-1.4,3.1-3.1v-205
	C264.3,27.3,262.9,25.9,261.1,25.9z"/>
<path class="st1" d="M275.2,87.8h-5.9c-1.7,0-3.1,1.4-3.1,3.1v143.1c0,1.7,1.4,3.1,3.1,3.1h5.9c1.7,0,3.1-1.4,3.1-3.1V91
	C278.3,89.2,276.9,87.8,275.2,87.8z"/>
<path class="st0" d="M289.3,163.6h-5.9c-1.7,0-3.1,1.4-3.1,3.1v67.3c0,1.7,1.4,3.1,3.1,3.1h5.9c1.7,0,3.1-1.4,3.1-3.1v-67.3
	C292.5,165,291.1,163.6,289.3,163.6z"/>
<polygon class="st8" points="66.8,6.5 67,65.8 67.1,125.1 67.3,243.7 66.8,243.2 181.5,243.4 238.8,243.5 296.2,243.7 238.8,243.9 
	181.5,244 66.8,244.2 66.3,244.2 66.3,243.7 66.4,125.1 66.5,65.8 "/>
</svg>
